solid ESC_case_v3
facet normal 1.06360884653674e-016 -1.76993457110864e-018 -1.0
outer loop
vertex 48.9956334786314 16.0562517114345 -1.00000000000001
vertex 51.35355957394 19.6162593347602 -1.0
vertex 55.9956334786314 -8.44374828856553 -1.0
endloop
endfacet
facet normal 1.06360884653674e-016 -1.76993457110864e-018 -1.0
outer loop
vertex 51.35355957394 19.6162593347602 -1.0
vertex 48.9956334786314 16.0562517114345 -1.00000000000001
vertex 51.2956334786314 20.0562517114345 -1.0
endloop
endfacet
facet normal 1.06360884653674e-016 -1.76993457110864e-018 -1.0
outer loop
vertex 55.9956334786314 -8.44374828856553 -1.0
vertex 51.35355957394 19.6162593347602 -1.0
vertex 51.5233902921979 19.2062517114345 -1.0
endloop
endfacet
facet normal 1.06360884653674e-016 -1.76993457110864e-018 -1.0
outer loop
vertex 55.9956334786314 -8.44374828856553 -1.0
vertex 51.5233902921979 19.2062517114345 -1.0
vertex 51.7935519506143 18.8541701834173 -1.0
endloop
endfacet
facet normal 1.06360884653674e-016 -1.76993457110864e-018 -1.0
outer loop
vertex 55.9956334786314 -8.44374828856553 -1.0
vertex 51.7935519506143 18.8541701834173 -1.0
vertex 52.1456334786314 18.5840085250009 -1.0
endloop
endfacet
facet normal 1.06360884653674e-016 -1.76993457110864e-018 -1.0
outer loop
vertex 55.9956334786314 -8.44374828856553 -1.0
vertex 52.1456334786314 18.5840085250009 -1.0
vertex 52.5556411019572 18.414177806743 -1.0
endloop
endfacet
facet normal 1.06360884653674e-016 -1.76993457110864e-018 -1.0
outer loop
vertex 55.9956334786314 -8.44374828856553 -1.0
vertex 52.5556411019572 18.414177806743 -1.0
vertex 52.9956334786314 18.3562517114345 -1.0
endloop
endfacet
facet normal 1.06360884653674e-016 -1.76993457110864e-018 -1.0
outer loop
vertex 55.9956334786314 -8.44374828856553 -1.0
vertex 52.9956334786314 18.3562517114345 -1.0
vertex 53.4356258553057 18.414177806743 -1.0
endloop
endfacet
facet normal 1.06360884653674e-016 -1.76993457110864e-018 -1.0
outer loop
vertex 55.9956334786314 -8.44374828856553 -1.0
vertex 53.4356258553057 18.414177806743 -1.0
vertex 53.8456334786314 18.5840085250009 -1.0
endloop
endfacet
facet normal 1.06360884653674e-016 -1.76993457110864e-018 -1.0
outer loop
vertex 55.9956334786314 -8.44374828856553 -1.0
vertex 53.8456334786314 18.5840085250009 -1.0
vertex 54.1977150066486 18.8541701834173 -1.0
endloop
endfacet
facet normal 1.06360884653674e-016 -1.76993457110864e-018 -1.0
outer loop
vertex 55.9956334786314 -8.44374828856553 -1.0
vertex 54.1977150066486 18.8541701834173 -1.0
vertex 54.467876665065 19.2062517114345 -1.0
endloop
endfacet
facet normal 1.06360884653674e-016 -1.76993457110864e-018 -1.0
outer loop
vertex 55.9956334786314 -8.44374828856553 -1.0
vertex 54.467876665065 19.2062517114345 -1.0
vertex 54.6377073833228 19.6162593347602 -1.0
endloop
endfacet
facet normal 1.06360884653674e-016 -1.76993457110864e-018 -1.0
outer loop
vertex 55.9956334786314 -8.44374828856553 -1.0
vertex 54.6377073833228 19.6162593347602 -1.0
vertex 54.6956334786314 20.0562517114345 -1.0
endloop
endfacet
facet normal 1.06360884653674e-016 -1.76993457110864e-018 -1.0
outer loop
vertex 55.9956334786314 -8.44374828856553 -1.0
vertex 54.6956334786314 20.0562517114345 -1.0
vertex 55.9956334786314 43.5562517114345 -1.0
endloop
endfacet
facet normal 1.06360884653674e-016 -1.76993457110864e-018 -1.0
outer loop
vertex 55.9956334786314 -8.44374828856553 -1.0
vertex 55.9956334786314 43.5562517114345 -1.0
vertex 60.4956334786314 43.5562517114345 -1.0
endloop
endfacet
facet normal 1.06360884653674e-016 -1.76993457110864e-018 -1.0
outer loop
vertex 55.9956334786314 -8.44374828856553 -1.0
vertex 60.4956334786314 43.5562517114345 -1.0
vertex 60.9956334786314 17.5562517412368 -1.0
endloop
endfacet
facet normal 1.06360884653674e-016 -1.76993457110864e-018 -1.0
outer loop
vertex 55.9956334786314 -8.44374828856553 -1.0
vertex 60.9956334786314 17.5562517412368 -1.0
vertex 83.9956334786314 -8.44374828856554 -1.0
endloop
endfacet
facet normal 1.06360884653674e-016 -1.76993457110864e-018 -1.0
outer loop
vertex 60.9956334786314 17.5562517412368 -1.0
vertex 60.4956334786314 43.5562517114345 -1.0
vertex 60.9956334786314 39.5562517412368 -1.0
endloop
endfacet
facet normal 1.06360884653674e-016 -1.76993457110864e-018 -1.0
outer loop
vertex 83.9956334786314 -8.44374828856554 -1.0
vertex 60.9956334786314 17.5562517412368 -1.0
vertex 78.9956334786314 17.5562517412368 -1.0
endloop
endfacet
facet normal 1.06360884653674e-016 -1.76993457110864e-018 -1.0
outer loop
vertex 83.9956334786314 -8.44374828856554 -1.0
vertex 78.9956334786314 17.5562517412368 -1.0
vertex 79.4956334786314 43.5562517114345 -1.0
endloop
endfacet
facet normal 1.06360884653674e-016 -1.76993457110864e-018 -1.0
outer loop
vertex 83.9956334786314 -8.44374828856554 -1.0
vertex 79.4956334786314 43.5562517114345 -1.0
vertex 83.9956334786314 43.5562517114345 -1.0
endloop
endfacet
facet normal 1.06360884653674e-016 -1.76993457110864e-018 -1.0
outer loop
vertex 83.9956334786314 -8.44374828856554 -1.0
vertex 83.9956334786314 43.5562517114345 -1.0
vertex 85.2956334786314 20.0562517412368 -1.0
endloop
endfacet
facet normal 1.06360884653674e-016 -1.76993457110864e-018 -1.0
outer loop
vertex 85.2956334786314 20.0562517412368 -1.0
vertex 83.9956334786314 43.5562517114345 -1.0
vertex 85.35355957394 20.4962441179111 -1.0
endloop
endfacet
facet normal 1.06360884653674e-016 -1.76993457110864e-018 -1.0
outer loop
vertex 85.35355957394 20.4962441179111 -1.0
vertex 83.9956334786314 43.5562517114345 -1.0
vertex 85.5233902921979 20.9062517412368 -1.0
endloop
endfacet
facet normal 1.06360884653674e-016 -1.76993457110864e-018 -1.0
outer loop
vertex 85.5233902921979 20.9062517412368 -1.0
vertex 83.9956334786314 43.5562517114345 -1.0
vertex 85.7935519506143 21.2583332692539 -1.0
endloop
endfacet
facet normal 1.06360884653674e-016 -1.76993457110864e-018 -1.0
outer loop
vertex 85.7935519506143 21.2583332692539 -1.0
vertex 83.9956334786314 43.5562517114345 -1.0
vertex 86.1456334786314 21.5284949276703 -1.0
endloop
endfacet
facet normal 1.06360884653674e-016 -1.76993457110864e-018 -1.0
outer loop
vertex 86.1456334786314 21.5284949276703 -1.0
vertex 83.9956334786314 43.5562517114345 -1.0
vertex 90.9956335084338 24.0562517114345 -1.0
endloop
endfacet
facet normal 1.06360884653674e-016 -1.76993457110864e-018 -1.0
outer loop
vertex 86.1456334786314 21.5284949276703 -1.0
vertex 90.9956335084338 24.0562517114345 -1.0
vertex 86.5556411019572 21.6983256459282 -1.0
endloop
endfacet
facet normal 1.06360884653674e-016 -1.76993457110864e-018 -1.0
outer loop
vertex 86.5556411019572 21.6983256459282 -1.0
vertex 90.9956335084338 24.0562517114345 -1.0
vertex 86.9956334786314 21.7562517412368 -1.0
endloop
endfacet
facet normal 1.06360884653674e-016 -1.76993457110864e-018 -1.0
outer loop
vertex 86.9956334786314 21.7562517412368 -1.0
vertex 90.9956335084338 24.0562517114345 -1.0
vertex 87.4356258553057 21.6983256459282 -1.0
endloop
endfacet
facet normal 1.06360884653674e-016 -1.76993457110864e-018 -1.0
outer loop
vertex 87.4356258553057 21.6983256459282 -1.0
vertex 90.9956335084338 24.0562517114345 -1.0
vertex 87.8456334786314 21.5284949276703 -1.0
endloop
endfacet
facet normal 1.06360884653674e-016 -1.76993457110864e-018 -1.0
outer loop
vertex 87.8456334786314 21.5284949276703 -1.0
vertex 90.9956335084338 24.0562517114345 -1.0
vertex 88.1977150066486 21.2583332692539 -1.0
endloop
endfacet
facet normal 1.06360884653674e-016 -1.76993457110864e-018 -1.0
outer loop
vertex 88.1977150066486 21.2583332692539 -1.0
vertex 90.9956335084338 24.0562517114345 -1.0
vertex 88.467876665065 20.9062517412368 -1.0
endloop
endfacet
facet normal 1.06360884653674e-016 -1.76993457110864e-018 -1.0
outer loop
vertex 88.467876665065 20.9062517412368 -1.0
vertex 90.9956335084338 24.0562517114345 -1.0
vertex 88.6377073833228 20.4962441179111 -1.0
endloop
endfacet
facet normal 1.06360884653674e-016 -1.76993457110864e-018 -1.0
outer loop
vertex 88.6377073833228 20.4962441179111 -1.0
vertex 90.9956335084338 24.0562517114345 -1.0
vertex 88.6956334786314 20.0562517412368 -1.0
endloop
endfacet
facet normal 1.06360884653674e-016 -1.76993457110864e-018 -1.0
outer loop
vertex 83.9956334786314 -8.44374828856554 -1.0
vertex 86.1456334786314 18.5840085548032 -1.0
vertex 90.9956335084338 16.0562517114345 -1.0
endloop
endfacet
facet normal 1.06360884653674e-016 -1.76993457110864e-018 -1.0
outer loop
vertex 86.1456334786314 18.5840085548032 -1.0
vertex 83.9956334786314 -8.44374828856554 -1.0
vertex 85.7935519506143 18.8541702132197 -1.0
endloop
endfacet
facet normal 1.06360884653674e-016 -1.76993457110864e-018 -1.0
outer loop
vertex 85.7935519506143 18.8541702132197 -1.0
vertex 83.9956334786314 -8.44374828856554 -1.0
vertex 85.5233902921979 19.2062517412368 -1.0
endloop
endfacet
facet normal 1.06360884653674e-016 -1.76993457110864e-018 -1.0
outer loop
vertex 85.5233902921979 19.2062517412368 -1.0
vertex 83.9956334786314 -8.44374828856554 -1.0
vertex 85.35355957394 19.6162593645625 -1.0
endloop
endfacet
facet normal 1.06360884653674e-016 -1.76993457110864e-018 -1.0
outer loop
vertex 85.35355957394 19.6162593645625 -1.0
vertex 83.9956334786314 -8.44374828856554 -1.0
vertex 85.2956334786314 20.0562517412368 -1.0
endloop
endfacet
facet normal 1.06360884653674e-016 -1.76993457110864e-018 -1.0
outer loop
vertex 90.9956335084338 16.0562517114345 -1.0
vertex 86.1456334786314 18.5840085548032 -1.0
vertex 86.5556411019572 18.4141778365454 -1.0
endloop
endfacet
facet normal 1.06360884653674e-016 -1.76993457110864e-018 -1.0
outer loop
vertex 90.9956335084338 16.0562517114345 -1.0
vertex 86.5556411019572 18.4141778365454 -1.0
vertex 86.9956334786314 18.3562517412368 -1.0
endloop
endfacet
facet normal 1.06360884653674e-016 -1.76993457110864e-018 -1.0
outer loop
vertex 90.9956335084338 16.0562517114345 -1.0
vertex 86.9956334786314 18.3562517412368 -1.0
vertex 87.4356258553057 18.4141778365454 -1.0
endloop
endfacet
facet normal 1.06360884653674e-016 -1.76993457110864e-018 -1.0
outer loop
vertex 90.9956335084338 16.0562517114345 -1.0
vertex 87.4356258553057 18.4141778365454 -1.0
vertex 87.8456334786314 18.5840085548032 -1.0
endloop
endfacet
facet normal 1.06360884653674e-016 -1.76993457110864e-018 -1.0
outer loop
vertex 90.9956335084338 16.0562517114345 -1.0
vertex 87.8456334786314 18.5840085548032 -1.0
vertex 88.1977150066486 18.8541702132197 -1.0
endloop
endfacet
facet normal 1.06360884653674e-016 -1.76993457110864e-018 -1.0
outer loop
vertex 90.9956335084338 16.0562517114345 -1.0
vertex 88.1977150066486 18.8541702132197 -1.0
vertex 88.467876665065 19.2062517412368 -1.0
endloop
endfacet
facet normal 1.06360884653674e-016 -1.76993457110864e-018 -1.0
outer loop
vertex 90.9956335084338 16.0562517114345 -1.0
vertex 88.467876665065 19.2062517412368 -1.0
vertex 88.6377073833228 19.6162593645625 -1.0
endloop
endfacet
facet normal 1.06360884653674e-016 -1.76993457110864e-018 -1.0
outer loop
vertex 90.9956335084338 16.0562517114345 -1.0
vertex 88.6377073833228 19.6162593645625 -1.0
vertex 88.6956334786314 20.0562517412368 -1.0
endloop
endfacet
facet normal 1.06360884653674e-016 -1.76993457110864e-018 -1.0
outer loop
vertex 90.9956335084338 16.0562517114345 -1.0
vertex 88.6956334786314 20.0562517412368 -1.0
vertex 90.9956335084338 24.0562517114345 -1.0
endloop
endfacet
facet normal 1.06360884653674e-016 -1.76993457110864e-018 -1.0
outer loop
vertex 55.9956334786314 43.5562517114345 -1.0
vertex 48.9956334786314 16.0562517114345 -1.00000000000001
vertex 48.9956334786314 24.0562517114345 -1.00000000000001
endloop
endfacet
facet normal 1.06360884653674e-016 -1.76993457110864e-018 -1.0
outer loop
vertex 48.9956334786314 16.0562517114345 -1.00000000000001
vertex 55.9956334786314 43.5562517114345 -1.0
vertex 51.35355957394 20.4962440881088 -1.0
endloop
endfacet
facet normal 1.06360884653674e-016 -1.76993457110864e-018 -1.0
outer loop
vertex 48.9956334786314 16.0562517114345 -1.00000000000001
vertex 51.35355957394 20.4962440881088 -1.0
vertex 51.2956334786314 20.0562517114345 -1.0
endloop
endfacet
facet normal 1.06360884653674e-016 -1.76993457110864e-018 -1.0
outer loop
vertex 51.35355957394 20.4962440881088 -1.0
vertex 55.9956334786314 43.5562517114345 -1.0
vertex 51.5233902921979 20.9062517114345 -1.0
endloop
endfacet
facet normal 1.06360884653674e-016 -1.76993457110864e-018 -1.0
outer loop
vertex 51.5233902921979 20.9062517114345 -1.0
vertex 55.9956334786314 43.5562517114345 -1.0
vertex 51.7935519506143 21.2583332394516 -1.0
endloop
endfacet
facet normal 1.06360884653674e-016 -1.76993457110864e-018 -1.0
outer loop
vertex 51.7935519506143 21.2583332394516 -1.0
vertex 55.9956334786314 43.5562517114345 -1.0
vertex 52.1456334786314 21.528494897868 -1.0
endloop
endfacet
facet normal 1.06360884653674e-016 -1.76993457110864e-018 -1.0
outer loop
vertex 52.1456334786314 21.528494897868 -1.0
vertex 55.9956334786314 43.5562517114345 -1.0
vertex 52.5556411019572 21.6983256161259 -1.0
endloop
endfacet
facet normal 1.06360884653674e-016 -1.76993457110864e-018 -1.0
outer loop
vertex 52.5556411019572 21.6983256161259 -1.0
vertex 55.9956334786314 43.5562517114345 -1.0
vertex 52.9956334786314 21.7562517114345 -1.0
endloop
endfacet
facet normal 1.06360884653674e-016 -1.76993457110864e-018 -1.0
outer loop
vertex 52.9956334786314 21.7562517114345 -1.0
vertex 55.9956334786314 43.5562517114345 -1.0
vertex 53.4356258553057 21.6983256161259 -1.0
endloop
endfacet
facet normal 1.06360884653674e-016 -1.76993457110864e-018 -1.0
outer loop
vertex 53.4356258553057 21.6983256161259 -1.0
vertex 55.9956334786314 43.5562517114345 -1.0
vertex 53.8456334786314 21.528494897868 -1.0
endloop
endfacet
facet normal 1.06360884653674e-016 -1.76993457110864e-018 -1.0
outer loop
vertex 53.8456334786314 21.528494897868 -1.0
vertex 55.9956334786314 43.5562517114345 -1.0
vertex 54.1977150066486 21.2583332394516 -1.0
endloop
endfacet
facet normal 1.06360884653674e-016 -1.76993457110864e-018 -1.0
outer loop
vertex 54.1977150066486 21.2583332394516 -1.0
vertex 55.9956334786314 43.5562517114345 -1.0
vertex 54.467876665065 20.9062517114345 -1.0
endloop
endfacet
facet normal 1.06360884653674e-016 -1.76993457110864e-018 -1.0
outer loop
vertex 54.467876665065 20.9062517114345 -1.0
vertex 55.9956334786314 43.5562517114345 -1.0
vertex 54.6377073833228 20.4962440881088 -1.0
endloop
endfacet
facet normal 1.06360884653674e-016 -1.76993457110864e-018 -1.0
outer loop
vertex 54.6377073833228 20.4962440881088 -1.0
vertex 55.9956334786314 43.5562517114345 -1.0
vertex 54.6956334786314 20.0562517114345 -1.0
endloop
endfacet
facet normal 1.06360884653674e-016 -1.76993457110864e-018 -1.0
outer loop
vertex 61.1482644397317 43.5990274045654 -1.0
vertex 60.9956334786314 39.5562517412368 -1.0
vertex 60.4956334786314 43.5562517114345 -1.0
endloop
endfacet
facet normal 1.06360884653674e-016 -1.76993457110864e-018 -1.0
outer loop
vertex 60.9956334786314 39.5562517412368 -1.0
vertex 61.1482644397317 43.5990274045654 -1.0
vertex 78.9956334786314 39.5562517412368 -1.0
endloop
endfacet
facet normal 1.06360884653674e-016 -1.76993457110864e-018 -1.0
outer loop
vertex 78.9956334786314 39.5562517412368 -1.0
vertex 61.1482644397317 43.5990274045654 -1.0
vertex 61.789728704144 43.7266225799891 -1.0
endloop
endfacet
facet normal 1.06360884653674e-016 -1.76993457110864e-018 -1.0
outer loop
vertex 78.9956334786314 39.5562517412368 -1.0
vertex 61.789728704144 43.7266225799891 -1.0
vertex 62.4090506404569 43.936854048878 -1.0
endloop
endfacet
facet normal 1.06360884653674e-016 -1.76993457110864e-018 -1.0
outer loop
vertex 78.9956334786314 39.5562517412368 -1.0
vertex 62.4090506404569 43.936854048878 -1.0
vertex 62.9956334786314 44.2261246925123 -1.0
endloop
endfacet
facet normal 1.06360884653674e-016 -1.76993457110864e-018 -1.0
outer loop
vertex 78.9956334786314 39.5562517412368 -1.0
vertex 62.9956334786314 44.2261246925123 -1.0
vertex 63.539440623675 44.5894850099783 -1.0
endloop
endfacet
facet normal 1.06360884653674e-016 -1.76993457110864e-018 -1.0
outer loop
vertex 78.9956334786314 39.5562517412368 -1.0
vertex 63.539440623675 44.5894850099783 -1.0
vertex 64.0311673845642 45.0207178055017 -1.0
endloop
endfacet
facet normal 1.06360884653674e-016 -1.76993457110864e-018 -1.0
outer loop
vertex 78.9956334786314 39.5562517412368 -1.0
vertex 64.0311673845642 45.0207178055017 -1.0
vertex 64.4624001800876 45.5124445663909 -1.0
endloop
endfacet
facet normal 1.06360884653674e-016 -1.76993457110864e-018 -1.0
outer loop
vertex 78.9956334786314 39.5562517412368 -1.0
vertex 64.4624001800876 45.5124445663909 -1.0
vertex 64.8257604975536 46.0562517114345 -1.0
endloop
endfacet
facet normal 1.06360884653674e-016 -1.76993457110864e-018 -1.0
outer loop
vertex 78.9956334786314 39.5562517412368 -1.0
vertex 64.8257604975536 46.0562517114345 -1.0
vertex 65.1150311411879 46.642834549609 -1.0
endloop
endfacet
facet normal 1.06360884653674e-016 -1.76993457110864e-018 -1.0
outer loop
vertex 78.9956334786314 39.5562517412368 -1.0
vertex 65.1150311411879 46.642834549609 -1.0
vertex 65.3252626100768 47.2621564859219 -1.0
endloop
endfacet
facet normal 1.06360884653674e-016 -1.76993457110864e-018 -1.0
outer loop
vertex 78.9956334786314 39.5562517412368 -1.0
vertex 65.3252626100768 47.2621564859219 -1.0
vertex 65.4528577855005 47.9036207503342 -1.0
endloop
endfacet
facet normal 1.06360884653674e-016 -1.76993457110864e-018 -1.0
outer loop
vertex 78.9956334786314 39.5562517412368 -1.0
vertex 65.4528577855005 47.9036207503342 -1.0
vertex 65.4956334786314 48.5562517114345 -1.0
endloop
endfacet
facet normal 1.06360884653674e-016 -1.76993457110864e-018 -1.0
outer loop
vertex 78.9956334786314 39.5562517412368 -1.0
vertex 65.4956334786314 48.5562517114345 -1.0
vertex 75.1655064597092 46.0562517114345 -1.0
endloop
endfacet
facet normal 1.06360884653674e-016 -1.76993457110864e-018 -1.0
outer loop
vertex 75.1655064597092 46.0562517114345 -1.0
vertex 65.4956334786314 48.5562517114345 -1.0
vertex 74.876235816075 46.642834549609 -1.0
endloop
endfacet
facet normal 1.06360884653674e-016 -1.76993457110864e-018 -1.0
outer loop
vertex 74.876235816075 46.642834549609 -1.0
vertex 65.4956334786314 48.5562517114345 -1.0
vertex 74.6660043471861 47.2621564859219 -1.0
endloop
endfacet
facet normal 1.06360884653674e-016 -1.76993457110864e-018 -1.0
outer loop
vertex 74.6660043471861 47.2621564859219 -1.0
vertex 65.4956334786314 48.5562517114345 -1.0
vertex 74.5384091717624 47.9036207503342 -1.0
endloop
endfacet
facet normal 1.06360884653674e-016 -1.76993457110864e-018 -1.0
outer loop
vertex 74.5384091717624 47.9036207503342 -1.0
vertex 65.4956334786314 48.5562517114345 -1.0
vertex 74.4956334786314 48.5562517114345 -1.0
endloop
endfacet
facet normal 1.06360884653674e-016 -1.76993457110864e-018 -1.0
outer loop
vertex 78.9956334786314 39.5562517412368 -1.0
vertex 75.1655064597092 46.0562517114345 -1.0
vertex 75.5288667771753 45.5124445663909 -1.0
endloop
endfacet
facet normal 1.06360884653674e-016 -1.76993457110864e-018 -1.0
outer loop
vertex 78.9956334786314 39.5562517412368 -1.0
vertex 75.5288667771753 45.5124445663909 -1.0
vertex 75.9600995726987 45.0207178055017 -1.0
endloop
endfacet
facet normal 1.06360884653674e-016 -1.76993457110864e-018 -1.0
outer loop
vertex 78.9956334786314 39.5562517412368 -1.0
vertex 75.9600995726987 45.0207178055017 -1.0
vertex 76.4518263335878 44.5894850099783 -1.0
endloop
endfacet
facet normal 1.06360884653674e-016 -1.76993457110864e-018 -1.0
outer loop
vertex 78.9956334786314 39.5562517412368 -1.0
vertex 76.4518263335878 44.5894850099783 -1.0
vertex 76.9956334786314 44.2261246925123 -1.0
endloop
endfacet
facet normal 1.06360884653674e-016 -1.76993457110864e-018 -1.0
outer loop
vertex 78.9956334786314 39.5562517412368 -1.0
vertex 76.9956334786314 44.2261246925123 -1.0
vertex 77.582216316806 43.936854048878 -1.0
endloop
endfacet
facet normal 1.06360884653674e-016 -1.76993457110864e-018 -1.0
outer loop
vertex 78.9956334786314 39.5562517412368 -1.0
vertex 77.582216316806 43.936854048878 -1.0
vertex 78.2015382531188 43.7266225799891 -1.0
endloop
endfacet
facet normal 1.06360884653674e-016 -1.76993457110864e-018 -1.0
outer loop
vertex 78.9956334786314 39.5562517412368 -1.0
vertex 78.2015382531188 43.7266225799891 -1.0
vertex 78.8430025175312 43.5990274045654 -1.0
endloop
endfacet
facet normal 1.06360884653674e-016 -1.76993457110864e-018 -1.0
outer loop
vertex 78.9956334786314 39.5562517412368 -1.0
vertex 78.8430025175312 43.5990274045654 -1.0
vertex 79.4956334786314 43.5562517114345 -1.0
endloop
endfacet
facet normal 1.06360884653674e-016 -1.76993457110864e-018 -1.0
outer loop
vertex 78.9956334786314 39.5562517412368 -1.0
vertex 79.4956334786314 43.5562517114345 -1.0
vertex 78.9956334786314 17.5562517412368 -1.0
endloop
endfacet
facet normal 0.965925826289068 -0.258819045102523 1.03194818169524e-016
outer loop
vertex 85.35355957394 20.4962441179111 -1.0
vertex 85.2956334786314 20.0562517412368 0.999999999999999
vertex 85.2956334786314 20.0562517412368 -1.0
endloop
endfacet
facet normal 1.0 0.0 1.06360884653674e-016
outer loop
vertex 85.2956334786314 20.0562517412368 0.999999999999999
vertex 85.35355957394 20.4962441179111 -1.0
vertex 85.35355957394 20.4962441179111 0.999999999999999
endloop
endfacet
facet normal 0.86602540378444 -0.499999999999997 9.29961953646222e-017
outer loop
vertex 85.5233902921979 20.9062517412368 -1.0
vertex 85.35355957394 20.4962441179111 0.999999999999999
vertex 85.35355957394 20.4962441179111 -1.0
endloop
endfacet
facet normal 0.965925826289068 -0.258819045102523 1.03194818169524e-016
outer loop
vertex 85.35355957394 20.4962441179111 0.999999999999999
vertex 85.5233902921979 20.9062517412368 -1.0
vertex 85.5233902921979 20.9062517412368 0.999999999999999
endloop
endfacet
facet normal 0.707106781186543 -0.707106781186552 7.64600355290997e-017
outer loop
vertex 85.7935519506143 21.2583332692539 -1.0
vertex 85.5233902921979 20.9062517412368 0.999999999999999
vertex 85.5233902921979 20.9062517412368 -1.0
endloop
endfacet
facet normal 0.86602540378444 -0.499999999999997 9.29961953646222e-017
outer loop
vertex 85.5233902921979 20.9062517412368 0.999999999999999
vertex 85.7935519506143 21.2583332692539 -1.0
vertex 85.7935519506143 21.2583332692539 0.999999999999999
endloop
endfacet
facet normal 0.499999999999998 -0.86602540378444 5.47132506284529e-017
outer loop
vertex 86.1456334786314 21.5284949276703 0.999999999999999
vertex 85.7935519506143 21.2583332692539 -1.0
vertex 86.1456334786314 21.5284949276703 -1.0
endloop
endfacet
facet normal 0.707106781186543 -0.707106781186552 7.64600355290997e-017
outer loop
vertex 85.7935519506143 21.2583332692539 -1.0
vertex 86.1456334786314 21.5284949276703 0.999999999999999
vertex 85.7935519506143 21.2583332692539 0.999999999999999
endloop
endfacet
facet normal 0.258819045102512 -0.965925826289071 2.92378481153979e-017
outer loop
vertex 86.5556411019572 21.6983256459282 0.999999999999999
vertex 86.1456334786314 21.5284949276703 -1.0
vertex 86.5556411019572 21.6983256459282 -1.0
endloop
endfacet
facet normal 0.499999999999998 -0.86602540378444 5.47132506284529e-017
outer loop
vertex 86.1456334786314 21.5284949276703 -1.0
vertex 86.5556411019572 21.6983256459282 0.999999999999999
vertex 86.1456334786314 21.5284949276703 0.999999999999999
endloop
endfacet
facet normal 0.0 -1.0 1.76993457110864e-018
outer loop
vertex 86.9956334786314 21.7562517412368 0.999999999999999
vertex 86.5556411019572 21.6983256459282 -1.0
vertex 86.9956334786314 21.7562517412368 -1.0
endloop
endfacet
facet normal 0.258819045102512 -0.965925826289071 2.92378481153979e-017
outer loop
vertex 86.5556411019572 21.6983256459282 -1.0
vertex 86.9956334786314 21.7562517412368 0.999999999999999
vertex 86.5556411019572 21.6983256459282 0.999999999999999
endloop
endfacet
facet normal -0.258819045102521 -0.965925826289068 -2.58185970892475e-017
outer loop
vertex 87.4356258553057 21.6983256459282 0.999999999999999
vertex 86.9956334786314 21.7562517412368 -1.0
vertex 87.4356258553057 21.6983256459282 -1.0
endloop
endfacet
facet normal 0.0 -1.0 1.76993457110864e-018
outer loop
vertex 86.9956334786314 21.7562517412368 -1.0
vertex 87.4356258553057 21.6983256459282 0.999999999999999
vertex 86.9956334786314 21.7562517412368 0.999999999999999
endloop
endfacet
facet normal -0.500000000000011 -0.866025403784433 -5.16476340252215e-017
outer loop
vertex 87.8456334786314 21.5284949276703 0.999999999999999
vertex 87.4356258553057 21.6983256459282 -1.0
vertex 87.8456334786314 21.5284949276703 -1.0
endloop
endfacet
facet normal -0.258819045102521 -0.965925826289068 -2.58185970892475e-017
outer loop
vertex 87.4356258553057 21.6983256459282 -1.0
vertex 87.8456334786314 21.5284949276703 0.999999999999999
vertex 87.4356258553057 21.6983256459282 0.999999999999999
endloop
endfacet
facet normal -0.707106781186544 -0.707106781186551 -7.39569700541249e-017
outer loop
vertex 88.1977150066486 21.2583332692539 0.999999999999999
vertex 87.8456334786314 21.5284949276703 -1.0
vertex 88.1977150066486 21.2583332692539 -1.0
endloop
endfacet
facet normal -0.500000000000011 -0.866025403784433 -5.16476340252215e-017
outer loop
vertex 87.8456334786314 21.5284949276703 -1.0
vertex 88.1977150066486 21.2583332692539 0.999999999999999
vertex 87.8456334786314 21.5284949276703 0.999999999999999
endloop
endfacet
facet normal -0.707106781186544 -0.707106781186551 -7.39569700541249e-017
outer loop
vertex 88.1977150066486 21.2583332692539 0.999999999999999
vertex 88.467876665065 20.9062517412368 -1.0
vertex 88.467876665065 20.9062517412368 0.999999999999999
endloop
endfacet
facet normal -0.866025403784438 -0.500000000000001 -9.12262607935134e-017
outer loop
vertex 88.467876665065 20.9062517412368 -1.0
vertex 88.1977150066486 21.2583332692539 0.999999999999999
vertex 88.1977150066486 21.2583332692539 -1.0
endloop
endfacet
facet normal -0.866025403784438 -0.500000000000001 -9.12262607935134e-017
outer loop
vertex 88.467876665065 20.9062517412368 0.999999999999999
vertex 88.6377073833228 20.4962441179111 -1.0
vertex 88.6377073833228 20.4962441179111 0.999999999999999
endloop
endfacet
facet normal -0.965925826289068 -0.258819045102523 -1.02278632618348e-016
outer loop
vertex 88.6377073833228 20.4962441179111 -1.0
vertex 88.467876665065 20.9062517412368 0.999999999999999
vertex 88.467876665065 20.9062517412368 -1.0
endloop
endfacet
facet normal -0.965925826289068 -0.258819045102523 -1.02278632618348e-016
outer loop
vertex 88.6377073833228 20.4962441179111 0.999999999999999
vertex 88.6956334786314 20.0562517412368 -1.0
vertex 88.6956334786314 20.0562517412368 0.999999999999999
endloop
endfacet
facet normal -1.0 0.0 -1.06360884653674e-016
outer loop
vertex 88.6956334786314 20.0562517412368 -1.0
vertex 88.6377073833228 20.4962441179111 0.999999999999999
vertex 88.6377073833228 20.4962441179111 -1.0
endloop
endfacet
facet normal -1.0 0.0 -1.06360884653674e-016
outer loop
vertex 88.6956334786314 20.0562517412368 0.999999999999999
vertex 88.6377073833228 19.6162593645625 -1.0
vertex 88.6377073833228 19.6162593645625 0.999999999999999
endloop
endfacet
facet normal -0.965925826289068 0.258819045102521 -1.03194818169524e-016
outer loop
vertex 88.6377073833228 19.6162593645625 -1.0
vertex 88.6956334786314 20.0562517412368 0.999999999999999
vertex 88.6956334786314 20.0562517412368 -1.0
endloop
endfacet
facet normal -0.965925826289068 0.258819045102521 -1.03194818169524e-016
outer loop
vertex 88.6377073833228 19.6162593645625 0.999999999999999
vertex 88.467876665065 19.2062517412368 -1.0
vertex 88.467876665065 19.2062517412368 0.999999999999999
endloop
endfacet
facet normal -0.866025403784442 0.499999999999995 -9.29961953646223e-017
outer loop
vertex 88.467876665065 19.2062517412368 -1.0
vertex 88.6377073833228 19.6162593645625 0.999999999999999
vertex 88.6377073833228 19.6162593645625 -1.0
endloop
endfacet
facet normal -0.866025403784442 0.499999999999995 -9.29961953646223e-017
outer loop
vertex 88.467876665065 19.2062517412368 0.999999999999999
vertex 88.1977150066486 18.8541702132197 -1.0
vertex 88.1977150066486 18.8541702132197 0.999999999999999
endloop
endfacet
facet normal -0.707106781186543 0.707106781186552 -7.64600355290997e-017
outer loop
vertex 88.1977150066486 18.8541702132197 -1.0
vertex 88.467876665065 19.2062517412368 0.999999999999999
vertex 88.467876665065 19.2062517412368 -1.0
endloop
endfacet
facet normal -0.500000000000006 0.866025403784435 -5.47132506284538e-017
outer loop
vertex 87.8456334786314 18.5840085548032 0.999999999999999
vertex 88.1977150066486 18.8541702132197 -1.0
vertex 87.8456334786314 18.5840085548032 -1.0
endloop
endfacet
facet normal -0.707106781186543 0.707106781186552 -7.64600355290997e-017
outer loop
vertex 88.1977150066486 18.8541702132197 -1.0
vertex 87.8456334786314 18.5840085548032 0.999999999999999
vertex 88.1977150066486 18.8541702132197 0.999999999999999
endloop
endfacet
facet normal -0.258819045102527 0.965925826289067 -2.92378481153995e-017
outer loop
vertex 87.4356258553057 18.4141778365454 0.999999999999999
vertex 87.8456334786314 18.5840085548032 -1.0
vertex 87.4356258553057 18.4141778365454 -1.0
endloop
endfacet
facet normal -0.500000000000006 0.866025403784435 -5.47132506284538e-017
outer loop
vertex 87.8456334786314 18.5840085548032 -1.0
vertex 87.4356258553057 18.4141778365454 0.999999999999999
vertex 87.8456334786314 18.5840085548032 0.999999999999999
endloop
endfacet
facet normal 0.0 1.0 -1.76993457110864e-018
outer loop
vertex 86.9956334786314 18.3562517412368 0.999999999999999
vertex 87.4356258553057 18.4141778365454 -1.0
vertex 86.9956334786314 18.3562517412368 -1.0
endloop
endfacet
facet normal -0.258819045102527 0.965925826289067 -2.92378481153995e-017
outer loop
vertex 87.4356258553057 18.4141778365454 -1.0
vertex 86.9956334786314 18.3562517412368 0.999999999999999
vertex 87.4356258553057 18.4141778365454 0.999999999999999
endloop
endfacet
facet normal 0.258819045102518 0.965925826289069 2.58185970892471e-017
outer loop
vertex 86.5556411019572 18.4141778365454 0.999999999999999
vertex 86.9956334786314 18.3562517412368 -1.0
vertex 86.5556411019572 18.4141778365454 -1.0
endloop
endfacet
facet normal 0.0 1.0 -1.76993457110864e-018
outer loop
vertex 86.9956334786314 18.3562517412368 -1.0
vertex 86.5556411019572 18.4141778365454 0.999999999999999
vertex 86.9956334786314 18.3562517412368 0.999999999999999
endloop
endfacet
facet normal 0.500000000000002 0.866025403784438 5.16476340252206e-017
outer loop
vertex 86.1456334786314 18.5840085548032 0.999999999999999
vertex 86.5556411019572 18.4141778365454 -1.0
vertex 86.1456334786314 18.5840085548032 -1.0
endloop
endfacet
facet normal 0.258819045102518 0.965925826289069 2.58185970892471e-017
outer loop
vertex 86.5556411019572 18.4141778365454 -1.0
vertex 86.1456334786314 18.5840085548032 0.999999999999999
vertex 86.5556411019572 18.4141778365454 0.999999999999999
endloop
endfacet
facet normal 0.707106781186547 0.707106781186548 7.39569700541252e-017
outer loop
vertex 85.7935519506143 18.8541702132197 0.999999999999999
vertex 86.1456334786314 18.5840085548032 -1.0
vertex 85.7935519506143 18.8541702132197 -1.0
endloop
endfacet
facet normal 0.500000000000002 0.866025403784438 5.16476340252206e-017
outer loop
vertex 86.1456334786314 18.5840085548032 -1.0
vertex 85.7935519506143 18.8541702132197 0.999999999999999
vertex 86.1456334786314 18.5840085548032 0.999999999999999
endloop
endfacet
facet normal 0.86602540378444 0.499999999999997 9.12262607935136e-017
outer loop
vertex 85.5233902921979 19.2062517412368 -1.0
vertex 85.7935519506143 18.8541702132197 0.999999999999999
vertex 85.7935519506143 18.8541702132197 -1.0
endloop
endfacet
facet normal 0.707106781186547 0.707106781186548 7.39569700541252e-017
outer loop
vertex 85.7935519506143 18.8541702132197 0.999999999999999
vertex 85.5233902921979 19.2062517412368 -1.0
vertex 85.5233902921979 19.2062517412368 0.999999999999999
endloop
endfacet
facet normal 0.965925826289068 0.258819045102523 1.02278632618348e-016
outer loop
vertex 85.35355957394 19.6162593645625 -1.0
vertex 85.5233902921979 19.2062517412368 0.999999999999999
vertex 85.5233902921979 19.2062517412368 -1.0
endloop
endfacet
facet normal 0.86602540378444 0.499999999999997 9.12262607935136e-017
outer loop
vertex 85.5233902921979 19.2062517412368 0.999999999999999
vertex 85.35355957394 19.6162593645625 -1.0
vertex 85.35355957394 19.6162593645625 0.999999999999999
endloop
endfacet
facet normal 1.0 0.0 1.06360884653674e-016
outer loop
vertex 85.2956334786314 20.0562517412368 -1.0
vertex 85.35355957394 19.6162593645625 0.999999999999999
vertex 85.35355957394 19.6162593645625 -1.0
endloop
endfacet
facet normal 0.965925826289068 0.258819045102523 1.02278632618348e-016
outer loop
vertex 85.35355957394 19.6162593645625 0.999999999999999
vertex 85.2956334786314 20.0562517412368 -1.0
vertex 85.2956334786314 20.0562517412368 0.999999999999999
endloop
endfacet
facet normal 0.965925826289068 -0.258819045102523 1.03194818169524e-016
outer loop
vertex 51.35355957394 20.4962440881088 -1.0
vertex 51.2956334786314 20.0562517114345 1.0
vertex 51.2956334786314 20.0562517114345 -1.0
endloop
endfacet
facet normal 1.0 0.0 1.06360884653674e-016
outer loop
vertex 51.2956334786314 20.0562517114345 1.0
vertex 51.35355957394 20.4962440881088 -1.0
vertex 51.35355957394 20.4962440881088 1.0
endloop
endfacet
facet normal 0.866025403784443 -0.499999999999993 9.29961953646225e-017
outer loop
vertex 51.5233902921979 20.9062517114345 -1.0
vertex 51.35355957394 20.4962440881088 1.0
vertex 51.35355957394 20.4962440881088 -1.0
endloop
endfacet
facet normal 0.965925826289068 -0.258819045102523 1.03194818169524e-016
outer loop
vertex 51.35355957394 20.4962440881088 1.0
vertex 51.5233902921979 20.9062517114345 -1.0
vertex 51.5233902921979 20.9062517114345 1.0
endloop
endfacet
facet normal 0.707106781186549 -0.707106781186546 7.64600355291003e-017
outer loop
vertex 51.7935519506143 21.2583332394516 -1.0
vertex 51.5233902921979 20.9062517114345 1.0
vertex 51.5233902921979 20.9062517114345 -1.0
endloop
endfacet
facet normal 0.866025403784443 -0.499999999999993 9.29961953646225e-017
outer loop
vertex 51.5233902921979 20.9062517114345 1.0
vertex 51.7935519506143 21.2583332394516 -1.0
vertex 51.7935519506143 21.2583332394516 1.0
endloop
endfacet
facet normal 0.499999999999995 -0.866025403784441 5.47132506284527e-017
outer loop
vertex 52.1456334786314 21.528494897868 1.0
vertex 51.7935519506143 21.2583332394516 -1.0
vertex 52.1456334786314 21.528494897868 -1.0
endloop
endfacet
facet normal 0.707106781186549 -0.707106781186546 7.64600355291003e-017
outer loop
vertex 51.7935519506143 21.2583332394516 -1.0
vertex 52.1456334786314 21.528494897868 1.0
vertex 51.7935519506143 21.2583332394516 1.0
endloop
endfacet
facet normal 0.258819045102523 -0.965925826289068 2.9237848115399e-017
outer loop
vertex 52.5556411019572 21.6983256161259 1.0
vertex 52.1456334786314 21.528494897868 -1.0
vertex 52.5556411019572 21.6983256161259 -1.0
endloop
endfacet
facet normal 0.499999999999995 -0.866025403784441 5.47132506284527e-017
outer loop
vertex 52.1456334786314 21.528494897868 -1.0
vertex 52.5556411019572 21.6983256161259 1.0
vertex 52.1456334786314 21.528494897868 1.0
endloop
endfacet
facet normal 0.0 -1.0 1.76993457110864e-018
outer loop
vertex 52.9956334786314 21.7562517114345 1.0
vertex 52.5556411019572 21.6983256161259 -1.0
vertex 52.9956334786314 21.7562517114345 -1.0
endloop
endfacet
facet normal 0.258819045102523 -0.965925826289068 2.9237848115399e-017
outer loop
vertex 52.5556411019572 21.6983256161259 -1.0
vertex 52.9956334786314 21.7562517114345 1.0
vertex 52.5556411019572 21.6983256161259 1.0
endloop
endfacet
facet normal -0.258819045102523 -0.965925826289068 -2.58185970892476e-017
outer loop
vertex 53.4356258553057 21.6983256161259 1.0
vertex 52.9956334786314 21.7562517114345 -1.0
vertex 53.4356258553057 21.6983256161259 -1.0
endloop
endfacet
facet normal 0.0 -1.0 1.76993457110864e-018
outer loop
vertex 52.9956334786314 21.7562517114345 -1.0
vertex 53.4356258553057 21.6983256161259 1.0
vertex 52.9956334786314 21.7562517114345 1.0
endloop
endfacet
facet normal -0.500000000000002 -0.866025403784438 -5.16476340252206e-017
outer loop
vertex 53.8456334786314 21.528494897868 1.0
vertex 53.4356258553057 21.6983256161259 -1.0
vertex 53.8456334786314 21.528494897868 -1.0
endloop
endfacet
facet normal -0.258819045102523 -0.965925826289068 -2.58185970892476e-017
outer loop
vertex 53.4356258553057 21.6983256161259 -1.0
vertex 53.8456334786314 21.528494897868 1.0
vertex 53.4356258553057 21.6983256161259 1.0
endloop
endfacet
facet normal -0.707106781186548 -0.707106781186548 -7.39569700541253e-017
outer loop
vertex 54.1977150066486 21.2583332394516 1.0
vertex 53.8456334786314 21.528494897868 -1.0
vertex 54.1977150066486 21.2583332394516 -1.0
endloop
endfacet
facet normal -0.500000000000002 -0.866025403784438 -5.16476340252206e-017
outer loop
vertex 53.8456334786314 21.528494897868 -1.0
vertex 54.1977150066486 21.2583332394516 1.0
vertex 53.8456334786314 21.528494897868 1.0
endloop
endfacet
facet normal -0.707106781186548 -0.707106781186548 -7.39569700541253e-017
outer loop
vertex 54.1977150066486 21.2583332394516 1.0
vertex 54.467876665065 20.9062517114345 -1.0
vertex 54.467876665065 20.9062517114345 1.0
endloop
endfacet
facet normal -0.866025403784438 -0.500000000000002 -9.12262607935133e-017
outer loop
vertex 54.467876665065 20.9062517114345 -1.0
vertex 54.1977150066486 21.2583332394516 1.0
vertex 54.1977150066486 21.2583332394516 -1.0
endloop
endfacet
facet normal -0.866025403784438 -0.500000000000002 -9.12262607935133e-017
outer loop
vertex 54.467876665065 20.9062517114345 1.0
vertex 54.6377073833228 20.4962440881088 -1.0
vertex 54.6377073833228 20.4962440881088 1.0
endloop
endfacet
facet normal -0.965925826289068 -0.258819045102523 -1.02278632618348e-016
outer loop
vertex 54.6377073833228 20.4962440881088 -1.0
vertex 54.467876665065 20.9062517114345 1.0
vertex 54.467876665065 20.9062517114345 -1.0
endloop
endfacet
facet normal -0.965925826289068 -0.258819045102523 -1.02278632618348e-016
outer loop
vertex 54.6377073833228 20.4962440881088 1.0
vertex 54.6956334786314 20.0562517114345 -1.0
vertex 54.6956334786314 20.0562517114345 1.0
endloop
endfacet
facet normal -1.0 0.0 -1.06360884653674e-016
outer loop
vertex 54.6956334786314 20.0562517114345 -1.0
vertex 54.6377073833228 20.4962440881088 1.0
vertex 54.6377073833228 20.4962440881088 -1.0
endloop
endfacet
facet normal -1.0 0.0 -1.06360884653674e-016
outer loop
vertex 54.6956334786314 20.0562517114345 1.0
vertex 54.6377073833228 19.6162593347602 -1.0
vertex 54.6377073833228 19.6162593347602 1.0
endloop
endfacet
facet normal -0.965925826289068 0.258819045102523 -1.03194818169524e-016
outer loop
vertex 54.6377073833228 19.6162593347602 -1.0
vertex 54.6956334786314 20.0562517114345 1.0
vertex 54.6956334786314 20.0562517114345 -1.0
endloop
endfacet
facet normal -0.965925826289068 0.258819045102523 -1.03194818169524e-016
outer loop
vertex 54.6377073833228 19.6162593347602 1.0
vertex 54.467876665065 19.2062517114345 -1.0
vertex 54.467876665065 19.2062517114345 1.0
endloop
endfacet
facet normal -0.86602540378444 0.499999999999999 -9.29961953646221e-017
outer loop
vertex 54.467876665065 19.2062517114345 -1.0
vertex 54.6377073833228 19.6162593347602 1.0
vertex 54.6377073833228 19.6162593347602 -1.0
endloop
endfacet
facet normal -0.86602540378444 0.499999999999999 -9.29961953646221e-017
outer loop
vertex 54.467876665065 19.2062517114345 1.0
vertex 54.1977150066486 18.8541701834173 -1.0
vertex 54.1977150066486 18.8541701834173 1.0
endloop
endfacet
facet normal -0.707106781186554 0.707106781186541 -7.64600355291008e-017
outer loop
vertex 54.1977150066486 18.8541701834173 -1.0
vertex 54.467876665065 19.2062517114345 1.0
vertex 54.467876665065 19.2062517114345 -1.0
endloop
endfacet
facet normal -0.500000000000001 0.866025403784438 -5.47132506284533e-017
outer loop
vertex 53.8456334786314 18.5840085250009 1.0
vertex 54.1977150066486 18.8541701834173 -1.0
vertex 53.8456334786314 18.5840085250009 -1.0
endloop
endfacet
facet normal -0.707106781186554 0.707106781186541 -7.64600355291008e-017
outer loop
vertex 54.1977150066486 18.8541701834173 -1.0
vertex 53.8456334786314 18.5840085250009 1.0
vertex 54.1977150066486 18.8541701834173 1.0
endloop
endfacet
facet normal -0.258819045102517 0.965925826289069 -2.92378481153984e-017
outer loop
vertex 53.4356258553057 18.414177806743 1.0
vertex 53.8456334786314 18.5840085250009 -1.0
vertex 53.4356258553057 18.414177806743 -1.0
endloop
endfacet
facet normal -0.500000000000001 0.866025403784438 -5.47132506284533e-017
outer loop
vertex 53.8456334786314 18.5840085250009 -1.0
vertex 53.4356258553057 18.414177806743 1.0
vertex 53.8456334786314 18.5840085250009 1.0
endloop
endfacet
facet normal -1.0 0.0 -1.06360884653674e-016
outer loop
vertex 48.9956334786314 24.0562517114345 0.999999999999993
vertex 48.9956334786314 16.0562517114345 -1.00000000000001
vertex 48.9956334786314 16.0562517114345 0.999999999999993
endloop
endfacet
facet normal -1.0 0.0 -1.06360884653674e-016
outer loop
vertex 48.9956334786314 16.0562517114345 -1.00000000000001
vertex 48.9956334786314 24.0562517114345 0.999999999999993
vertex 48.9956334786314 24.0562517114345 -1.00000000000001
endloop
endfacet
facet normal 0.866025403784441 0.499999999999995 9.12262607935137e-017
outer loop
vertex 51.5233902921979 19.2062517114345 -1.0
vertex 51.7935519506143 18.8541701834173 1.0
vertex 51.7935519506143 18.8541701834173 -1.0
endloop
endfacet
facet normal 0.707106781186553 0.707106781186542 7.39569700541259e-017
outer loop
vertex 51.7935519506143 18.8541701834173 1.0
vertex 51.5233902921979 19.2062517114345 -1.0
vertex 51.5233902921979 19.2062517114345 1.0
endloop
endfacet
facet normal 1.0 0.0 1.06360884653674e-016
outer loop
vertex 90.9956335084338 24.0562517114345 -1.0
vertex 90.9956335084338 16.0562517114345 1.0
vertex 90.9956335084338 16.0562517114345 -1.0
endloop
endfacet
facet normal 1.0 0.0 1.06360884653674e-016
outer loop
vertex 90.9956335084338 16.0562517114345 1.0
vertex 90.9956335084338 24.0562517114345 -1.0
vertex 90.9956335084338 24.0562517114345 1.0
endloop
endfacet
facet normal 0.96592582628907 0.258819045102516 1.02278632618348e-016
outer loop
vertex 74.6660043471861 47.2621564859219 -1.0
vertex 74.876235816075 46.642834549609 1.0
vertex 74.876235816075 46.642834549609 -1.0
endloop
endfacet
facet normal 0.923879532511287 0.38268343236509 9.75873197545893e-017
outer loop
vertex 74.876235816075 46.642834549609 1.0
vertex 74.6660043471861 47.2621564859219 -1.0
vertex 74.6660043471861 47.2621564859219 1.0
endloop
endfacet
facet normal 0.965925826289068 0.258819045102523 1.02278632618348e-016
outer loop
vertex 51.35355957394 19.6162593347602 -1.0
vertex 51.5233902921979 19.2062517114345 1.0
vertex 51.5233902921979 19.2062517114345 -1.0
endloop
endfacet
facet normal 0.866025403784441 0.499999999999995 9.12262607935137e-017
outer loop
vertex 51.5233902921979 19.2062517114345 1.0
vertex 51.35355957394 19.6162593347602 -1.0
vertex 51.35355957394 19.6162593347602 1.0
endloop
endfacet
facet normal -5.51695951633474e-017 -1.0 -4.69994413757983e-016
outer loop
vertex 83.9956334786314 -8.44374828856554 1.0
vertex 60.4956334786314 -8.44374828856554 1.0
vertex 83.9956334786314 -8.44374828856554 -1.0
endloop
endfacet
facet normal -5.51695951633474e-017 -1.0 -4.69994413757983e-016
outer loop
vertex 60.4956334786314 -8.44374828856554 1.0
vertex 83.9956334786314 -8.44374828856554 1.0
vertex 79.4956334786314 -8.44374828856554 1.0
endloop
endfacet
facet normal -5.51695951633474e-017 -1.0 -4.69994413757983e-016
outer loop
vertex 79.4956334786314 -8.44374828856554 1.0
vertex 83.9956334786314 -8.44374828856554 1.0
vertex 81.4956334786314 -8.44374828856554 1.0
endloop
endfacet
facet normal -5.51695951633474e-017 -1.0 -4.69994413757983e-016
outer loop
vertex 79.4956334786314 -8.44374828856554 1.0
vertex 81.4956334786314 -8.44374828856554 1.0
vertex 81.4956334786314 -8.44374828856554 2.0
endloop
endfacet
facet normal -5.51695951633474e-017 -1.0 -4.69994413757983e-016
outer loop
vertex 79.4956334786314 -8.44374828856554 1.0
vertex 81.4956334786314 -8.44374828856554 2.0
vertex 79.4956334786314 -8.44374828856554 2.0
endloop
endfacet
facet normal -5.51695951633474e-017 -1.0 -4.69994413757983e-016
outer loop
vertex 60.4956334786314 -8.44374828856554 2.0
vertex 58.4956334786314 -8.44374828856554 1.0
vertex 60.4956334786314 -8.44374828856554 1.0
endloop
endfacet
facet normal -5.51695951633474e-017 -1.0 -4.69994413757983e-016
outer loop
vertex 58.4956334786314 -8.44374828856554 1.0
vertex 60.4956334786314 -8.44374828856554 2.0
vertex 58.4956334786314 -8.44374828856554 2.0
endloop
endfacet
facet normal -5.51695951633474e-017 -1.0 -4.69994413757983e-016
outer loop
vertex 83.9956334786314 -8.44374828856554 -1.0
vertex 55.9956334786314 -8.44374828856553 1.0
vertex 55.9956334786314 -8.44374828856553 -1.0
endloop
endfacet
facet normal -5.51695951633474e-017 -1.0 -4.69994413757983e-016
outer loop
vertex 55.9956334786314 -8.44374828856553 1.0
vertex 83.9956334786314 -8.44374828856554 -1.0
vertex 60.4956334786314 -8.44374828856554 1.0
endloop
endfacet
facet normal -5.51695951633474e-017 -1.0 -4.69994413757983e-016
outer loop
vertex 55.9956334786314 -8.44374828856553 1.0
vertex 60.4956334786314 -8.44374828856554 1.0
vertex 58.4956334786314 -8.44374828856554 1.0
endloop
endfacet
facet normal -0.499999999999998 0.86602540378444 -5.4713250628453e-017
outer loop
vertex 62.9956334786314 44.2261246925123 1.0
vertex 63.539440623675 44.5894850099783 -1.0
vertex 62.9956334786314 44.2261246925123 -1.0
endloop
endfacet
facet normal -0.608761429008724 0.793353340291233 -6.61525876364883e-017
outer loop
vertex 63.539440623675 44.5894850099783 -1.0
vertex 62.9956334786314 44.2261246925123 1.0
vertex 63.539440623675 44.5894850099783 1.0
endloop
endfacet
facet normal 0.923879532511287 0.38268343236509 9.75873197545893e-017
outer loop
vertex 74.876235816075 46.642834549609 -1.0
vertex 75.1655064597092 46.0562517114345 1.0
vertex 75.1655064597092 46.0562517114345 -1.0
endloop
endfacet
facet normal 0.866025403784436 0.500000000000004 9.12262607935132e-017
outer loop
vertex 75.1655064597092 46.0562517114345 1.0
vertex 74.876235816075 46.642834549609 -1.0
vertex 74.876235816075 46.642834549609 1.0
endloop
endfacet
facet normal -0.130526192220056 0.99144486137381 -1.56376738104941e-017
outer loop
vertex 61.1482644397317 43.5990274045654 1.0
vertex 61.789728704144 43.7266225799891 -1.0
vertex 61.1482644397317 43.5990274045654 -1.0
endloop
endfacet
facet normal -0.258819045102524 0.965925826289067 -2.92378481153992e-017
outer loop
vertex 61.789728704144 43.7266225799891 -1.0
vertex 61.1482644397317 43.5990274045654 1.0
vertex 61.789728704144 43.7266225799891 1.0
endloop
endfacet
facet normal 0.0 1.0 0.0
outer loop
vertex 55.9956334786314 43.5562517114345 1.0
vertex 60.4956334786314 43.5562517114345 -1.0
vertex 55.9956334786314 43.5562517114345 -1.0
endloop
endfacet
facet normal 0.0 1.0 0.0
outer loop
vertex 60.4956334786314 43.5562517114345 -1.0
vertex 55.9956334786314 43.5562517114345 1.0
vertex 60.4956334786314 43.5562517114345 1.0
endloop
endfacet
facet normal 0.0 1.0 0.0
outer loop
vertex 60.4956334786314 43.5562517114345 1.0
vertex 55.9956334786314 43.5562517114345 1.0
vertex 58.4956334786314 43.5562517114345 1.0
endloop
endfacet
facet normal 0.0 1.0 0.0
outer loop
vertex 60.4956334786314 43.5562517114345 1.0
vertex 58.4956334786314 43.5562517114345 1.0
vertex 58.4956334786314 43.5562517114345 2.0
endloop
endfacet
facet normal 0.0 1.0 0.0
outer loop
vertex 60.4956334786314 43.5562517114345 1.0
vertex 58.4956334786314 43.5562517114345 2.0
vertex 60.4956334786314 43.5562517114345 2.0
endloop
endfacet
facet normal 0.961523947331867 -0.274721128978724 1.02754776077503e-016
outer loop
vertex 90.9956335084338 16.0562517114345 -1.0
vertex 83.9956334786314 -8.44374828856554 1.0
vertex 83.9956334786314 -8.44374828856554 -1.0
endloop
endfacet
facet normal 0.961523947331867 -0.274721128978724 1.02754776077503e-016
outer loop
vertex 83.9956334786314 -8.44374828856554 1.0
vertex 90.9956335084338 16.0562517114345 -1.0
vertex 90.9956335084338 16.0562517114345 1.0
endloop
endfacet
facet normal -0.0654031292301479 0.997858923238603 -8.7224796893663e-018
outer loop
vertex 60.4956334786314 43.5562517114345 1.0
vertex 61.1482644397317 43.5990274045654 -1.0
vertex 60.4956334786314 43.5562517114345 -1.0
endloop
endfacet
facet normal -0.130526192220056 0.99144486137381 -1.56376738104941e-017
outer loop
vertex 61.1482644397317 43.5990274045654 -1.0
vertex 60.4956334786314 43.5562517114345 1.0
vertex 61.1482644397317 43.5990274045654 1.0
endloop
endfacet
facet normal -0.961523947640823 -0.274721127897378 -1.01782299265091e-016
outer loop
vertex 48.9956334786314 16.0562517114345 0.999999999999993
vertex 55.9956334786314 -8.44374828856553 -1.0
vertex 55.9956334786314 -8.44374828856553 1.0
endloop
endfacet
facet normal -0.961523947640823 -0.274721127897378 -1.01782299265091e-016
outer loop
vertex 55.9956334786314 -8.44374828856553 -1.0
vertex 48.9956334786314 16.0562517114345 0.999999999999993
vertex 48.9956334786314 16.0562517114345 -1.00000000000001
endloop
endfacet
facet normal 0.997858923238603 0.0654031292301479 1.06017398575737e-016
outer loop
vertex 74.4956334786314 48.5562517114345 -1.0
vertex 74.5384091717624 47.9036207503342 1.0
vertex 74.5384091717624 47.9036207503342 -1.0
endloop
endfacet
facet normal 0.99144486137381 0.130526192220056 1.05219929721012e-016
outer loop
vertex 74.5384091717624 47.9036207503342 1.0
vertex 74.4956334786314 48.5562517114345 -1.0
vertex 74.4956334786314 48.5562517114345 1.0
endloop
endfacet
facet normal -0.258819045102524 0.965925826289067 -2.92378481153992e-017
outer loop
vertex 61.789728704144 43.7266225799891 1.0
vertex 62.4090506404569 43.936854048878 -1.0
vertex 61.789728704144 43.7266225799891 -1.0
endloop
endfacet
facet normal -0.382683432365087 0.923879532511288 -4.23377547327863e-017
outer loop
vertex 62.4090506404569 43.936854048878 -1.0
vertex 61.789728704144 43.7266225799891 1.0
vertex 62.4090506404569 43.936854048878 1.0
endloop
endfacet
facet normal -0.941194670761707 0.337864753606767 -1.00704296321306e-016
outer loop
vertex 55.9956334786314 43.5562517114345 1.0
vertex 48.9956334786314 24.0562517114345 -1.00000000000001
vertex 48.9956334786314 24.0562517114345 0.999999999999993
endloop
endfacet
facet normal -0.941194670761707 0.337864753606767 -1.00704296321306e-016
outer loop
vertex 48.9956334786314 24.0562517114345 -1.00000000000001
vertex 55.9956334786314 43.5562517114345 1.0
vertex 55.9956334786314 43.5562517114345 -1.0
endloop
endfacet
facet normal 0.608761429008724 0.793353340291233 6.33442206283163e-017
outer loop
vertex 76.4518263335878 44.5894850099783 1.0
vertex 76.9956334786314 44.2261246925123 -1.0
vertex 76.4518263335878 44.5894850099783 -1.0
endloop
endfacet
facet normal 0.499999999999998 0.86602540378444 5.16476340252202e-017
outer loop
vertex 76.9956334786314 44.2261246925123 -1.0
vertex 76.4518263335878 44.5894850099783 1.0
vertex 76.9956334786314 44.2261246925123 1.0
endloop
endfacet
facet normal -0.608761429008724 0.793353340291233 -6.61525876364883e-017
outer loop
vertex 63.539440623675 44.5894850099783 1.0
vertex 64.0311673845642 45.0207178055017 -1.0
vertex 63.539440623675 44.5894850099783 -1.0
endloop
endfacet
facet normal -0.707106781186548 0.707106781186548 -7.64600355291002e-017
outer loop
vertex 64.0311673845642 45.0207178055017 -1.0
vertex 63.539440623675 44.5894850099783 1.0
vertex 64.0311673845642 45.0207178055017 1.0
endloop
endfacet
facet normal -0.382683432365087 0.923879532511288 -4.23377547327863e-017
outer loop
vertex 62.4090506404569 43.936854048878 1.0
vertex 62.9956334786314 44.2261246925123 -1.0
vertex 62.4090506404569 43.936854048878 -1.0
endloop
endfacet
facet normal -0.499999999999998 0.86602540378444 -5.4713250628453e-017
outer loop
vertex 62.9956334786314 44.2261246925123 -1.0
vertex 62.4090506404569 43.936854048878 1.0
vertex 62.9956334786314 44.2261246925123 1.0
endloop
endfacet
facet normal 1.0 0.0 1.06360884653674e-016
outer loop
vertex 51.2956334786314 20.0562517114345 -1.0
vertex 51.35355957394 19.6162593347602 1.0
vertex 51.35355957394 19.6162593347602 -1.0
endloop
endfacet
facet normal 0.965925826289068 0.258819045102523 1.02278632618348e-016
outer loop
vertex 51.35355957394 19.6162593347602 1.0
vertex 51.2956334786314 20.0562517114345 -1.0
vertex 51.2956334786314 20.0562517114345 1.0
endloop
endfacet
facet normal 0.866025403784436 0.500000000000004 9.12262607935132e-017
outer loop
vertex 75.1655064597092 46.0562517114345 -1.0
vertex 75.5288667771753 45.5124445663909 1.0
vertex 75.5288667771753 45.5124445663909 -1.0
endloop
endfacet
facet normal 0.793353340291236 0.60876142900872 8.33042952175627e-017
outer loop
vertex 75.5288667771753 45.5124445663909 1.0
vertex 75.1655064597092 46.0562517114345 -1.0
vertex 75.1655064597092 46.0562517114345 1.0
endloop
endfacet
facet normal 0.499999999999998 0.86602540378444 5.16476340252202e-017
outer loop
vertex 76.9956334786314 44.2261246925123 1.0
vertex 77.582216316806 43.936854048878 -1.0
vertex 76.9956334786314 44.2261246925123 -1.0
endloop
endfacet
facet normal 0.382683432365087 0.923879532511288 3.90673420845235e-017
outer loop
vertex 77.582216316806 43.936854048878 -1.0
vertex 76.9956334786314 44.2261246925123 1.0
vertex 77.582216316806 43.936854048878 1.0
endloop
endfacet
facet normal 0.0 1.0 0.0
outer loop
vertex 65.4956334786314 48.5562517114345 1.0
vertex 74.4956334786314 48.5562517114345 -1.0
vertex 65.4956334786314 48.5562517114345 -1.0
endloop
endfacet
facet normal 0.0 1.0 0.0
outer loop
vertex 74.4956334786314 48.5562517114345 -1.0
vertex 65.4956334786314 48.5562517114345 1.0
vertex 74.4956334786314 48.5562517114345 1.0
endloop
endfacet
facet normal 0.382683432365087 0.923879532511288 3.90673420845235e-017
outer loop
vertex 77.582216316806 43.936854048878 1.0
vertex 78.2015382531188 43.7266225799891 -1.0
vertex 77.582216316806 43.936854048878 -1.0
endloop
endfacet
facet normal 0.258819045102526 0.965925826289067 2.5818597089248e-017
outer loop
vertex 78.2015382531188 43.7266225799891 -1.0
vertex 77.582216316806 43.936854048878 1.0
vertex 78.2015382531188 43.7266225799891 1.0
endloop
endfacet
facet normal 0.941194670304285 0.337864754881015 9.95082992548633e-017
outer loop
vertex 83.9956334786314 43.5562517114345 -1.0
vertex 90.9956335084338 24.0562517114345 1.0
vertex 90.9956335084338 24.0562517114345 -1.0
endloop
endfacet
facet normal 0.941194670304285 0.337864754881015 9.95082992548633e-017
outer loop
vertex 90.9956335084338 24.0562517114345 1.0
vertex 83.9956334786314 43.5562517114345 -1.0
vertex 83.9956334786314 43.5562517114345 1.0
endloop
endfacet
facet normal -0.997858923238603 0.065403129230149 -1.06248917094703e-016
outer loop
vertex 65.4956334786314 48.5562517114345 1.0
vertex 65.4528577855005 47.9036207503342 -1.0
vertex 65.4528577855005 47.9036207503342 1.0
endloop
endfacet
facet normal -0.991444861373811 0.130526192220046 -1.05681975361103e-016
outer loop
vertex 65.4528577855005 47.9036207503342 -1.0
vertex 65.4956334786314 48.5562517114345 1.0
vertex 65.4956334786314 48.5562517114345 -1.0
endloop
endfacet
facet normal -0.991444861373811 0.130526192220046 -1.05681975361103e-016
outer loop
vertex 65.4528577855005 47.9036207503342 1.0
vertex 65.3252626100768 47.2621564859219 -1.0
vertex 65.3252626100768 47.2621564859219 1.0
endloop
endfacet
facet normal -0.96592582628907 0.258819045102514 -1.03194818169524e-016
outer loop
vertex 65.3252626100768 47.2621564859219 -1.0
vertex 65.4528577855005 47.9036207503342 1.0
vertex 65.4528577855005 47.9036207503342 -1.0
endloop
endfacet
facet normal 0.707106781186548 0.707106781186548 7.39569700541253e-017
outer loop
vertex 75.9600995726987 45.0207178055017 1.0
vertex 76.4518263335878 44.5894850099783 -1.0
vertex 75.9600995726987 45.0207178055017 -1.0
endloop
endfacet
facet normal 0.608761429008724 0.793353340291233 6.33442206283163e-017
outer loop
vertex 76.4518263335878 44.5894850099783 -1.0
vertex 75.9600995726987 45.0207178055017 1.0
vertex 76.4518263335878 44.5894850099783 1.0
endloop
endfacet
facet normal -0.96592582628907 0.258819045102514 -1.03194818169524e-016
outer loop
vertex 65.3252626100768 47.2621564859219 1.0
vertex 65.1150311411879 46.642834549609 -1.0
vertex 65.1150311411879 46.642834549609 1.0
endloop
endfacet
facet normal -0.923879532511287 0.382683432365091 -9.89419690280562e-017
outer loop
vertex 65.1150311411879 46.642834549609 -1.0
vertex 65.3252626100768 47.2621564859219 1.0
vertex 65.3252626100768 47.2621564859219 -1.0
endloop
endfacet
facet normal -0.793353340291232 0.608761429008725 -8.54592310150823e-017
outer loop
vertex 64.4624001800876 45.5124445663909 1.0
vertex 64.0311673845642 45.0207178055017 -1.0
vertex 64.0311673845642 45.0207178055017 1.0
endloop
endfacet
facet normal -0.707106781186548 0.707106781186548 -7.64600355291002e-017
outer loop
vertex 64.0311673845642 45.0207178055017 -1.0
vertex 64.4624001800876 45.5124445663909 1.0
vertex 64.4624001800876 45.5124445663909 -1.0
endloop
endfacet
facet normal -0.923879532511287 0.382683432365091 -9.89419690280562e-017
outer loop
vertex 65.1150311411879 46.642834549609 1.0
vertex 64.8257604975536 46.0562517114345 -1.0
vertex 64.8257604975536 46.0562517114345 1.0
endloop
endfacet
facet normal -0.866025403784437 0.500000000000004 -9.29961953646218e-017
outer loop
vertex 64.8257604975536 46.0562517114345 -1.0
vertex 65.1150311411879 46.642834549609 1.0
vertex 65.1150311411879 46.642834549609 -1.0
endloop
endfacet
facet normal -0.866025403784437 0.500000000000004 -9.29961953646218e-017
outer loop
vertex 64.8257604975536 46.0562517114345 1.0
vertex 64.4624001800876 45.5124445663909 -1.0
vertex 64.4624001800876 45.5124445663909 1.0
endloop
endfacet
facet normal -0.793353340291232 0.608761429008725 -8.54592310150823e-017
outer loop
vertex 64.4624001800876 45.5124445663909 -1.0
vertex 64.8257604975536 46.0562517114345 1.0
vertex 64.8257604975536 46.0562517114345 -1.0
endloop
endfacet
facet normal 0.0 1.0 -1.76993457110864e-018
outer loop
vertex 52.9956334786314 18.3562517114345 1.0
vertex 53.4356258553057 18.414177806743 -1.0
vertex 52.9956334786314 18.3562517114345 -1.0
endloop
endfacet
facet normal -0.258819045102517 0.965925826289069 -2.92378481153984e-017
outer loop
vertex 53.4356258553057 18.414177806743 -1.0
vertex 52.9956334786314 18.3562517114345 1.0
vertex 53.4356258553057 18.414177806743 1.0
endloop
endfacet
facet normal 0.258819045102517 0.965925826289069 2.5818597089247e-017
outer loop
vertex 52.5556411019572 18.414177806743 1.0
vertex 52.9956334786314 18.3562517114345 -1.0
vertex 52.5556411019572 18.414177806743 -1.0
endloop
endfacet
facet normal 0.0 1.0 -1.76993457110864e-018
outer loop
vertex 52.9956334786314 18.3562517114345 -1.0
vertex 52.5556411019572 18.414177806743 1.0
vertex 52.9956334786314 18.3562517114345 1.0
endloop
endfacet
facet normal 0.99144486137381 0.130526192220056 1.05219929721012e-016
outer loop
vertex 74.5384091717624 47.9036207503342 -1.0
vertex 74.6660043471861 47.2621564859219 1.0
vertex 74.6660043471861 47.2621564859219 -1.0
endloop
endfacet
facet normal 0.96592582628907 0.258819045102516 1.02278632618348e-016
outer loop
vertex 74.6660043471861 47.2621564859219 1.0
vertex 74.5384091717624 47.9036207503342 -1.0
vertex 74.5384091717624 47.9036207503342 1.0
endloop
endfacet
facet normal 0.499999999999997 0.866025403784441 5.164763402522e-017
outer loop
vertex 52.1456334786314 18.5840085250009 1.0
vertex 52.5556411019572 18.414177806743 -1.0
vertex 52.1456334786314 18.5840085250009 -1.0
endloop
endfacet
facet normal 0.258819045102517 0.965925826289069 2.5818597089247e-017
outer loop
vertex 52.5556411019572 18.414177806743 -1.0
vertex 52.1456334786314 18.5840085250009 1.0
vertex 52.5556411019572 18.414177806743 1.0
endloop
endfacet
facet normal 0.707106781186553 0.707106781186542 7.39569700541259e-017
outer loop
vertex 51.7935519506143 18.8541701834173 1.0
vertex 52.1456334786314 18.5840085250009 -1.0
vertex 51.7935519506143 18.8541701834173 -1.0
endloop
endfacet
facet normal 0.499999999999997 0.866025403784441 5.164763402522e-017
outer loop
vertex 52.1456334786314 18.5840085250009 -1.0
vertex 51.7935519506143 18.8541701834173 1.0
vertex 52.1456334786314 18.5840085250009 1.0
endloop
endfacet
facet normal 0.258819045102526 0.965925826289067 2.5818597089248e-017
outer loop
vertex 78.2015382531188 43.7266225799891 1.0
vertex 78.8430025175312 43.5990274045654 -1.0
vertex 78.2015382531188 43.7266225799891 -1.0
endloop
endfacet
facet normal 0.130526192220057 0.99144486137381 1.21280887395072e-017
outer loop
vertex 78.8430025175312 43.5990274045654 -1.0
vertex 78.2015382531188 43.7266225799891 1.0
vertex 78.8430025175312 43.5990274045654 1.0
endloop
endfacet
facet normal 0.793353340291236 0.60876142900872 8.33042952175627e-017
outer loop
vertex 75.5288667771753 45.5124445663909 -1.0
vertex 75.9600995726987 45.0207178055017 1.0
vertex 75.9600995726987 45.0207178055017 -1.0
endloop
endfacet
facet normal 0.707106781186548 0.707106781186548 7.39569700541253e-017
outer loop
vertex 75.9600995726987 45.0207178055017 1.0
vertex 75.5288667771753 45.5124445663909 -1.0
vertex 75.5288667771753 45.5124445663909 1.0
endloop
endfacet
facet normal 0.0 1.0 0.0
outer loop
vertex 60.9956334786314 17.5562517412368 0.999999999999999
vertex 78.9956334786314 17.5562517412368 -1.0
vertex 60.9956334786314 17.5562517412368 -1.0
endloop
endfacet
facet normal 0.0 1.0 0.0
outer loop
vertex 78.9956334786314 17.5562517412368 -1.0
vertex 60.9956334786314 17.5562517412368 0.999999999999999
vertex 78.9956334786314 17.5562517412368 0.999999999999999
endloop
endfacet
facet normal -1.0 0.0 0.0
outer loop
vertex 78.9956334786314 39.5562517412368 0.999999999999999
vertex 78.9956334786314 17.5562517412368 -1.0
vertex 78.9956334786314 17.5562517412368 0.999999999999999
endloop
endfacet
facet normal -1.0 0.0 0.0
outer loop
vertex 78.9956334786314 17.5562517412368 -1.0
vertex 78.9956334786314 39.5562517412368 0.999999999999999
vertex 78.9956334786314 39.5562517412368 -1.0
endloop
endfacet
facet normal -0.0 -1.0 -0.0
outer loop
vertex 78.9956334786314 39.5562517412368 0.999999999999999
vertex 60.9956334786314 39.5562517412368 -1.0
vertex 78.9956334786314 39.5562517412368 -1.0
endloop
endfacet
facet normal -0.0 -1.0 -0.0
outer loop
vertex 60.9956334786314 39.5562517412368 -1.0
vertex 78.9956334786314 39.5562517412368 0.999999999999999
vertex 60.9956334786314 39.5562517412368 0.999999999999999
endloop
endfacet
facet normal 1.0 0.0 0.0
outer loop
vertex 60.9956334786314 39.5562517412368 -1.0
vertex 60.9956334786314 17.5562517412368 0.999999999999999
vertex 60.9956334786314 17.5562517412368 -1.0
endloop
endfacet
facet normal 1.0 0.0 0.0
outer loop
vertex 60.9956334786314 17.5562517412368 0.999999999999999
vertex 60.9956334786314 39.5562517412368 -1.0
vertex 60.9956334786314 39.5562517412368 0.999999999999999
endloop
endfacet
facet normal -1.34678035021202e-017 9.75549344937581e-018 1.0
outer loop
vertex 60.4956334786314 -8.44374828856554 1.0
vertex 60.9956334786314 17.5562517412368 0.999999999999999
vertex 60.4956334786314 43.5562517114345 1.0
endloop
endfacet
facet normal -1.34678035021202e-017 9.75549344937581e-018 1.0
outer loop
vertex 60.9956334786314 17.5562517412368 0.999999999999999
vertex 60.4956334786314 -8.44374828856554 1.0
vertex 79.4956334786314 -8.44374828856554 1.0
endloop
endfacet
facet normal -1.34678035021202e-017 9.75549344937581e-018 1.0
outer loop
vertex 60.9956334786314 17.5562517412368 0.999999999999999
vertex 79.4956334786314 -8.44374828856554 1.0
vertex 78.9956334786314 17.5562517412368 0.999999999999999
endloop
endfacet
facet normal -1.34678035021202e-017 9.75549344937581e-018 1.0
outer loop
vertex 78.9956334786314 17.5562517412368 0.999999999999999
vertex 79.4956334786314 -8.44374828856554 1.0
vertex 78.9956334786314 39.5562517412368 0.999999999999999
endloop
endfacet
facet normal -1.34678035021202e-017 9.75549344937581e-018 1.0
outer loop
vertex 60.4956334786314 43.5562517114345 1.0
vertex 60.9956334786314 39.5562517412368 0.999999999999999
vertex 61.1482644397317 43.5990274045654 1.0
endloop
endfacet
facet normal -1.34678035021202e-017 9.75549344937581e-018 1.0
outer loop
vertex 60.9956334786314 39.5562517412368 0.999999999999999
vertex 60.4956334786314 43.5562517114345 1.0
vertex 60.9956334786314 17.5562517412368 0.999999999999999
endloop
endfacet
facet normal -1.34678035021202e-017 9.75549344937581e-018 1.0
outer loop
vertex 61.1482644397317 43.5990274045654 1.0
vertex 60.9956334786314 39.5562517412368 0.999999999999999
vertex 78.9956334786314 39.5562517412368 0.999999999999999
endloop
endfacet
facet normal -1.34678035021202e-017 9.75549344937581e-018 1.0
outer loop
vertex 61.1482644397317 43.5990274045654 1.0
vertex 78.9956334786314 39.5562517412368 0.999999999999999
vertex 61.789728704144 43.7266225799891 1.0
endloop
endfacet
facet normal -1.34678035021202e-017 9.75549344937581e-018 1.0
outer loop
vertex 61.789728704144 43.7266225799891 1.0
vertex 78.9956334786314 39.5562517412368 0.999999999999999
vertex 62.4090506404569 43.936854048878 1.0
endloop
endfacet
facet normal -1.34678035021202e-017 9.75549344937581e-018 1.0
outer loop
vertex 62.4090506404569 43.936854048878 1.0
vertex 78.9956334786314 39.5562517412368 0.999999999999999
vertex 62.9956334786314 44.2261246925123 1.0
endloop
endfacet
facet normal -1.34678035021202e-017 9.75549344937581e-018 1.0
outer loop
vertex 62.9956334786314 44.2261246925123 1.0
vertex 78.9956334786314 39.5562517412368 0.999999999999999
vertex 63.539440623675 44.5894850099783 1.0
endloop
endfacet
facet normal -1.34678035021202e-017 9.75549344937581e-018 1.0
outer loop
vertex 63.539440623675 44.5894850099783 1.0
vertex 78.9956334786314 39.5562517412368 0.999999999999999
vertex 64.0311673845642 45.0207178055017 1.0
endloop
endfacet
facet normal -1.34678035021202e-017 9.75549344937581e-018 1.0
outer loop
vertex 64.0311673845642 45.0207178055017 1.0
vertex 78.9956334786314 39.5562517412368 0.999999999999999
vertex 64.4624001800876 45.5124445663909 1.0
endloop
endfacet
facet normal -1.34678035021202e-017 9.75549344937581e-018 1.0
outer loop
vertex 64.4624001800876 45.5124445663909 1.0
vertex 78.9956334786314 39.5562517412368 0.999999999999999
vertex 64.8257604975536 46.0562517114345 1.0
endloop
endfacet
facet normal -1.34678035021202e-017 9.75549344937581e-018 1.0
outer loop
vertex 64.8257604975536 46.0562517114345 1.0
vertex 78.9956334786314 39.5562517412368 0.999999999999999
vertex 65.1150311411879 46.642834549609 1.0
endloop
endfacet
facet normal -1.34678035021202e-017 9.75549344937581e-018 1.0
outer loop
vertex 65.1150311411879 46.642834549609 1.0
vertex 78.9956334786314 39.5562517412368 0.999999999999999
vertex 65.3252626100768 47.2621564859219 1.0
endloop
endfacet
facet normal -1.34678035021202e-017 9.75549344937581e-018 1.0
outer loop
vertex 65.3252626100768 47.2621564859219 1.0
vertex 78.9956334786314 39.5562517412368 0.999999999999999
vertex 65.4528577855005 47.9036207503342 1.0
endloop
endfacet
facet normal -1.34678035021202e-017 9.75549344937581e-018 1.0
outer loop
vertex 65.4528577855005 47.9036207503342 1.0
vertex 78.9956334786314 39.5562517412368 0.999999999999999
vertex 65.4956334786314 48.5562517114345 1.0
endloop
endfacet
facet normal -1.34678035021202e-017 9.75549344937581e-018 1.0
outer loop
vertex 65.4956334786314 48.5562517114345 1.0
vertex 78.9956334786314 39.5562517412368 0.999999999999999
vertex 75.1655064597092 46.0562517114345 1.0
endloop
endfacet
facet normal -1.34678035021202e-017 9.75549344937581e-018 1.0
outer loop
vertex 65.4956334786314 48.5562517114345 1.0
vertex 75.1655064597092 46.0562517114345 1.0
vertex 74.876235816075 46.642834549609 1.0
endloop
endfacet
facet normal -1.34678035021202e-017 9.75549344937581e-018 1.0
outer loop
vertex 65.4956334786314 48.5562517114345 1.0
vertex 74.876235816075 46.642834549609 1.0
vertex 74.6660043471861 47.2621564859219 1.0
endloop
endfacet
facet normal -1.34678035021202e-017 9.75549344937581e-018 1.0
outer loop
vertex 65.4956334786314 48.5562517114345 1.0
vertex 74.6660043471861 47.2621564859219 1.0
vertex 74.5384091717624 47.9036207503342 1.0
endloop
endfacet
facet normal -1.34678035021202e-017 9.75549344937581e-018 1.0
outer loop
vertex 65.4956334786314 48.5562517114345 1.0
vertex 74.5384091717624 47.9036207503342 1.0
vertex 74.4956334786314 48.5562517114345 1.0
endloop
endfacet
facet normal -1.34678035021202e-017 9.75549344937581e-018 1.0
outer loop
vertex 75.1655064597092 46.0562517114345 1.0
vertex 78.9956334786314 39.5562517412368 0.999999999999999
vertex 75.5288667771753 45.5124445663909 1.0
endloop
endfacet
facet normal -1.34678035021202e-017 9.75549344937581e-018 1.0
outer loop
vertex 75.5288667771753 45.5124445663909 1.0
vertex 78.9956334786314 39.5562517412368 0.999999999999999
vertex 75.9600995726987 45.0207178055017 1.0
endloop
endfacet
facet normal -1.34678035021202e-017 9.75549344937581e-018 1.0
outer loop
vertex 75.9600995726987 45.0207178055017 1.0
vertex 78.9956334786314 39.5562517412368 0.999999999999999
vertex 76.4518263335878 44.5894850099783 1.0
endloop
endfacet
facet normal -1.34678035021202e-017 9.75549344937581e-018 1.0
outer loop
vertex 76.4518263335878 44.5894850099783 1.0
vertex 78.9956334786314 39.5562517412368 0.999999999999999
vertex 76.9956334786314 44.2261246925123 1.0
endloop
endfacet
facet normal -1.34678035021202e-017 9.75549344937581e-018 1.0
outer loop
vertex 76.9956334786314 44.2261246925123 1.0
vertex 78.9956334786314 39.5562517412368 0.999999999999999
vertex 77.582216316806 43.936854048878 1.0
endloop
endfacet
facet normal -1.34678035021202e-017 9.75549344937581e-018 1.0
outer loop
vertex 77.582216316806 43.936854048878 1.0
vertex 78.9956334786314 39.5562517412368 0.999999999999999
vertex 78.2015382531188 43.7266225799891 1.0
endloop
endfacet
facet normal -1.34678035021202e-017 9.75549344937581e-018 1.0
outer loop
vertex 78.2015382531188 43.7266225799891 1.0
vertex 78.9956334786314 39.5562517412368 0.999999999999999
vertex 78.8430025175312 43.5990274045654 1.0
endloop
endfacet
facet normal -1.34678035021202e-017 9.75549344937581e-018 1.0
outer loop
vertex 78.8430025175312 43.5990274045654 1.0
vertex 78.9956334786314 39.5562517412368 0.999999999999999
vertex 79.4956334786314 43.5562517114345 1.0
endloop
endfacet
facet normal -1.34678035021202e-017 9.75549344937581e-018 1.0
outer loop
vertex 79.4956334786314 43.5562517114345 1.0
vertex 78.9956334786314 39.5562517412368 0.999999999999999
vertex 79.4956334786314 -8.44374828856554 1.0
endloop
endfacet
facet normal -1.41337326632715e-017 4.99042675422091e-018 1.0
outer loop
vertex 83.9956334786314 -8.44374828856554 1.0
vertex 81.4956334786314 43.5562517114345 1.0
vertex 81.4956334786314 -8.44374828856554 1.0
endloop
endfacet
facet normal -1.41337326632715e-017 4.99042675422091e-018 1.0
outer loop
vertex 81.4956334786314 43.5562517114345 1.0
vertex 83.9956334786314 -8.44374828856554 1.0
vertex 83.9956334786314 43.5562517114345 1.0
endloop
endfacet
facet normal -1.41337326632715e-017 4.99042675422091e-018 1.0
outer loop
vertex 83.9956334786314 43.5562517114345 1.0
vertex 83.9956334786314 -8.44374828856554 1.0
vertex 85.2956334786314 20.0562517412368 0.999999999999999
endloop
endfacet
facet normal -1.41337326632715e-017 4.99042675422091e-018 1.0
outer loop
vertex 85.2956334786314 20.0562517412368 0.999999999999999
vertex 83.9956334786314 -8.44374828856554 1.0
vertex 85.35355957394 19.6162593645625 0.999999999999999
endloop
endfacet
facet normal -1.41337326632715e-017 4.99042675422091e-018 1.0
outer loop
vertex 85.35355957394 19.6162593645625 0.999999999999999
vertex 83.9956334786314 -8.44374828856554 1.0
vertex 85.5233902921979 19.2062517412368 0.999999999999999
endloop
endfacet
facet normal -1.41337326632715e-017 4.99042675422091e-018 1.0
outer loop
vertex 85.5233902921979 19.2062517412368 0.999999999999999
vertex 83.9956334786314 -8.44374828856554 1.0
vertex 85.7935519506143 18.8541702132197 0.999999999999999
endloop
endfacet
facet normal -1.41337326632715e-017 4.99042675422091e-018 1.0
outer loop
vertex 85.7935519506143 18.8541702132197 0.999999999999999
vertex 83.9956334786314 -8.44374828856554 1.0
vertex 86.1456334786314 18.5840085548032 0.999999999999999
endloop
endfacet
facet normal -1.41337326632715e-017 4.99042675422091e-018 1.0
outer loop
vertex 86.1456334786314 18.5840085548032 0.999999999999999
vertex 83.9956334786314 -8.44374828856554 1.0
vertex 90.9956335084338 16.0562517114345 1.0
endloop
endfacet
facet normal -1.41337326632715e-017 4.99042675422091e-018 1.0
outer loop
vertex 86.1456334786314 18.5840085548032 0.999999999999999
vertex 90.9956335084338 16.0562517114345 1.0
vertex 86.5556411019572 18.4141778365454 0.999999999999999
endloop
endfacet
facet normal -1.41337326632715e-017 4.99042675422091e-018 1.0
outer loop
vertex 86.5556411019572 18.4141778365454 0.999999999999999
vertex 90.9956335084338 16.0562517114345 1.0
vertex 86.9956334786314 18.3562517412368 0.999999999999999
endloop
endfacet
facet normal -1.41337326632715e-017 4.99042675422091e-018 1.0
outer loop
vertex 86.9956334786314 18.3562517412368 0.999999999999999
vertex 90.9956335084338 16.0562517114345 1.0
vertex 87.4356258553057 18.4141778365454 0.999999999999999
endloop
endfacet
facet normal -1.41337326632715e-017 4.99042675422091e-018 1.0
outer loop
vertex 87.4356258553057 18.4141778365454 0.999999999999999
vertex 90.9956335084338 16.0562517114345 1.0
vertex 87.8456334786314 18.5840085548032 0.999999999999999
endloop
endfacet
facet normal -1.41337326632715e-017 4.99042675422091e-018 1.0
outer loop
vertex 87.8456334786314 18.5840085548032 0.999999999999999
vertex 90.9956335084338 16.0562517114345 1.0
vertex 88.1977150066486 18.8541702132197 0.999999999999999
endloop
endfacet
facet normal -1.41337326632715e-017 4.99042675422091e-018 1.0
outer loop
vertex 88.1977150066486 18.8541702132197 0.999999999999999
vertex 90.9956335084338 16.0562517114345 1.0
vertex 88.467876665065 19.2062517412368 0.999999999999999
endloop
endfacet
facet normal -1.41337326632715e-017 4.99042675422091e-018 1.0
outer loop
vertex 88.467876665065 19.2062517412368 0.999999999999999
vertex 90.9956335084338 16.0562517114345 1.0
vertex 88.6377073833228 19.6162593645625 0.999999999999999
endloop
endfacet
facet normal -1.41337326632715e-017 4.99042675422091e-018 1.0
outer loop
vertex 88.6377073833228 19.6162593645625 0.999999999999999
vertex 90.9956335084338 16.0562517114345 1.0
vertex 88.6956334786314 20.0562517412368 0.999999999999999
endloop
endfacet
facet normal -1.41337326632715e-017 4.99042675422091e-018 1.0
outer loop
vertex 83.9956334786314 43.5562517114345 1.0
vertex 86.1456334786314 21.5284949276703 0.999999999999999
vertex 90.9956335084338 24.0562517114345 1.0
endloop
endfacet
facet normal -1.41337326632715e-017 4.99042675422091e-018 1.0
outer loop
vertex 86.1456334786314 21.5284949276703 0.999999999999999
vertex 83.9956334786314 43.5562517114345 1.0
vertex 85.7935519506143 21.2583332692539 0.999999999999999
endloop
endfacet
facet normal -1.41337326632715e-017 4.99042675422091e-018 1.0
outer loop
vertex 85.7935519506143 21.2583332692539 0.999999999999999
vertex 83.9956334786314 43.5562517114345 1.0
vertex 85.5233902921979 20.9062517412368 0.999999999999999
endloop
endfacet
facet normal -1.41337326632715e-017 4.99042675422091e-018 1.0
outer loop
vertex 85.5233902921979 20.9062517412368 0.999999999999999
vertex 83.9956334786314 43.5562517114345 1.0
vertex 85.35355957394 20.4962441179111 0.999999999999999
endloop
endfacet
facet normal -1.41337326632715e-017 4.99042675422091e-018 1.0
outer loop
vertex 85.35355957394 20.4962441179111 0.999999999999999
vertex 83.9956334786314 43.5562517114345 1.0
vertex 85.2956334786314 20.0562517412368 0.999999999999999
endloop
endfacet
facet normal -1.41337326632715e-017 4.99042675422091e-018 1.0
outer loop
vertex 90.9956335084338 24.0562517114345 1.0
vertex 86.1456334786314 21.5284949276703 0.999999999999999
vertex 86.5556411019572 21.6983256459282 0.999999999999999
endloop
endfacet
facet normal -1.41337326632715e-017 4.99042675422091e-018 1.0
outer loop
vertex 90.9956335084338 24.0562517114345 1.0
vertex 86.5556411019572 21.6983256459282 0.999999999999999
vertex 86.9956334786314 21.7562517412368 0.999999999999999
endloop
endfacet
facet normal -1.41337326632715e-017 4.99042675422091e-018 1.0
outer loop
vertex 90.9956335084338 24.0562517114345 1.0
vertex 86.9956334786314 21.7562517412368 0.999999999999999
vertex 87.4356258553057 21.6983256459282 0.999999999999999
endloop
endfacet
facet normal -1.41337326632715e-017 4.99042675422091e-018 1.0
outer loop
vertex 90.9956335084338 24.0562517114345 1.0
vertex 87.4356258553057 21.6983256459282 0.999999999999999
vertex 87.8456334786314 21.5284949276703 0.999999999999999
endloop
endfacet
facet normal -1.41337326632715e-017 4.99042675422091e-018 1.0
outer loop
vertex 90.9956335084338 24.0562517114345 1.0
vertex 87.8456334786314 21.5284949276703 0.999999999999999
vertex 88.1977150066486 21.2583332692539 0.999999999999999
endloop
endfacet
facet normal -1.41337326632715e-017 4.99042675422091e-018 1.0
outer loop
vertex 90.9956335084338 24.0562517114345 1.0
vertex 88.1977150066486 21.2583332692539 0.999999999999999
vertex 88.467876665065 20.9062517412368 0.999999999999999
endloop
endfacet
facet normal -1.41337326632715e-017 4.99042675422091e-018 1.0
outer loop
vertex 90.9956335084338 24.0562517114345 1.0
vertex 88.467876665065 20.9062517412368 0.999999999999999
vertex 88.6377073833228 20.4962441179111 0.999999999999999
endloop
endfacet
facet normal -1.41337326632715e-017 4.99042675422091e-018 1.0
outer loop
vertex 90.9956335084338 24.0562517114345 1.0
vertex 88.6377073833228 20.4962441179111 0.999999999999999
vertex 88.6956334786314 20.0562517412368 0.999999999999999
endloop
endfacet
facet normal -1.41337326632715e-017 4.99042675422091e-018 1.0
outer loop
vertex 90.9956335084338 24.0562517114345 1.0
vertex 88.6956334786314 20.0562517412368 0.999999999999999
vertex 90.9956335084338 16.0562517114345 1.0
endloop
endfacet
facet normal -7.59352258706935e-016 5.25645890585498e-019 1.0
outer loop
vertex 55.9956334786314 -8.44374828856553 1.0
vertex 48.9956334786314 24.0562517114345 0.999999999999993
vertex 48.9956334786314 16.0562517114345 0.999999999999993
endloop
endfacet
facet normal -7.59352258706935e-016 5.25645890585498e-019 1.0
outer loop
vertex 48.9956334786314 24.0562517114345 0.999999999999993
vertex 55.9956334786314 -8.44374828856553 1.0
vertex 51.35355957394 19.6162593347602 1.0
endloop
endfacet
facet normal -7.59352258706935e-016 5.25645890585498e-019 1.0
outer loop
vertex 48.9956334786314 24.0562517114345 0.999999999999993
vertex 51.35355957394 19.6162593347602 1.0
vertex 51.2956334786314 20.0562517114345 1.0
endloop
endfacet
facet normal -7.59352258706935e-016 5.25645890585498e-019 1.0
outer loop
vertex 51.35355957394 19.6162593347602 1.0
vertex 55.9956334786314 -8.44374828856553 1.0
vertex 51.5233902921979 19.2062517114345 1.0
endloop
endfacet
facet normal -7.59352258706935e-016 5.25645890585498e-019 1.0
outer loop
vertex 51.5233902921979 19.2062517114345 1.0
vertex 55.9956334786314 -8.44374828856553 1.0
vertex 51.7935519506143 18.8541701834173 1.0
endloop
endfacet
facet normal -7.59352258706935e-016 5.25645890585498e-019 1.0
outer loop
vertex 51.7935519506143 18.8541701834173 1.0
vertex 55.9956334786314 -8.44374828856553 1.0
vertex 52.1456334786314 18.5840085250009 1.0
endloop
endfacet
facet normal -7.59352258706935e-016 5.25645890585498e-019 1.0
outer loop
vertex 52.1456334786314 18.5840085250009 1.0
vertex 55.9956334786314 -8.44374828856553 1.0
vertex 52.5556411019572 18.414177806743 1.0
endloop
endfacet
facet normal -7.59352258706935e-016 5.25645890585498e-019 1.0
outer loop
vertex 52.5556411019572 18.414177806743 1.0
vertex 55.9956334786314 -8.44374828856553 1.0
vertex 52.9956334786314 18.3562517114345 1.0
endloop
endfacet
facet normal -7.59352258706935e-016 5.25645890585498e-019 1.0
outer loop
vertex 52.9956334786314 18.3562517114345 1.0
vertex 55.9956334786314 -8.44374828856553 1.0
vertex 53.4356258553057 18.414177806743 1.0
endloop
endfacet
facet normal -7.59352258706935e-016 5.25645890585498e-019 1.0
outer loop
vertex 53.4356258553057 18.414177806743 1.0
vertex 55.9956334786314 -8.44374828856553 1.0
vertex 53.8456334786314 18.5840085250009 1.0
endloop
endfacet
facet normal -7.59352258706935e-016 5.25645890585498e-019 1.0
outer loop
vertex 53.8456334786314 18.5840085250009 1.0
vertex 55.9956334786314 -8.44374828856553 1.0
vertex 54.1977150066486 18.8541701834173 1.0
endloop
endfacet
facet normal -7.59352258706935e-016 5.25645890585498e-019 1.0
outer loop
vertex 54.1977150066486 18.8541701834173 1.0
vertex 55.9956334786314 -8.44374828856553 1.0
vertex 54.467876665065 19.2062517114345 1.0
endloop
endfacet
facet normal -7.59352258706935e-016 5.25645890585498e-019 1.0
outer loop
vertex 54.467876665065 19.2062517114345 1.0
vertex 55.9956334786314 -8.44374828856553 1.0
vertex 54.6377073833228 19.6162593347602 1.0
endloop
endfacet
facet normal -7.59352258706935e-016 5.25645890585498e-019 1.0
outer loop
vertex 54.6377073833228 19.6162593347602 1.0
vertex 55.9956334786314 -8.44374828856553 1.0
vertex 54.6956334786314 20.0562517114345 1.0
endloop
endfacet
facet normal -7.59352258706935e-016 5.25645890585498e-019 1.0
outer loop
vertex 48.9956334786314 24.0562517114345 0.999999999999993
vertex 51.35355957394 20.4962440881088 1.0
vertex 55.9956334786314 43.5562517114345 1.0
endloop
endfacet
facet normal -7.59352258706935e-016 5.25645890585498e-019 1.0
outer loop
vertex 51.35355957394 20.4962440881088 1.0
vertex 48.9956334786314 24.0562517114345 0.999999999999993
vertex 51.2956334786314 20.0562517114345 1.0
endloop
endfacet
facet normal -7.59352258706935e-016 5.25645890585498e-019 1.0
outer loop
vertex 55.9956334786314 43.5562517114345 1.0
vertex 51.35355957394 20.4962440881088 1.0
vertex 51.5233902921979 20.9062517114345 1.0
endloop
endfacet
facet normal -7.59352258706935e-016 5.25645890585498e-019 1.0
outer loop
vertex 55.9956334786314 43.5562517114345 1.0
vertex 51.5233902921979 20.9062517114345 1.0
vertex 51.7935519506143 21.2583332394516 1.0
endloop
endfacet
facet normal -7.59352258706935e-016 5.25645890585498e-019 1.0
outer loop
vertex 55.9956334786314 43.5562517114345 1.0
vertex 51.7935519506143 21.2583332394516 1.0
vertex 52.1456334786314 21.528494897868 1.0
endloop
endfacet
facet normal -7.59352258706935e-016 5.25645890585498e-019 1.0
outer loop
vertex 55.9956334786314 43.5562517114345 1.0
vertex 52.1456334786314 21.528494897868 1.0
vertex 52.5556411019572 21.6983256161259 1.0
endloop
endfacet
facet normal -7.59352258706935e-016 5.25645890585498e-019 1.0
outer loop
vertex 55.9956334786314 43.5562517114345 1.0
vertex 52.5556411019572 21.6983256161259 1.0
vertex 52.9956334786314 21.7562517114345 1.0
endloop
endfacet
facet normal -7.59352258706935e-016 5.25645890585498e-019 1.0
outer loop
vertex 55.9956334786314 43.5562517114345 1.0
vertex 52.9956334786314 21.7562517114345 1.0
vertex 53.4356258553057 21.6983256161259 1.0
endloop
endfacet
facet normal -7.59352258706935e-016 5.25645890585498e-019 1.0
outer loop
vertex 55.9956334786314 43.5562517114345 1.0
vertex 53.4356258553057 21.6983256161259 1.0
vertex 53.8456334786314 21.528494897868 1.0
endloop
endfacet
facet normal -7.59352258706935e-016 5.25645890585498e-019 1.0
outer loop
vertex 55.9956334786314 43.5562517114345 1.0
vertex 53.8456334786314 21.528494897868 1.0
vertex 54.1977150066486 21.2583332394516 1.0
endloop
endfacet
facet normal -7.59352258706935e-016 5.25645890585498e-019 1.0
outer loop
vertex 55.9956334786314 43.5562517114345 1.0
vertex 54.1977150066486 21.2583332394516 1.0
vertex 54.467876665065 20.9062517114345 1.0
endloop
endfacet
facet normal -7.59352258706935e-016 5.25645890585498e-019 1.0
outer loop
vertex 55.9956334786314 43.5562517114345 1.0
vertex 54.467876665065 20.9062517114345 1.0
vertex 54.6377073833228 20.4962440881088 1.0
endloop
endfacet
facet normal -7.59352258706935e-016 5.25645890585498e-019 1.0
outer loop
vertex 55.9956334786314 43.5562517114345 1.0
vertex 54.6377073833228 20.4962440881088 1.0
vertex 54.6956334786314 20.0562517114345 1.0
endloop
endfacet
facet normal -7.59352258706935e-016 5.25645890585498e-019 1.0
outer loop
vertex 55.9956334786314 43.5562517114345 1.0
vertex 54.6956334786314 20.0562517114345 1.0
vertex 55.9956334786314 -8.44374828856553 1.0
endloop
endfacet
facet normal -7.59352258706935e-016 5.25645890585498e-019 1.0
outer loop
vertex 55.9956334786314 43.5562517114345 1.0
vertex 55.9956334786314 -8.44374828856553 1.0
vertex 58.4956334786314 -8.44374828856554 1.0
endloop
endfacet
facet normal -7.59352258706935e-016 5.25645890585498e-019 1.0
outer loop
vertex 55.9956334786314 43.5562517114345 1.0
vertex 58.4956334786314 -8.44374828856554 1.0
vertex 58.4956334786314 43.5562517114345 1.0
endloop
endfacet
facet normal 0.0 0.0 1.0
outer loop
vertex 81.4956334786314 1.55625171143446 4.0
vertex 79.4956334786314 33.5562517114345 4.0
vertex 79.4956334786314 1.55625171143446 4.0
endloop
endfacet
facet normal 0.0 0.0 1.0
outer loop
vertex 79.4956334786314 33.5562517114345 4.0
vertex 81.4956334786314 1.55625171143446 4.0
vertex 81.4956334786314 33.5562517114345 4.0
endloop
endfacet
facet normal 1.0 0.0 0.0
outer loop
vertex 81.4956334786314 43.5562517114345 1.0
vertex 81.4956334786314 -8.44374828856554 2.0
vertex 81.4956334786314 -8.44374828856554 1.0
endloop
endfacet
facet normal 1.0 0.0 0.0
outer loop
vertex 81.4956334786314 -8.44374828856554 2.0
vertex 81.4956334786314 43.5562517114345 1.0
vertex 81.4956334786314 1.55625171143446 4.0
endloop
endfacet
facet normal 1.0 0.0 0.0
outer loop
vertex 81.4956334786314 1.55625171143446 4.0
vertex 81.4956334786314 43.5562517114345 1.0
vertex 81.4956334786314 33.5562517114345 4.0
endloop
endfacet
facet normal 1.0 0.0 0.0
outer loop
vertex 81.4956334786314 33.5562517114345 4.0
vertex 81.4956334786314 43.5562517114345 1.0
vertex 81.4956334786314 43.5562517114345 2.0
endloop
endfacet
facet normal -1.0 -6.22403468134511e-017 1.84805952846093e-015
outer loop
vertex 79.4956334786314 1.55625171143446 4.0
vertex 79.4956334786314 -8.44374828856554 1.0
vertex 79.4956334786314 -8.44374828856554 2.0
endloop
endfacet
facet normal -1.0 -6.22403468134511e-017 1.84805952846093e-015
outer loop
vertex 79.4956334786314 -8.44374828856554 1.0
vertex 79.4956334786314 1.55625171143446 4.0
vertex 79.4956334786314 43.5562517114345 1.0
endloop
endfacet
facet normal -1.0 -6.22403468134511e-017 1.84805952846093e-015
outer loop
vertex 79.4956334786314 43.5562517114345 1.0
vertex 79.4956334786314 1.55625171143446 4.0
vertex 79.4956334786314 33.5562517114345 4.0
endloop
endfacet
facet normal -1.0 -6.22403468134511e-017 1.84805952846093e-015
outer loop
vertex 79.4956334786314 43.5562517114345 1.0
vertex 79.4956334786314 33.5562517114345 4.0
vertex 79.4956334786314 43.5562517114345 2.0
endloop
endfacet
facet normal 0.0 0.0 1.0
outer loop
vertex 60.4956334786314 1.55625171143446 4.0
vertex 58.4956334786314 33.5562517114345 4.0
vertex 58.4956334786314 1.55625171143446 4.0
endloop
endfacet
facet normal 0.0 0.0 1.0
outer loop
vertex 58.4956334786314 33.5562517114345 4.0
vertex 60.4956334786314 1.55625171143446 4.0
vertex 60.4956334786314 33.5562517114345 4.0
endloop
endfacet
facet normal -1.0 0.0 0.0
outer loop
vertex 58.4956334786314 1.55625171143446 4.0
vertex 58.4956334786314 -8.44374828856554 1.0
vertex 58.4956334786314 -8.44374828856554 2.0
endloop
endfacet
facet normal -1.0 0.0 0.0
outer loop
vertex 58.4956334786314 -8.44374828856554 1.0
vertex 58.4956334786314 1.55625171143446 4.0
vertex 58.4956334786314 43.5562517114345 1.0
endloop
endfacet
facet normal -1.0 0.0 0.0
outer loop
vertex 58.4956334786314 43.5562517114345 1.0
vertex 58.4956334786314 1.55625171143446 4.0
vertex 58.4956334786314 33.5562517114345 4.0
endloop
endfacet
facet normal -1.0 0.0 0.0
outer loop
vertex 58.4956334786314 43.5562517114345 1.0
vertex 58.4956334786314 33.5562517114345 4.0
vertex 58.4956334786314 43.5562517114345 2.0
endloop
endfacet
facet normal 1.0 -1.52159694012692e-016 1.71849188341177e-015
outer loop
vertex 60.4956334786314 -8.44374828856554 1.0
vertex 60.4956334786314 1.55625171143446 4.0
vertex 60.4956334786314 -8.44374828856554 2.0
endloop
endfacet
facet normal 1.0 -1.52159694012692e-016 1.71849188341177e-015
outer loop
vertex 60.4956334786314 1.55625171143446 4.0
vertex 60.4956334786314 -8.44374828856554 1.0
vertex 60.4956334786314 43.5562517114345 1.0
endloop
endfacet
facet normal 1.0 -1.52159694012692e-016 1.71849188341177e-015
outer loop
vertex 60.4956334786314 1.55625171143446 4.0
vertex 60.4956334786314 43.5562517114345 1.0
vertex 60.4956334786314 33.5562517114345 4.0
endloop
endfacet
facet normal 1.0 -1.52159694012692e-016 1.71849188341177e-015
outer loop
vertex 60.4956334786314 33.5562517114345 4.0
vertex 60.4956334786314 43.5562517114345 1.0
vertex 60.4956334786314 43.5562517114345 2.0
endloop
endfacet
facet normal -1.94944609975873e-030 -0.196116135138184 0.98058067569092
outer loop
vertex 81.4956334786314 -8.44374828856554 2.0
vertex 79.4956334786314 1.55625171143446 4.0
vertex 79.4956334786314 -8.44374828856554 2.0
endloop
endfacet
facet normal -1.94944609975873e-030 -0.196116135138184 0.98058067569092
outer loop
vertex 79.4956334786314 1.55625171143446 4.0
vertex 81.4956334786314 -8.44374828856554 2.0
vertex 81.4956334786314 1.55625171143446 4.0
endloop
endfacet
facet normal -2.74360147764102e-017 0.196116135138184 0.98058067569092
outer loop
vertex 81.4956334786314 33.5562517114345 4.0
vertex 79.4956334786314 43.5562517114345 2.0
vertex 79.4956334786314 33.5562517114345 4.0
endloop
endfacet
facet normal -2.74360147764102e-017 0.196116135138184 0.98058067569092
outer loop
vertex 79.4956334786314 43.5562517114345 2.0
vertex 81.4956334786314 33.5562517114345 4.0
vertex 81.4956334786314 43.5562517114345 2.0
endloop
endfacet
facet normal 0.0 0.196116135138184 0.98058067569092
outer loop
vertex 60.4956334786314 33.5562517114345 4.0
vertex 58.4956334786314 43.5562517114345 2.0
vertex 58.4956334786314 33.5562517114345 4.0
endloop
endfacet
facet normal 0.0 0.196116135138184 0.98058067569092
outer loop
vertex 58.4956334786314 43.5562517114345 2.0
vertex 60.4956334786314 33.5562517114345 4.0
vertex 60.4956334786314 43.5562517114345 2.0
endloop
endfacet
facet normal -9.74723049879364e-031 -0.196116135138184 0.98058067569092
outer loop
vertex 60.4956334786314 -8.44374828856554 2.0
vertex 58.4956334786314 1.55625171143446 4.0
vertex 58.4956334786314 -8.44374828856554 2.0
endloop
endfacet
facet normal -9.74723049879364e-031 -0.196116135138184 0.98058067569092
outer loop
vertex 58.4956334786314 1.55625171143446 4.0
vertex 60.4956334786314 -8.44374828856554 2.0
vertex 60.4956334786314 1.55625171143446 4.0
endloop
endfacet
facet normal 0.130526192220057 0.99144486137381 1.21280887395072e-017
outer loop
vertex 78.8430025175312 43.5990274045654 1.0
vertex 79.4956334786314 43.5562517114345 -1.0
vertex 78.8430025175312 43.5990274045654 -1.0
endloop
endfacet
facet normal 0.0654031292301468 0.997858923238603 5.1901896787077e-018
outer loop
vertex 79.4956334786314 43.5562517114345 -1.0
vertex 78.8430025175312 43.5990274045654 1.0
vertex 79.4956334786314 43.5562517114345 1.0
endloop
endfacet
facet normal 0.0 1.0 0.0
outer loop
vertex 79.4956334786314 43.5562517114345 1.0
vertex 83.9956334786314 43.5562517114345 -1.0
vertex 79.4956334786314 43.5562517114345 -1.0
endloop
endfacet
facet normal 0.0 1.0 0.0
outer loop
vertex 83.9956334786314 43.5562517114345 -1.0
vertex 79.4956334786314 43.5562517114345 1.0
vertex 83.9956334786314 43.5562517114345 1.0
endloop
endfacet
facet normal 0.0 1.0 0.0
outer loop
vertex 83.9956334786314 43.5562517114345 1.0
vertex 79.4956334786314 43.5562517114345 1.0
vertex 81.4956334786314 43.5562517114345 1.0
endloop
endfacet
facet normal 0.0 1.0 0.0
outer loop
vertex 81.4956334786314 43.5562517114345 1.0
vertex 79.4956334786314 43.5562517114345 1.0
vertex 79.4956334786314 43.5562517114345 2.0
endloop
endfacet
facet normal 0.0 1.0 0.0
outer loop
vertex 81.4956334786314 43.5562517114345 1.0
vertex 79.4956334786314 43.5562517114345 2.0
vertex 81.4956334786314 43.5562517114345 2.0
endloop
endfacet
endsolid ESC_case_v3
