solid ESC_case_v3
facet normal -1.0 0.0 0.0
outer loop
vertex 25.0 3.0 4.0
vertex 25.0 -0.499999999999996 0.5
vertex 25.0 -0.499999999999996 4.0
endloop
endfacet
facet normal -1.0 0.0 0.0
outer loop
vertex 25.0 -0.499999999999996 0.5
vertex 25.0 3.0 4.0
vertex 25.0 3.0 0.5
endloop
endfacet
facet normal 0.0 1.0 0.0
outer loop
vertex 25.0 3.0 4.0
vertex 26.0 3.0 0.5
vertex 25.0 3.0 0.5
endloop
endfacet
facet normal 0.0 1.0 0.0
outer loop
vertex 26.0 3.0 0.5
vertex 25.0 3.0 4.0
vertex 26.0 3.0 4.0
endloop
endfacet
facet normal 0.0 1.0 0.0
outer loop
vertex 0.0 3.0 4.0
vertex 3.0 3.0 0.5
vertex 0.0 3.0 0.5
endloop
endfacet
facet normal 0.0 1.0 0.0
outer loop
vertex 3.0 3.0 0.5
vertex 0.0 3.0 4.0
vertex 3.0 3.0 4.0
endloop
endfacet
facet normal 1.0 0.0 0.0
outer loop
vertex 3.0 3.0 0.5
vertex 3.0 -0.5 4.0
vertex 3.0 -0.5 0.5
endloop
endfacet
facet normal 1.0 0.0 0.0
outer loop
vertex 3.0 -0.5 4.0
vertex 3.0 3.0 0.5
vertex 3.0 3.0 4.0
endloop
endfacet
facet normal 0.0 0.0 1.0
outer loop
vertex 10.5 32.0 4.0
vertex 0.0 34.0 4.0
vertex 0.0 32.0 4.0
endloop
endfacet
facet normal 0.0 0.0 1.0
outer loop
vertex 0.0 34.0 4.0
vertex 10.5 32.0 4.0
vertex 10.5 34.0 4.0
endloop
endfacet
facet normal 1.0 0.0 0.0
outer loop
vertex 10.5 40.0 0.499999999999999
vertex 10.5 34.0 4.0
vertex 10.5 34.0 0.5
endloop
endfacet
facet normal 1.0 0.0 0.0
outer loop
vertex 10.5 34.0 4.0
vertex 10.5 40.0 0.499999999999999
vertex 10.5 34.0 10.0
endloop
endfacet
facet normal 1.0 0.0 0.0
outer loop
vertex 10.5 34.0 10.0
vertex 10.5 40.0 0.499999999999999
vertex 10.5 40.0 10.0
endloop
endfacet
facet normal 0.0 -1.0 0.0
outer loop
vertex 10.5 32.0 0.5
vertex 0.0 32.0 4.0
vertex 0.0 32.0 0.5
endloop
endfacet
facet normal 0.0 -1.0 0.0
outer loop
vertex 0.0 32.0 4.0
vertex 10.5 32.0 0.5
vertex 10.5 32.0 4.0
endloop
endfacet
facet normal 0.0 0.0 1.0
outer loop
vertex 26.0 31.0 4.0
vertex 23.0 32.0 4.0
vertex 23.0 31.0 4.0
endloop
endfacet
facet normal 0.0 0.0 1.0
outer loop
vertex 23.0 32.0 4.0
vertex 15.5 34.0 4.0
vertex 15.5 32.0 4.0
endloop
endfacet
facet normal 0.0 0.0 1.0
outer loop
vertex 15.5 34.0 4.0
vertex 23.0 32.0 4.0
vertex 26.0 34.0 4.0
endloop
endfacet
facet normal 0.0 0.0 1.0
outer loop
vertex 26.0 34.0 4.0
vertex 23.0 32.0 4.0
vertex 26.0 31.0 4.0
endloop
endfacet
facet normal 0.0 -1.0 0.0
outer loop
vertex 26.0 31.0 4.0
vertex 23.0 31.0 0.5
vertex 26.0 31.0 0.5
endloop
endfacet
facet normal 0.0 -1.0 0.0
outer loop
vertex 23.0 31.0 0.5
vertex 26.0 31.0 4.0
vertex 23.0 31.0 4.0
endloop
endfacet
facet normal -1.0 0.0 0.0
outer loop
vertex 23.0 32.0 4.0
vertex 23.0 31.0 0.5
vertex 23.0 31.0 4.0
endloop
endfacet
facet normal -1.0 0.0 0.0
outer loop
vertex 23.0 31.0 0.5
vertex 23.0 32.0 4.0
vertex 23.0 32.0 0.5
endloop
endfacet
facet normal 0.0 1.0 0.0
outer loop
vertex -1.0 35.0 10.0
vertex 3.5 35.0 -1.0
vertex -1.0 35.0 -1.0
endloop
endfacet
facet normal 0.0 1.0 0.0
outer loop
vertex 3.5 35.0 -1.0
vertex -1.0 35.0 10.0
vertex 3.5 35.0 10.0
endloop
endfacet
facet normal 0.0 -1.0 0.0
outer loop
vertex 10.5 34.0 10.0
vertex 0.0 34.0 4.0
vertex 10.5 34.0 4.0
endloop
endfacet
facet normal 0.0 -1.0 0.0
outer loop
vertex 0.0 34.0 4.0
vertex 10.5 34.0 10.0
vertex 0.0 34.0 10.0
endloop
endfacet
facet normal 0.0 -1.0 0.0
outer loop
vertex 26.0 34.0 10.0
vertex 15.5 34.0 4.0
vertex 26.0 34.0 4.0
endloop
endfacet
facet normal 0.0 -1.0 0.0
outer loop
vertex 15.5 34.0 4.0
vertex 26.0 34.0 10.0
vertex 15.5 34.0 10.0
endloop
endfacet
facet normal 0.0 7.04991620636975e-016 1.0
outer loop
vertex 21.0 -1.99999999999999 6.0
vertex 15.5 -0.499999999999999 6.0
vertex 15.5 -1.99999999999999 6.0
endloop
endfacet
facet normal 0.0 7.04991620636975e-016 1.0
outer loop
vertex 15.5 -0.499999999999999 6.0
vertex 21.0 -1.99999999999999 6.0
vertex 21.0 -0.499999999999999 6.0
endloop
endfacet
facet normal -1.0 0.0 0.0
outer loop
vertex 5.0 -0.499999999999999 6.0
vertex 5.0 -1.99999999999999 4.0
vertex 5.0 -1.99999999999999 6.0
endloop
endfacet
facet normal -1.0 0.0 0.0
outer loop
vertex 5.0 -1.99999999999999 4.0
vertex 5.0 -0.499999999999999 6.0
vertex 5.0 -0.500000000000002 4.0
endloop
endfacet
facet normal 1.0 0.0 0.0
outer loop
vertex 21.0 -0.499999999999999 4.0
vertex 21.0 -1.99999999999999 6.0
vertex 21.0 -1.99999999999999 4.0
endloop
endfacet
facet normal 1.0 0.0 0.0
outer loop
vertex 21.0 -1.99999999999999 6.0
vertex 21.0 -0.499999999999999 4.0
vertex 21.0 -0.499999999999999 6.0
endloop
endfacet
facet normal 0.0 7.04991620636975e-016 1.0
outer loop
vertex 10.5 -1.99999999999999 6.0
vertex 5.0 -0.499999999999999 6.0
vertex 5.0 -1.99999999999999 6.0
endloop
endfacet
facet normal 0.0 7.04991620636975e-016 1.0
outer loop
vertex 5.0 -0.499999999999999 6.0
vertex 10.5 -1.99999999999999 6.0
vertex 10.5 -0.499999999999999 6.0
endloop
endfacet
facet normal 1.0 0.0 0.0
outer loop
vertex 10.5 -0.5 0.5
vertex 10.5 -1.99999999999999 6.0
vertex 10.5 -1.99999999999999 0.5
endloop
endfacet
facet normal 1.0 0.0 0.0
outer loop
vertex 10.5 -1.99999999999999 6.0
vertex 10.5 -0.5 0.5
vertex 10.5 -0.499999999999999 6.0
endloop
endfacet
facet normal -1.0 0.0 0.0
outer loop
vertex 15.5 -0.499999999999999 6.0
vertex 15.5 -1.99999999999999 0.5
vertex 15.5 -1.99999999999999 6.0
endloop
endfacet
facet normal -1.0 0.0 0.0
outer loop
vertex 15.5 -1.99999999999999 0.5
vertex 15.5 -0.499999999999999 6.0
vertex 15.5 -0.5 0.500000000000001
endloop
endfacet
facet normal -3.03391357303129e-017 1.0 6.04254453295399e-017
outer loop
vertex 3.0 -0.5 4.0
vertex 10.5 -0.5 0.5
vertex 3.0 -0.5 0.5
endloop
endfacet
facet normal -3.03391357303129e-017 1.0 6.04254453295399e-017
outer loop
vertex 10.5 -0.5 0.5
vertex 3.0 -0.5 4.0
vertex 5.0 -0.500000000000002 4.0
endloop
endfacet
facet normal -3.03391357303129e-017 1.0 6.04254453295399e-017
outer loop
vertex 10.5 -0.5 0.5
vertex 5.0 -0.500000000000002 4.0
vertex 10.5 -0.499999999999999 6.0
endloop
endfacet
facet normal -3.03391357303129e-017 1.0 6.04254453295399e-017
outer loop
vertex 10.5 -0.499999999999999 6.0
vertex 5.0 -0.500000000000002 4.0
vertex 5.0 -0.499999999999999 6.0
endloop
endfacet
facet normal 0.0 1.0 0.0
outer loop
vertex 22.5 35.0 10.0
vertex 27.0 35.0 -1.0
vertex 22.5 35.0 -1.0
endloop
endfacet
facet normal 0.0 1.0 0.0
outer loop
vertex 27.0 35.0 -1.0
vertex 22.5 35.0 10.0
vertex 27.0 35.0 10.0
endloop
endfacet
facet normal 0.0 1.0 0.0
outer loop
vertex 8.5 40.0 -1.0
vertex 10.5 40.0 0.499999999999999
vertex 17.5 40.0 -1.0
endloop
endfacet
facet normal 0.0 1.0 0.0
outer loop
vertex 10.5 40.0 0.499999999999999
vertex 8.5 40.0 -1.0
vertex 8.5 40.0 10.0
endloop
endfacet
facet normal 0.0 1.0 0.0
outer loop
vertex 10.5 40.0 0.499999999999999
vertex 8.5 40.0 10.0
vertex 10.5 40.0 10.0
endloop
endfacet
facet normal 0.0 1.0 0.0
outer loop
vertex 17.5 40.0 -1.0
vertex 15.5 40.0 0.499999999999999
vertex 17.5 40.0 10.0
endloop
endfacet
facet normal 0.0 1.0 0.0
outer loop
vertex 15.5 40.0 0.499999999999999
vertex 17.5 40.0 -1.0
vertex 10.5 40.0 0.499999999999999
endloop
endfacet
facet normal 0.0 1.0 0.0
outer loop
vertex 17.5 40.0 10.0
vertex 15.5 40.0 0.499999999999999
vertex 15.5 40.0 10.0
endloop
endfacet
facet normal -1.0 0.0 0.0
outer loop
vertex 15.5 40.0 10.0
vertex 15.5 34.0 4.0
vertex 15.5 34.0 10.0
endloop
endfacet
facet normal -1.0 0.0 0.0
outer loop
vertex 15.5 34.0 4.0
vertex 15.5 32.0 0.5
vertex 15.5 32.0 4.0
endloop
endfacet
facet normal -1.0 0.0 0.0
outer loop
vertex 15.5 32.0 0.5
vertex 15.5 34.0 4.0
vertex 15.5 40.0 0.499999999999999
endloop
endfacet
facet normal -1.0 0.0 0.0
outer loop
vertex 15.5 40.0 0.499999999999999
vertex 15.5 34.0 4.0
vertex 15.5 40.0 10.0
endloop
endfacet
facet normal -0.0654031292301476 0.997858923238603 0.0
outer loop
vertex 3.5 35.0 10.0
vertex 4.15263096110026 35.0427756931309 -1.0
vertex 3.5 35.0 -1.0
endloop
endfacet
facet normal -0.130526192220052 0.99144486137381 -2.84097318425583e-019
outer loop
vertex 4.15263096110026 35.0427756931309 -1.0
vertex 3.5 35.0 10.0
vertex 4.15263096110026 35.0427756931309 10.0
endloop
endfacet
facet normal -0.130526192220052 0.99144486137381 -2.84097318425583e-019
outer loop
vertex 4.15263096110026 35.0427756931309 10.0
vertex 4.7940952255126 35.1703708685547 -1.0
vertex 4.15263096110026 35.0427756931309 -1.0
endloop
endfacet
facet normal -0.25881904510252 0.965925826289068 -2.84097318425583e-019
outer loop
vertex 4.7940952255126 35.1703708685547 -1.0
vertex 4.15263096110026 35.0427756931309 10.0
vertex 4.7940952255126 35.1703708685547 10.0
endloop
endfacet
facet normal -0.25881904510252 0.965925826289068 -2.84097318425583e-019
outer loop
vertex 4.7940952255126 35.1703708685547 10.0
vertex 5.41341716182545 35.3806023374436 -1.0
vertex 4.7940952255126 35.1703708685547 -1.0
endloop
endfacet
facet normal -0.382683432365089 0.923879532511287 0.0
outer loop
vertex 5.41341716182545 35.3806023374436 -1.0
vertex 4.7940952255126 35.1703708685547 10.0
vertex 5.41341716182545 35.3806023374436 10.0
endloop
endfacet
facet normal -0.382683432365089 0.923879532511287 0.0
outer loop
vertex 5.41341716182545 35.3806023374436 10.0
vertex 6.0 35.6698729810778 -1.0
vertex 5.41341716182545 35.3806023374436 -1.0
endloop
endfacet
facet normal -0.500000000000001 0.866025403784438 -1.36905144383876e-032
outer loop
vertex 6.0 35.6698729810778 -1.0
vertex 5.41341716182545 35.3806023374436 10.0
vertex 6.0 35.6698729810778 10.0
endloop
endfacet
facet normal -0.500000000000001 0.866025403784438 -1.36905144383876e-032
outer loop
vertex 6.0 35.6698729810778 10.0
vertex 6.5438071450436 36.0332332985438 -1.0
vertex 6.0 35.6698729810778 -1.0
endloop
endfacet
facet normal -0.608761429008723 0.793353340291233 -1.36905144383876e-032
outer loop
vertex 6.5438071450436 36.0332332985438 -1.0
vertex 6.0 35.6698729810778 10.0
vertex 6.5438071450436 36.0332332985438 10.0
endloop
endfacet
facet normal -0.608761429008723 0.793353340291233 -1.36905144383876e-032
outer loop
vertex 6.5438071450436 36.0332332985438 10.0
vertex 7.03553390593274 36.4644660940673 -1.0
vertex 6.5438071450436 36.0332332985438 -1.0
endloop
endfacet
facet normal -0.707106781186548 0.707106781186547 0.0
outer loop
vertex 7.03553390593274 36.4644660940673 -1.0
vertex 6.5438071450436 36.0332332985438 10.0
vertex 7.03553390593274 36.4644660940673 10.0
endloop
endfacet
facet normal -0.793353340291233 0.608761429008723 -9.14770928985644e-033
outer loop
vertex 7.46676670145618 36.9561928549564 10.0
vertex 7.03553390593274 36.4644660940673 -1.0
vertex 7.03553390593274 36.4644660940673 10.0
endloop
endfacet
facet normal -0.707106781186548 0.707106781186547 0.0
outer loop
vertex 7.03553390593274 36.4644660940673 -1.0
vertex 7.46676670145618 36.9561928549564 10.0
vertex 7.46676670145618 36.9561928549564 -1.0
endloop
endfacet
facet normal -0.866025403784438 0.500000000000001 -1.86523064026335e-033
outer loop
vertex 7.8301270189222 37.5 10.0
vertex 7.46676670145618 36.9561928549564 -1.0
vertex 7.46676670145618 36.9561928549564 10.0
endloop
endfacet
facet normal -0.793353340291233 0.608761429008723 -9.14770928985644e-033
outer loop
vertex 7.46676670145618 36.9561928549564 -1.0
vertex 7.8301270189222 37.5 10.0
vertex 7.8301270189222 37.5 -1.0
endloop
endfacet
facet normal -0.923879532511287 0.382683432365089 7.28247864959309e-033
outer loop
vertex 8.11939766255644 38.0865828381746 10.0
vertex 7.8301270189222 37.5 -1.0
vertex 7.8301270189222 37.5 10.0
endloop
endfacet
facet normal -0.866025403784438 0.500000000000001 -1.86523064026335e-033
outer loop
vertex 7.8301270189222 37.5 -1.0
vertex 8.11939766255644 38.0865828381746 10.0
vertex 8.11939766255644 38.0865828381746 -1.0
endloop
endfacet
facet normal -0.965925826289069 0.258819045102519 -3.21224832613553e-033
outer loop
vertex 8.32962913144535 38.7059047744874 10.0
vertex 8.11939766255644 38.0865828381746 -1.0
vertex 8.11939766255644 38.0865828381746 10.0
endloop
endfacet
facet normal -0.923879532511287 0.382683432365089 7.28247864959309e-033
outer loop
vertex 8.11939766255644 38.0865828381746 -1.0
vertex 8.32962913144535 38.7059047744874 10.0
vertex 8.32962913144535 38.7059047744874 -1.0
endloop
endfacet
facet normal -0.991444861373811 0.130526192220049 6.87419651915389e-020
outer loop
vertex 8.45722430686905 39.3473690388998 10.0
vertex 8.32962913144535 38.7059047744874 -1.0
vertex 8.32962913144535 38.7059047744874 10.0
endloop
endfacet
facet normal -0.965925826289069 0.258819045102519 -3.21224832613553e-033
outer loop
vertex 8.32962913144535 38.7059047744874 -1.0
vertex 8.45722430686905 39.3473690388998 10.0
vertex 8.45722430686905 39.3473690388998 -1.0
endloop
endfacet
facet normal -0.997858923238604 0.0654031292301447 1.37189566734675e-019
outer loop
vertex 8.5 40.0 10.0
vertex 8.45722430686905 39.3473690388998 -1.0
vertex 8.45722430686905 39.3473690388998 10.0
endloop
endfacet
facet normal -0.991444861373811 0.130526192220049 6.87419651915388e-020
outer loop
vertex 8.45722430686905 39.3473690388998 -1.0
vertex 8.5 40.0 10.0
vertex 8.5 40.0 -1.0
endloop
endfacet
facet normal 0.130526192220052 0.99144486137381 0.0
outer loop
vertex 21.8473690388997 35.0427756931309 10.0
vertex 22.5 35.0 -1.0
vertex 21.8473690388997 35.0427756931309 -1.0
endloop
endfacet
facet normal 0.0654031292301473 0.997858923238603 0.0
outer loop
vertex 22.5 35.0 -1.0
vertex 21.8473690388997 35.0427756931309 10.0
vertex 22.5 35.0 10.0
endloop
endfacet
facet normal 0.997858923238604 0.065403129230143 3.51123160518346e-020
outer loop
vertex 17.5 40.0 -1.0
vertex 17.5427756931309 39.3473690388997 10.0
vertex 17.5427756931309 39.3473690388997 -1.0
endloop
endfacet
facet normal 0.99144486137381 0.130526192220052 1.75938277616818e-020
outer loop
vertex 17.5427756931309 39.3473690388997 10.0
vertex 17.5 40.0 -1.0
vertex 17.5 40.0 10.0
endloop
endfacet
facet normal 0.99144486137381 0.130526192220052 1.75938277616819e-020
outer loop
vertex 17.5427756931309 39.3473690388997 -1.0
vertex 17.6703708685547 38.7059047744874 10.0
vertex 17.6703708685547 38.7059047744874 -1.0
endloop
endfacet
facet normal 0.965925826289068 0.258819045102521 0.0
outer loop
vertex 17.6703708685547 38.7059047744874 10.0
vertex 17.5427756931309 39.3473690388997 -1.0
vertex 17.5427756931309 39.3473690388997 10.0
endloop
endfacet
facet normal 0.965925826289068 0.258819045102521 0.0
outer loop
vertex 17.6703708685547 38.7059047744874 -1.0
vertex 17.8806023374436 38.0865828381746 10.0
vertex 17.8806023374436 38.0865828381746 -1.0
endloop
endfacet
facet normal 0.923879532511287 0.382683432365089 0.0
outer loop
vertex 17.8806023374436 38.0865828381746 10.0
vertex 17.6703708685547 38.7059047744874 -1.0
vertex 17.6703708685547 38.7059047744874 10.0
endloop
endfacet
facet normal 0.923879532511287 0.382683432365089 0.0
outer loop
vertex 17.8806023374436 38.0865828381746 -1.0
vertex 18.1698729810778 37.5 10.0
vertex 18.1698729810778 37.5 -1.0
endloop
endfacet
facet normal 0.866025403784438 0.500000000000001 0.0
outer loop
vertex 18.1698729810778 37.5 10.0
vertex 17.8806023374436 38.0865828381746 -1.0
vertex 17.8806023374436 38.0865828381746 10.0
endloop
endfacet
facet normal 0.866025403784438 0.500000000000001 0.0
outer loop
vertex 18.1698729810778 37.5 -1.0
vertex 18.5332332985438 36.9561928549564 10.0
vertex 18.5332332985438 36.9561928549564 -1.0
endloop
endfacet
facet normal 0.793353340291236 0.60876142900872 0.0
outer loop
vertex 18.5332332985438 36.9561928549564 10.0
vertex 18.1698729810778 37.5 -1.0
vertex 18.1698729810778 37.5 10.0
endloop
endfacet
facet normal 0.793353340291236 0.60876142900872 0.0
outer loop
vertex 18.5332332985438 36.9561928549564 -1.0
vertex 18.9644660940673 36.4644660940673 10.0
vertex 18.9644660940673 36.4644660940673 -1.0
endloop
endfacet
facet normal 0.707106781186547 0.707106781186548 0.0
outer loop
vertex 18.9644660940673 36.4644660940673 10.0
vertex 18.5332332985438 36.9561928549564 -1.0
vertex 18.5332332985438 36.9561928549564 10.0
endloop
endfacet
facet normal 0.707106781186547 0.707106781186548 0.0
outer loop
vertex 18.9644660940673 36.4644660940673 10.0
vertex 19.4561928549564 36.0332332985438 -1.0
vertex 18.9644660940673 36.4644660940673 -1.0
endloop
endfacet
facet normal 0.608761429008721 0.793353340291235 0.0
outer loop
vertex 19.4561928549564 36.0332332985438 -1.0
vertex 18.9644660940673 36.4644660940673 10.0
vertex 19.4561928549564 36.0332332985438 10.0
endloop
endfacet
facet normal 0.608761429008721 0.793353340291235 0.0
outer loop
vertex 19.4561928549564 36.0332332985438 10.0
vertex 20.0 35.6698729810778 -1.0
vertex 19.4561928549564 36.0332332985438 -1.0
endloop
endfacet
facet normal 0.500000000000001 0.866025403784438 0.0
outer loop
vertex 20.0 35.6698729810778 -1.0
vertex 19.4561928549564 36.0332332985438 10.0
vertex 20.0 35.6698729810778 10.0
endloop
endfacet
facet normal 0.500000000000001 0.866025403784438 0.0
outer loop
vertex 20.0 35.6698729810778 10.0
vertex 20.5865828381746 35.3806023374436 -1.0
vertex 20.0 35.6698729810778 -1.0
endloop
endfacet
facet normal 0.382683432365089 0.923879532511287 0.0
outer loop
vertex 20.5865828381746 35.3806023374436 -1.0
vertex 20.0 35.6698729810778 10.0
vertex 20.5865828381746 35.3806023374436 10.0
endloop
endfacet
facet normal 0.382683432365089 0.923879532511287 0.0
outer loop
vertex 20.5865828381746 35.3806023374436 10.0
vertex 21.2059047744874 35.1703708685547 -1.0
vertex 20.5865828381746 35.3806023374436 -1.0
endloop
endfacet
facet normal 0.258819045102521 0.965925826289068 0.0
outer loop
vertex 21.2059047744874 35.1703708685547 -1.0
vertex 20.5865828381746 35.3806023374436 10.0
vertex 21.2059047744874 35.1703708685547 10.0
endloop
endfacet
facet normal 0.258819045102521 0.965925826289068 0.0
outer loop
vertex 21.2059047744874 35.1703708685547 10.0
vertex 21.8473690388997 35.0427756931309 -1.0
vertex 21.2059047744874 35.1703708685547 -1.0
endloop
endfacet
facet normal 0.130526192220052 0.99144486137381 0.0
outer loop
vertex 21.8473690388997 35.0427756931309 -1.0
vertex 21.2059047744874 35.1703708685547 10.0
vertex 21.8473690388997 35.0427756931309 10.0
endloop
endfacet
facet normal 1.0 0.0 0.0
outer loop
vertex 0.0 32.0 0.5
vertex 0.0 3.0 4.0
vertex 0.0 3.0 0.5
endloop
endfacet
facet normal 1.0 0.0 0.0
outer loop
vertex 0.0 -1.99999999999999 0.5
vertex 0.0 -11.0 9.99999999999999
vertex 0.0 -11.0 0.5
endloop
endfacet
facet normal 1.0 0.0 0.0
outer loop
vertex 0.0 -11.0 9.99999999999999
vertex 0.0 -1.99999999999999 0.5
vertex 0.0 -1.99999999999999 4.0
endloop
endfacet
facet normal 1.0 0.0 0.0
outer loop
vertex 0.0 -11.0 9.99999999999999
vertex 0.0 -1.99999999999999 4.0
vertex 0.0 34.0 10.0
endloop
endfacet
facet normal 1.0 0.0 0.0
outer loop
vertex 0.0 34.0 10.0
vertex 0.0 -1.99999999999999 4.0
vertex 0.0 3.0 4.0
endloop
endfacet
facet normal 1.0 0.0 0.0
outer loop
vertex 0.0 34.0 10.0
vertex 0.0 3.0 4.0
vertex 0.0 32.0 4.0
endloop
endfacet
facet normal 1.0 0.0 0.0
outer loop
vertex 0.0 32.0 4.0
vertex 0.0 3.0 4.0
vertex 0.0 32.0 0.5
endloop
endfacet
facet normal 1.0 0.0 0.0
outer loop
vertex 0.0 34.0 10.0
vertex 0.0 32.0 4.0
vertex 0.0 34.0 4.0
endloop
endfacet
facet normal -1.0 0.0 0.0
outer loop
vertex 26.0 34.0 10.0
vertex 26.0 -8.99999999999999 4.0
vertex 26.0 -8.99999999999999 9.99999999999999
endloop
endfacet
facet normal -1.0 0.0 0.0
outer loop
vertex 26.0 -8.99999999999999 4.0
vertex 26.0 34.0 10.0
vertex 26.0 3.0 4.0
endloop
endfacet
facet normal -1.0 0.0 0.0
outer loop
vertex 26.0 3.0 4.0
vertex 26.0 34.0 10.0
vertex 26.0 3.0 0.5
endloop
endfacet
facet normal -1.0 0.0 0.0
outer loop
vertex 26.0 3.0 0.5
vertex 26.0 34.0 10.0
vertex 26.0 31.0 4.0
endloop
endfacet
facet normal -1.0 0.0 0.0
outer loop
vertex 26.0 31.0 4.0
vertex 26.0 34.0 10.0
vertex 26.0 34.0 4.0
endloop
endfacet
facet normal -1.0 0.0 0.0
outer loop
vertex 26.0 31.0 0.5
vertex 26.0 3.0 0.5
vertex 26.0 31.0 4.0
endloop
endfacet
facet normal -1.00713088662425e-016 -1.0 1.56321502395334e-031
outer loop
vertex 27.0 -17.0 -1.0
vertex -0.999999999999967 -17.0 10.0
vertex -1.0 -17.0 -1.0
endloop
endfacet
facet normal -1.00713088662425e-016 -1.0 1.56321502395334e-031
outer loop
vertex -0.999999999999967 -17.0 10.0
vertex 27.0 -17.0 -1.0
vertex 27.0 -17.0 10.0
endloop
endfacet
facet normal 3.17033430484763e-017 3.20233093058307e-017 1.0
outer loop
vertex 10.5 -0.5 0.5
vertex 3.0 3.0 0.5
vertex 3.0 -0.5 0.5
endloop
endfacet
facet normal 3.17033430484763e-017 3.20233093058307e-017 1.0
outer loop
vertex 3.0 3.0 0.5
vertex 0.0 32.0 0.5
vertex 0.0 3.0 0.5
endloop
endfacet
facet normal 3.17033430484763e-017 3.20233093058307e-017 1.0
outer loop
vertex 0.0 32.0 0.5
vertex 3.0 3.0 0.5
vertex 10.5 32.0 0.5
endloop
endfacet
facet normal 3.17033430484763e-017 3.20233093058307e-017 1.0
outer loop
vertex 10.5 32.0 0.5
vertex 3.0 3.0 0.5
vertex 10.5 -0.5 0.5
endloop
endfacet
facet normal 3.17033430484763e-017 3.20233093058307e-017 1.0
outer loop
vertex 4.00000000000001 -15.0 0.500000000000008
vertex 0.0 -1.99999999999999 0.5
vertex 0.0 -11.0 0.5
endloop
endfacet
facet normal 3.17033430484763e-017 3.20233093058307e-017 1.0
outer loop
vertex 0.0 -1.99999999999999 0.5
vertex 4.00000000000001 -15.0 0.500000000000008
vertex 10.5 -1.99999999999999 0.5
endloop
endfacet
facet normal 3.17033430484763e-017 3.20233093058307e-017 1.0
outer loop
vertex 10.5 -1.99999999999999 0.5
vertex 4.00000000000001 -15.0 0.500000000000008
vertex 21.0 -15.0 0.5
endloop
endfacet
facet normal 3.17033430484763e-017 3.20233093058307e-017 1.0
outer loop
vertex 10.5 -1.99999999999999 0.5
vertex 21.0 -15.0 0.5
vertex 10.5 -0.5 0.5
endloop
endfacet
facet normal 3.17033430484763e-017 3.20233093058307e-017 1.0
outer loop
vertex 10.5 -0.5 0.5
vertex 21.0 -15.0 0.5
vertex 15.5 -1.99999999999999 0.5
endloop
endfacet
facet normal 3.17033430484763e-017 3.20233093058307e-017 1.0
outer loop
vertex 10.5 -0.5 0.5
vertex 15.5 -1.99999999999999 0.5
vertex 10.5 32.0 0.5
endloop
endfacet
facet normal 3.17033430484763e-017 3.20233093058307e-017 1.0
outer loop
vertex 10.5 32.0 0.5
vertex 15.5 -1.99999999999999 0.5
vertex 10.5 34.0 0.5
endloop
endfacet
facet normal 3.17033430484763e-017 3.20233093058307e-017 1.0
outer loop
vertex 10.5 34.0 0.5
vertex 15.5 -1.99999999999999 0.5
vertex 10.5 40.0 0.499999999999999
endloop
endfacet
facet normal 3.17033430484763e-017 3.20233093058307e-017 1.0
outer loop
vertex 15.5 -1.99999999999999 0.5
vertex 21.0 -15.0 0.5
vertex 21.0 -1.99999999999999 0.5
endloop
endfacet
facet normal 3.17033430484763e-017 3.20233093058307e-017 1.0
outer loop
vertex 25.0 -0.499999999999996 0.5
vertex 15.5 32.0 0.5
vertex 15.5 -0.5 0.500000000000001
endloop
endfacet
facet normal 3.17033430484763e-017 3.20233093058307e-017 1.0
outer loop
vertex 15.5 32.0 0.5
vertex 25.0 -0.499999999999996 0.5
vertex 23.0 31.0 0.5
endloop
endfacet
facet normal 3.17033430484763e-017 3.20233093058307e-017 1.0
outer loop
vertex 23.0 31.0 0.5
vertex 25.0 -0.499999999999996 0.5
vertex 25.0 3.0 0.5
endloop
endfacet
facet normal 3.17033430484763e-017 3.20233093058307e-017 1.0
outer loop
vertex 23.0 31.0 0.5
vertex 25.0 3.0 0.5
vertex 26.0 31.0 0.5
endloop
endfacet
facet normal 3.17033430484763e-017 3.20233093058307e-017 1.0
outer loop
vertex 26.0 31.0 0.5
vertex 25.0 3.0 0.5
vertex 26.0 3.0 0.5
endloop
endfacet
facet normal 3.17033430484763e-017 3.20233093058307e-017 1.0
outer loop
vertex 23.0 32.0 0.5
vertex 15.5 32.0 0.5
vertex 23.0 31.0 0.5
endloop
endfacet
facet normal 3.17033430484763e-017 3.20233093058307e-017 1.0
outer loop
vertex 15.5 -1.99999999999999 0.5
vertex 15.5 40.0 0.499999999999999
vertex 10.5 40.0 0.499999999999999
endloop
endfacet
facet normal 3.17033430484763e-017 3.20233093058307e-017 1.0
outer loop
vertex 15.5 40.0 0.499999999999999
vertex 15.5 -1.99999999999999 0.5
vertex 15.5 -0.5 0.500000000000001
endloop
endfacet
facet normal 3.17033430484763e-017 3.20233093058307e-017 1.0
outer loop
vertex 15.5 40.0 0.499999999999999
vertex 15.5 -0.5 0.500000000000001
vertex 15.5 32.0 0.5
endloop
endfacet
facet normal 0.707106781186547 0.707106781186548 1.75861258792435e-016
outer loop
vertex 0.0 -11.0 9.99999999999999
vertex 4.00000000000001 -15.0 0.500000000000008
vertex 0.0 -11.0 0.5
endloop
endfacet
facet normal 0.707106781186547 0.707106781186548 1.75861258792435e-016
outer loop
vertex 4.00000000000001 -15.0 0.500000000000008
vertex 0.0 -11.0 9.99999999999999
vertex 4.0 -15.0 10.0
endloop
endfacet
facet normal 0.0 0.0 1.0
outer loop
vertex 0.0 -1.99999999999999 4.0
vertex 3.0 -0.5 4.0
vertex 0.0 3.0 4.0
endloop
endfacet
facet normal 0.0 0.0 1.0
outer loop
vertex 3.0 -0.5 4.0
vertex 0.0 -1.99999999999999 4.0
vertex 5.0 -1.99999999999999 4.0
endloop
endfacet
facet normal 0.0 0.0 1.0
outer loop
vertex 3.0 -0.5 4.0
vertex 5.0 -1.99999999999999 4.0
vertex 5.0 -0.500000000000002 4.0
endloop
endfacet
facet normal 0.0 0.0 1.0
outer loop
vertex 3.0 3.0 4.0
vertex 0.0 3.0 4.0
vertex 3.0 -0.5 4.0
endloop
endfacet
facet normal 2.27230745411427e-017 -1.0 1.14386280702333e-016
outer loop
vertex 10.5 -1.99999999999999 6.0
vertex 0.0 -1.99999999999999 0.5
vertex 10.5 -1.99999999999999 0.5
endloop
endfacet
facet normal 2.27230745411427e-017 -1.0 1.14386280702333e-016
outer loop
vertex 0.0 -1.99999999999999 0.5
vertex 10.5 -1.99999999999999 6.0
vertex 5.0 -1.99999999999999 4.0
endloop
endfacet
facet normal 2.27230745411427e-017 -1.0 1.14386280702333e-016
outer loop
vertex 5.0 -1.99999999999999 4.0
vertex 10.5 -1.99999999999999 6.0
vertex 5.0 -1.99999999999999 6.0
endloop
endfacet
facet normal 2.27230745411427e-017 -1.0 1.14386280702333e-016
outer loop
vertex 0.0 -1.99999999999999 4.0
vertex 0.0 -1.99999999999999 0.5
vertex 5.0 -1.99999999999999 4.0
endloop
endfacet
facet normal -2.54662837075367e-017 -1.0 1.35395741711737e-016
outer loop
vertex 21.0 -1.99999999999999 4.0
vertex 15.5 -1.99999999999999 0.5
vertex 21.0 -1.99999999999999 0.5
endloop
endfacet
facet normal -2.54662837075367e-017 -1.0 1.35395741711737e-016
outer loop
vertex 15.5 -1.99999999999999 0.5
vertex 21.0 -1.99999999999999 4.0
vertex 15.5 -1.99999999999999 6.0
endloop
endfacet
facet normal -2.54662837075367e-017 -1.0 1.35395741711737e-016
outer loop
vertex 15.5 -1.99999999999999 6.0
vertex 21.0 -1.99999999999999 4.0
vertex 21.0 -1.99999999999999 6.0
endloop
endfacet
facet normal -1.0 0.0 0.0
outer loop
vertex 21.0 -12.0 4.0
vertex 21.0 -15.0 0.5
vertex 21.0 -15.0 4.0
endloop
endfacet
facet normal -1.0 0.0 0.0
outer loop
vertex 21.0 -15.0 0.5
vertex 21.0 -12.0 4.0
vertex 21.0 -1.99999999999999 0.5
endloop
endfacet
facet normal -1.0 0.0 0.0
outer loop
vertex 21.0 -1.99999999999999 0.5
vertex 21.0 -12.0 4.0
vertex 21.0 -1.99999999999999 4.0
endloop
endfacet
facet normal 0.0 -1.0 0.0
outer loop
vertex 23.0 32.0 4.0
vertex 15.5 32.0 0.5
vertex 23.0 32.0 0.5
endloop
endfacet
facet normal 0.0 -1.0 0.0
outer loop
vertex 15.5 32.0 0.5
vertex 23.0 32.0 4.0
vertex 15.5 32.0 4.0
endloop
endfacet
facet normal -1.0 0.0 0.0
outer loop
vertex 31.7 11.5000000298023 10.0
vertex 31.6420739046914 11.060007653128 -1.0
vertex 31.6420739046914 11.060007653128 10.0
endloop
endfacet
facet normal -0.965925826289068 0.258819045102521 0.0
outer loop
vertex 31.6420739046914 11.060007653128 -1.0
vertex 31.7 11.5000000298023 10.0
vertex 31.7 11.5000000298023 -1.0
endloop
endfacet
facet normal -0.965925826289068 -0.258819045102521 0.0
outer loop
vertex 31.6420739046914 11.9399924064766 10.0
vertex 31.7 11.5000000298023 -1.0
vertex 31.7 11.5000000298023 10.0
endloop
endfacet
facet normal -1.0 0.0 0.0
outer loop
vertex 31.7 11.5000000298023 -1.0
vertex 31.6420739046914 11.9399924064766 10.0
vertex 31.6420739046914 11.9399924064766 -1.0
endloop
endfacet
facet normal -0.866025403784439 -0.499999999999999 0.0
outer loop
vertex 31.4722431864335 12.3500000298023 10.0
vertex 31.6420739046914 11.9399924064766 -1.0
vertex 31.6420739046914 11.9399924064766 10.0
endloop
endfacet
facet normal -0.965925826289068 -0.258819045102521 0.0
outer loop
vertex 31.6420739046914 11.9399924064766 -1.0
vertex 31.4722431864335 12.3500000298023 10.0
vertex 31.4722431864335 12.3500000298023 -1.0
endloop
endfacet
facet normal -0.707106781186551 -0.707106781186544 0.0
outer loop
vertex 31.2020815280171 12.7020815578195 10.0
vertex 31.4722431864335 12.3500000298023 -1.0
vertex 31.4722431864335 12.3500000298023 10.0
endloop
endfacet
facet normal -0.866025403784439 -0.499999999999999 0.0
outer loop
vertex 31.4722431864335 12.3500000298023 -1.0
vertex 31.2020815280171 12.7020815578195 10.0
vertex 31.2020815280171 12.7020815578195 -1.0
endloop
endfacet
facet normal 0.5 0.866025403784439 0.0
outer loop
vertex 29.15 10.0277568433688 10.0
vertex 29.5600076233257 9.8579261251109 -1.0
vertex 29.15 10.0277568433688 -1.0
endloop
endfacet
facet normal 0.258819045102518 0.965925826289069 0.0
outer loop
vertex 29.5600076233257 9.8579261251109 -1.0
vertex 29.15 10.0277568433688 10.0
vertex 29.5600076233257 9.8579261251109 10.0
endloop
endfacet
facet normal -0.258819045102523 0.965925826289068 0.0
outer loop
vertex 30.4399923766743 9.8579261251109 10.0
vertex 30.85 10.0277568433688 -1.0
vertex 30.4399923766743 9.8579261251109 -1.0
endloop
endfacet
facet normal -0.500000000000002 0.866025403784437 0.0
outer loop
vertex 30.85 10.0277568433688 -1.0
vertex 30.4399923766743 9.8579261251109 10.0
vertex 30.85 10.0277568433688 10.0
endloop
endfacet
facet normal -0.500000000000002 0.866025403784437 0.0
outer loop
vertex 30.85 10.0277568433688 10.0
vertex 31.2020815280171 10.2979185017852 -1.0
vertex 30.85 10.0277568433688 -1.0
endloop
endfacet
facet normal -0.707106781186549 0.707106781186546 0.0
outer loop
vertex 31.2020815280171 10.2979185017852 -1.0
vertex 30.85 10.0277568433688 10.0
vertex 31.2020815280171 10.2979185017852 10.0
endloop
endfacet
facet normal -0.866025403784439 0.499999999999999 0.0
outer loop
vertex 31.4722431864335 10.6500000298023 10.0
vertex 31.2020815280171 10.2979185017852 -1.0
vertex 31.2020815280171 10.2979185017852 10.0
endloop
endfacet
facet normal -0.707106781186549 0.707106781186546 0.0
outer loop
vertex 31.2020815280171 10.2979185017852 -1.0
vertex 31.4722431864335 10.6500000298023 10.0
vertex 31.4722431864335 10.6500000298023 -1.0
endloop
endfacet
facet normal -0.965925826289068 0.258819045102521 0.0
outer loop
vertex 31.6420739046914 11.060007653128 10.0
vertex 31.4722431864335 10.6500000298023 -1.0
vertex 31.4722431864335 10.6500000298023 10.0
endloop
endfacet
facet normal -0.866025403784439 0.499999999999999 0.0
outer loop
vertex 31.4722431864335 10.6500000298023 -1.0
vertex 31.6420739046914 11.060007653128 10.0
vertex 31.6420739046914 11.060007653128 -1.0
endloop
endfacet
facet normal 1.06360884653674e-016 -1.76993457110864e-018 -1.0
outer loop
vertex -8.0 7.5 -1.00000000000001
vertex -5.64207390469142 11.0600076233257 -1.0
vertex -1.0 -17.0 -1.0
endloop
endfacet
facet normal 1.06360884653674e-016 -1.76993457110864e-018 -1.0
outer loop
vertex -5.64207390469142 11.0600076233257 -1.0
vertex -8.0 7.5 -1.00000000000001
vertex -5.7 11.5 -1.0
endloop
endfacet
facet normal 1.06360884653674e-016 -1.76993457110864e-018 -1.0
outer loop
vertex -1.0 -17.0 -1.0
vertex -5.64207390469142 11.0600076233257 -1.0
vertex -5.47224318643354 10.65 -1.0
endloop
endfacet
facet normal 1.06360884653674e-016 -1.76993457110864e-018 -1.0
outer loop
vertex -1.0 -17.0 -1.0
vertex -5.47224318643354 10.65 -1.0
vertex -5.20208152801713 10.2979184719829 -1.0
endloop
endfacet
facet normal 1.06360884653674e-016 -1.76993457110864e-018 -1.0
outer loop
vertex -1.0 -17.0 -1.0
vertex -5.20208152801713 10.2979184719829 -1.0
vertex -4.85 10.0277568135665 -1.0
endloop
endfacet
facet normal 1.06360884653674e-016 -1.76993457110864e-018 -1.0
outer loop
vertex -1.0 -17.0 -1.0
vertex -4.85 10.0277568135665 -1.0
vertex -4.43999237667428 9.85792609530859 -1.0
endloop
endfacet
facet normal 1.06360884653674e-016 -1.76993457110864e-018 -1.0
outer loop
vertex -1.0 -17.0 -1.0
vertex -4.43999237667428 9.85792609530859 -1.0
vertex -4.0 9.8 -1.0
endloop
endfacet
facet normal 1.06360884653674e-016 -1.76993457110864e-018 -1.0
outer loop
vertex -1.0 -17.0 -1.0
vertex -4.0 9.8 -1.0
vertex -3.56000762332571 9.85792609530859 -1.0
endloop
endfacet
facet normal 1.06360884653674e-016 -1.76993457110864e-018 -1.0
outer loop
vertex -1.0 -17.0 -1.0
vertex -3.56000762332571 9.85792609530859 -1.0
vertex -3.15 10.0277568135665 -1.0
endloop
endfacet
facet normal 1.06360884653674e-016 -1.76993457110864e-018 -1.0
outer loop
vertex -1.0 -17.0 -1.0
vertex -3.15 10.0277568135665 -1.0
vertex -2.79791847198287 10.2979184719829 -1.0
endloop
endfacet
facet normal 1.06360884653674e-016 -1.76993457110864e-018 -1.0
outer loop
vertex -1.0 -17.0 -1.0
vertex -2.79791847198287 10.2979184719829 -1.0
vertex -2.52775681356645 10.65 -1.0
endloop
endfacet
facet normal 1.06360884653674e-016 -1.76993457110864e-018 -1.0
outer loop
vertex -1.0 -17.0 -1.0
vertex -2.52775681356645 10.65 -1.0
vertex -2.35792609530858 11.0600076233257 -1.0
endloop
endfacet
facet normal 1.06360884653674e-016 -1.76993457110864e-018 -1.0
outer loop
vertex -1.0 -17.0 -1.0
vertex -2.35792609530858 11.0600076233257 -1.0
vertex -2.3 11.5 -1.0
endloop
endfacet
facet normal 1.06360884653674e-016 -1.76993457110864e-018 -1.0
outer loop
vertex -1.0 -17.0 -1.0
vertex -2.3 11.5 -1.0
vertex -1.0 35.0 -1.0
endloop
endfacet
facet normal 1.06360884653674e-016 -1.76993457110864e-018 -1.0
outer loop
vertex -1.0 -17.0 -1.0
vertex -1.0 35.0 -1.0
vertex 3.5 35.0 -1.0
endloop
endfacet
facet normal 1.06360884653674e-016 -1.76993457110864e-018 -1.0
outer loop
vertex -1.0 -17.0 -1.0
vertex 3.5 35.0 -1.0
vertex 27.0 -17.0 -1.0
endloop
endfacet
facet normal 1.06360884653674e-016 -1.76993457110864e-018 -1.0
outer loop
vertex 27.0 -17.0 -1.0
vertex 3.5 35.0 -1.0
vertex 4.15263096110026 35.0427756931309 -1.0
endloop
endfacet
facet normal 1.06360884653674e-016 -1.76993457110864e-018 -1.0
outer loop
vertex 27.0 -17.0 -1.0
vertex 4.15263096110026 35.0427756931309 -1.0
vertex 4.7940952255126 35.1703708685547 -1.0
endloop
endfacet
facet normal 1.06360884653674e-016 -1.76993457110864e-018 -1.0
outer loop
vertex 27.0 -17.0 -1.0
vertex 4.7940952255126 35.1703708685547 -1.0
vertex 5.41341716182545 35.3806023374436 -1.0
endloop
endfacet
facet normal 1.06360884653674e-016 -1.76993457110864e-018 -1.0
outer loop
vertex 27.0 -17.0 -1.0
vertex 5.41341716182545 35.3806023374436 -1.0
vertex 6.0 35.6698729810778 -1.0
endloop
endfacet
facet normal 1.06360884653674e-016 -1.76993457110864e-018 -1.0
outer loop
vertex 27.0 -17.0 -1.0
vertex 6.0 35.6698729810778 -1.0
vertex 6.5438071450436 36.0332332985438 -1.0
endloop
endfacet
facet normal 1.06360884653674e-016 -1.76993457110864e-018 -1.0
outer loop
vertex 27.0 -17.0 -1.0
vertex 6.5438071450436 36.0332332985438 -1.0
vertex 7.03553390593274 36.4644660940673 -1.0
endloop
endfacet
facet normal 1.06360884653674e-016 -1.76993457110864e-018 -1.0
outer loop
vertex 27.0 -17.0 -1.0
vertex 7.03553390593274 36.4644660940673 -1.0
vertex 7.46676670145618 36.9561928549564 -1.0
endloop
endfacet
facet normal 1.06360884653674e-016 -1.76993457110864e-018 -1.0
outer loop
vertex 27.0 -17.0 -1.0
vertex 7.46676670145618 36.9561928549564 -1.0
vertex 7.8301270189222 37.5 -1.0
endloop
endfacet
facet normal 1.06360884653674e-016 -1.76993457110864e-018 -1.0
outer loop
vertex 27.0 -17.0 -1.0
vertex 7.8301270189222 37.5 -1.0
vertex 8.11939766255644 38.0865828381746 -1.0
endloop
endfacet
facet normal 1.06360884653674e-016 -1.76993457110864e-018 -1.0
outer loop
vertex 27.0 -17.0 -1.0
vertex 8.11939766255644 38.0865828381746 -1.0
vertex 8.32962913144535 38.7059047744874 -1.0
endloop
endfacet
facet normal 1.06360884653674e-016 -1.76993457110864e-018 -1.0
outer loop
vertex 27.0 -17.0 -1.0
vertex 8.32962913144535 38.7059047744874 -1.0
vertex 8.45722430686905 39.3473690388998 -1.0
endloop
endfacet
facet normal 1.06360884653674e-016 -1.76993457110864e-018 -1.0
outer loop
vertex 27.0 -17.0 -1.0
vertex 8.45722430686905 39.3473690388998 -1.0
vertex 8.5 40.0 -1.0
endloop
endfacet
facet normal 1.06360884653674e-016 -1.76993457110864e-018 -1.0
outer loop
vertex 27.0 -17.0 -1.0
vertex 8.5 40.0 -1.0
vertex 17.5427756931309 39.3473690388997 -1.0
endloop
endfacet
facet normal 1.06360884653674e-016 -1.76993457110864e-018 -1.0
outer loop
vertex 17.5427756931309 39.3473690388997 -1.0
vertex 8.5 40.0 -1.0
vertex 17.5 40.0 -1.0
endloop
endfacet
facet normal 1.06360884653674e-016 -1.76993457110864e-018 -1.0
outer loop
vertex 27.0 -17.0 -1.0
vertex 17.5427756931309 39.3473690388997 -1.0
vertex 17.6703708685547 38.7059047744874 -1.0
endloop
endfacet
facet normal 1.06360884653674e-016 -1.76993457110864e-018 -1.0
outer loop
vertex 27.0 -17.0 -1.0
vertex 17.6703708685547 38.7059047744874 -1.0
vertex 17.8806023374436 38.0865828381746 -1.0
endloop
endfacet
facet normal 1.06360884653674e-016 -1.76993457110864e-018 -1.0
outer loop
vertex 27.0 -17.0 -1.0
vertex 17.8806023374436 38.0865828381746 -1.0
vertex 18.1698729810778 37.5 -1.0
endloop
endfacet
facet normal 1.06360884653674e-016 -1.76993457110864e-018 -1.0
outer loop
vertex 27.0 -17.0 -1.0
vertex 18.1698729810778 37.5 -1.0
vertex 18.5332332985438 36.9561928549564 -1.0
endloop
endfacet
facet normal 1.06360884653674e-016 -1.76993457110864e-018 -1.0
outer loop
vertex 27.0 -17.0 -1.0
vertex 18.5332332985438 36.9561928549564 -1.0
vertex 18.9644660940673 36.4644660940673 -1.0
endloop
endfacet
facet normal 1.06360884653674e-016 -1.76993457110864e-018 -1.0
outer loop
vertex 27.0 -17.0 -1.0
vertex 18.9644660940673 36.4644660940673 -1.0
vertex 19.4561928549564 36.0332332985438 -1.0
endloop
endfacet
facet normal 1.06360884653674e-016 -1.76993457110864e-018 -1.0
outer loop
vertex 27.0 -17.0 -1.0
vertex 19.4561928549564 36.0332332985438 -1.0
vertex 20.0 35.6698729810778 -1.0
endloop
endfacet
facet normal 1.06360884653674e-016 -1.76993457110864e-018 -1.0
outer loop
vertex 27.0 -17.0 -1.0
vertex 20.0 35.6698729810778 -1.0
vertex 20.5865828381746 35.3806023374436 -1.0
endloop
endfacet
facet normal 1.06360884653674e-016 -1.76993457110864e-018 -1.0
outer loop
vertex 27.0 -17.0 -1.0
vertex 20.5865828381746 35.3806023374436 -1.0
vertex 21.2059047744874 35.1703708685547 -1.0
endloop
endfacet
facet normal 1.06360884653674e-016 -1.76993457110864e-018 -1.0
outer loop
vertex 27.0 -17.0 -1.0
vertex 21.2059047744874 35.1703708685547 -1.0
vertex 21.8473690388997 35.0427756931309 -1.0
endloop
endfacet
facet normal 1.06360884653674e-016 -1.76993457110864e-018 -1.0
outer loop
vertex 27.0 -17.0 -1.0
vertex 21.8473690388997 35.0427756931309 -1.0
vertex 22.5 35.0 -1.0
endloop
endfacet
facet normal 1.06360884653674e-016 -1.76993457110864e-018 -1.0
outer loop
vertex 27.0 -17.0 -1.0
vertex 22.5 35.0 -1.0
vertex 27.0 35.0 -1.0
endloop
endfacet
facet normal 1.06360884653674e-016 -1.76993457110864e-018 -1.0
outer loop
vertex 27.0 -17.0 -1.0
vertex 27.0 35.0 -1.0
vertex 28.3 11.5000000298023 -1.0
endloop
endfacet
facet normal 1.06360884653674e-016 -1.76993457110864e-018 -1.0
outer loop
vertex 28.3 11.5000000298023 -1.0
vertex 27.0 35.0 -1.0
vertex 28.3579260953086 11.9399924064766 -1.0
endloop
endfacet
facet normal 1.06360884653674e-016 -1.76993457110864e-018 -1.0
outer loop
vertex 28.3579260953086 11.9399924064766 -1.0
vertex 27.0 35.0 -1.0
vertex 28.5277568135664 12.3500000298023 -1.0
endloop
endfacet
facet normal 1.06360884653674e-016 -1.76993457110864e-018 -1.0
outer loop
vertex 28.5277568135664 12.3500000298023 -1.0
vertex 27.0 35.0 -1.0
vertex 28.7979184719829 12.7020815578195 -1.0
endloop
endfacet
facet normal 1.06360884653674e-016 -1.76993457110864e-018 -1.0
outer loop
vertex 28.7979184719829 12.7020815578195 -1.0
vertex 27.0 35.0 -1.0
vertex 29.15 12.9722432162359 -1.0
endloop
endfacet
facet normal 1.06360884653674e-016 -1.76993457110864e-018 -1.0
outer loop
vertex 29.15 12.9722432162359 -1.0
vertex 27.0 35.0 -1.0
vertex 34.0000000298023 15.5 -1.0
endloop
endfacet
facet normal 1.06360884653674e-016 -1.76993457110864e-018 -1.0
outer loop
vertex 29.15 12.9722432162359 -1.0
vertex 34.0000000298023 15.5 -1.0
vertex 29.5600076233257 13.1420739344937 -1.0
endloop
endfacet
facet normal 1.06360884653674e-016 -1.76993457110864e-018 -1.0
outer loop
vertex 29.5600076233257 13.1420739344937 -1.0
vertex 34.0000000298023 15.5 -1.0
vertex 30.0 13.2000000298023 -1.0
endloop
endfacet
facet normal 1.06360884653674e-016 -1.76993457110864e-018 -1.0
outer loop
vertex 30.0 13.2000000298023 -1.0
vertex 34.0000000298023 15.5 -1.0
vertex 30.4399923766743 13.1420739344937 -1.0
endloop
endfacet
facet normal 1.06360884653674e-016 -1.76993457110864e-018 -1.0
outer loop
vertex 30.4399923766743 13.1420739344937 -1.0
vertex 34.0000000298023 15.5 -1.0
vertex 30.85 12.9722432162359 -1.0
endloop
endfacet
facet normal 1.06360884653674e-016 -1.76993457110864e-018 -1.0
outer loop
vertex 30.85 12.9722432162359 -1.0
vertex 34.0000000298023 15.5 -1.0
vertex 31.2020815280171 12.7020815578195 -1.0
endloop
endfacet
facet normal 1.06360884653674e-016 -1.76993457110864e-018 -1.0
outer loop
vertex 31.2020815280171 12.7020815578195 -1.0
vertex 34.0000000298023 15.5 -1.0
vertex 31.4722431864335 12.3500000298023 -1.0
endloop
endfacet
facet normal 1.06360884653674e-016 -1.76993457110864e-018 -1.0
outer loop
vertex 31.4722431864335 12.3500000298023 -1.0
vertex 34.0000000298023 15.5 -1.0
vertex 31.6420739046914 11.9399924064766 -1.0
endloop
endfacet
facet normal 1.06360884653674e-016 -1.76993457110864e-018 -1.0
outer loop
vertex 31.6420739046914 11.9399924064766 -1.0
vertex 34.0000000298023 15.5 -1.0
vertex 31.7 11.5000000298023 -1.0
endloop
endfacet
facet normal 1.06360884653674e-016 -1.76993457110864e-018 -1.0
outer loop
vertex 27.0 -17.0 -1.0
vertex 29.15 10.0277568433688 -1.0
vertex 34.0000000298023 7.5 -1.0
endloop
endfacet
facet normal 1.06360884653674e-016 -1.76993457110864e-018 -1.0
outer loop
vertex 29.15 10.0277568433688 -1.0
vertex 27.0 -17.0 -1.0
vertex 28.7979184719829 10.2979185017852 -1.0
endloop
endfacet
facet normal 1.06360884653674e-016 -1.76993457110864e-018 -1.0
outer loop
vertex 28.7979184719829 10.2979185017852 -1.0
vertex 27.0 -17.0 -1.0
vertex 28.5277568135664 10.6500000298023 -1.0
endloop
endfacet
facet normal 1.06360884653674e-016 -1.76993457110864e-018 -1.0
outer loop
vertex 28.5277568135664 10.6500000298023 -1.0
vertex 27.0 -17.0 -1.0
vertex 28.3579260953086 11.060007653128 -1.0
endloop
endfacet
facet normal 1.06360884653674e-016 -1.76993457110864e-018 -1.0
outer loop
vertex 28.3579260953086 11.060007653128 -1.0
vertex 27.0 -17.0 -1.0
vertex 28.3 11.5000000298023 -1.0
endloop
endfacet
facet normal 1.06360884653674e-016 -1.76993457110864e-018 -1.0
outer loop
vertex 34.0000000298023 7.5 -1.0
vertex 29.15 10.0277568433688 -1.0
vertex 29.5600076233257 9.8579261251109 -1.0
endloop
endfacet
facet normal 1.06360884653674e-016 -1.76993457110864e-018 -1.0
outer loop
vertex 34.0000000298023 7.5 -1.0
vertex 29.5600076233257 9.8579261251109 -1.0
vertex 30.0 9.80000002980232 -1.0
endloop
endfacet
facet normal 1.06360884653674e-016 -1.76993457110864e-018 -1.0
outer loop
vertex 34.0000000298023 7.5 -1.0
vertex 30.0 9.80000002980232 -1.0
vertex 30.4399923766743 9.8579261251109 -1.0
endloop
endfacet
facet normal 1.06360884653674e-016 -1.76993457110864e-018 -1.0
outer loop
vertex 34.0000000298023 7.5 -1.0
vertex 30.4399923766743 9.8579261251109 -1.0
vertex 30.85 10.0277568433688 -1.0
endloop
endfacet
facet normal 1.06360884653674e-016 -1.76993457110864e-018 -1.0
outer loop
vertex 34.0000000298023 7.5 -1.0
vertex 30.85 10.0277568433688 -1.0
vertex 31.2020815280171 10.2979185017852 -1.0
endloop
endfacet
facet normal 1.06360884653674e-016 -1.76993457110864e-018 -1.0
outer loop
vertex 34.0000000298023 7.5 -1.0
vertex 31.2020815280171 10.2979185017852 -1.0
vertex 31.4722431864335 10.6500000298023 -1.0
endloop
endfacet
facet normal 1.06360884653674e-016 -1.76993457110864e-018 -1.0
outer loop
vertex 34.0000000298023 7.5 -1.0
vertex 31.4722431864335 10.6500000298023 -1.0
vertex 31.6420739046914 11.060007653128 -1.0
endloop
endfacet
facet normal 1.06360884653674e-016 -1.76993457110864e-018 -1.0
outer loop
vertex 34.0000000298023 7.5 -1.0
vertex 31.6420739046914 11.060007653128 -1.0
vertex 31.7 11.5000000298023 -1.0
endloop
endfacet
facet normal 1.06360884653674e-016 -1.76993457110864e-018 -1.0
outer loop
vertex 34.0000000298023 7.5 -1.0
vertex 31.7 11.5000000298023 -1.0
vertex 34.0000000298023 15.5 -1.0
endloop
endfacet
facet normal 1.06360884653674e-016 -1.76993457110864e-018 -1.0
outer loop
vertex -1.0 35.0 -1.0
vertex -8.0 7.5 -1.00000000000001
vertex -8.0 15.5 -1.00000000000001
endloop
endfacet
facet normal 1.06360884653674e-016 -1.76993457110864e-018 -1.0
outer loop
vertex -8.0 7.5 -1.00000000000001
vertex -1.0 35.0 -1.0
vertex -5.64207390469142 11.9399923766743 -1.0
endloop
endfacet
facet normal 1.06360884653674e-016 -1.76993457110864e-018 -1.0
outer loop
vertex -8.0 7.5 -1.00000000000001
vertex -5.64207390469142 11.9399923766743 -1.0
vertex -5.7 11.5 -1.0
endloop
endfacet
facet normal 1.06360884653674e-016 -1.76993457110864e-018 -1.0
outer loop
vertex -5.64207390469142 11.9399923766743 -1.0
vertex -1.0 35.0 -1.0
vertex -5.47224318643355 12.35 -1.0
endloop
endfacet
facet normal 1.06360884653674e-016 -1.76993457110864e-018 -1.0
outer loop
vertex -5.47224318643355 12.35 -1.0
vertex -1.0 35.0 -1.0
vertex -5.20208152801713 12.7020815280171 -1.0
endloop
endfacet
facet normal 1.06360884653674e-016 -1.76993457110864e-018 -1.0
outer loop
vertex -5.20208152801713 12.7020815280171 -1.0
vertex -1.0 35.0 -1.0
vertex -4.85 12.9722431864335 -1.0
endloop
endfacet
facet normal 1.06360884653674e-016 -1.76993457110864e-018 -1.0
outer loop
vertex -4.85 12.9722431864335 -1.0
vertex -1.0 35.0 -1.0
vertex -4.43999237667429 13.1420739046914 -1.0
endloop
endfacet
facet normal 1.06360884653674e-016 -1.76993457110864e-018 -1.0
outer loop
vertex -4.43999237667429 13.1420739046914 -1.0
vertex -1.0 35.0 -1.0
vertex -4.0 13.2 -1.0
endloop
endfacet
facet normal 1.06360884653674e-016 -1.76993457110864e-018 -1.0
outer loop
vertex -4.0 13.2 -1.0
vertex -1.0 35.0 -1.0
vertex -3.56000762332572 13.1420739046914 -1.0
endloop
endfacet
facet normal 1.06360884653674e-016 -1.76993457110864e-018 -1.0
outer loop
vertex -3.56000762332572 13.1420739046914 -1.0
vertex -1.0 35.0 -1.0
vertex -3.15 12.9722431864335 -1.0
endloop
endfacet
facet normal 1.06360884653674e-016 -1.76993457110864e-018 -1.0
outer loop
vertex -3.15 12.9722431864335 -1.0
vertex -1.0 35.0 -1.0
vertex -2.79791847198287 12.7020815280171 -1.0
endloop
endfacet
facet normal 1.06360884653674e-016 -1.76993457110864e-018 -1.0
outer loop
vertex -2.79791847198287 12.7020815280171 -1.0
vertex -1.0 35.0 -1.0
vertex -2.52775681356645 12.35 -1.0
endloop
endfacet
facet normal 1.06360884653674e-016 -1.76993457110864e-018 -1.0
outer loop
vertex -2.52775681356645 12.35 -1.0
vertex -1.0 35.0 -1.0
vertex -2.35792609530858 11.9399923766743 -1.0
endloop
endfacet
facet normal 1.06360884653674e-016 -1.76993457110864e-018 -1.0
outer loop
vertex -2.35792609530858 11.9399923766743 -1.0
vertex -1.0 35.0 -1.0
vertex -2.3 11.5 -1.0
endloop
endfacet
facet normal -0.961523947640823 -0.274721127897379 1.4788610280244e-015
outer loop
vertex -8.0 7.5 10.0
vertex -1.0 -17.0 -1.0
vertex -0.999999999999967 -17.0 10.0
endloop
endfacet
facet normal -0.961523947640823 -0.274721127897379 1.4788610280244e-015
outer loop
vertex -1.0 -17.0 -1.0
vertex -8.0 7.5 10.0
vertex -8.0 7.5 -1.00000000000001
endloop
endfacet
facet normal -0.941194670761707 0.337864753606767 -4.86612952633891e-017
outer loop
vertex -8.0 15.5 10.0
vertex -1.0 35.0 -1.0
vertex -8.0 15.5 -1.00000000000001
endloop
endfacet
facet normal -0.941194670761707 0.337864753606767 -4.86612952633891e-017
outer loop
vertex -1.0 35.0 -1.0
vertex -8.0 15.5 10.0
vertex -1.0 35.0 10.0
endloop
endfacet
facet normal -1.0 -0.0 -5.15988307188924e-017
outer loop
vertex -8.0 7.5 10.0
vertex -8.0 15.5 -1.00000000000001
vertex -8.0 7.5 -1.00000000000001
endloop
endfacet
facet normal -1.0 -0.0 -5.15988307188924e-017
outer loop
vertex -8.0 15.5 -1.00000000000001
vertex -8.0 7.5 10.0
vertex -8.0 15.5 10.0
endloop
endfacet
facet normal 1.0 7.84177670816928e-016 4.10754698486238e-033
outer loop
vertex -5.7 11.5 -1.0
vertex -5.64207390469142 11.0600076233257 10.0
vertex -5.64207390469142 11.0600076233257 -1.0
endloop
endfacet
facet normal 0.965925826289068 0.258819045102522 2.69345125440753e-019
outer loop
vertex -5.64207390469142 11.0600076233257 10.0
vertex -5.7 11.5 -1.0
vertex -5.7 11.5 10.0
endloop
endfacet
facet normal 0.965925826289068 -0.258819045102521 -2.69345125440749e-019
outer loop
vertex -5.64207390469142 11.9399923766743 -1.0
vertex -5.7 11.5 10.0
vertex -5.7 11.5 -1.0
endloop
endfacet
facet normal 1.0 7.84177670816928e-016 4.10754698486238e-033
outer loop
vertex -5.7 11.5 10.0
vertex -5.64207390469142 11.9399923766743 -1.0
vertex -5.64207390469142 11.9399923766743 10.0
endloop
endfacet
facet normal 0.866025403784439 -0.5 -2.69345125440743e-019
outer loop
vertex -5.47224318643355 12.35 -1.0
vertex -5.64207390469142 11.9399923766743 10.0
vertex -5.64207390469142 11.9399923766743 -1.0
endloop
endfacet
facet normal 0.965925826289068 -0.258819045102521 -2.69345125440749e-019
outer loop
vertex -5.64207390469142 11.9399923766743 10.0
vertex -5.47224318643355 12.35 -1.0
vertex -5.47224318643355 12.35 10.0
endloop
endfacet
facet normal 0.707106781186548 -0.707106781186547 1.26104651385272e-032
outer loop
vertex -5.20208152801713 12.7020815280171 -1.0
vertex -5.47224318643355 12.35 10.0
vertex -5.47224318643355 12.35 -1.0
endloop
endfacet
facet normal 0.866025403784439 -0.5 -2.69345125440743e-019
outer loop
vertex -5.47224318643355 12.35 10.0
vertex -5.20208152801713 12.7020815280171 -1.0
vertex -5.20208152801713 12.7020815280171 10.0
endloop
endfacet
facet normal 0.5 -0.866025403784438 4.10754698486238e-033
outer loop
vertex -4.85 12.9722431864335 10.0
vertex -5.20208152801713 12.7020815280171 -1.0
vertex -4.85 12.9722431864335 -1.0
endloop
endfacet
facet normal 0.707106781186548 -0.707106781186547 1.26104651385272e-032
outer loop
vertex -5.20208152801713 12.7020815280171 -1.0
vertex -4.85 12.9722431864335 10.0
vertex -5.20208152801713 12.7020815280171 10.0
endloop
endfacet
facet normal 0.258819045102522 -0.965925826289068 2.66699159618636e-033
outer loop
vertex -4.43999237667429 13.1420739046914 10.0
vertex -4.85 12.9722431864335 -1.0
vertex -4.43999237667429 13.1420739046914 -1.0
endloop
endfacet
facet normal 0.5 -0.866025403784438 4.10754698486238e-033
outer loop
vertex -4.85 12.9722431864335 -1.0
vertex -4.43999237667429 13.1420739046914 10.0
vertex -4.85 12.9722431864335 10.0
endloop
endfacet
facet normal -3.02977736451995e-016 -1.0 5.40768819514711e-034
outer loop
vertex -4.0 13.2 10.0
vertex -4.43999237667429 13.1420739046914 -1.0
vertex -4.0 13.2 -1.0
endloop
endfacet
facet normal 0.258819045102522 -0.965925826289068 2.66699159618636e-033
outer loop
vertex -4.43999237667429 13.1420739046914 -1.0
vertex -4.0 13.2 10.0
vertex -4.43999237667429 13.1420739046914 10.0
endloop
endfacet
facet normal -0.25881904510252 -0.965925826289069 -2.69345125440767e-019
outer loop
vertex -3.56000762332572 13.1420739046914 10.0
vertex -4.0 13.2 -1.0
vertex -3.56000762332572 13.1420739046914 -1.0
endloop
endfacet
facet normal -3.02977736451995e-016 -1.0 5.40768819514711e-034
outer loop
vertex -4.0 13.2 -1.0
vertex -3.56000762332572 13.1420739046914 10.0
vertex -4.0 13.2 10.0
endloop
endfacet
facet normal -0.499999999999999 -0.866025403784439 -2.69345125440783e-019
outer loop
vertex -3.15 12.9722431864335 10.0
vertex -3.56000762332572 13.1420739046914 -1.0
vertex -3.15 12.9722431864335 -1.0
endloop
endfacet
facet normal -0.25881904510252 -0.965925826289069 -2.69345125440767e-019
outer loop
vertex -3.56000762332572 13.1420739046914 -1.0
vertex -3.15 12.9722431864335 10.0
vertex -3.56000762332572 13.1420739046914 10.0
endloop
endfacet
facet normal -0.707106781186547 -0.707106781186548 -1.5669515533192e-032
outer loop
vertex -2.79791847198287 12.7020815280171 10.0
vertex -3.15 12.9722431864335 -1.0
vertex -2.79791847198287 12.7020815280171 -1.0
endloop
endfacet
facet normal -0.499999999999999 -0.866025403784439 -2.69345125440783e-019
outer loop
vertex -3.15 12.9722431864335 -1.0
vertex -2.79791847198287 12.7020815280171 10.0
vertex -3.15 12.9722431864335 10.0
endloop
endfacet
facet normal -0.707106781186547 -0.707106781186548 -1.5669515533192e-032
outer loop
vertex -2.79791847198287 12.7020815280171 10.0
vertex -2.52775681356645 12.35 -1.0
vertex -2.52775681356645 12.35 10.0
endloop
endfacet
facet normal -0.866025403784439 -0.5 0.0
outer loop
vertex -2.52775681356645 12.35 -1.0
vertex -2.79791847198287 12.7020815280171 10.0
vertex -2.79791847198287 12.7020815280171 -1.0
endloop
endfacet
facet normal -0.866025403784439 -0.5 0.0
outer loop
vertex -2.52775681356645 12.35 10.0
vertex -2.35792609530858 11.9399923766743 -1.0
vertex -2.35792609530858 11.9399923766743 10.0
endloop
endfacet
facet normal -0.965925826289069 -0.25881904510252 0.0
outer loop
vertex -2.35792609530858 11.9399923766743 -1.0
vertex -2.52775681356645 12.35 10.0
vertex -2.52775681356645 12.35 -1.0
endloop
endfacet
facet normal -0.965925826289069 -0.25881904510252 0.0
outer loop
vertex -2.35792609530858 11.9399923766743 10.0
vertex -2.3 11.5 -1.0
vertex -2.3 11.5 10.0
endloop
endfacet
facet normal -1.0 -1.56835534163386e-015 0.0
outer loop
vertex -2.3 11.5 -1.0
vertex -2.35792609530858 11.9399923766743 10.0
vertex -2.35792609530858 11.9399923766743 -1.0
endloop
endfacet
facet normal -1.0 -1.56835534163386e-015 0.0
outer loop
vertex -2.3 11.5 10.0
vertex -2.35792609530858 11.0600076233257 -1.0
vertex -2.35792609530858 11.0600076233257 10.0
endloop
endfacet
facet normal -0.965925826289068 0.258819045102521 0.0
outer loop
vertex -2.35792609530858 11.0600076233257 -1.0
vertex -2.3 11.5 10.0
vertex -2.3 11.5 -1.0
endloop
endfacet
facet normal -0.965925826289068 0.258819045102521 0.0
outer loop
vertex -2.35792609530858 11.0600076233257 10.0
vertex -2.52775681356645 10.65 -1.0
vertex -2.52775681356645 10.65 10.0
endloop
endfacet
facet normal -0.866025403784438 0.500000000000001 6.80151648445015e-033
outer loop
vertex -2.52775681356645 10.65 -1.0
vertex -2.35792609530858 11.0600076233257 10.0
vertex -2.35792609530858 11.0600076233257 -1.0
endloop
endfacet
facet normal -0.866025403784438 0.500000000000001 6.80151648445015e-033
outer loop
vertex -2.52775681356645 10.65 10.0
vertex -2.79791847198287 10.2979184719829 -1.0
vertex -2.79791847198287 10.2979184719829 10.0
endloop
endfacet
facet normal -0.707106781186549 0.707106781186546 6.80151648445015e-033
outer loop
vertex -2.79791847198287 10.2979184719829 -1.0
vertex -2.52775681356645 10.65 10.0
vertex -2.52775681356645 10.65 -1.0
endloop
endfacet
facet normal -0.5 0.866025403784439 2.69345125440765e-019
outer loop
vertex -3.15 10.0277568135665 10.0
vertex -2.79791847198287 10.2979184719829 -1.0
vertex -3.15 10.0277568135665 -1.0
endloop
endfacet
facet normal -0.707106781186549 0.707106781186546 6.80151648445015e-033
outer loop
vertex -2.79791847198287 10.2979184719829 -1.0
vertex -3.15 10.0277568135665 10.0
vertex -2.79791847198287 10.2979184719829 10.0
endloop
endfacet
facet normal -0.258819045102519 0.965925826289069 2.69345125440765e-019
outer loop
vertex -3.56000762332571 9.85792609530859 10.0
vertex -3.15 10.0277568135665 -1.0
vertex -3.56000762332571 9.85792609530859 -1.0
endloop
endfacet
facet normal -0.5 0.866025403784439 2.69345125440765e-019
outer loop
vertex -3.15 10.0277568135665 -1.0
vertex -3.56000762332571 9.85792609530859 10.0
vertex -3.15 10.0277568135665 10.0
endloop
endfacet
facet normal 0.0 1.0 0.0
outer loop
vertex -4.0 9.8 10.0
vertex -3.56000762332571 9.85792609530859 -1.0
vertex -4.0 9.8 -1.0
endloop
endfacet
facet normal -0.258819045102519 0.965925826289069 2.69345125440765e-019
outer loop
vertex -3.56000762332571 9.85792609530859 -1.0
vertex -4.0 9.8 10.0
vertex -3.56000762332571 9.85792609530859 10.0
endloop
endfacet
facet normal 0.258819045102519 0.965925826289069 0.0
outer loop
vertex -4.43999237667428 9.85792609530859 10.0
vertex -4.0 9.8 -1.0
vertex -4.43999237667428 9.85792609530859 -1.0
endloop
endfacet
facet normal 0.0 1.0 0.0
outer loop
vertex -4.0 9.8 -1.0
vertex -4.43999237667428 9.85792609530859 10.0
vertex -4.0 9.8 10.0
endloop
endfacet
facet normal 0.499999999999998 0.86602540378444 -2.52209302770545e-033
outer loop
vertex -4.85 10.0277568135665 10.0
vertex -4.43999237667428 9.85792609530859 -1.0
vertex -4.85 10.0277568135665 -1.0
endloop
endfacet
facet normal 0.258819045102519 0.965925826289069 0.0
outer loop
vertex -4.43999237667428 9.85792609530859 -1.0
vertex -4.85 10.0277568135665 10.0
vertex -4.43999237667428 9.85792609530859 10.0
endloop
endfacet
facet normal 0.707106781186549 0.707106781186546 -2.52209302770545e-033
outer loop
vertex -5.20208152801713 10.2979184719829 10.0
vertex -4.85 10.0277568135665 -1.0
vertex -5.20208152801713 10.2979184719829 -1.0
endloop
endfacet
facet normal 0.499999999999998 0.86602540378444 -2.52209302770545e-033
outer loop
vertex -4.85 10.0277568135665 -1.0
vertex -5.20208152801713 10.2979184719829 10.0
vertex -4.85 10.0277568135665 10.0
endloop
endfacet
facet normal 0.86602540378444 0.499999999999998 2.69345125440753e-019
outer loop
vertex -5.47224318643354 10.65 -1.0
vertex -5.20208152801713 10.2979184719829 10.0
vertex -5.20208152801713 10.2979184719829 -1.0
endloop
endfacet
facet normal 0.707106781186549 0.707106781186546 -2.52209302770545e-033
outer loop
vertex -5.20208152801713 10.2979184719829 10.0
vertex -5.47224318643354 10.65 -1.0
vertex -5.47224318643354 10.65 10.0
endloop
endfacet
facet normal 0.965925826289068 0.258819045102522 2.69345125440753e-019
outer loop
vertex -5.64207390469142 11.0600076233257 -1.0
vertex -5.47224318643354 10.65 10.0
vertex -5.47224318643354 10.65 -1.0
endloop
endfacet
facet normal 0.86602540378444 0.499999999999998 2.69345125440753e-019
outer loop
vertex -5.47224318643354 10.65 10.0
vertex -5.64207390469142 11.0600076233257 -1.0
vertex -5.64207390469142 11.0600076233257 10.0
endloop
endfacet
facet normal 0.941194670761707 -0.337864753606767 1.95269585226599e-017
outer loop
vertex -1.0 32.2142857142857 -6.69742039605126e-015
vertex -7.0 15.5 10.0
vertex -7.0 15.5 -6.69742039605126e-015
endloop
endfacet
facet normal 0.941194670761707 -0.337864753606767 1.95269585226599e-017
outer loop
vertex -7.0 15.5 10.0
vertex -1.0 32.2142857142857 -6.69742039605126e-015
vertex -1.0 32.2142857142857 10.0
endloop
endfacet
facet normal -1.0 2.81193239000503e-017 9.52691379239153e-018
outer loop
vertex -1.0 32.2142857142857 10.0
vertex -1.0 15.5 0.0
vertex -1.0 15.5 10.0
endloop
endfacet
facet normal -1.0 2.81193239000503e-017 9.52691379239153e-018
outer loop
vertex -1.0 15.5 0.0
vertex -1.0 32.2142857142857 10.0
vertex -1.0 32.2142857142857 -6.69742039605126e-015
endloop
endfacet
facet normal -3.13329609171988e-016 1.0 -1.33376793093482e-016
outer loop
vertex -7.0 15.5 10.0
vertex -1.0 15.5 0.0
vertex -7.0 15.5 -6.69742039605126e-015
endloop
endfacet
facet normal -3.13329609171988e-016 1.0 -1.33376793093482e-016
outer loop
vertex -1.0 15.5 0.0
vertex -7.0 15.5 10.0
vertex -1.0 15.5 10.0
endloop
endfacet
facet normal -1.0 -1.36522186853509e-015 9.52691379239151e-018
outer loop
vertex -0.999999999999971 -13.5 10.0
vertex -1.0 7.5 0.0
vertex -0.999999999999971 -13.5 -1.05748743095546e-015
endloop
endfacet
facet normal -1.0 -1.36522186853509e-015 9.52691379239151e-018
outer loop
vertex -1.0 7.5 0.0
vertex -0.999999999999971 -13.5 10.0
vertex -1.0 7.5 10.0
endloop
endfacet
facet normal 0.961523947640823 0.27472112789738 -7.47877616568471e-017
outer loop
vertex -7.0 7.5 -6.69742039605126e-015
vertex -0.999999999999971 -13.5 10.0
vertex -0.999999999999971 -13.5 -1.05748743095546e-015
endloop
endfacet
facet normal 0.961523947640823 0.27472112789738 -7.47877616568471e-017
outer loop
vertex -0.999999999999971 -13.5 10.0
vertex -7.0 7.5 -6.69742039605126e-015
vertex -7.0 7.5 10.0
endloop
endfacet
facet normal 4.69994413757983e-016 -1.0 -6.66883965467408e-017
outer loop
vertex -1.0 7.5 0.0
vertex -7.0 7.5 10.0
vertex -7.0 7.5 -6.69742039605126e-015
endloop
endfacet
facet normal 4.69994413757983e-016 -1.0 -6.66883965467408e-017
outer loop
vertex -7.0 7.5 10.0
vertex -1.0 7.5 0.0
vertex -1.0 7.5 10.0
endloop
endfacet
facet normal 1.0 0.0 0.0
outer loop
vertex 10.5 34.0 0.5
vertex 10.5 32.0 4.0
vertex 10.5 32.0 0.5
endloop
endfacet
facet normal 1.0 0.0 0.0
outer loop
vertex 10.5 32.0 4.0
vertex 10.5 34.0 0.5
vertex 10.5 34.0 4.0
endloop
endfacet
facet normal -1.11623673267521e-015 4.00700365575716e-016 1.0
outer loop
vertex -1.0 32.2142857142857 -6.69742039605126e-015
vertex -7.0 15.5 -6.69742039605126e-015
vertex -1.0 15.5 0.0
endloop
endfacet
facet normal -1.11623673267521e-015 -5.0356544331214e-017 1.0
outer loop
vertex -0.999999999999971 -13.5 -1.05748743095546e-015
vertex -1.0 7.5 0.0
vertex -7.0 7.5 -6.69742039605126e-015
endloop
endfacet
facet normal 3.2667849909988e-016 -6.5428174607985e-017 1.0
outer loop
vertex 27.0 7.5 9.99999999999999
vertex 28.3579260953086 11.060007653128 10.0
vertex 27.0 15.5 9.99999999999999
endloop
endfacet
facet normal 3.2667849909988e-016 -6.5428174607985e-017 1.0
outer loop
vertex 28.3579260953086 11.060007653128 10.0
vertex 27.0 7.5 9.99999999999999
vertex 28.5277568135664 10.6500000298023 10.0
endloop
endfacet
facet normal 3.2667849909988e-016 -6.5428174607985e-017 1.0
outer loop
vertex 28.5277568135664 10.6500000298023 10.0
vertex 27.0 7.5 9.99999999999999
vertex 28.7979184719829 10.2979185017852 10.0
endloop
endfacet
facet normal 3.2667849909988e-016 -6.5428174607985e-017 1.0
outer loop
vertex 28.7979184719829 10.2979185017852 10.0
vertex 27.0 7.5 9.99999999999999
vertex 29.15 10.0277568433688 10.0
endloop
endfacet
facet normal 3.2667849909988e-016 -6.5428174607985e-017 1.0
outer loop
vertex 29.15 10.0277568433688 10.0
vertex 27.0 7.5 9.99999999999999
vertex 33.0000000298023 7.5 9.99999999999999
endloop
endfacet
facet normal 3.2667849909988e-016 -6.5428174607985e-017 1.0
outer loop
vertex 27.0 15.5 9.99999999999999
vertex 28.3579260953086 11.060007653128 10.0
vertex 28.3 11.5000000298023 10.0
endloop
endfacet
facet normal 3.2667849909988e-016 -6.5428174607985e-017 1.0
outer loop
vertex 29.15 10.0277568433688 10.0
vertex 33.0000000298023 7.5 9.99999999999999
vertex 29.5600076233257 9.8579261251109 10.0
endloop
endfacet
facet normal 3.2667849909988e-016 -6.5428174607985e-017 1.0
outer loop
vertex 29.5600076233257 9.8579261251109 10.0
vertex 33.0000000298023 7.5 9.99999999999999
vertex 30.0 9.80000002980232 10.0
endloop
endfacet
facet normal 3.2667849909988e-016 -6.5428174607985e-017 1.0
outer loop
vertex 30.0 9.80000002980232 10.0
vertex 33.0000000298023 7.5 9.99999999999999
vertex 30.4399923766743 9.8579261251109 10.0
endloop
endfacet
facet normal 3.2667849909988e-016 -6.5428174607985e-017 1.0
outer loop
vertex 30.4399923766743 9.8579261251109 10.0
vertex 33.0000000298023 7.5 9.99999999999999
vertex 30.85 10.0277568433688 10.0
endloop
endfacet
facet normal 3.2667849909988e-016 -6.5428174607985e-017 1.0
outer loop
vertex 30.85 10.0277568433688 10.0
vertex 33.0000000298023 7.5 9.99999999999999
vertex 31.2020815280171 10.2979185017852 10.0
endloop
endfacet
facet normal 3.2667849909988e-016 -6.5428174607985e-017 1.0
outer loop
vertex 31.2020815280171 10.2979185017852 10.0
vertex 33.0000000298023 7.5 9.99999999999999
vertex 31.4722431864335 10.6500000298023 10.0
endloop
endfacet
facet normal 3.2667849909988e-016 -6.5428174607985e-017 1.0
outer loop
vertex 31.4722431864335 10.6500000298023 10.0
vertex 33.0000000298023 7.5 9.99999999999999
vertex 31.6420739046914 11.060007653128 10.0
endloop
endfacet
facet normal 3.2667849909988e-016 -6.5428174607985e-017 1.0
outer loop
vertex 31.6420739046914 11.060007653128 10.0
vertex 33.0000000298023 7.5 9.99999999999999
vertex 31.7 11.5000000298023 10.0
endloop
endfacet
facet normal 3.2667849909988e-016 -6.5428174607985e-017 1.0
outer loop
vertex 26.0 -8.99999999999999 9.99999999999999
vertex 27.0 -8.0 10.0
vertex 26.0 34.0 10.0
endloop
endfacet
facet normal 3.2667849909988e-016 -6.5428174607985e-017 1.0
outer loop
vertex 27.0 -8.0 10.0
vertex 26.0 -8.99999999999999 9.99999999999999
vertex 29.2857142954457 -8.99999999999999 10.0
endloop
endfacet
facet normal 3.2667849909988e-016 -6.5428174607985e-017 1.0
outer loop
vertex 27.0 -8.0 10.0
vertex 29.2857142954457 -8.99999999999999 10.0
vertex 28.5714285823764 -7.99999999999999 10.0
endloop
endfacet
facet normal 3.2667849909988e-016 -6.5428174607985e-017 1.0
outer loop
vertex 28.5714285823764 -7.99999999999999 10.0
vertex 29.2857142954457 -8.99999999999999 10.0
vertex 33.0000000298023 7.5 9.99999999999999
endloop
endfacet
facet normal 3.2667849909988e-016 -6.5428174607985e-017 1.0
outer loop
vertex 33.0000000298023 7.5 9.99999999999999
vertex 29.2857142954457 -8.99999999999999 10.0
vertex 34.0000000298023 7.5 9.99999999999999
endloop
endfacet
facet normal 3.2667849909988e-016 -6.5428174607985e-017 1.0
outer loop
vertex 33.0000000298023 7.5 9.99999999999999
vertex 34.0000000298023 7.5 9.99999999999999
vertex 33.0000000298023 15.5000000149012 9.99999999999999
endloop
endfacet
facet normal 3.2667849909988e-016 -6.5428174607985e-017 1.0
outer loop
vertex 15.5 34.0 10.0
vertex 18.9644660940673 36.4644660940673 10.0
vertex 15.5 40.0 10.0
endloop
endfacet
facet normal 3.2667849909988e-016 -6.5428174607985e-017 1.0
outer loop
vertex 18.9644660940673 36.4644660940673 10.0
vertex 15.5 34.0 10.0
vertex 19.4561928549564 36.0332332985438 10.0
endloop
endfacet
facet normal 3.2667849909988e-016 -6.5428174607985e-017 1.0
outer loop
vertex 19.4561928549564 36.0332332985438 10.0
vertex 15.5 34.0 10.0
vertex 20.0 35.6698729810778 10.0
endloop
endfacet
facet normal 3.2667849909988e-016 -6.5428174607985e-017 1.0
outer loop
vertex 20.0 35.6698729810778 10.0
vertex 15.5 34.0 10.0
vertex 20.5865828381746 35.3806023374436 10.0
endloop
endfacet
facet normal 3.2667849909988e-016 -6.5428174607985e-017 1.0
outer loop
vertex 20.5865828381746 35.3806023374436 10.0
vertex 15.5 34.0 10.0
vertex 21.2059047744874 35.1703708685547 10.0
endloop
endfacet
facet normal 3.2667849909988e-016 -6.5428174607985e-017 1.0
outer loop
vertex 21.2059047744874 35.1703708685547 10.0
vertex 15.5 34.0 10.0
vertex 26.0 34.0 10.0
endloop
endfacet
facet normal 3.2667849909988e-016 -6.5428174607985e-017 1.0
outer loop
vertex 15.5 40.0 10.0
vertex 18.9644660940673 36.4644660940673 10.0
vertex 18.5332332985438 36.9561928549564 10.0
endloop
endfacet
facet normal 3.2667849909988e-016 -6.5428174607985e-017 1.0
outer loop
vertex 15.5 40.0 10.0
vertex 18.5332332985438 36.9561928549564 10.0
vertex 18.1698729810778 37.5 10.0
endloop
endfacet
facet normal 3.2667849909988e-016 -6.5428174607985e-017 1.0
outer loop
vertex 15.5 40.0 10.0
vertex 18.1698729810778 37.5 10.0
vertex 17.8806023374436 38.0865828381746 10.0
endloop
endfacet
facet normal 3.2667849909988e-016 -6.5428174607985e-017 1.0
outer loop
vertex 15.5 40.0 10.0
vertex 17.8806023374436 38.0865828381746 10.0
vertex 17.6703708685547 38.7059047744874 10.0
endloop
endfacet
facet normal 3.2667849909988e-016 -6.5428174607985e-017 1.0
outer loop
vertex 15.5 40.0 10.0
vertex 17.6703708685547 38.7059047744874 10.0
vertex 17.5427756931309 39.3473690388997 10.0
endloop
endfacet
facet normal 3.2667849909988e-016 -6.5428174607985e-017 1.0
outer loop
vertex 15.5 40.0 10.0
vertex 17.5427756931309 39.3473690388997 10.0
vertex 17.5 40.0 10.0
endloop
endfacet
facet normal 3.2667849909988e-016 -6.5428174607985e-017 1.0
outer loop
vertex 21.2059047744874 35.1703708685547 10.0
vertex 26.0 34.0 10.0
vertex 21.8473690388997 35.0427756931309 10.0
endloop
endfacet
facet normal 3.2667849909988e-016 -6.5428174607985e-017 1.0
outer loop
vertex 21.8473690388997 35.0427756931309 10.0
vertex 26.0 34.0 10.0
vertex 22.5 35.0 10.0
endloop
endfacet
facet normal 3.2667849909988e-016 -6.5428174607985e-017 1.0
outer loop
vertex 22.5 35.0 10.0
vertex 26.0 34.0 10.0
vertex 27.0 35.0 10.0
endloop
endfacet
facet normal 3.2667849909988e-016 -6.5428174607985e-017 1.0
outer loop
vertex 27.0 35.0 10.0
vertex 26.0 34.0 10.0
vertex 27.0 -8.0 10.0
endloop
endfacet
facet normal 3.2667849909988e-016 -6.5428174607985e-017 1.0
outer loop
vertex 27.0 35.0 10.0
vertex 27.0 -8.0 10.0
vertex 27.0 7.5 9.99999999999999
endloop
endfacet
facet normal 3.2667849909988e-016 -6.5428174607985e-017 1.0
outer loop
vertex 27.0 35.0 10.0
vertex 27.0 7.5 9.99999999999999
vertex 27.0 15.5 9.99999999999999
endloop
endfacet
facet normal 3.2667849909988e-016 -6.5428174607985e-017 1.0
outer loop
vertex 27.0 35.0 10.0
vertex 27.0 15.5 9.99999999999999
vertex 27.0 32.2142857261458 10.0
endloop
endfacet
facet normal 3.2667849909988e-016 -6.5428174607985e-017 1.0
outer loop
vertex 27.0 35.0 10.0
vertex 27.0 32.2142857261458 10.0
vertex 33.0000000298023 15.5000000149012 9.99999999999999
endloop
endfacet
facet normal 3.2667849909988e-016 -6.5428174607985e-017 1.0
outer loop
vertex 27.0 35.0 10.0
vertex 33.0000000298023 15.5000000149012 9.99999999999999
vertex 34.0000000298023 15.5 9.99999999999999
endloop
endfacet
facet normal 3.2667849909988e-016 -6.5428174607985e-017 1.0
outer loop
vertex 34.0000000298023 15.5 9.99999999999999
vertex 33.0000000298023 15.5000000149012 9.99999999999999
vertex 34.0000000298023 7.5 9.99999999999999
endloop
endfacet
facet normal 3.2667849909988e-016 -6.5428174607985e-017 1.0
outer loop
vertex 27.0 15.5 9.99999999999999
vertex 29.15 12.9722432162359 10.0
vertex 33.0000000298023 15.5000000149012 9.99999999999999
endloop
endfacet
facet normal 3.2667849909988e-016 -6.5428174607985e-017 1.0
outer loop
vertex 29.15 12.9722432162359 10.0
vertex 27.0 15.5 9.99999999999999
vertex 28.7979184719829 12.7020815578195 10.0
endloop
endfacet
facet normal 3.2667849909988e-016 -6.5428174607985e-017 1.0
outer loop
vertex 28.7979184719829 12.7020815578195 10.0
vertex 27.0 15.5 9.99999999999999
vertex 28.5277568135664 12.3500000298023 10.0
endloop
endfacet
facet normal 3.2667849909988e-016 -6.5428174607985e-017 1.0
outer loop
vertex 28.5277568135664 12.3500000298023 10.0
vertex 27.0 15.5 9.99999999999999
vertex 28.3579260953086 11.9399924064766 10.0
endloop
endfacet
facet normal 3.2667849909988e-016 -6.5428174607985e-017 1.0
outer loop
vertex 28.3579260953086 11.9399924064766 10.0
vertex 27.0 15.5 9.99999999999999
vertex 28.3 11.5000000298023 10.0
endloop
endfacet
facet normal 3.2667849909988e-016 -6.5428174607985e-017 1.0
outer loop
vertex 33.0000000298023 15.5000000149012 9.99999999999999
vertex 29.15 12.9722432162359 10.0
vertex 29.5600076233257 13.1420739344937 10.0
endloop
endfacet
facet normal 3.2667849909988e-016 -6.5428174607985e-017 1.0
outer loop
vertex 33.0000000298023 15.5000000149012 9.99999999999999
vertex 29.5600076233257 13.1420739344937 10.0
vertex 30.0 13.2000000298023 10.0
endloop
endfacet
facet normal 3.2667849909988e-016 -6.5428174607985e-017 1.0
outer loop
vertex 33.0000000298023 15.5000000149012 9.99999999999999
vertex 30.0 13.2000000298023 10.0
vertex 30.4399923766743 13.1420739344937 10.0
endloop
endfacet
facet normal 3.2667849909988e-016 -6.5428174607985e-017 1.0
outer loop
vertex 33.0000000298023 15.5000000149012 9.99999999999999
vertex 30.4399923766743 13.1420739344937 10.0
vertex 30.85 12.9722432162359 10.0
endloop
endfacet
facet normal 3.2667849909988e-016 -6.5428174607985e-017 1.0
outer loop
vertex 33.0000000298023 15.5000000149012 9.99999999999999
vertex 30.85 12.9722432162359 10.0
vertex 31.2020815280171 12.7020815578195 10.0
endloop
endfacet
facet normal 3.2667849909988e-016 -6.5428174607985e-017 1.0
outer loop
vertex 33.0000000298023 15.5000000149012 9.99999999999999
vertex 31.2020815280171 12.7020815578195 10.0
vertex 31.4722431864335 12.3500000298023 10.0
endloop
endfacet
facet normal 3.2667849909988e-016 -6.5428174607985e-017 1.0
outer loop
vertex 33.0000000298023 15.5000000149012 9.99999999999999
vertex 31.4722431864335 12.3500000298023 10.0
vertex 31.6420739046914 11.9399924064766 10.0
endloop
endfacet
facet normal 3.2667849909988e-016 -6.5428174607985e-017 1.0
outer loop
vertex 33.0000000298023 15.5000000149012 9.99999999999999
vertex 31.6420739046914 11.9399924064766 10.0
vertex 31.7 11.5000000298023 10.0
endloop
endfacet
facet normal 3.2667849909988e-016 -6.5428174607985e-017 1.0
outer loop
vertex 33.0000000298023 15.5000000149012 9.99999999999999
vertex 31.7 11.5000000298023 10.0
vertex 33.0000000298023 7.5 9.99999999999999
endloop
endfacet
facet normal 1.0 -3.64763197126688e-031 1.06701434474785e-015
outer loop
vertex 27.0 32.2142857261458 5.99242877541428e-015
vertex 27.0 15.5 9.99999999999999
vertex 27.0 15.5 3.52495810318487e-016
endloop
endfacet
facet normal 1.0 -3.64763197126688e-031 1.06701434474785e-015
outer loop
vertex 27.0 15.5 9.99999999999999
vertex 27.0 32.2142857261458 5.99242877541428e-015
vertex 27.0 32.2142857261458 10.0
endloop
endfacet
facet normal -2.4835266090564e-009 1.0 -2.61047530599645e-024
outer loop
vertex 27.0 15.5 9.99999999999999
vertex 33.0000000298023 15.5000000149012 3.52495810318487e-016
vertex 27.0 15.5 3.52495810318487e-016
endloop
endfacet
facet normal -2.4835266090564e-009 1.0 -2.61047530599645e-024
outer loop
vertex 33.0000000298023 15.5000000149012 3.52495810318487e-016
vertex 27.0 15.5 9.99999999999999
vertex 33.0000000298023 15.5000000149012 9.99999999999999
endloop
endfacet
facet normal 0.0 -1.0 0.0
outer loop
vertex 33.0000000298023 7.5 9.99999999999999
vertex 27.0 7.5 3.52495810318487e-016
vertex 33.0000000298023 7.5 3.52495810318487e-016
endloop
endfacet
facet normal 0.0 -1.0 0.0
outer loop
vertex 27.0 7.5 3.52495810318487e-016
vertex 33.0000000298023 7.5 9.99999999999999
vertex 27.0 7.5 9.99999999999999
endloop
endfacet
facet normal -0.961523947331868 0.274721128978723 -1.03248659710691e-015
outer loop
vertex 33.0000000298023 7.5 9.99999999999999
vertex 28.5714285823764 -7.99999999999999 5.99242877541428e-015
vertex 28.5714285823764 -7.99999999999999 10.0
endloop
endfacet
facet normal -0.961523947331868 0.274721128978723 -1.03248659710691e-015
outer loop
vertex 28.5714285823764 -7.99999999999999 5.99242877541428e-015
vertex 33.0000000298023 7.5 9.99999999999999
vertex 33.0000000298023 7.5 3.52495810318487e-016
endloop
endfacet
facet normal -8.97262056377847e-016 1.0 -9.58410392692984e-031
outer loop
vertex 27.0 -8.0 10.0
vertex 28.5714285823764 -7.99999999999999 5.99242877541428e-015
vertex 27.0 -8.0 5.99242877541428e-015
endloop
endfacet
facet normal -8.97262056377847e-016 1.0 -9.58410392692984e-031
outer loop
vertex 28.5714285823764 -7.99999999999999 5.99242877541428e-015
vertex 27.0 -8.0 10.0
vertex 28.5714285823764 -7.99999999999999 10.0
endloop
endfacet
facet normal 1.0 0.0 -4.96050957437444e-016
outer loop
vertex 34.0000000298023 15.5 -1.0
vertex 34.0000000298023 7.5 9.99999999999999
vertex 34.0000000298023 7.5 -1.0
endloop
endfacet
facet normal 1.0 0.0 -4.96050957437444e-016
outer loop
vertex 34.0000000298023 7.5 9.99999999999999
vertex 34.0000000298023 15.5 -1.0
vertex 34.0000000298023 15.5 9.99999999999999
endloop
endfacet
facet normal 0.941194670304285 0.337864754881015 2.40627872258815e-016
outer loop
vertex 27.0 35.0 -1.0
vertex 34.0000000298023 15.5 9.99999999999999
vertex 34.0000000298023 15.5 -1.0
endloop
endfacet
facet normal 0.941194670304285 0.337864754881015 2.40627872258815e-016
outer loop
vertex 34.0000000298023 15.5 9.99999999999999
vertex 27.0 35.0 -1.0
vertex 27.0 35.0 10.0
endloop
endfacet
facet normal -0.9411946702085 -0.337864755147845 -9.9277246846998e-016
outer loop
vertex 27.0 32.2142857261458 10.0
vertex 33.0000000298023 15.5000000149012 3.52495810318487e-016
vertex 33.0000000298023 15.5000000149012 9.99999999999999
endloop
endfacet
facet normal -0.9411946702085 -0.337864755147845 -9.9277246846998e-016
outer loop
vertex 33.0000000298023 15.5000000149012 3.52495810318487e-016
vertex 27.0 32.2142857261458 10.0
vertex 27.0 32.2142857261458 5.99242877541428e-015
endloop
endfacet
facet normal 1.0 -4.18822165095405e-016 0.0
outer loop
vertex 28.3 11.5000000298023 -1.0
vertex 28.3579260953086 11.060007653128 10.0
vertex 28.3579260953086 11.060007653128 -1.0
endloop
endfacet
facet normal 0.965925826289068 0.258819045102522 0.0
outer loop
vertex 28.3579260953086 11.060007653128 10.0
vertex 28.3 11.5000000298023 -1.0
vertex 28.3 11.5000000298023 10.0
endloop
endfacet
facet normal 0.965925826289068 -0.258819045102521 0.0
outer loop
vertex 28.3579260953086 11.9399924064766 -1.0
vertex 28.3 11.5000000298023 10.0
vertex 28.3 11.5000000298023 -1.0
endloop
endfacet
facet normal 1.0 -4.18822165095405e-016 0.0
outer loop
vertex 28.3 11.5000000298023 10.0
vertex 28.3579260953086 11.9399924064766 -1.0
vertex 28.3579260953086 11.9399924064766 10.0
endloop
endfacet
facet normal 0.866025403784439 -0.499999999999999 0.0
outer loop
vertex 28.5277568135664 12.3500000298023 -1.0
vertex 28.3579260953086 11.9399924064766 10.0
vertex 28.3579260953086 11.9399924064766 -1.0
endloop
endfacet
facet normal 0.965925826289068 -0.258819045102521 0.0
outer loop
vertex 28.3579260953086 11.9399924064766 10.0
vertex 28.5277568135664 12.3500000298023 -1.0
vertex 28.5277568135664 12.3500000298023 10.0
endloop
endfacet
facet normal 0.707106781186543 -0.707106781186552 0.0
outer loop
vertex 28.7979184719829 12.7020815578195 -1.0
vertex 28.5277568135664 12.3500000298023 10.0
vertex 28.5277568135664 12.3500000298023 -1.0
endloop
endfacet
facet normal 0.866025403784439 -0.499999999999999 0.0
outer loop
vertex 28.5277568135664 12.3500000298023 10.0
vertex 28.7979184719829 12.7020815578195 -1.0
vertex 28.7979184719829 12.7020815578195 10.0
endloop
endfacet
facet normal 0.499999999999995 -0.866025403784441 0.0
outer loop
vertex 29.15 12.9722432162359 10.0
vertex 28.7979184719829 12.7020815578195 -1.0
vertex 29.15 12.9722432162359 -1.0
endloop
endfacet
facet normal 0.707106781186543 -0.707106781186552 0.0
outer loop
vertex 28.7979184719829 12.7020815578195 -1.0
vertex 29.15 12.9722432162359 10.0
vertex 28.7979184719829 12.7020815578195 10.0
endloop
endfacet
facet normal 0.258819045102519 -0.965925826289069 0.0
outer loop
vertex 29.5600076233257 13.1420739344937 10.0
vertex 29.15 12.9722432162359 -1.0
vertex 29.5600076233257 13.1420739344937 -1.0
endloop
endfacet
facet normal 0.499999999999995 -0.866025403784441 0.0
outer loop
vertex 29.15 12.9722432162359 -1.0
vertex 29.5600076233257 13.1420739344937 10.0
vertex 29.15 12.9722432162359 10.0
endloop
endfacet
facet normal 0.0 -1.0 0.0
outer loop
vertex 30.0 13.2000000298023 10.0
vertex 29.5600076233257 13.1420739344937 -1.0
vertex 30.0 13.2000000298023 -1.0
endloop
endfacet
facet normal 0.258819045102519 -0.965925826289069 0.0
outer loop
vertex 29.5600076233257 13.1420739344937 -1.0
vertex 30.0 13.2000000298023 10.0
vertex 29.5600076233257 13.1420739344937 10.0
endloop
endfacet
facet normal -0.258819045102519 -0.965925826289069 0.0
outer loop
vertex 30.4399923766743 13.1420739344937 10.0
vertex 30.0 13.2000000298023 -1.0
vertex 30.4399923766743 13.1420739344937 -1.0
endloop
endfacet
facet normal 0.0 -1.0 0.0
outer loop
vertex 30.0 13.2000000298023 -1.0
vertex 30.4399923766743 13.1420739344937 10.0
vertex 30.0 13.2000000298023 10.0
endloop
endfacet
facet normal -0.500000000000004 -0.866025403784436 0.0
outer loop
vertex 30.85 12.9722432162359 10.0
vertex 30.4399923766743 13.1420739344937 -1.0
vertex 30.85 12.9722432162359 -1.0
endloop
endfacet
facet normal -0.258819045102519 -0.965925826289069 0.0
outer loop
vertex 30.4399923766743 13.1420739344937 -1.0
vertex 30.85 12.9722432162359 10.0
vertex 30.4399923766743 13.1420739344937 10.0
endloop
endfacet
facet normal -0.707106781186551 -0.707106781186544 0.0
outer loop
vertex 31.2020815280171 12.7020815578195 10.0
vertex 30.85 12.9722432162359 -1.0
vertex 31.2020815280171 12.7020815578195 -1.0
endloop
endfacet
facet normal -0.500000000000004 -0.866025403784436 0.0
outer loop
vertex 30.85 12.9722432162359 -1.0
vertex 31.2020815280171 12.7020815578195 10.0
vertex 30.85 12.9722432162359 10.0
endloop
endfacet
facet normal 0.0 1.0 0.0
outer loop
vertex 30.0 9.80000002980232 10.0
vertex 30.4399923766743 9.8579261251109 -1.0
vertex 30.0 9.80000002980232 -1.0
endloop
endfacet
facet normal -0.258819045102523 0.965925826289068 0.0
outer loop
vertex 30.4399923766743 9.8579261251109 -1.0
vertex 30.0 9.80000002980232 10.0
vertex 30.4399923766743 9.8579261251109 10.0
endloop
endfacet
facet normal 0.258819045102518 0.965925826289069 0.0
outer loop
vertex 29.5600076233257 9.8579261251109 10.0
vertex 30.0 9.80000002980232 -1.0
vertex 29.5600076233257 9.8579261251109 -1.0
endloop
endfacet
facet normal 0.0 1.0 0.0
outer loop
vertex 30.0 9.80000002980232 -1.0
vertex 29.5600076233257 9.8579261251109 10.0
vertex 30.0 9.80000002980232 10.0
endloop
endfacet
facet normal 0.707106781186551 0.707106781186545 0.0
outer loop
vertex 28.7979184719829 10.2979185017852 10.0
vertex 29.15 10.0277568433688 -1.0
vertex 28.7979184719829 10.2979185017852 -1.0
endloop
endfacet
facet normal 0.5 0.866025403784439 0.0
outer loop
vertex 29.15 10.0277568433688 -1.0
vertex 28.7979184719829 10.2979185017852 10.0
vertex 29.15 10.0277568433688 10.0
endloop
endfacet
facet normal 0.866025403784438 0.5 0.0
outer loop
vertex 28.5277568135664 10.6500000298023 -1.0
vertex 28.7979184719829 10.2979185017852 10.0
vertex 28.7979184719829 10.2979185017852 -1.0
endloop
endfacet
facet normal 0.707106781186551 0.707106781186545 0.0
outer loop
vertex 28.7979184719829 10.2979185017852 10.0
vertex 28.5277568135664 10.6500000298023 -1.0
vertex 28.5277568135664 10.6500000298023 10.0
endloop
endfacet
facet normal 0.965925826289068 0.258819045102522 0.0
outer loop
vertex 28.3579260953086 11.060007653128 -1.0
vertex 28.5277568135664 10.6500000298023 10.0
vertex 28.5277568135664 10.6500000298023 -1.0
endloop
endfacet
facet normal 0.866025403784438 0.5 0.0
outer loop
vertex 28.5277568135664 10.6500000298023 10.0
vertex 28.3579260953086 11.060007653128 -1.0
vertex 28.3579260953086 11.060007653128 10.0
endloop
endfacet
facet normal 1.0 3.77033795666315e-031 1.06701434474785e-015
outer loop
vertex 27.0 7.5 3.52495810318487e-016
vertex 27.0 -8.0 10.0
vertex 27.0 -8.0 5.99242877541428e-015
endloop
endfacet
facet normal 1.0 3.77033795666315e-031 1.06701434474785e-015
outer loop
vertex 27.0 -8.0 10.0
vertex 27.0 7.5 3.52495810318487e-016
vertex 27.0 7.5 9.99999999999999
endloop
endfacet
facet normal 3.72143116324689e-016 -1.0 4.89726174584033e-031
outer loop
vertex 29.2857142954457 -8.99999999999999 4.0
vertex 26.0 -8.99999999999999 9.99999999999999
vertex 26.0 -8.99999999999999 4.0
endloop
endfacet
facet normal 3.72143116324689e-016 -1.0 4.89726174584033e-031
outer loop
vertex 26.0 -8.99999999999999 9.99999999999999
vertex 29.2857142954457 -8.99999999999999 4.0
vertex 29.2857142954457 -8.99999999999999 10.0
endloop
endfacet
facet normal 0.0 3.63866642909406e-016 1.0
outer loop
vertex 28.5714285823764 -7.99999999999999 5.99242877541428e-015
vertex 27.0 7.5 3.52495810318487e-016
vertex 27.0 -8.0 5.99242877541428e-015
endloop
endfacet
facet normal 0.0 3.63866642909406e-016 1.0
outer loop
vertex 27.0 7.5 3.52495810318487e-016
vertex 28.5714285823764 -7.99999999999999 5.99242877541428e-015
vertex 33.0000000298023 7.5 3.52495810318487e-016
endloop
endfacet
facet normal 8.38021153115845e-025 -3.37431886561169e-016 1.0
outer loop
vertex 33.0000000298023 15.5000000149012 3.52495810318487e-016
vertex 27.0 32.2142857261458 5.99242877541428e-015
vertex 27.0 15.5 3.52495810318487e-016
endloop
endfacet
facet normal 0.961523947331867 -0.274721128978724 8.15146721353349e-016
outer loop
vertex 27.0 -17.0 -1.0
vertex 27.5714285738614 -15.0 4.00000000000001
vertex 27.0 -17.0 10.0
endloop
endfacet
facet normal 0.961523947331867 -0.274721128978724 8.15146721353349e-016
outer loop
vertex 27.5714285738614 -15.0 4.00000000000001
vertex 27.0 -17.0 -1.0
vertex 34.0000000298023 7.5 -1.0
endloop
endfacet
facet normal 0.961523947331867 -0.274721128978724 8.15146721353349e-016
outer loop
vertex 27.5714285738614 -15.0 4.00000000000001
vertex 34.0000000298023 7.5 -1.0
vertex 29.2857142954457 -8.99999999999999 4.0
endloop
endfacet
facet normal 0.961523947331867 -0.274721128978724 8.15146721353349e-016
outer loop
vertex 29.2857142954457 -8.99999999999999 4.0
vertex 34.0000000298023 7.5 -1.0
vertex 29.2857142954457 -8.99999999999999 10.0
endloop
endfacet
facet normal 0.961523947331867 -0.274721128978724 8.15146721353349e-016
outer loop
vertex 29.2857142954457 -8.99999999999999 10.0
vertex 34.0000000298023 7.5 -1.0
vertex 34.0000000298023 7.5 9.99999999999999
endloop
endfacet
facet normal 0.961523947331867 -0.274721128978724 8.15146721353349e-016
outer loop
vertex 27.5714285738614 -15.0 10.0
vertex 27.0 -17.0 10.0
vertex 27.5714285738614 -15.0 4.00000000000001
endloop
endfacet
facet normal -7.12364175655708e-016 3.42175995101651e-016 1.0
outer loop
vertex 27.5714285738614 -15.0 4.00000000000001
vertex 21.0 -12.0 4.0
vertex 21.0 -15.0 4.0
endloop
endfacet
facet normal -7.12364175655708e-016 3.42175995101651e-016 1.0
outer loop
vertex 21.0 -12.0 4.0
vertex 27.5714285738614 -15.0 4.00000000000001
vertex 21.0 -1.99999999999999 4.0
endloop
endfacet
facet normal -7.12364175655708e-016 3.42175995101651e-016 1.0
outer loop
vertex 21.0 -1.99999999999999 4.0
vertex 27.5714285738614 -15.0 4.00000000000001
vertex 21.0 -0.499999999999999 4.0
endloop
endfacet
facet normal -7.12364175655708e-016 3.42175995101651e-016 1.0
outer loop
vertex 21.0 -0.499999999999999 4.0
vertex 27.5714285738614 -15.0 4.00000000000001
vertex 26.0 -8.99999999999999 4.0
endloop
endfacet
facet normal -7.12364175655708e-016 3.42175995101651e-016 1.0
outer loop
vertex 21.0 -0.499999999999999 4.0
vertex 26.0 -8.99999999999999 4.0
vertex 25.0 -0.499999999999996 4.0
endloop
endfacet
facet normal -7.12364175655708e-016 3.42175995101651e-016 1.0
outer loop
vertex 25.0 -0.499999999999996 4.0
vertex 26.0 -8.99999999999999 4.0
vertex 25.0 3.0 4.0
endloop
endfacet
facet normal -7.12364175655708e-016 3.42175995101651e-016 1.0
outer loop
vertex 26.0 -8.99999999999999 4.0
vertex 27.5714285738614 -15.0 4.00000000000001
vertex 29.2857142954457 -8.99999999999999 4.0
endloop
endfacet
facet normal -7.12364175655708e-016 3.42175995101651e-016 1.0
outer loop
vertex 26.0 3.0 4.0
vertex 25.0 3.0 4.0
vertex 26.0 -8.99999999999999 4.0
endloop
endfacet
facet normal -2.94019972799905e-016 1.0 -3.88109858613454e-017
outer loop
vertex 15.5 -0.499999999999999 6.0
vertex 21.0 -0.499999999999999 4.0
vertex 15.5 -0.5 0.500000000000001
endloop
endfacet
facet normal -2.94019972799905e-016 1.0 -3.88109858613454e-017
outer loop
vertex 21.0 -0.499999999999999 4.0
vertex 15.5 -0.499999999999999 6.0
vertex 21.0 -0.499999999999999 6.0
endloop
endfacet
facet normal -2.94019972799905e-016 1.0 -3.88109858613454e-017
outer loop
vertex 15.5 -0.5 0.500000000000001
vertex 25.0 -0.499999999999996 4.0
vertex 25.0 -0.499999999999996 0.5
endloop
endfacet
facet normal -2.94019972799905e-016 1.0 -3.88109858613454e-017
outer loop
vertex 25.0 -0.499999999999996 4.0
vertex 15.5 -0.5 0.500000000000001
vertex 21.0 -0.499999999999999 4.0
endloop
endfacet
facet normal -9.13231878233848e-017 7.23130756874646e-017 1.0
outer loop
vertex -7.0 7.5 10.0
vertex -5.64207390469142 11.0600076233257 10.0
vertex -7.0 15.5 10.0
endloop
endfacet
facet normal -9.13231878233848e-017 7.23130756874646e-017 1.0
outer loop
vertex -5.64207390469142 11.0600076233257 10.0
vertex -7.0 7.5 10.0
vertex -5.47224318643354 10.65 10.0
endloop
endfacet
facet normal -9.13231878233848e-017 7.23130756874646e-017 1.0
outer loop
vertex -5.47224318643354 10.65 10.0
vertex -7.0 7.5 10.0
vertex -5.20208152801713 10.2979184719829 10.0
endloop
endfacet
facet normal -9.13231878233848e-017 7.23130756874646e-017 1.0
outer loop
vertex -5.20208152801713 10.2979184719829 10.0
vertex -7.0 7.5 10.0
vertex -4.85 10.0277568135665 10.0
endloop
endfacet
facet normal -9.13231878233848e-017 7.23130756874646e-017 1.0
outer loop
vertex -4.85 10.0277568135665 10.0
vertex -7.0 7.5 10.0
vertex -1.0 7.5 10.0
endloop
endfacet
facet normal -9.13231878233848e-017 7.23130756874646e-017 1.0
outer loop
vertex -7.0 15.5 10.0
vertex -5.64207390469142 11.0600076233257 10.0
vertex -5.7 11.5 10.0
endloop
endfacet
facet normal -9.13231878233848e-017 7.23130756874646e-017 1.0
outer loop
vertex -4.85 10.0277568135665 10.0
vertex -1.0 7.5 10.0
vertex -4.43999237667428 9.85792609530859 10.0
endloop
endfacet
facet normal -9.13231878233848e-017 7.23130756874646e-017 1.0
outer loop
vertex -4.43999237667428 9.85792609530859 10.0
vertex -1.0 7.5 10.0
vertex -4.0 9.8 10.0
endloop
endfacet
facet normal -9.13231878233848e-017 7.23130756874646e-017 1.0
outer loop
vertex -4.0 9.8 10.0
vertex -1.0 7.5 10.0
vertex -3.56000762332571 9.85792609530859 10.0
endloop
endfacet
facet normal -9.13231878233848e-017 7.23130756874646e-017 1.0
outer loop
vertex -3.56000762332571 9.85792609530859 10.0
vertex -1.0 7.5 10.0
vertex -3.15 10.0277568135665 10.0
endloop
endfacet
facet normal -9.13231878233848e-017 7.23130756874646e-017 1.0
outer loop
vertex -3.15 10.0277568135665 10.0
vertex -1.0 7.5 10.0
vertex -2.79791847198287 10.2979184719829 10.0
endloop
endfacet
facet normal -9.13231878233848e-017 7.23130756874646e-017 1.0
outer loop
vertex -2.79791847198287 10.2979184719829 10.0
vertex -1.0 7.5 10.0
vertex -2.52775681356645 10.65 10.0
endloop
endfacet
facet normal -9.13231878233848e-017 7.23130756874646e-017 1.0
outer loop
vertex -2.52775681356645 10.65 10.0
vertex -1.0 7.5 10.0
vertex -2.35792609530858 11.0600076233257 10.0
endloop
endfacet
facet normal -9.13231878233848e-017 7.23130756874646e-017 1.0
outer loop
vertex -2.35792609530858 11.0600076233257 10.0
vertex -1.0 7.5 10.0
vertex -2.3 11.5 10.0
endloop
endfacet
facet normal -9.13231878233848e-017 7.23130756874646e-017 1.0
outer loop
vertex -8.0 7.5 10.0
vertex -7.0 7.5 10.0
vertex -8.0 15.5 10.0
endloop
endfacet
facet normal -9.13231878233848e-017 7.23130756874646e-017 1.0
outer loop
vertex -7.0 7.5 10.0
vertex -8.0 7.5 10.0
vertex -0.999999999999967 -17.0 10.0
endloop
endfacet
facet normal -9.13231878233848e-017 7.23130756874646e-017 1.0
outer loop
vertex -7.0 7.5 10.0
vertex -0.999999999999967 -17.0 10.0
vertex -0.999999999999971 -13.5 10.0
endloop
endfacet
facet normal -9.13231878233848e-017 7.23130756874646e-017 1.0
outer loop
vertex -0.999999999999967 -17.0 10.0
vertex 4.0 -15.0 10.0
vertex 0.0 -11.0 9.99999999999999
endloop
endfacet
facet normal -9.13231878233848e-017 7.23130756874646e-017 1.0
outer loop
vertex 4.0 -15.0 10.0
vertex -0.999999999999967 -17.0 10.0
vertex 27.0 -17.0 10.0
endloop
endfacet
facet normal -9.13231878233848e-017 7.23130756874646e-017 1.0
outer loop
vertex 4.0 -15.0 10.0
vertex 27.0 -17.0 10.0
vertex 27.5714285738614 -15.0 10.0
endloop
endfacet
facet normal -9.13231878233848e-017 7.23130756874646e-017 1.0
outer loop
vertex -7.0 15.5 10.0
vertex -4.85 12.9722431864335 10.0
vertex -1.0 15.5 10.0
endloop
endfacet
facet normal -9.13231878233848e-017 7.23130756874646e-017 1.0
outer loop
vertex -4.85 12.9722431864335 10.0
vertex -7.0 15.5 10.0
vertex -5.20208152801713 12.7020815280171 10.0
endloop
endfacet
facet normal -9.13231878233848e-017 7.23130756874646e-017 1.0
outer loop
vertex -5.20208152801713 12.7020815280171 10.0
vertex -7.0 15.5 10.0
vertex -5.47224318643355 12.35 10.0
endloop
endfacet
facet normal -9.13231878233848e-017 7.23130756874646e-017 1.0
outer loop
vertex -5.47224318643355 12.35 10.0
vertex -7.0 15.5 10.0
vertex -5.64207390469142 11.9399923766743 10.0
endloop
endfacet
facet normal -9.13231878233848e-017 7.23130756874646e-017 1.0
outer loop
vertex -5.64207390469142 11.9399923766743 10.0
vertex -7.0 15.5 10.0
vertex -5.7 11.5 10.0
endloop
endfacet
facet normal -9.13231878233848e-017 7.23130756874646e-017 1.0
outer loop
vertex -1.0 15.5 10.0
vertex -4.85 12.9722431864335 10.0
vertex -4.43999237667429 13.1420739046914 10.0
endloop
endfacet
facet normal -9.13231878233848e-017 7.23130756874646e-017 1.0
outer loop
vertex -1.0 15.5 10.0
vertex -4.43999237667429 13.1420739046914 10.0
vertex -4.0 13.2 10.0
endloop
endfacet
facet normal -9.13231878233848e-017 7.23130756874646e-017 1.0
outer loop
vertex -1.0 15.5 10.0
vertex -4.0 13.2 10.0
vertex -3.56000762332572 13.1420739046914 10.0
endloop
endfacet
facet normal -9.13231878233848e-017 7.23130756874646e-017 1.0
outer loop
vertex -1.0 15.5 10.0
vertex -3.56000762332572 13.1420739046914 10.0
vertex -3.15 12.9722431864335 10.0
endloop
endfacet
facet normal -9.13231878233848e-017 7.23130756874646e-017 1.0
outer loop
vertex -1.0 15.5 10.0
vertex -3.15 12.9722431864335 10.0
vertex -2.79791847198287 12.7020815280171 10.0
endloop
endfacet
facet normal -9.13231878233848e-017 7.23130756874646e-017 1.0
outer loop
vertex -1.0 15.5 10.0
vertex -2.79791847198287 12.7020815280171 10.0
vertex -2.52775681356645 12.35 10.0
endloop
endfacet
facet normal -9.13231878233848e-017 7.23130756874646e-017 1.0
outer loop
vertex -1.0 15.5 10.0
vertex -2.52775681356645 12.35 10.0
vertex -2.35792609530858 11.9399923766743 10.0
endloop
endfacet
facet normal -9.13231878233848e-017 7.23130756874646e-017 1.0
outer loop
vertex -1.0 15.5 10.0
vertex -2.35792609530858 11.9399923766743 10.0
vertex -2.3 11.5 10.0
endloop
endfacet
facet normal -9.13231878233848e-017 7.23130756874646e-017 1.0
outer loop
vertex -1.0 15.5 10.0
vertex -2.3 11.5 10.0
vertex -1.0 7.5 10.0
endloop
endfacet
facet normal -9.13231878233848e-017 7.23130756874646e-017 1.0
outer loop
vertex -1.0 15.5 10.0
vertex -1.0 7.5 10.0
vertex -0.999999999999971 -13.5 10.0
endloop
endfacet
facet normal -9.13231878233848e-017 7.23130756874646e-017 1.0
outer loop
vertex -1.0 15.5 10.0
vertex -0.999999999999971 -13.5 10.0
vertex -1.0 32.2142857142857 10.0
endloop
endfacet
facet normal -9.13231878233848e-017 7.23130756874646e-017 1.0
outer loop
vertex -1.0 32.2142857142857 10.0
vertex -0.999999999999971 -13.5 10.0
vertex -1.0 35.0 10.0
endloop
endfacet
facet normal -9.13231878233848e-017 7.23130756874646e-017 1.0
outer loop
vertex -1.0 35.0 10.0
vertex -0.999999999999971 -13.5 10.0
vertex 0.0 34.0 10.0
endloop
endfacet
facet normal -9.13231878233848e-017 7.23130756874646e-017 1.0
outer loop
vertex -1.0 35.0 10.0
vertex 0.0 34.0 10.0
vertex 3.5 35.0 10.0
endloop
endfacet
facet normal -9.13231878233848e-017 7.23130756874646e-017 1.0
outer loop
vertex 0.0 34.0 10.0
vertex -0.999999999999971 -13.5 10.0
vertex -0.999999999999967 -17.0 10.0
endloop
endfacet
facet normal -9.13231878233848e-017 7.23130756874646e-017 1.0
outer loop
vertex 0.0 34.0 10.0
vertex -0.999999999999967 -17.0 10.0
vertex 0.0 -11.0 9.99999999999999
endloop
endfacet
facet normal -9.13231878233848e-017 7.23130756874646e-017 1.0
outer loop
vertex 3.5 35.0 10.0
vertex 0.0 34.0 10.0
vertex 10.5 34.0 10.0
endloop
endfacet
facet normal -9.13231878233848e-017 7.23130756874646e-017 1.0
outer loop
vertex 3.5 35.0 10.0
vertex 10.5 34.0 10.0
vertex 4.15263096110026 35.0427756931309 10.0
endloop
endfacet
facet normal -9.13231878233848e-017 7.23130756874646e-017 1.0
outer loop
vertex 4.15263096110026 35.0427756931309 10.0
vertex 10.5 34.0 10.0
vertex 4.7940952255126 35.1703708685547 10.0
endloop
endfacet
facet normal -9.13231878233848e-017 7.23130756874646e-017 1.0
outer loop
vertex 4.7940952255126 35.1703708685547 10.0
vertex 10.5 34.0 10.0
vertex 5.41341716182545 35.3806023374436 10.0
endloop
endfacet
facet normal -9.13231878233848e-017 7.23130756874646e-017 1.0
outer loop
vertex 5.41341716182545 35.3806023374436 10.0
vertex 10.5 34.0 10.0
vertex 6.0 35.6698729810778 10.0
endloop
endfacet
facet normal -9.13231878233848e-017 7.23130756874646e-017 1.0
outer loop
vertex 6.0 35.6698729810778 10.0
vertex 10.5 34.0 10.0
vertex 6.5438071450436 36.0332332985438 10.0
endloop
endfacet
facet normal -9.13231878233848e-017 7.23130756874646e-017 1.0
outer loop
vertex 6.5438071450436 36.0332332985438 10.0
vertex 10.5 34.0 10.0
vertex 7.03553390593274 36.4644660940673 10.0
endloop
endfacet
facet normal -9.13231878233848e-017 7.23130756874646e-017 1.0
outer loop
vertex 7.03553390593274 36.4644660940673 10.0
vertex 10.5 34.0 10.0
vertex 7.46676670145618 36.9561928549564 10.0
endloop
endfacet
facet normal -9.13231878233848e-017 7.23130756874646e-017 1.0
outer loop
vertex 7.46676670145618 36.9561928549564 10.0
vertex 10.5 34.0 10.0
vertex 7.8301270189222 37.5 10.0
endloop
endfacet
facet normal -9.13231878233848e-017 7.23130756874646e-017 1.0
outer loop
vertex 7.8301270189222 37.5 10.0
vertex 10.5 34.0 10.0
vertex 8.11939766255644 38.0865828381746 10.0
endloop
endfacet
facet normal -9.13231878233848e-017 7.23130756874646e-017 1.0
outer loop
vertex 8.11939766255644 38.0865828381746 10.0
vertex 10.5 34.0 10.0
vertex 8.32962913144535 38.7059047744874 10.0
endloop
endfacet
facet normal -9.13231878233848e-017 7.23130756874646e-017 1.0
outer loop
vertex 8.32962913144535 38.7059047744874 10.0
vertex 10.5 34.0 10.0
vertex 8.45722430686905 39.3473690388998 10.0
endloop
endfacet
facet normal -9.13231878233848e-017 7.23130756874646e-017 1.0
outer loop
vertex 8.45722430686905 39.3473690388998 10.0
vertex 10.5 34.0 10.0
vertex 8.5 40.0 10.0
endloop
endfacet
facet normal -9.13231878233848e-017 7.23130756874646e-017 1.0
outer loop
vertex 8.5 40.0 10.0
vertex 10.5 34.0 10.0
vertex 10.5 40.0 10.0
endloop
endfacet
facet normal -9.13231878233848e-017 7.23130756874646e-017 1.0
outer loop
vertex -8.0 15.5 10.0
vertex -7.0 15.5 10.0
vertex -1.0 35.0 10.0
endloop
endfacet
facet normal -9.13231878233848e-017 7.23130756874646e-017 1.0
outer loop
vertex -7.0 15.5 10.0
vertex -8.0 15.5 10.0
vertex -7.0 7.5 10.0
endloop
endfacet
facet normal -9.13231878233848e-017 7.23130756874646e-017 1.0
outer loop
vertex -1.0 35.0 10.0
vertex -7.0 15.5 10.0
vertex -1.0 32.2142857142857 10.0
endloop
endfacet
facet normal 6.99495004741818e-017 1.0 -5.19399659241403e-016
outer loop
vertex 4.00000000000001 -15.0 0.500000000000008
vertex 21.0 -15.0 4.0
vertex 21.0 -15.0 0.5
endloop
endfacet
facet normal 6.99495004741818e-017 1.0 -5.19399659241403e-016
outer loop
vertex 21.0 -15.0 4.0
vertex 4.00000000000001 -15.0 0.500000000000008
vertex 4.0 -15.0 10.0
endloop
endfacet
facet normal 6.99495004741818e-017 1.0 -5.19399659241403e-016
outer loop
vertex 21.0 -15.0 4.0
vertex 4.0 -15.0 10.0
vertex 27.5714285738614 -15.0 4.00000000000001
endloop
endfacet
facet normal 6.99495004741818e-017 1.0 -5.19399659241403e-016
outer loop
vertex 27.5714285738614 -15.0 4.00000000000001
vertex 4.0 -15.0 10.0
vertex 27.5714285738614 -15.0 10.0
endloop
endfacet
endsolid ESC_case_v3
