solid motor_mount_v04
facet normal 0.0 -1.0 0.0
outer loop
vertex 12.5 -46.0 -32.4
vertex 6.0 -46.0 -38.9
vertex 9.0 -46.0 -38.9
endloop
endfacet
facet normal 0.0 -1.0 0.0
outer loop
vertex 6.0 -46.0 -38.9
vertex 12.5 -46.0 -32.4
vertex 6.0 -46.0 -35.9
endloop
endfacet
facet normal 0.0 -1.0 0.0
outer loop
vertex 6.0 -46.0 -35.9
vertex 12.5 -46.0 -32.4
vertex -6.0 -46.0 -35.9
endloop
endfacet
facet normal 0.0 -1.0 0.0
outer loop
vertex -6.0 -46.0 -35.9
vertex -9.0 -46.0 -38.9
vertex -6.0 -46.0 -38.9
endloop
endfacet
facet normal 0.0 -1.0 0.0
outer loop
vertex -9.0 -46.0 -38.9
vertex -6.0 -46.0 -35.9
vertex -12.5 -46.0 -32.4
endloop
endfacet
facet normal 0.0 -1.0 0.0
outer loop
vertex -12.5 -46.0 -32.4
vertex -6.0 -46.0 -35.9
vertex 12.5 -46.0 -32.4
endloop
endfacet
facet normal 0.0 0.0 -1.0
outer loop
vertex 9.0 -21.0 -38.9
vertex 6.0 -46.0 -38.9
vertex 6.0 -21.0 -38.9
endloop
endfacet
facet normal 0.0 0.0 -1.0
outer loop
vertex 6.0 -46.0 -38.9
vertex 9.0 -21.0 -38.9
vertex 9.0 -46.0 -38.9
endloop
endfacet
facet normal -1.0 -0.0 -0.0
outer loop
vertex 6.0 -21.0 -35.9
vertex 6.0 -46.0 -38.9
vertex 6.0 -46.0 -35.9
endloop
endfacet
facet normal -1.0 -0.0 -0.0
outer loop
vertex 6.0 -46.0 -38.9
vertex 6.0 -21.0 -35.9
vertex 6.0 -21.0 -38.9
endloop
endfacet
facet normal -8.61489520958469e-031 1.98850467355375e-031 -1.0
outer loop
vertex -6.0 -21.0 -35.9
vertex -3.5 -26.0 -35.9
vertex -6.0 -46.0 -35.9
endloop
endfacet
facet normal -8.61489520958469e-031 1.98850467355375e-031 -1.0
outer loop
vertex -3.5 -26.0 -35.9
vertex -6.0 -21.0 -35.9
vertex -3.38074039201174 -25.0941333421411 -35.9
endloop
endfacet
facet normal -8.61489520958469e-031 1.98850467355375e-031 -1.0
outer loop
vertex -3.38074039201174 -25.0941333421411 -35.9
vertex -6.0 -21.0 -35.9
vertex -3.03108891324553 -24.25 -35.9
endloop
endfacet
facet normal -8.61489520958469e-031 1.98850467355375e-031 -1.0
outer loop
vertex -3.03108891324553 -24.25 -35.9
vertex -6.0 -21.0 -35.9
vertex -2.47487373415292 -23.5251262658471 -35.9
endloop
endfacet
facet normal -8.61489520958469e-031 1.98850467355375e-031 -1.0
outer loop
vertex -2.47487373415292 -23.5251262658471 -35.9
vertex -6.0 -21.0 -35.9
vertex -1.75 -22.9689110867544 -35.9
endloop
endfacet
facet normal -8.61489520958469e-031 1.98850467355375e-031 -1.0
outer loop
vertex -1.75 -22.9689110867544 -35.9
vertex -6.0 -21.0 -35.9
vertex -0.905866657858823 -22.6192596079882 -35.9
endloop
endfacet
facet normal -8.61489520958469e-031 1.98850467355375e-031 -1.0
outer loop
vertex -0.905866657858823 -22.6192596079882 -35.9
vertex -6.0 -21.0 -35.9
vertex 6.0 -21.0 -35.9
endloop
endfacet
facet normal -8.61489520958469e-031 1.98850467355375e-031 -1.0
outer loop
vertex -0.905866657858823 -22.6192596079882 -35.9
vertex 6.0 -21.0 -35.9
vertex -1.40998324127395e-015 -22.5 -35.9
endloop
endfacet
facet normal -8.61489520958469e-031 1.98850467355375e-031 -1.0
outer loop
vertex -1.40998324127395e-015 -22.5 -35.9
vertex 6.0 -21.0 -35.9
vertex 0.905866657858821 -22.6192596079882 -35.9
endloop
endfacet
facet normal -8.61489520958469e-031 1.98850467355375e-031 -1.0
outer loop
vertex 0.905866657858821 -22.6192596079882 -35.9
vertex 6.0 -21.0 -35.9
vertex 1.75 -22.9689110867544 -35.9
endloop
endfacet
facet normal -8.61489520958469e-031 1.98850467355375e-031 -1.0
outer loop
vertex 1.75 -22.9689110867544 -35.9
vertex 6.0 -21.0 -35.9
vertex 2.47487373415291 -23.5251262658471 -35.9
endloop
endfacet
facet normal -8.61489520958469e-031 1.98850467355375e-031 -1.0
outer loop
vertex 2.47487373415291 -23.5251262658471 -35.9
vertex 6.0 -21.0 -35.9
vertex 3.03108891324553 -24.25 -35.9
endloop
endfacet
facet normal -8.61489520958469e-031 1.98850467355375e-031 -1.0
outer loop
vertex 3.03108891324553 -24.25 -35.9
vertex 6.0 -21.0 -35.9
vertex 3.38074039201174 -25.0941333421411 -35.9
endloop
endfacet
facet normal -8.61489520958469e-031 1.98850467355375e-031 -1.0
outer loop
vertex 3.38074039201174 -25.0941333421411 -35.9
vertex 6.0 -21.0 -35.9
vertex 3.5 -26.0 -35.9
endloop
endfacet
facet normal -8.61489520958469e-031 1.98850467355375e-031 -1.0
outer loop
vertex 3.5 -26.0 -35.9
vertex 6.0 -21.0 -35.9
vertex 3.5 -41.0 -35.9
endloop
endfacet
facet normal -8.61489520958469e-031 1.98850467355375e-031 -1.0
outer loop
vertex -6.0 -46.0 -35.9
vertex -0.905866657858824 -44.3807403920117 -35.9
vertex 6.0 -46.0 -35.9
endloop
endfacet
facet normal -8.61489520958469e-031 1.98850467355375e-031 -1.0
outer loop
vertex -0.905866657858824 -44.3807403920117 -35.9
vertex -6.0 -46.0 -35.9
vertex -1.75 -44.0310889132455 -35.9
endloop
endfacet
facet normal -8.61489520958469e-031 1.98850467355375e-031 -1.0
outer loop
vertex -1.75 -44.0310889132455 -35.9
vertex -6.0 -46.0 -35.9
vertex -2.47487373415292 -43.4748737341529 -35.9
endloop
endfacet
facet normal -8.61489520958469e-031 1.98850467355375e-031 -1.0
outer loop
vertex -2.47487373415292 -43.4748737341529 -35.9
vertex -6.0 -46.0 -35.9
vertex -3.03108891324554 -42.75 -35.9
endloop
endfacet
facet normal -8.61489520958469e-031 1.98850467355375e-031 -1.0
outer loop
vertex -3.03108891324554 -42.75 -35.9
vertex -6.0 -46.0 -35.9
vertex -3.38074039201174 -41.9058666578588 -35.9
endloop
endfacet
facet normal -8.61489520958469e-031 1.98850467355375e-031 -1.0
outer loop
vertex -3.38074039201174 -41.9058666578588 -35.9
vertex -6.0 -46.0 -35.9
vertex -3.5 -41.0 -35.9
endloop
endfacet
facet normal -8.61489520958469e-031 1.98850467355375e-031 -1.0
outer loop
vertex -3.5 -41.0 -35.9
vertex -6.0 -46.0 -35.9
vertex -3.5 -26.0 -35.9
endloop
endfacet
facet normal -8.61489520958469e-031 1.98850467355375e-031 -1.0
outer loop
vertex 6.0 -46.0 -35.9
vertex -0.905866657858824 -44.3807403920117 -35.9
vertex -1.40998324127395e-015 -44.5 -35.9
endloop
endfacet
facet normal -8.61489520958469e-031 1.98850467355375e-031 -1.0
outer loop
vertex 6.0 -46.0 -35.9
vertex -1.40998324127395e-015 -44.5 -35.9
vertex 0.905866657858818 -44.3807403920117 -35.9
endloop
endfacet
facet normal -8.61489520958469e-031 1.98850467355375e-031 -1.0
outer loop
vertex 6.0 -46.0 -35.9
vertex 0.905866657858818 -44.3807403920117 -35.9
vertex 1.75 -44.0310889132455 -35.9
endloop
endfacet
facet normal -8.61489520958469e-031 1.98850467355375e-031 -1.0
outer loop
vertex 6.0 -46.0 -35.9
vertex 1.75 -44.0310889132455 -35.9
vertex 2.47487373415291 -43.4748737341529 -35.9
endloop
endfacet
facet normal -8.61489520958469e-031 1.98850467355375e-031 -1.0
outer loop
vertex 6.0 -46.0 -35.9
vertex 2.47487373415291 -43.4748737341529 -35.9
vertex 3.03108891324553 -42.75 -35.9
endloop
endfacet
facet normal -8.61489520958469e-031 1.98850467355375e-031 -1.0
outer loop
vertex 6.0 -46.0 -35.9
vertex 3.03108891324553 -42.75 -35.9
vertex 3.38074039201174 -41.9058666578588 -35.9
endloop
endfacet
facet normal -8.61489520958469e-031 1.98850467355375e-031 -1.0
outer loop
vertex 6.0 -46.0 -35.9
vertex 3.38074039201174 -41.9058666578588 -35.9
vertex 3.5 -41.0 -35.9
endloop
endfacet
facet normal -8.61489520958469e-031 1.98850467355375e-031 -1.0
outer loop
vertex 6.0 -46.0 -35.9
vertex 3.5 -41.0 -35.9
vertex 6.0 -21.0 -35.9
endloop
endfacet
facet normal -8.61489520958469e-031 1.98850467355375e-031 -1.0
outer loop
vertex -3.38074039201174 -26.9058666578588 -35.9
vertex -3.5 -41.0 -35.9
vertex -3.5 -26.0 -35.9
endloop
endfacet
facet normal -8.61489520958469e-031 1.98850467355375e-031 -1.0
outer loop
vertex -3.5 -41.0 -35.9
vertex -3.38074039201174 -26.9058666578588 -35.9
vertex -3.38074039201174 -40.0941333421411 -35.9
endloop
endfacet
facet normal -8.61489520958469e-031 1.98850467355375e-031 -1.0
outer loop
vertex -3.38074039201174 -40.0941333421411 -35.9
vertex -3.38074039201174 -26.9058666578588 -35.9
vertex -3.03108891324554 -27.75 -35.9
endloop
endfacet
facet normal -8.61489520958469e-031 1.98850467355375e-031 -1.0
outer loop
vertex -3.38074039201174 -40.0941333421411 -35.9
vertex -3.03108891324554 -27.75 -35.9
vertex -3.03108891324554 -39.25 -35.9
endloop
endfacet
facet normal -8.61489520958469e-031 1.98850467355375e-031 -1.0
outer loop
vertex -3.03108891324554 -39.25 -35.9
vertex -3.03108891324554 -27.75 -35.9
vertex -2.47487373415292 -28.4748737341529 -35.9
endloop
endfacet
facet normal -8.61489520958469e-031 1.98850467355375e-031 -1.0
outer loop
vertex -3.03108891324554 -39.25 -35.9
vertex -2.47487373415292 -28.4748737341529 -35.9
vertex -2.47487373415292 -38.5251262658471 -35.9
endloop
endfacet
facet normal -8.61489520958469e-031 1.98850467355375e-031 -1.0
outer loop
vertex -2.47487373415292 -38.5251262658471 -35.9
vertex -2.47487373415292 -28.4748737341529 -35.9
vertex -1.75 -29.0310889132455 -35.9
endloop
endfacet
facet normal -8.61489520958469e-031 1.98850467355375e-031 -1.0
outer loop
vertex -2.47487373415292 -38.5251262658471 -35.9
vertex -1.75 -29.0310889132455 -35.9
vertex -1.75 -37.9689110867544 -35.9
endloop
endfacet
facet normal -8.61489520958469e-031 1.98850467355375e-031 -1.0
outer loop
vertex -1.75 -37.9689110867544 -35.9
vertex -1.75 -29.0310889132455 -35.9
vertex -0.905866657858827 -29.3807403920117 -35.9
endloop
endfacet
facet normal -8.61489520958469e-031 1.98850467355375e-031 -1.0
outer loop
vertex -1.75 -37.9689110867544 -35.9
vertex -0.905866657858827 -29.3807403920117 -35.9
vertex -0.905866657858824 -37.6192596079882 -35.9
endloop
endfacet
facet normal -8.61489520958469e-031 1.98850467355375e-031 -1.0
outer loop
vertex -0.905866657858824 -37.6192596079882 -35.9
vertex -0.905866657858827 -29.3807403920117 -35.9
vertex -1.40998324127395e-015 -29.5 -35.9
endloop
endfacet
facet normal -8.61489520958469e-031 1.98850467355375e-031 -1.0
outer loop
vertex -0.905866657858824 -37.6192596079882 -35.9
vertex -1.40998324127395e-015 -29.5 -35.9
vertex -1.40998324127395e-015 -37.5 -35.9
endloop
endfacet
facet normal -8.61489520958469e-031 1.98850467355375e-031 -1.0
outer loop
vertex -1.40998324127395e-015 -37.5 -35.9
vertex -1.40998324127395e-015 -29.5 -35.9
vertex 0.905866657858821 -29.3807403920117 -35.9
endloop
endfacet
facet normal -8.61489520958469e-031 1.98850467355375e-031 -1.0
outer loop
vertex -1.40998324127395e-015 -37.5 -35.9
vertex 0.905866657858821 -29.3807403920117 -35.9
vertex 0.905866657858824 -37.6192596079882 -35.9
endloop
endfacet
facet normal -8.61489520958469e-031 1.98850467355375e-031 -1.0
outer loop
vertex 0.905866657858824 -37.6192596079882 -35.9
vertex 0.905866657858821 -29.3807403920117 -35.9
vertex 1.75 -29.0310889132455 -35.9
endloop
endfacet
facet normal -8.61489520958469e-031 1.98850467355375e-031 -1.0
outer loop
vertex 0.905866657858824 -37.6192596079882 -35.9
vertex 1.75 -29.0310889132455 -35.9
vertex 1.75 -37.9689110867544 -35.9
endloop
endfacet
facet normal -8.61489520958469e-031 1.98850467355375e-031 -1.0
outer loop
vertex 1.75 -37.9689110867544 -35.9
vertex 1.75 -29.0310889132455 -35.9
vertex 2.47487373415291 -28.4748737341529 -35.9
endloop
endfacet
facet normal -8.61489520958469e-031 1.98850467355375e-031 -1.0
outer loop
vertex 1.75 -37.9689110867544 -35.9
vertex 2.47487373415291 -28.4748737341529 -35.9
vertex 2.47487373415291 -38.5251262658471 -35.9
endloop
endfacet
facet normal -8.61489520958469e-031 1.98850467355375e-031 -1.0
outer loop
vertex 2.47487373415291 -38.5251262658471 -35.9
vertex 2.47487373415291 -28.4748737341529 -35.9
vertex 3.03108891324553 -27.75 -35.9
endloop
endfacet
facet normal -8.61489520958469e-031 1.98850467355375e-031 -1.0
outer loop
vertex 2.47487373415291 -38.5251262658471 -35.9
vertex 3.03108891324553 -27.75 -35.9
vertex 3.03108891324553 -39.25 -35.9
endloop
endfacet
facet normal -8.61489520958469e-031 1.98850467355375e-031 -1.0
outer loop
vertex 3.03108891324553 -39.25 -35.9
vertex 3.03108891324553 -27.75 -35.9
vertex 3.38074039201174 -26.9058666578588 -35.9
endloop
endfacet
facet normal -8.61489520958469e-031 1.98850467355375e-031 -1.0
outer loop
vertex 3.03108891324553 -39.25 -35.9
vertex 3.38074039201174 -26.9058666578588 -35.9
vertex 3.38074039201174 -40.0941333421411 -35.9
endloop
endfacet
facet normal -8.61489520958469e-031 1.98850467355375e-031 -1.0
outer loop
vertex 3.38074039201174 -40.0941333421411 -35.9
vertex 3.38074039201174 -26.9058666578588 -35.9
vertex 3.5 -26.0 -35.9
endloop
endfacet
facet normal -8.61489520958469e-031 1.98850467355375e-031 -1.0
outer loop
vertex 3.38074039201174 -40.0941333421411 -35.9
vertex 3.5 -26.0 -35.9
vertex 3.5 -41.0 -35.9
endloop
endfacet
facet normal 0.0 0.0 -1.0
outer loop
vertex -6.0 -21.0 -38.9
vertex -9.0 -46.0 -38.9
vertex -9.0 -21.0 -38.9
endloop
endfacet
facet normal 0.0 0.0 -1.0
outer loop
vertex -9.0 -46.0 -38.9
vertex -6.0 -21.0 -38.9
vertex -6.0 -46.0 -38.9
endloop
endfacet
facet normal 1.0 0.0 0.0
outer loop
vertex -6.0 -21.0 -38.9
vertex -6.0 -46.0 -35.9
vertex -6.0 -46.0 -38.9
endloop
endfacet
facet normal 1.0 0.0 0.0
outer loop
vertex -6.0 -46.0 -35.9
vertex -6.0 -21.0 -38.9
vertex -6.0 -21.0 -35.9
endloop
endfacet
facet normal 0.880471099922175 0.0 -0.474099823035017
outer loop
vertex 9.0 -21.0 -38.9
vertex 12.5 -46.0 -32.4
vertex 9.0 -46.0 -38.9
endloop
endfacet
facet normal 0.880471099922175 0.0 -0.474099823035017
outer loop
vertex 12.5 -46.0 -32.4
vertex 9.0 -21.0 -38.9
vertex 12.5 -21.0 -32.4
endloop
endfacet
facet normal 0.0 0.0 1.0
outer loop
vertex -12.5 -46.0 -32.4
vertex -3.03108891324554 -42.75 -32.4
vertex -12.5 -21.0 -32.4
endloop
endfacet
facet normal 0.0 0.0 1.0
outer loop
vertex -3.03108891324554 -42.75 -32.4
vertex -12.5 -46.0 -32.4
vertex -2.47487373415292 -43.4748737341529 -32.4
endloop
endfacet
facet normal 0.0 0.0 1.0
outer loop
vertex -2.47487373415292 -43.4748737341529 -32.4
vertex -12.5 -46.0 -32.4
vertex -1.75 -44.0310889132455 -32.4
endloop
endfacet
facet normal 0.0 0.0 1.0
outer loop
vertex -1.75 -44.0310889132455 -32.4
vertex -12.5 -46.0 -32.4
vertex -0.905866657858824 -44.3807403920117 -32.4
endloop
endfacet
facet normal 0.0 0.0 1.0
outer loop
vertex -0.905866657858824 -44.3807403920117 -32.4
vertex -12.5 -46.0 -32.4
vertex -1.40998324127395e-015 -44.5 -32.4
endloop
endfacet
facet normal 0.0 0.0 1.0
outer loop
vertex -1.40998324127395e-015 -44.5 -32.4
vertex -12.5 -46.0 -32.4
vertex 12.5 -46.0 -32.4
endloop
endfacet
facet normal 0.0 0.0 1.0
outer loop
vertex -12.5 -21.0 -32.4
vertex -3.03108891324554 -42.75 -32.4
vertex -3.38074039201174 -41.9058666578588 -32.4
endloop
endfacet
facet normal 0.0 0.0 1.0
outer loop
vertex -12.5 -21.0 -32.4
vertex -3.38074039201174 -41.9058666578588 -32.4
vertex -3.5 -41.0 -32.4
endloop
endfacet
facet normal 0.0 0.0 1.0
outer loop
vertex -1.40998324127395e-015 -44.5 -32.4
vertex 12.5 -46.0 -32.4
vertex 0.905866657858818 -44.3807403920117 -32.4
endloop
endfacet
facet normal 0.0 0.0 1.0
outer loop
vertex 0.905866657858818 -44.3807403920117 -32.4
vertex 12.5 -46.0 -32.4
vertex 1.75 -44.0310889132455 -32.4
endloop
endfacet
facet normal 0.0 0.0 1.0
outer loop
vertex 1.75 -44.0310889132455 -32.4
vertex 12.5 -46.0 -32.4
vertex 2.47487373415291 -43.4748737341529 -32.4
endloop
endfacet
facet normal 0.0 0.0 1.0
outer loop
vertex 2.47487373415291 -43.4748737341529 -32.4
vertex 12.5 -46.0 -32.4
vertex 3.03108891324553 -42.75 -32.4
endloop
endfacet
facet normal 0.0 0.0 1.0
outer loop
vertex 3.03108891324553 -42.75 -32.4
vertex 12.5 -46.0 -32.4
vertex 3.38074039201174 -41.9058666578588 -32.4
endloop
endfacet
facet normal 0.0 0.0 1.0
outer loop
vertex 3.38074039201174 -41.9058666578588 -32.4
vertex 12.5 -46.0 -32.4
vertex 3.5 -41.0 -32.4
endloop
endfacet
facet normal 0.0 0.0 1.0
outer loop
vertex 3.5 -41.0 -32.4
vertex 12.5 -46.0 -32.4
vertex 3.5 -26.0 -32.4
endloop
endfacet
facet normal 0.0 0.0 1.0
outer loop
vertex -12.5 -21.0 -32.4
vertex -1.40998324127395e-015 -22.5 -32.4
vertex 12.5 -21.0 -32.4
endloop
endfacet
facet normal 0.0 0.0 1.0
outer loop
vertex -1.40998324127395e-015 -22.5 -32.4
vertex -12.5 -21.0 -32.4
vertex -0.905866657858823 -22.6192596079882 -32.4
endloop
endfacet
facet normal 0.0 0.0 1.0
outer loop
vertex -0.905866657858823 -22.6192596079882 -32.4
vertex -12.5 -21.0 -32.4
vertex -1.75 -22.9689110867544 -32.4
endloop
endfacet
facet normal 0.0 0.0 1.0
outer loop
vertex -1.75 -22.9689110867544 -32.4
vertex -12.5 -21.0 -32.4
vertex -2.47487373415292 -23.5251262658471 -32.4
endloop
endfacet
facet normal 0.0 0.0 1.0
outer loop
vertex -2.47487373415292 -23.5251262658471 -32.4
vertex -12.5 -21.0 -32.4
vertex -3.03108891324553 -24.25 -32.4
endloop
endfacet
facet normal 0.0 0.0 1.0
outer loop
vertex -3.03108891324553 -24.25 -32.4
vertex -12.5 -21.0 -32.4
vertex -3.38074039201174 -25.0941333421411 -32.4
endloop
endfacet
facet normal 0.0 0.0 1.0
outer loop
vertex -3.38074039201174 -25.0941333421411 -32.4
vertex -12.5 -21.0 -32.4
vertex -3.5 -26.0 -32.4
endloop
endfacet
facet normal 0.0 0.0 1.0
outer loop
vertex -3.5 -26.0 -32.4
vertex -12.5 -21.0 -32.4
vertex -3.5 -41.0 -32.4
endloop
endfacet
facet normal 0.0 0.0 1.0
outer loop
vertex 12.5 -21.0 -32.4
vertex -1.40998324127395e-015 -22.5 -32.4
vertex 0.905866657858821 -22.6192596079882 -32.4
endloop
endfacet
facet normal 0.0 0.0 1.0
outer loop
vertex 12.5 -21.0 -32.4
vertex 0.905866657858821 -22.6192596079882 -32.4
vertex 1.75 -22.9689110867544 -32.4
endloop
endfacet
facet normal 0.0 0.0 1.0
outer loop
vertex 12.5 -21.0 -32.4
vertex 1.75 -22.9689110867544 -32.4
vertex 2.47487373415291 -23.5251262658471 -32.4
endloop
endfacet
facet normal 0.0 0.0 1.0
outer loop
vertex 12.5 -21.0 -32.4
vertex 2.47487373415291 -23.5251262658471 -32.4
vertex 3.03108891324553 -24.25 -32.4
endloop
endfacet
facet normal 0.0 0.0 1.0
outer loop
vertex 12.5 -21.0 -32.4
vertex 3.03108891324553 -24.25 -32.4
vertex 3.38074039201174 -25.0941333421411 -32.4
endloop
endfacet
facet normal 0.0 0.0 1.0
outer loop
vertex 12.5 -21.0 -32.4
vertex 3.38074039201174 -25.0941333421411 -32.4
vertex 3.5 -26.0 -32.4
endloop
endfacet
facet normal 0.0 0.0 1.0
outer loop
vertex 12.5 -21.0 -32.4
vertex 3.5 -26.0 -32.4
vertex 12.5 -46.0 -32.4
endloop
endfacet
facet normal 0.0 0.0 1.0
outer loop
vertex -3.38074039201174 -40.0941333421411 -32.4
vertex -3.5 -26.0 -32.4
vertex -3.5 -41.0 -32.4
endloop
endfacet
facet normal 0.0 0.0 1.0
outer loop
vertex -3.5 -26.0 -32.4
vertex -3.38074039201174 -40.0941333421411 -32.4
vertex -3.38074039201174 -26.9058666578588 -32.4
endloop
endfacet
facet normal 0.0 0.0 1.0
outer loop
vertex -3.38074039201174 -26.9058666578588 -32.4
vertex -3.38074039201174 -40.0941333421411 -32.4
vertex -3.03108891324554 -27.75 -32.4
endloop
endfacet
facet normal 0.0 0.0 1.0
outer loop
vertex -3.03108891324554 -27.75 -32.4
vertex -3.38074039201174 -40.0941333421411 -32.4
vertex -3.03108891324554 -39.25 -32.4
endloop
endfacet
facet normal 0.0 0.0 1.0
outer loop
vertex -3.03108891324554 -27.75 -32.4
vertex -3.03108891324554 -39.25 -32.4
vertex -2.47487373415292 -28.4748737341529 -32.4
endloop
endfacet
facet normal 0.0 0.0 1.0
outer loop
vertex -2.47487373415292 -28.4748737341529 -32.4
vertex -3.03108891324554 -39.25 -32.4
vertex -2.47487373415292 -38.5251262658471 -32.4
endloop
endfacet
facet normal 0.0 0.0 1.0
outer loop
vertex -2.47487373415292 -28.4748737341529 -32.4
vertex -2.47487373415292 -38.5251262658471 -32.4
vertex -1.75 -29.0310889132455 -32.4
endloop
endfacet
facet normal 0.0 0.0 1.0
outer loop
vertex -1.75 -29.0310889132455 -32.4
vertex -2.47487373415292 -38.5251262658471 -32.4
vertex -1.75 -37.9689110867544 -32.4
endloop
endfacet
facet normal 0.0 0.0 1.0
outer loop
vertex -1.75 -29.0310889132455 -32.4
vertex -1.75 -37.9689110867544 -32.4
vertex -0.905866657858827 -29.3807403920117 -32.4
endloop
endfacet
facet normal 0.0 0.0 1.0
outer loop
vertex -0.905866657858827 -29.3807403920117 -32.4
vertex -1.75 -37.9689110867544 -32.4
vertex -0.905866657858824 -37.6192596079882 -32.4
endloop
endfacet
facet normal 0.0 0.0 1.0
outer loop
vertex -0.905866657858827 -29.3807403920117 -32.4
vertex -0.905866657858824 -37.6192596079882 -32.4
vertex -1.40998324127395e-015 -29.5 -32.4
endloop
endfacet
facet normal 0.0 0.0 1.0
outer loop
vertex -1.40998324127395e-015 -29.5 -32.4
vertex -0.905866657858824 -37.6192596079882 -32.4
vertex -1.40998324127395e-015 -37.5 -32.4
endloop
endfacet
facet normal 0.0 0.0 1.0
outer loop
vertex -1.40998324127395e-015 -29.5 -32.4
vertex -1.40998324127395e-015 -37.5 -32.4
vertex 0.905866657858824 -37.6192596079882 -32.4
endloop
endfacet
facet normal 0.0 0.0 1.0
outer loop
vertex -1.40998324127395e-015 -29.5 -32.4
vertex 0.905866657858824 -37.6192596079882 -32.4
vertex 0.905866657858821 -29.3807403920117 -32.4
endloop
endfacet
facet normal 0.0 0.0 1.0
outer loop
vertex 0.905866657858821 -29.3807403920117 -32.4
vertex 0.905866657858824 -37.6192596079882 -32.4
vertex 1.75 -29.0310889132455 -32.4
endloop
endfacet
facet normal 0.0 0.0 1.0
outer loop
vertex 1.75 -29.0310889132455 -32.4
vertex 0.905866657858824 -37.6192596079882 -32.4
vertex 1.75 -37.9689110867544 -32.4
endloop
endfacet
facet normal 0.0 0.0 1.0
outer loop
vertex 1.75 -29.0310889132455 -32.4
vertex 1.75 -37.9689110867544 -32.4
vertex 2.47487373415291 -28.4748737341529 -32.4
endloop
endfacet
facet normal 0.0 0.0 1.0
outer loop
vertex 2.47487373415291 -28.4748737341529 -32.4
vertex 1.75 -37.9689110867544 -32.4
vertex 2.47487373415291 -38.5251262658471 -32.4
endloop
endfacet
facet normal 0.0 0.0 1.0
outer loop
vertex 2.47487373415291 -28.4748737341529 -32.4
vertex 2.47487373415291 -38.5251262658471 -32.4
vertex 3.03108891324553 -39.25 -32.4
endloop
endfacet
facet normal 0.0 0.0 1.0
outer loop
vertex 2.47487373415291 -28.4748737341529 -32.4
vertex 3.03108891324553 -39.25 -32.4
vertex 3.03108891324553 -27.75 -32.4
endloop
endfacet
facet normal 0.0 0.0 1.0
outer loop
vertex 3.03108891324553 -27.75 -32.4
vertex 3.03108891324553 -39.25 -32.4
vertex 3.38074039201174 -40.0941333421411 -32.4
endloop
endfacet
facet normal 0.0 0.0 1.0
outer loop
vertex 3.03108891324553 -27.75 -32.4
vertex 3.38074039201174 -40.0941333421411 -32.4
vertex 3.38074039201174 -26.9058666578588 -32.4
endloop
endfacet
facet normal 0.0 0.0 1.0
outer loop
vertex 3.38074039201174 -26.9058666578588 -32.4
vertex 3.38074039201174 -40.0941333421411 -32.4
vertex 3.5 -26.0 -32.4
endloop
endfacet
facet normal 0.0 0.0 1.0
outer loop
vertex 3.5 -26.0 -32.4
vertex 3.38074039201174 -40.0941333421411 -32.4
vertex 3.5 -41.0 -32.4
endloop
endfacet
facet normal -1.80651280111973e-016 1.0 4.39994770326622e-016
outer loop
vertex -12.5 -21.0 -32.4
vertex -6.0 -21.0 -38.9
vertex -9.0 -21.0 -38.9
endloop
endfacet
facet normal -1.80651280111973e-016 1.0 4.39994770326622e-016
outer loop
vertex -6.0 -21.0 -38.9
vertex -12.5 -21.0 -32.4
vertex -6.0 -21.0 -35.9
endloop
endfacet
facet normal -1.80651280111973e-016 1.0 4.39994770326622e-016
outer loop
vertex -6.0 -21.0 -35.9
vertex -12.5 -21.0 -32.4
vertex 6.0 -21.0 -35.9
endloop
endfacet
facet normal -1.80651280111973e-016 1.0 4.39994770326622e-016
outer loop
vertex 6.0 -21.0 -35.9
vertex 9.0 -21.0 -38.9
vertex 6.0 -21.0 -38.9
endloop
endfacet
facet normal -1.80651280111973e-016 1.0 4.39994770326622e-016
outer loop
vertex 9.0 -21.0 -38.9
vertex 6.0 -21.0 -35.9
vertex 12.5 -21.0 -32.4
endloop
endfacet
facet normal -1.80651280111973e-016 1.0 4.39994770326622e-016
outer loop
vertex 12.5 -21.0 -32.4
vertex 6.0 -21.0 -35.9
vertex -12.5 -21.0 -32.4
endloop
endfacet
facet normal -0.880471099922175 4.36608237891246e-018 -0.474099823035017
outer loop
vertex -12.5 -21.0 -32.4
vertex -9.0 -46.0 -38.9
vertex -12.5 -46.0 -32.4
endloop
endfacet
facet normal -0.880471099922175 4.36608237891246e-018 -0.474099823035017
outer loop
vertex -9.0 -46.0 -38.9
vertex -12.5 -21.0 -32.4
vertex -9.0 -21.0 -38.9
endloop
endfacet
facet normal 2.85155516660701e-015 1.0 0.0
outer loop
vertex -1.40998324127395e-015 -29.5 -32.4
vertex 0.905866657858821 -29.3807403920117 -35.9
vertex -1.40998324127395e-015 -29.5 -35.9
endloop
endfacet
facet normal -0.258819045102521 0.965925826289068 0.0
outer loop
vertex 0.905866657858821 -29.3807403920117 -35.9
vertex -1.40998324127395e-015 -29.5 -32.4
vertex 0.905866657858821 -29.3807403920117 -32.4
endloop
endfacet
facet normal 0.258819045102521 0.965925826289068 0.0
outer loop
vertex -0.905866657858827 -29.3807403920117 -32.4
vertex -1.40998324127395e-015 -29.5 -35.9
vertex -0.905866657858827 -29.3807403920117 -35.9
endloop
endfacet
facet normal 2.85155516660701e-015 1.0 0.0
outer loop
vertex -1.40998324127395e-015 -29.5 -35.9
vertex -0.905866657858827 -29.3807403920117 -32.4
vertex -1.40998324127395e-015 -29.5 -32.4
endloop
endfacet
facet normal 0.499999999999999 0.866025403784439 0.0
outer loop
vertex -1.75 -29.0310889132455 -32.4
vertex -0.905866657858827 -29.3807403920117 -35.9
vertex -1.75 -29.0310889132455 -35.9
endloop
endfacet
facet normal 0.258819045102521 0.965925826289068 0.0
outer loop
vertex -0.905866657858827 -29.3807403920117 -35.9
vertex -1.75 -29.0310889132455 -32.4
vertex -0.905866657858827 -29.3807403920117 -32.4
endloop
endfacet
facet normal 0.707106781186548 0.707106781186547 0.0
outer loop
vertex -2.47487373415292 -28.4748737341529 -32.4
vertex -1.75 -29.0310889132455 -35.9
vertex -2.47487373415292 -28.4748737341529 -35.9
endloop
endfacet
facet normal 0.499999999999999 0.866025403784439 0.0
outer loop
vertex -1.75 -29.0310889132455 -35.9
vertex -2.47487373415292 -28.4748737341529 -32.4
vertex -1.75 -29.0310889132455 -32.4
endloop
endfacet
facet normal 0.866025403784439 0.499999999999999 0.0
outer loop
vertex -3.03108891324554 -27.75 -35.9
vertex -2.47487373415292 -28.4748737341529 -32.4
vertex -2.47487373415292 -28.4748737341529 -35.9
endloop
endfacet
facet normal 0.707106781186548 0.707106781186547 0.0
outer loop
vertex -2.47487373415292 -28.4748737341529 -32.4
vertex -3.03108891324554 -27.75 -35.9
vertex -3.03108891324554 -27.75 -32.4
endloop
endfacet
facet normal 0.965925826289068 0.25881904510252 0.0
outer loop
vertex -3.38074039201174 -26.9058666578588 -35.9
vertex -3.03108891324554 -27.75 -32.4
vertex -3.03108891324554 -27.75 -35.9
endloop
endfacet
facet normal 0.866025403784439 0.499999999999999 0.0
outer loop
vertex -3.03108891324554 -27.75 -32.4
vertex -3.38074039201174 -26.9058666578588 -35.9
vertex -3.38074039201174 -26.9058666578588 -32.4
endloop
endfacet
facet normal 1.0 -1.11388873695586e-015 0.0
outer loop
vertex -3.5 -26.0 -35.9
vertex -3.38074039201174 -26.9058666578588 -32.4
vertex -3.38074039201174 -26.9058666578588 -35.9
endloop
endfacet
facet normal 0.965925826289068 0.25881904510252 0.0
outer loop
vertex -3.38074039201174 -26.9058666578588 -32.4
vertex -3.5 -26.0 -35.9
vertex -3.5 -26.0 -32.4
endloop
endfacet
facet normal 0.965925826289068 -0.258819045102521 0.0
outer loop
vertex -3.38074039201174 -25.0941333421411 -35.9
vertex -3.5 -26.0 -32.4
vertex -3.5 -26.0 -35.9
endloop
endfacet
facet normal 1.0 -1.11388873695586e-015 0.0
outer loop
vertex -3.5 -26.0 -32.4
vertex -3.38074039201174 -25.0941333421411 -35.9
vertex -3.38074039201174 -25.0941333421411 -32.4
endloop
endfacet
facet normal 0.866025403784438 -0.5 0.0
outer loop
vertex -3.03108891324553 -24.25 -35.9
vertex -3.38074039201174 -25.0941333421411 -32.4
vertex -3.38074039201174 -25.0941333421411 -35.9
endloop
endfacet
facet normal 0.965925826289068 -0.258819045102521 0.0
outer loop
vertex -3.38074039201174 -25.0941333421411 -32.4
vertex -3.03108891324553 -24.25 -35.9
vertex -3.03108891324553 -24.25 -32.4
endloop
endfacet
facet normal 0.707106781186547 -0.707106781186548 0.0
outer loop
vertex -2.47487373415292 -23.5251262658471 -35.9
vertex -3.03108891324553 -24.25 -32.4
vertex -3.03108891324553 -24.25 -35.9
endloop
endfacet
facet normal 0.866025403784438 -0.5 0.0
outer loop
vertex -3.03108891324553 -24.25 -32.4
vertex -2.47487373415292 -23.5251262658471 -35.9
vertex -2.47487373415292 -23.5251262658471 -32.4
endloop
endfacet
facet normal 0.5 -0.866025403784439 0.0
outer loop
vertex -1.75 -22.9689110867544 -32.4
vertex -2.47487373415292 -23.5251262658471 -35.9
vertex -1.75 -22.9689110867544 -35.9
endloop
endfacet
facet normal 0.707106781186547 -0.707106781186548 0.0
outer loop
vertex -2.47487373415292 -23.5251262658471 -35.9
vertex -1.75 -22.9689110867544 -32.4
vertex -2.47487373415292 -23.5251262658471 -32.4
endloop
endfacet
facet normal 0.258819045102521 -0.965925826289068 0.0
outer loop
vertex -0.905866657858823 -22.6192596079882 -32.4
vertex -1.75 -22.9689110867544 -35.9
vertex -0.905866657858823 -22.6192596079882 -35.9
endloop
endfacet
facet normal 0.5 -0.866025403784439 0.0
outer loop
vertex -1.75 -22.9689110867544 -35.9
vertex -0.905866657858823 -22.6192596079882 -32.4
vertex -1.75 -22.9689110867544 -32.4
endloop
endfacet
facet normal 1.1584442864341e-016 -1.0 0.0
outer loop
vertex -1.40998324127395e-015 -22.5 -32.4
vertex -0.905866657858823 -22.6192596079882 -35.9
vertex -1.40998324127395e-015 -22.5 -35.9
endloop
endfacet
facet normal 0.258819045102521 -0.965925826289068 0.0
outer loop
vertex -0.905866657858823 -22.6192596079882 -35.9
vertex -1.40998324127395e-015 -22.5 -32.4
vertex -0.905866657858823 -22.6192596079882 -32.4
endloop
endfacet
facet normal -0.258819045102521 -0.965925826289068 0.0
outer loop
vertex 0.905866657858821 -22.6192596079882 -32.4
vertex -1.40998324127395e-015 -22.5 -35.9
vertex 0.905866657858821 -22.6192596079882 -35.9
endloop
endfacet
facet normal 1.1584442864341e-016 -1.0 0.0
outer loop
vertex -1.40998324127395e-015 -22.5 -35.9
vertex 0.905866657858821 -22.6192596079882 -32.4
vertex -1.40998324127395e-015 -22.5 -32.4
endloop
endfacet
facet normal -0.5 -0.866025403784439 0.0
outer loop
vertex 1.75 -22.9689110867544 -32.4
vertex 0.905866657858821 -22.6192596079882 -35.9
vertex 1.75 -22.9689110867544 -35.9
endloop
endfacet
facet normal -0.258819045102521 -0.965925826289068 0.0
outer loop
vertex 0.905866657858821 -22.6192596079882 -35.9
vertex 1.75 -22.9689110867544 -32.4
vertex 0.905866657858821 -22.6192596079882 -32.4
endloop
endfacet
facet normal -0.707106781186547 -0.707106781186548 0.0
outer loop
vertex 2.47487373415291 -23.5251262658471 -32.4
vertex 1.75 -22.9689110867544 -35.9
vertex 2.47487373415291 -23.5251262658471 -35.9
endloop
endfacet
facet normal -0.5 -0.866025403784439 0.0
outer loop
vertex 1.75 -22.9689110867544 -35.9
vertex 2.47487373415291 -23.5251262658471 -32.4
vertex 1.75 -22.9689110867544 -32.4
endloop
endfacet
facet normal -0.707106781186547 -0.707106781186548 0.0
outer loop
vertex 2.47487373415291 -23.5251262658471 -32.4
vertex 3.03108891324553 -24.25 -35.9
vertex 3.03108891324553 -24.25 -32.4
endloop
endfacet
facet normal -0.866025403784439 -0.499999999999999 0.0
outer loop
vertex 3.03108891324553 -24.25 -35.9
vertex 2.47487373415291 -23.5251262658471 -32.4
vertex 2.47487373415291 -23.5251262658471 -35.9
endloop
endfacet
facet normal -0.866025403784439 -0.499999999999999 0.0
outer loop
vertex 3.03108891324553 -24.25 -32.4
vertex 3.38074039201174 -25.0941333421411 -35.9
vertex 3.38074039201174 -25.0941333421411 -32.4
endloop
endfacet
facet normal -0.965925826289068 -0.258819045102521 0.0
outer loop
vertex 3.38074039201174 -25.0941333421411 -35.9
vertex 3.03108891324553 -24.25 -32.4
vertex 3.03108891324553 -24.25 -35.9
endloop
endfacet
facet normal -0.965925826289068 -0.258819045102521 0.0
outer loop
vertex 3.38074039201174 -25.0941333421411 -32.4
vertex 3.5 -26.0 -35.9
vertex 3.5 -26.0 -32.4
endloop
endfacet
facet normal -1.0 -2.13866637495526e-016 0.0
outer loop
vertex 3.5 -26.0 -35.9
vertex 3.38074039201174 -25.0941333421411 -32.4
vertex 3.38074039201174 -25.0941333421411 -35.9
endloop
endfacet
facet normal -1.0 -2.13866637495526e-016 0.0
outer loop
vertex 3.5 -26.0 -32.4
vertex 3.38074039201174 -26.9058666578588 -35.9
vertex 3.38074039201174 -26.9058666578588 -32.4
endloop
endfacet
facet normal -0.965925826289068 0.258819045102521 0.0
outer loop
vertex 3.38074039201174 -26.9058666578588 -35.9
vertex 3.5 -26.0 -32.4
vertex 3.5 -26.0 -35.9
endloop
endfacet
facet normal -0.965925826289068 0.258819045102521 0.0
outer loop
vertex 3.38074039201174 -26.9058666578588 -32.4
vertex 3.03108891324553 -27.75 -35.9
vertex 3.03108891324553 -27.75 -32.4
endloop
endfacet
facet normal -0.866025403784439 0.5 0.0
outer loop
vertex 3.03108891324553 -27.75 -35.9
vertex 3.38074039201174 -26.9058666578588 -32.4
vertex 3.38074039201174 -26.9058666578588 -35.9
endloop
endfacet
facet normal -0.866025403784439 0.5 0.0
outer loop
vertex 3.03108891324553 -27.75 -32.4
vertex 2.47487373415291 -28.4748737341529 -35.9
vertex 2.47487373415291 -28.4748737341529 -32.4
endloop
endfacet
facet normal -0.707106781186546 0.707106781186549 0.0
outer loop
vertex 2.47487373415291 -28.4748737341529 -35.9
vertex 3.03108891324553 -27.75 -32.4
vertex 3.03108891324553 -27.75 -35.9
endloop
endfacet
facet normal -0.500000000000001 0.866025403784438 0.0
outer loop
vertex 1.75 -29.0310889132455 -32.4
vertex 2.47487373415291 -28.4748737341529 -35.9
vertex 1.75 -29.0310889132455 -35.9
endloop
endfacet
facet normal -0.707106781186546 0.707106781186549 0.0
outer loop
vertex 2.47487373415291 -28.4748737341529 -35.9
vertex 1.75 -29.0310889132455 -32.4
vertex 2.47487373415291 -28.4748737341529 -32.4
endloop
endfacet
facet normal -0.258819045102521 0.965925826289068 0.0
outer loop
vertex 0.905866657858821 -29.3807403920117 -32.4
vertex 1.75 -29.0310889132455 -35.9
vertex 0.905866657858821 -29.3807403920117 -35.9
endloop
endfacet
facet normal -0.500000000000001 0.866025403784438 0.0
outer loop
vertex 1.75 -29.0310889132455 -35.9
vertex 0.905866657858821 -29.3807403920117 -32.4
vertex 1.75 -29.0310889132455 -32.4
endloop
endfacet
facet normal 0.258819045102521 -0.965925826289068 -7.13759054694547e-019
outer loop
vertex -0.905866657858824 -37.6192596079882 -32.4
vertex -1.75 -37.9689110867544 -35.9
vertex -0.905866657858824 -37.6192596079882 -35.9
endloop
endfacet
facet normal 0.499999999999998 -0.86602540378444 -1.20984178403852e-030
outer loop
vertex -1.75 -37.9689110867544 -35.9
vertex -0.905866657858824 -37.6192596079882 -32.4
vertex -1.75 -37.9689110867544 -32.4
endloop
endfacet
facet normal 2.13866637495526e-016 -1.0 0.0
outer loop
vertex -1.40998324127395e-015 -37.5 -32.4
vertex -0.905866657858824 -37.6192596079882 -35.9
vertex -1.40998324127395e-015 -37.5 -35.9
endloop
endfacet
facet normal 0.258819045102521 -0.965925826289068 -7.13759054694547e-019
outer loop
vertex -0.905866657858824 -37.6192596079882 -35.9
vertex -1.40998324127395e-015 -37.5 -32.4
vertex -0.905866657858824 -37.6192596079882 -32.4
endloop
endfacet
facet normal -0.258819045102521 -0.965925826289068 7.13759054692128e-019
outer loop
vertex 0.905866657858824 -37.6192596079882 -32.4
vertex -1.40998324127395e-015 -37.5 -35.9
vertex 0.905866657858824 -37.6192596079882 -35.9
endloop
endfacet
facet normal 2.13866637495526e-016 -1.0 0.0
outer loop
vertex -1.40998324127395e-015 -37.5 -35.9
vertex 0.905866657858824 -37.6192596079882 -32.4
vertex -1.40998324127395e-015 -37.5 -32.4
endloop
endfacet
facet normal -0.499999999999999 -0.866025403784439 -1.20984178403852e-030
outer loop
vertex 1.75 -37.9689110867544 -32.4
vertex 0.905866657858824 -37.6192596079882 -35.9
vertex 1.75 -37.9689110867544 -35.9
endloop
endfacet
facet normal -0.258819045102521 -0.965925826289068 7.13759054692128e-019
outer loop
vertex 0.905866657858824 -37.6192596079882 -35.9
vertex 1.75 -37.9689110867544 -32.4
vertex 0.905866657858824 -37.6192596079882 -32.4
endloop
endfacet
facet normal -0.707106781186548 -0.707106781186547 7.97187281900035e-031
outer loop
vertex 2.47487373415291 -38.5251262658471 -32.4
vertex 1.75 -37.9689110867544 -35.9
vertex 2.47487373415291 -38.5251262658471 -35.9
endloop
endfacet
facet normal -0.499999999999999 -0.866025403784439 -1.20984178403852e-030
outer loop
vertex 1.75 -37.9689110867544 -35.9
vertex 2.47487373415291 -38.5251262658471 -32.4
vertex 1.75 -37.9689110867544 -32.4
endloop
endfacet
facet normal -0.707106781186548 -0.707106781186547 7.97187281900035e-031
outer loop
vertex 2.47487373415291 -38.5251262658471 -32.4
vertex 3.03108891324553 -39.25 -35.9
vertex 3.03108891324553 -39.25 -32.4
endloop
endfacet
facet normal -0.866025403784439 -0.499999999999999 2.9605440662562e-031
outer loop
vertex 3.03108891324553 -39.25 -35.9
vertex 2.47487373415291 -38.5251262658471 -32.4
vertex 2.47487373415291 -38.5251262658471 -35.9
endloop
endfacet
facet normal -0.866025403784439 -0.499999999999999 2.9605440662562e-031
outer loop
vertex 3.03108891324553 -39.25 -32.4
vertex 3.38074039201174 -40.0941333421411 -35.9
vertex 3.38074039201174 -40.0941333421411 -32.4
endloop
endfacet
facet normal -0.965925826289068 -0.258819045102521 -7.51745297809675e-019
outer loop
vertex 3.38074039201174 -40.0941333421411 -35.9
vertex 3.03108891324553 -39.25 -32.4
vertex 3.03108891324553 -39.25 -35.9
endloop
endfacet
facet normal -0.965925826289068 -0.258819045102521 -7.51745297809675e-019
outer loop
vertex 3.38074039201174 -40.0941333421411 -32.4
vertex 3.5 -41.0 -35.9
vertex 3.5 -41.0 -32.4
endloop
endfacet
facet normal -1.0 1.11388873695586e-015 -7.51745297809174e-019
outer loop
vertex 3.5 -41.0 -35.9
vertex 3.38074039201174 -40.0941333421411 -32.4
vertex 3.38074039201174 -40.0941333421411 -35.9
endloop
endfacet
facet normal -1.0 1.11388873695586e-015 -7.51745297809174e-019
outer loop
vertex 3.5 -41.0 -32.4
vertex 3.38074039201174 -41.9058666578588 -35.9
vertex 3.38074039201174 -41.9058666578588 -32.4
endloop
endfacet
facet normal -0.965925826289068 0.258819045102522 5.01132875274415e-031
outer loop
vertex 3.38074039201174 -41.9058666578588 -35.9
vertex 3.5 -41.0 -32.4
vertex 3.5 -41.0 -35.9
endloop
endfacet
facet normal -0.965925826289068 0.258819045102522 5.01132875274415e-031
outer loop
vertex 3.38074039201174 -41.9058666578588 -32.4
vertex 3.03108891324553 -42.75 -35.9
vertex 3.03108891324553 -42.75 -32.4
endloop
endfacet
facet normal -0.866025403784439 0.5 5.01132875274415e-031
outer loop
vertex 3.03108891324553 -42.75 -35.9
vertex 3.38074039201174 -41.9058666578588 -32.4
vertex 3.38074039201174 -41.9058666578588 -35.9
endloop
endfacet
facet normal -0.866025403784439 0.5 5.01132875274415e-031
outer loop
vertex 3.03108891324553 -42.75 -32.4
vertex 2.47487373415291 -43.4748737341529 -35.9
vertex 2.47487373415291 -43.4748737341529 -32.4
endloop
endfacet
facet normal -0.707106781186547 0.707106781186548 0.0
outer loop
vertex 2.47487373415291 -43.4748737341529 -35.9
vertex 3.03108891324553 -42.75 -32.4
vertex 3.03108891324553 -42.75 -35.9
endloop
endfacet
facet normal -0.5 0.866025403784439 0.0
outer loop
vertex 1.75 -44.0310889132455 -32.4
vertex 2.47487373415291 -43.4748737341529 -35.9
vertex 1.75 -44.0310889132455 -35.9
endloop
endfacet
facet normal -0.707106781186547 0.707106781186548 0.0
outer loop
vertex 2.47487373415291 -43.4748737341529 -35.9
vertex 1.75 -44.0310889132455 -32.4
vertex 2.47487373415291 -43.4748737341529 -32.4
endloop
endfacet
facet normal -0.258819045102521 0.965925826289068 0.0
outer loop
vertex 0.905866657858818 -44.3807403920117 -32.4
vertex 1.75 -44.0310889132455 -35.9
vertex 0.905866657858818 -44.3807403920117 -35.9
endloop
endfacet
facet normal -0.5 0.866025403784439 0.0
outer loop
vertex 1.75 -44.0310889132455 -35.9
vertex 0.905866657858818 -44.3807403920117 -32.4
vertex 1.75 -44.0310889132455 -32.4
endloop
endfacet
facet normal 2.8693773863983e-015 1.0 7.13759054693338e-019
outer loop
vertex -1.40998324127395e-015 -44.5 -32.4
vertex 0.905866657858818 -44.3807403920117 -35.9
vertex -1.40998324127395e-015 -44.5 -35.9
endloop
endfacet
facet normal -0.258819045102521 0.965925826289068 0.0
outer loop
vertex 0.905866657858818 -44.3807403920117 -35.9
vertex -1.40998324127395e-015 -44.5 -32.4
vertex 0.905866657858818 -44.3807403920117 -32.4
endloop
endfacet
facet normal 0.258819045102521 0.965925826289068 7.13759054692128e-019
outer loop
vertex -0.905866657858824 -44.3807403920117 -32.4
vertex -1.40998324127395e-015 -44.5 -35.9
vertex -0.905866657858824 -44.3807403920117 -35.9
endloop
endfacet
facet normal 2.8693773863983e-015 1.0 7.13759054693338e-019
outer loop
vertex -1.40998324127395e-015 -44.5 -35.9
vertex -0.905866657858824 -44.3807403920117 -32.4
vertex -1.40998324127395e-015 -44.5 -32.4
endloop
endfacet
facet normal 0.499999999999999 0.866025403784439 -1.20984178403852e-030
outer loop
vertex -1.75 -44.0310889132455 -32.4
vertex -0.905866657858824 -44.3807403920117 -35.9
vertex -1.75 -44.0310889132455 -35.9
endloop
endfacet
facet normal 0.258819045102521 0.965925826289068 7.13759054692128e-019
outer loop
vertex -0.905866657858824 -44.3807403920117 -35.9
vertex -1.75 -44.0310889132455 -32.4
vertex -0.905866657858824 -44.3807403920117 -32.4
endloop
endfacet
facet normal 0.707106781186548 0.707106781186547 7.97187281900035e-031
outer loop
vertex -2.47487373415292 -43.4748737341529 -32.4
vertex -1.75 -44.0310889132455 -35.9
vertex -2.47487373415292 -43.4748737341529 -35.9
endloop
endfacet
facet normal 0.499999999999999 0.866025403784439 -1.20984178403852e-030
outer loop
vertex -1.75 -44.0310889132455 -35.9
vertex -2.47487373415292 -43.4748737341529 -32.4
vertex -1.75 -44.0310889132455 -32.4
endloop
endfacet
facet normal 0.866025403784439 0.5 1.79945303244887e-030
outer loop
vertex -3.03108891324554 -42.75 -35.9
vertex -2.47487373415292 -43.4748737341529 -32.4
vertex -2.47487373415292 -43.4748737341529 -35.9
endloop
endfacet
facet normal 0.707106781186548 0.707106781186547 7.97187281900035e-031
outer loop
vertex -2.47487373415292 -43.4748737341529 -32.4
vertex -3.03108891324554 -42.75 -35.9
vertex -3.03108891324554 -42.75 -32.4
endloop
endfacet
facet normal 0.965925826289068 0.258819045102521 1.00226575054883e-030
outer loop
vertex -3.38074039201174 -41.9058666578588 -35.9
vertex -3.03108891324554 -42.75 -32.4
vertex -3.03108891324554 -42.75 -35.9
endloop
endfacet
facet normal 0.866025403784439 0.5 1.79945303244887e-030
outer loop
vertex -3.03108891324554 -42.75 -32.4
vertex -3.38074039201174 -41.9058666578588 -35.9
vertex -3.38074039201174 -41.9058666578588 -32.4
endloop
endfacet
facet normal 1.0 0.0 0.0
outer loop
vertex -3.5 -41.0 -35.9
vertex -3.38074039201174 -41.9058666578588 -32.4
vertex -3.38074039201174 -41.9058666578588 -35.9
endloop
endfacet
facet normal 0.965925826289068 0.258819045102521 1.00226575054883e-030
outer loop
vertex -3.38074039201174 -41.9058666578588 -32.4
vertex -3.5 -41.0 -35.9
vertex -3.5 -41.0 -32.4
endloop
endfacet
facet normal 0.965925826289068 -0.258819045102521 5.01132875274415e-031
outer loop
vertex -3.38074039201174 -40.0941333421411 -35.9
vertex -3.5 -41.0 -32.4
vertex -3.5 -41.0 -35.9
endloop
endfacet
facet normal 1.0 0.0 0.0
outer loop
vertex -3.5 -41.0 -32.4
vertex -3.38074039201174 -40.0941333421411 -35.9
vertex -3.38074039201174 -40.0941333421411 -32.4
endloop
endfacet
facet normal 0.866025403784439 -0.5 5.01132875274415e-031
outer loop
vertex -3.03108891324554 -39.25 -35.9
vertex -3.38074039201174 -40.0941333421411 -32.4
vertex -3.38074039201174 -40.0941333421411 -35.9
endloop
endfacet
facet normal 0.965925826289068 -0.258819045102521 5.01132875274415e-031
outer loop
vertex -3.38074039201174 -40.0941333421411 -32.4
vertex -3.03108891324554 -39.25 -35.9
vertex -3.03108891324554 -39.25 -32.4
endloop
endfacet
facet normal 0.707106781186547 -0.707106781186548 0.0
outer loop
vertex -2.47487373415292 -38.5251262658471 -35.9
vertex -3.03108891324554 -39.25 -32.4
vertex -3.03108891324554 -39.25 -35.9
endloop
endfacet
facet normal 0.866025403784439 -0.5 5.01132875274415e-031
outer loop
vertex -3.03108891324554 -39.25 -32.4
vertex -2.47487373415292 -38.5251262658471 -35.9
vertex -2.47487373415292 -38.5251262658471 -32.4
endloop
endfacet
facet normal 0.499999999999998 -0.86602540378444 -1.20984178403852e-030
outer loop
vertex -1.75 -37.9689110867544 -32.4
vertex -2.47487373415292 -38.5251262658471 -35.9
vertex -1.75 -37.9689110867544 -35.9
endloop
endfacet
facet normal 0.707106781186547 -0.707106781186548 0.0
outer loop
vertex -2.47487373415292 -38.5251262658471 -35.9
vertex -1.75 -37.9689110867544 -32.4
vertex -2.47487373415292 -38.5251262658471 -32.4
endloop
endfacet
endsolid motor_mount_v04
