solid motor_mount_v04
facet normal -8.95054047749059e-032 1.0 -1.15583237981824e-047
outer loop
vertex -12.5 -36.5 -18.0
vertex -9.8 -36.5 -15.0
vertex 12.5 -36.5 -18.0
endloop
endfacet
facet normal -8.95054047749059e-032 1.0 -1.15583237981824e-047
outer loop
vertex -9.8 -36.5 -15.0
vertex -12.5 -36.5 -18.0
vertex -12.5 -36.5 -11.0
endloop
endfacet
facet normal -8.95054047749059e-032 1.0 -1.15583237981824e-047
outer loop
vertex -9.8 -36.5 -15.0
vertex -12.5 -36.5 -11.0
vertex -9.8 -36.5 -11.0
endloop
endfacet
facet normal -8.95054047749059e-032 1.0 -1.15583237981824e-047
outer loop
vertex -6.5 -36.5 -13.0
vertex 6.5 -36.5 -15.0
vertex -6.5 -36.5 -15.0
endloop
endfacet
facet normal -8.95054047749059e-032 1.0 -1.15583237981824e-047
outer loop
vertex 6.5 -36.5 -15.0
vertex -6.5 -36.5 -13.0
vertex 6.5 -36.5 -13.0
endloop
endfacet
facet normal -8.95054047749059e-032 1.0 -1.15583237981824e-047
outer loop
vertex 12.5 -36.5 -18.0
vertex 9.8 -36.5 -15.0
vertex 12.5 -36.5 -11.0
endloop
endfacet
facet normal -8.95054047749059e-032 1.0 -1.15583237981824e-047
outer loop
vertex 9.8 -36.5 -15.0
vertex 12.5 -36.5 -18.0
vertex -9.8 -36.5 -15.0
endloop
endfacet
facet normal -8.95054047749059e-032 1.0 -1.15583237981824e-047
outer loop
vertex 9.8 -36.5 -15.0
vertex -9.8 -36.5 -15.0
vertex -6.5 -36.5 -15.0
endloop
endfacet
facet normal -8.95054047749059e-032 1.0 -1.15583237981824e-047
outer loop
vertex 9.8 -36.5 -15.0
vertex -6.5 -36.5 -15.0
vertex 6.5 -36.5 -15.0
endloop
endfacet
facet normal -8.95054047749059e-032 1.0 -1.15583237981824e-047
outer loop
vertex 12.5 -36.5 -11.0
vertex 9.8 -36.5 -15.0
vertex 9.8 -36.5 -11.0
endloop
endfacet
facet normal 1.0 0.0 0.0
outer loop
vertex -9.8 -36.5 -15.0
vertex -9.8 -58.0 -11.0
vertex -9.8 -58.0 -15.0
endloop
endfacet
facet normal 1.0 0.0 0.0
outer loop
vertex -9.8 -58.0 -11.0
vertex -9.8 -36.5 -15.0
vertex -9.8 -36.5 -11.0
endloop
endfacet
facet normal 1.0 8.95054047749059e-032 0.0
outer loop
vertex 12.5 -36.5 -18.0
vertex 12.5 -61.0 -11.0
vertex 12.5 -61.0 -18.0
endloop
endfacet
facet normal 1.0 8.95054047749059e-032 0.0
outer loop
vertex 12.5 -61.0 -11.0
vertex 12.5 -36.5 -18.0
vertex 12.5 -36.5 -11.0
endloop
endfacet
facet normal 0.0 0.0 -1.0
outer loop
vertex -12.5 -36.5 -18.0
vertex -1.47224318643355 -40.15 -18.0
vertex -12.5 -61.0 -18.0
endloop
endfacet
facet normal 0.0 0.0 -1.0
outer loop
vertex -1.47224318643355 -40.15 -18.0
vertex -12.5 -36.5 -18.0
vertex -1.3487006784951 -39.9651055706852 -18.0
endloop
endfacet
facet normal 0.0 0.0 -1.0
outer loop
vertex -1.3487006784951 -39.9651055706852 -18.0
vertex -12.5 -36.5 -18.0
vertex -1.20208152801713 -39.7979184719829 -18.0
endloop
endfacet
facet normal 0.0 0.0 -1.0
outer loop
vertex -1.20208152801713 -39.7979184719829 -18.0
vertex -12.5 -36.5 -18.0
vertex -1.03489442931483 -39.6512993215049 -18.0
endloop
endfacet
facet normal 0.0 0.0 -1.0
outer loop
vertex -1.03489442931483 -39.6512993215049 -18.0
vertex -12.5 -36.5 -18.0
vertex -0.850000000000001 -39.5277568135665 -18.0
endloop
endfacet
facet normal 0.0 0.0 -1.0
outer loop
vertex -0.850000000000001 -39.5277568135665 -18.0
vertex -12.5 -36.5 -18.0
vertex -0.650561835020652 -39.4294047947308 -18.0
endloop
endfacet
facet normal 0.0 0.0 -1.0
outer loop
vertex -0.650561835020652 -39.4294047947308 -18.0
vertex -12.5 -36.5 -18.0
vertex -0.439992376674285 -39.3579260953086 -18.0
endloop
endfacet
facet normal 0.0 0.0 -1.0
outer loop
vertex -0.439992376674285 -39.3579260953086 -18.0
vertex -12.5 -36.5 -18.0
vertex 12.5 -36.5 -18.0
endloop
endfacet
facet normal 0.0 0.0 -1.0
outer loop
vertex -12.5 -61.0 -18.0
vertex -1.47224318643355 -40.15 -18.0
vertex -1.57059520526919 -40.3494381649794 -18.0
endloop
endfacet
facet normal 0.0 0.0 -1.0
outer loop
vertex -12.5 -61.0 -18.0
vertex -1.57059520526919 -40.3494381649794 -18.0
vertex -1.64207390469142 -40.5600076233257 -18.0
endloop
endfacet
facet normal 0.0 0.0 -1.0
outer loop
vertex -12.5 -61.0 -18.0
vertex -1.64207390469142 -40.5600076233257 -18.0
vertex -1.68545626433548 -40.7781054732259 -18.0
endloop
endfacet
facet normal 0.0 0.0 -1.0
outer loop
vertex -12.5 -61.0 -18.0
vertex -1.68545626433548 -40.7781054732259 -18.0
vertex -1.7 -41.0 -18.0
endloop
endfacet
facet normal 0.0 0.0 -1.0
outer loop
vertex -12.5 -61.0 -18.0
vertex -1.7 -41.0 -18.0
vertex -1.7 -56.0 -18.0
endloop
endfacet
facet normal 0.0 0.0 -1.0
outer loop
vertex -0.439992376674285 -39.3579260953086 -18.0
vertex 12.5 -36.5 -18.0
vertex -0.221894526774088 -39.3145437356645 -18.0
endloop
endfacet
facet normal 0.0 0.0 -1.0
outer loop
vertex -0.221894526774088 -39.3145437356645 -18.0
vertex 12.5 -36.5 -18.0
vertex -1.40998324127395e-015 -39.3 -18.0
endloop
endfacet
facet normal 0.0 0.0 -1.0
outer loop
vertex -1.40998324127395e-015 -39.3 -18.0
vertex 12.5 -36.5 -18.0
vertex 0.221894526774088 -39.3145437356645 -18.0
endloop
endfacet
facet normal 0.0 0.0 -1.0
outer loop
vertex 0.221894526774088 -39.3145437356645 -18.0
vertex 12.5 -36.5 -18.0
vertex 0.439992376674285 -39.3579260953086 -18.0
endloop
endfacet
facet normal 0.0 0.0 -1.0
outer loop
vertex 0.439992376674285 -39.3579260953086 -18.0
vertex 12.5 -36.5 -18.0
vertex 0.650561835020652 -39.4294047947308 -18.0
endloop
endfacet
facet normal 0.0 0.0 -1.0
outer loop
vertex 0.650561835020652 -39.4294047947308 -18.0
vertex 12.5 -36.5 -18.0
vertex 0.849999999999998 -39.5277568135665 -18.0
endloop
endfacet
facet normal 0.0 0.0 -1.0
outer loop
vertex 0.849999999999998 -39.5277568135665 -18.0
vertex 12.5 -36.5 -18.0
vertex 1.03489442931482 -39.6512993215049 -18.0
endloop
endfacet
facet normal 0.0 0.0 -1.0
outer loop
vertex 1.03489442931482 -39.6512993215049 -18.0
vertex 12.5 -36.5 -18.0
vertex 1.20208152801713 -39.7979184719829 -18.0
endloop
endfacet
facet normal 0.0 0.0 -1.0
outer loop
vertex 1.20208152801713 -39.7979184719829 -18.0
vertex 12.5 -36.5 -18.0
vertex 1.3487006784951 -39.9651055706852 -18.0
endloop
endfacet
facet normal 0.0 0.0 -1.0
outer loop
vertex 1.3487006784951 -39.9651055706852 -18.0
vertex 12.5 -36.5 -18.0
vertex 1.47224318643354 -40.15 -18.0
endloop
endfacet
facet normal 0.0 0.0 -1.0
outer loop
vertex 1.47224318643354 -40.15 -18.0
vertex 12.5 -36.5 -18.0
vertex 1.57059520526919 -40.3494381649794 -18.0
endloop
endfacet
facet normal 0.0 0.0 -1.0
outer loop
vertex 1.57059520526919 -40.3494381649794 -18.0
vertex 12.5 -36.5 -18.0
vertex 1.64207390469142 -40.5600076233257 -18.0
endloop
endfacet
facet normal 0.0 0.0 -1.0
outer loop
vertex 1.64207390469142 -40.5600076233257 -18.0
vertex 12.5 -36.5 -18.0
vertex 1.68545626433548 -40.7781054732259 -18.0
endloop
endfacet
facet normal 0.0 0.0 -1.0
outer loop
vertex 1.68545626433548 -40.7781054732259 -18.0
vertex 12.5 -36.5 -18.0
vertex 1.7 -41.0 -18.0
endloop
endfacet
facet normal 0.0 0.0 -1.0
outer loop
vertex 1.7 -41.0 -18.0
vertex 12.5 -36.5 -18.0
vertex 1.7 -56.0 -18.0
endloop
endfacet
facet normal 0.0 0.0 -1.0
outer loop
vertex -12.5 -61.0 -18.0
vertex -0.439992376674288 -57.6420739046914 -18.0
vertex 12.5 -61.0 -18.0
endloop
endfacet
facet normal 0.0 0.0 -1.0
outer loop
vertex -0.439992376674288 -57.6420739046914 -18.0
vertex -12.5 -61.0 -18.0
vertex -0.650561835020655 -57.5705952052692 -18.0
endloop
endfacet
facet normal 0.0 0.0 -1.0
outer loop
vertex -0.650561835020655 -57.5705952052692 -18.0
vertex -12.5 -61.0 -18.0
vertex -0.850000000000003 -57.4722431864336 -18.0
endloop
endfacet
facet normal 0.0 0.0 -1.0
outer loop
vertex -0.850000000000003 -57.4722431864336 -18.0
vertex -12.5 -61.0 -18.0
vertex -1.03489442931483 -57.3487006784951 -18.0
endloop
endfacet
facet normal 0.0 0.0 -1.0
outer loop
vertex -1.03489442931483 -57.3487006784951 -18.0
vertex -12.5 -61.0 -18.0
vertex -1.20208152801713 -57.2020815280171 -18.0
endloop
endfacet
facet normal 0.0 0.0 -1.0
outer loop
vertex -1.20208152801713 -57.2020815280171 -18.0
vertex -12.5 -61.0 -18.0
vertex -1.3487006784951 -57.0348944293148 -18.0
endloop
endfacet
facet normal 0.0 0.0 -1.0
outer loop
vertex -1.3487006784951 -57.0348944293148 -18.0
vertex -12.5 -61.0 -18.0
vertex -1.47224318643355 -56.85 -18.0
endloop
endfacet
facet normal 0.0 0.0 -1.0
outer loop
vertex -1.47224318643355 -56.85 -18.0
vertex -12.5 -61.0 -18.0
vertex -1.57059520526919 -56.6505618350207 -18.0
endloop
endfacet
facet normal 0.0 0.0 -1.0
outer loop
vertex -1.57059520526919 -56.6505618350207 -18.0
vertex -12.5 -61.0 -18.0
vertex -1.64207390469142 -56.4399923766743 -18.0
endloop
endfacet
facet normal 0.0 0.0 -1.0
outer loop
vertex -1.64207390469142 -56.4399923766743 -18.0
vertex -12.5 -61.0 -18.0
vertex -1.68545626433548 -56.2218945267741 -18.0
endloop
endfacet
facet normal 0.0 0.0 -1.0
outer loop
vertex -1.68545626433548 -56.2218945267741 -18.0
vertex -12.5 -61.0 -18.0
vertex -1.7 -56.0 -18.0
endloop
endfacet
facet normal 0.0 0.0 -1.0
outer loop
vertex 12.5 -61.0 -18.0
vertex -0.439992376674288 -57.6420739046914 -18.0
vertex -0.221894526774091 -57.6854562643355 -18.0
endloop
endfacet
facet normal 0.0 0.0 -1.0
outer loop
vertex 12.5 -61.0 -18.0
vertex -0.221894526774091 -57.6854562643355 -18.0
vertex -1.40998324127395e-015 -57.7 -18.0
endloop
endfacet
facet normal 0.0 0.0 -1.0
outer loop
vertex 12.5 -61.0 -18.0
vertex -1.40998324127395e-015 -57.7 -18.0
vertex 0.221894526774085 -57.6854562643355 -18.0
endloop
endfacet
facet normal 0.0 0.0 -1.0
outer loop
vertex 12.5 -61.0 -18.0
vertex 0.221894526774085 -57.6854562643355 -18.0
vertex 0.439992376674282 -57.6420739046914 -18.0
endloop
endfacet
facet normal 0.0 0.0 -1.0
outer loop
vertex 12.5 -61.0 -18.0
vertex 0.439992376674282 -57.6420739046914 -18.0
vertex 0.650561835020652 -57.5705952052692 -18.0
endloop
endfacet
facet normal 0.0 0.0 -1.0
outer loop
vertex 12.5 -61.0 -18.0
vertex 0.650561835020652 -57.5705952052692 -18.0
vertex 0.849999999999998 -57.4722431864336 -18.0
endloop
endfacet
facet normal 0.0 0.0 -1.0
outer loop
vertex 12.5 -61.0 -18.0
vertex 0.849999999999998 -57.4722431864336 -18.0
vertex 1.03489442931482 -57.3487006784951 -18.0
endloop
endfacet
facet normal 0.0 0.0 -1.0
outer loop
vertex 12.5 -61.0 -18.0
vertex 1.03489442931482 -57.3487006784951 -18.0
vertex 1.20208152801713 -57.2020815280171 -18.0
endloop
endfacet
facet normal 0.0 0.0 -1.0
outer loop
vertex 12.5 -61.0 -18.0
vertex 1.20208152801713 -57.2020815280171 -18.0
vertex 1.3487006784951 -57.0348944293148 -18.0
endloop
endfacet
facet normal 0.0 0.0 -1.0
outer loop
vertex 12.5 -61.0 -18.0
vertex 1.3487006784951 -57.0348944293148 -18.0
vertex 1.47224318643355 -56.85 -18.0
endloop
endfacet
facet normal 0.0 0.0 -1.0
outer loop
vertex 12.5 -61.0 -18.0
vertex 1.47224318643355 -56.85 -18.0
vertex 1.57059520526919 -56.6505618350207 -18.0
endloop
endfacet
facet normal 0.0 0.0 -1.0
outer loop
vertex 12.5 -61.0 -18.0
vertex 1.57059520526919 -56.6505618350207 -18.0
vertex 1.64207390469142 -56.4399923766743 -18.0
endloop
endfacet
facet normal 0.0 0.0 -1.0
outer loop
vertex 12.5 -61.0 -18.0
vertex 1.64207390469142 -56.4399923766743 -18.0
vertex 1.68545626433548 -56.2218945267741 -18.0
endloop
endfacet
facet normal 0.0 0.0 -1.0
outer loop
vertex 12.5 -61.0 -18.0
vertex 1.68545626433548 -56.2218945267741 -18.0
vertex 1.7 -56.0 -18.0
endloop
endfacet
facet normal 0.0 0.0 -1.0
outer loop
vertex 12.5 -61.0 -18.0
vertex 1.7 -56.0 -18.0
vertex 12.5 -36.5 -18.0
endloop
endfacet
facet normal 0.0 0.0 -1.0
outer loop
vertex -1.7 -41.0 -18.0
vertex -1.68545626433548 -55.7781054732259 -18.0
vertex -1.7 -56.0 -18.0
endloop
endfacet
facet normal 0.0 0.0 -1.0
outer loop
vertex -1.68545626433548 -55.7781054732259 -18.0
vertex -1.7 -41.0 -18.0
vertex -1.68545626433548 -41.2218945267741 -18.0
endloop
endfacet
facet normal 0.0 0.0 -1.0
outer loop
vertex -1.68545626433548 -55.7781054732259 -18.0
vertex -1.68545626433548 -41.2218945267741 -18.0
vertex -1.64207390469142 -55.5600076233257 -18.0
endloop
endfacet
facet normal 0.0 0.0 -1.0
outer loop
vertex -1.64207390469142 -55.5600076233257 -18.0
vertex -1.68545626433548 -41.2218945267741 -18.0
vertex -1.64207390469142 -41.4399923766743 -18.0
endloop
endfacet
facet normal 0.0 0.0 -1.0
outer loop
vertex -1.64207390469142 -55.5600076233257 -18.0
vertex -1.64207390469142 -41.4399923766743 -18.0
vertex -1.57059520526919 -55.3494381649794 -18.0
endloop
endfacet
facet normal 0.0 0.0 -1.0
outer loop
vertex -1.57059520526919 -55.3494381649794 -18.0
vertex -1.64207390469142 -41.4399923766743 -18.0
vertex -1.57059520526919 -41.6505618350207 -18.0
endloop
endfacet
facet normal 0.0 0.0 -1.0
outer loop
vertex -1.57059520526919 -55.3494381649794 -18.0
vertex -1.57059520526919 -41.6505618350207 -18.0
vertex -1.47224318643355 -55.15 -18.0
endloop
endfacet
facet normal 0.0 0.0 -1.0
outer loop
vertex -1.47224318643355 -55.15 -18.0
vertex -1.57059520526919 -41.6505618350207 -18.0
vertex -1.47224318643355 -41.85 -18.0
endloop
endfacet
facet normal 0.0 0.0 -1.0
outer loop
vertex -1.47224318643355 -55.15 -18.0
vertex -1.47224318643355 -41.85 -18.0
vertex -1.3487006784951 -54.9651055706852 -18.0
endloop
endfacet
facet normal 0.0 0.0 -1.0
outer loop
vertex -1.3487006784951 -54.9651055706852 -18.0
vertex -1.47224318643355 -41.85 -18.0
vertex -1.3487006784951 -42.0348944293148 -18.0
endloop
endfacet
facet normal 0.0 0.0 -1.0
outer loop
vertex -1.3487006784951 -54.9651055706852 -18.0
vertex -1.3487006784951 -42.0348944293148 -18.0
vertex -1.20208152801713 -54.7979184719829 -18.0
endloop
endfacet
facet normal 0.0 0.0 -1.0
outer loop
vertex -1.20208152801713 -54.7979184719829 -18.0
vertex -1.3487006784951 -42.0348944293148 -18.0
vertex -1.20208152801713 -42.2020815280171 -18.0
endloop
endfacet
facet normal 0.0 0.0 -1.0
outer loop
vertex -1.20208152801713 -54.7979184719829 -18.0
vertex -1.20208152801713 -42.2020815280171 -18.0
vertex -1.03489442931483 -54.6512993215049 -18.0
endloop
endfacet
facet normal 0.0 0.0 -1.0
outer loop
vertex -1.03489442931483 -54.6512993215049 -18.0
vertex -1.20208152801713 -42.2020815280171 -18.0
vertex -1.03489442931483 -42.3487006784951 -18.0
endloop
endfacet
facet normal 0.0 0.0 -1.0
outer loop
vertex -1.03489442931483 -54.6512993215049 -18.0
vertex -1.03489442931483 -42.3487006784951 -18.0
vertex -0.850000000000001 -42.4722431864336 -18.0
endloop
endfacet
facet normal 0.0 0.0 -1.0
outer loop
vertex -1.03489442931483 -54.6512993215049 -18.0
vertex -0.850000000000001 -42.4722431864336 -18.0
vertex -0.850000000000003 -54.5277568135665 -18.0
endloop
endfacet
facet normal 0.0 0.0 -1.0
outer loop
vertex -0.850000000000003 -54.5277568135665 -18.0
vertex -0.850000000000001 -42.4722431864336 -18.0
vertex -0.650561835020655 -54.4294047947308 -18.0
endloop
endfacet
facet normal 0.0 0.0 -1.0
outer loop
vertex -0.650561835020655 -54.4294047947308 -18.0
vertex -0.850000000000001 -42.4722431864336 -18.0
vertex -0.650561835020655 -42.5705952052692 -18.0
endloop
endfacet
facet normal 0.0 0.0 -1.0
outer loop
vertex -0.650561835020655 -54.4294047947308 -18.0
vertex -0.650561835020655 -42.5705952052692 -18.0
vertex -0.439992376674288 -42.6420739046914 -18.0
endloop
endfacet
facet normal 0.0 0.0 -1.0
outer loop
vertex -0.650561835020655 -54.4294047947308 -18.0
vertex -0.439992376674288 -42.6420739046914 -18.0
vertex -0.439992376674287 -54.3579260953086 -18.0
endloop
endfacet
facet normal 0.0 0.0 -1.0
outer loop
vertex -0.439992376674287 -54.3579260953086 -18.0
vertex -0.439992376674288 -42.6420739046914 -18.0
vertex -0.221894526774091 -42.6854562643355 -18.0
endloop
endfacet
facet normal 0.0 0.0 -1.0
outer loop
vertex -0.439992376674287 -54.3579260953086 -18.0
vertex -0.221894526774091 -42.6854562643355 -18.0
vertex -0.221894526774089 -54.3145437356645 -18.0
endloop
endfacet
facet normal 0.0 0.0 -1.0
outer loop
vertex -0.221894526774089 -54.3145437356645 -18.0
vertex -0.221894526774091 -42.6854562643355 -18.0
vertex -1.40998324127395e-015 -42.7 -18.0
endloop
endfacet
facet normal 0.0 0.0 -1.0
outer loop
vertex -0.221894526774089 -54.3145437356645 -18.0
vertex -1.40998324127395e-015 -42.7 -18.0
vertex -1.40998324127395e-015 -54.3 -18.0
endloop
endfacet
facet normal 0.0 0.0 -1.0
outer loop
vertex -1.40998324127395e-015 -54.3 -18.0
vertex -1.40998324127395e-015 -42.7 -18.0
vertex 0.221894526774085 -42.6854562643355 -18.0
endloop
endfacet
facet normal 0.0 0.0 -1.0
outer loop
vertex -1.40998324127395e-015 -54.3 -18.0
vertex 0.221894526774085 -42.6854562643355 -18.0
vertex 0.221894526774088 -54.3145437356645 -18.0
endloop
endfacet
facet normal 0.0 0.0 -1.0
outer loop
vertex 0.221894526774088 -54.3145437356645 -18.0
vertex 0.221894526774085 -42.6854562643355 -18.0
vertex 0.439992376674282 -42.6420739046914 -18.0
endloop
endfacet
facet normal 0.0 0.0 -1.0
outer loop
vertex 0.221894526774088 -54.3145437356645 -18.0
vertex 0.439992376674282 -42.6420739046914 -18.0
vertex 0.439992376674285 -54.3579260953086 -18.0
endloop
endfacet
facet normal 0.0 0.0 -1.0
outer loop
vertex 0.439992376674285 -54.3579260953086 -18.0
vertex 0.439992376674282 -42.6420739046914 -18.0
vertex 0.650561835020652 -42.5705952052692 -18.0
endloop
endfacet
facet normal 0.0 0.0 -1.0
outer loop
vertex 0.439992376674285 -54.3579260953086 -18.0
vertex 0.650561835020652 -42.5705952052692 -18.0
vertex 0.650561835020652 -54.4294047947308 -18.0
endloop
endfacet
facet normal 0.0 0.0 -1.0
outer loop
vertex 0.650561835020652 -54.4294047947308 -18.0
vertex 0.650561835020652 -42.5705952052692 -18.0
vertex 0.849999999999998 -42.4722431864336 -18.0
endloop
endfacet
facet normal 0.0 0.0 -1.0
outer loop
vertex 0.650561835020652 -54.4294047947308 -18.0
vertex 0.849999999999998 -42.4722431864336 -18.0
vertex 0.850000000000001 -54.5277568135665 -18.0
endloop
endfacet
facet normal 0.0 0.0 -1.0
outer loop
vertex 0.850000000000001 -54.5277568135665 -18.0
vertex 0.849999999999998 -42.4722431864336 -18.0
vertex 1.03489442931482 -42.3487006784951 -18.0
endloop
endfacet
facet normal 0.0 0.0 -1.0
outer loop
vertex 0.850000000000001 -54.5277568135665 -18.0
vertex 1.03489442931482 -42.3487006784951 -18.0
vertex 1.03489442931482 -54.6512993215049 -18.0
endloop
endfacet
facet normal 0.0 0.0 -1.0
outer loop
vertex 1.03489442931482 -54.6512993215049 -18.0
vertex 1.03489442931482 -42.3487006784951 -18.0
vertex 1.20208152801713 -42.2020815280171 -18.0
endloop
endfacet
facet normal 0.0 0.0 -1.0
outer loop
vertex 1.03489442931482 -54.6512993215049 -18.0
vertex 1.20208152801713 -42.2020815280171 -18.0
vertex 1.20208152801713 -54.7979184719829 -18.0
endloop
endfacet
facet normal 0.0 0.0 -1.0
outer loop
vertex 1.20208152801713 -54.7979184719829 -18.0
vertex 1.20208152801713 -42.2020815280171 -18.0
vertex 1.3487006784951 -42.0348944293148 -18.0
endloop
endfacet
facet normal 0.0 0.0 -1.0
outer loop
vertex 1.20208152801713 -54.7979184719829 -18.0
vertex 1.3487006784951 -42.0348944293148 -18.0
vertex 1.3487006784951 -54.9651055706852 -18.0
endloop
endfacet
facet normal 0.0 0.0 -1.0
outer loop
vertex 1.3487006784951 -54.9651055706852 -18.0
vertex 1.3487006784951 -42.0348944293148 -18.0
vertex 1.47224318643354 -41.85 -18.0
endloop
endfacet
facet normal 0.0 0.0 -1.0
outer loop
vertex 1.3487006784951 -54.9651055706852 -18.0
vertex 1.47224318643354 -41.85 -18.0
vertex 1.47224318643355 -55.15 -18.0
endloop
endfacet
facet normal 0.0 0.0 -1.0
outer loop
vertex 1.47224318643355 -55.15 -18.0
vertex 1.47224318643354 -41.85 -18.0
vertex 1.57059520526918 -41.6505618350207 -18.0
endloop
endfacet
facet normal 0.0 0.0 -1.0
outer loop
vertex 1.47224318643355 -55.15 -18.0
vertex 1.57059520526918 -41.6505618350207 -18.0
vertex 1.57059520526919 -55.3494381649794 -18.0
endloop
endfacet
facet normal 0.0 0.0 -1.0
outer loop
vertex 1.57059520526919 -55.3494381649794 -18.0
vertex 1.57059520526918 -41.6505618350207 -18.0
vertex 1.64207390469142 -41.4399923766743 -18.0
endloop
endfacet
facet normal 0.0 0.0 -1.0
outer loop
vertex 1.57059520526919 -55.3494381649794 -18.0
vertex 1.64207390469142 -41.4399923766743 -18.0
vertex 1.64207390469142 -55.5600076233257 -18.0
endloop
endfacet
facet normal 0.0 0.0 -1.0
outer loop
vertex 1.64207390469142 -55.5600076233257 -18.0
vertex 1.64207390469142 -41.4399923766743 -18.0
vertex 1.68545626433548 -41.2218945267741 -18.0
endloop
endfacet
facet normal 0.0 0.0 -1.0
outer loop
vertex 1.64207390469142 -55.5600076233257 -18.0
vertex 1.68545626433548 -41.2218945267741 -18.0
vertex 1.68545626433548 -55.7781054732259 -18.0
endloop
endfacet
facet normal 0.0 0.0 -1.0
outer loop
vertex 1.68545626433548 -55.7781054732259 -18.0
vertex 1.68545626433548 -41.2218945267741 -18.0
vertex 1.7 -41.0 -18.0
endloop
endfacet
facet normal 0.0 0.0 -1.0
outer loop
vertex 1.68545626433548 -55.7781054732259 -18.0
vertex 1.7 -41.0 -18.0
vertex 1.7 -56.0 -18.0
endloop
endfacet
facet normal 0.0 0.0 1.0
outer loop
vertex -11.0 -61.0 -11.0
vertex -12.5 -36.5 -11.0
vertex -12.5 -61.0 -11.0
endloop
endfacet
facet normal 0.0 0.0 1.0
outer loop
vertex -12.5 -36.5 -11.0
vertex -11.0 -61.0 -11.0
vertex -9.8 -36.5 -11.0
endloop
endfacet
facet normal 0.0 0.0 1.0
outer loop
vertex -9.8 -36.5 -11.0
vertex -11.0 -61.0 -11.0
vertex -9.8 -58.0 -11.0
endloop
endfacet
facet normal -1.0 0.0 0.0
outer loop
vertex 9.8 -36.5 -11.0
vertex 9.8 -58.0 -15.0
vertex 9.8 -58.0 -11.0
endloop
endfacet
facet normal -1.0 0.0 0.0
outer loop
vertex 9.8 -58.0 -15.0
vertex 9.8 -36.5 -11.0
vertex 9.8 -36.5 -15.0
endloop
endfacet
facet normal 0.0 0.0 1.0
outer loop
vertex 6.5 -61.0 -15.0
vertex 9.8 -58.0 -15.0
vertex 6.5 -36.5 -15.0
endloop
endfacet
facet normal 0.0 0.0 1.0
outer loop
vertex 9.8 -58.0 -15.0
vertex 6.5 -61.0 -15.0
vertex 11.0 -61.0 -15.0
endloop
endfacet
facet normal 0.0 0.0 1.0
outer loop
vertex 9.8 -36.5 -15.0
vertex 6.5 -36.5 -15.0
vertex 9.8 -58.0 -15.0
endloop
endfacet
facet normal -1.0 -8.95054047749059e-032 -0.0
outer loop
vertex -12.5 -36.5 -11.0
vertex -12.5 -61.0 -18.0
vertex -12.5 -61.0 -11.0
endloop
endfacet
facet normal -1.0 -8.95054047749059e-032 -0.0
outer loop
vertex -12.5 -61.0 -18.0
vertex -12.5 -36.5 -11.0
vertex -12.5 -36.5 -18.0
endloop
endfacet
facet normal -1.0 -8.95054047749059e-032 -0.0
outer loop
vertex -6.5 -36.5 -13.0
vertex -6.5 -61.0 -15.0
vertex -6.5 -61.0 -13.0
endloop
endfacet
facet normal -1.0 -8.95054047749059e-032 -0.0
outer loop
vertex -6.5 -61.0 -15.0
vertex -6.5 -36.5 -13.0
vertex -6.5 -36.5 -15.0
endloop
endfacet
facet normal 1.0 8.95054047749059e-032 0.0
outer loop
vertex 6.5 -36.5 -15.0
vertex 6.5 -61.0 -13.0
vertex 6.5 -61.0 -15.0
endloop
endfacet
facet normal 1.0 8.95054047749059e-032 0.0
outer loop
vertex 6.5 -61.0 -13.0
vertex 6.5 -36.5 -15.0
vertex 6.5 -36.5 -13.0
endloop
endfacet
facet normal 0.0 0.0 1.0
outer loop
vertex -6.5 -61.0 -15.0
vertex -9.8 -58.0 -15.0
vertex -11.0 -61.0 -15.0
endloop
endfacet
facet normal 0.0 0.0 1.0
outer loop
vertex -9.8 -58.0 -15.0
vertex -6.5 -61.0 -15.0
vertex -9.8 -36.5 -15.0
endloop
endfacet
facet normal 0.0 0.0 1.0
outer loop
vertex -9.8 -36.5 -15.0
vertex -6.5 -61.0 -15.0
vertex -6.5 -36.5 -15.0
endloop
endfacet
facet normal 0.0 0.0 1.0
outer loop
vertex -1.68545626433548 -55.7781054732259 -13.0
vertex -1.7 -41.0 -13.0
vertex -1.7 -56.0 -13.0
endloop
endfacet
facet normal 0.0 0.0 1.0
outer loop
vertex -1.7 -41.0 -13.0
vertex -1.68545626433548 -55.7781054732259 -13.0
vertex -1.68545626433548 -41.2218945267741 -13.0
endloop
endfacet
facet normal 0.0 0.0 1.0
outer loop
vertex -1.68545626433548 -41.2218945267741 -13.0
vertex -1.68545626433548 -55.7781054732259 -13.0
vertex -1.64207390469142 -55.5600076233257 -13.0
endloop
endfacet
facet normal 0.0 0.0 1.0
outer loop
vertex -1.68545626433548 -41.2218945267741 -13.0
vertex -1.64207390469142 -55.5600076233257 -13.0
vertex -1.64207390469142 -41.4399923766743 -13.0
endloop
endfacet
facet normal 0.0 0.0 1.0
outer loop
vertex -1.64207390469142 -41.4399923766743 -13.0
vertex -1.64207390469142 -55.5600076233257 -13.0
vertex -1.57059520526919 -55.3494381649794 -13.0
endloop
endfacet
facet normal 0.0 0.0 1.0
outer loop
vertex -1.64207390469142 -41.4399923766743 -13.0
vertex -1.57059520526919 -55.3494381649794 -13.0
vertex -1.57059520526919 -41.6505618350207 -13.0
endloop
endfacet
facet normal 0.0 0.0 1.0
outer loop
vertex -1.57059520526919 -41.6505618350207 -13.0
vertex -1.57059520526919 -55.3494381649794 -13.0
vertex -1.47224318643355 -55.15 -13.0
endloop
endfacet
facet normal 0.0 0.0 1.0
outer loop
vertex -1.57059520526919 -41.6505618350207 -13.0
vertex -1.47224318643355 -55.15 -13.0
vertex -1.47224318643355 -41.85 -13.0
endloop
endfacet
facet normal 0.0 0.0 1.0
outer loop
vertex -1.47224318643355 -41.85 -13.0
vertex -1.47224318643355 -55.15 -13.0
vertex -1.3487006784951 -54.9651055706852 -13.0
endloop
endfacet
facet normal 0.0 0.0 1.0
outer loop
vertex -1.47224318643355 -41.85 -13.0
vertex -1.3487006784951 -54.9651055706852 -13.0
vertex -1.3487006784951 -42.0348944293148 -13.0
endloop
endfacet
facet normal 0.0 0.0 1.0
outer loop
vertex -1.3487006784951 -42.0348944293148 -13.0
vertex -1.3487006784951 -54.9651055706852 -13.0
vertex -1.20208152801713 -54.7979184719829 -13.0
endloop
endfacet
facet normal 0.0 0.0 1.0
outer loop
vertex -1.3487006784951 -42.0348944293148 -13.0
vertex -1.20208152801713 -54.7979184719829 -13.0
vertex -1.20208152801713 -42.2020815280171 -13.0
endloop
endfacet
facet normal 0.0 0.0 1.0
outer loop
vertex -1.20208152801713 -42.2020815280171 -13.0
vertex -1.20208152801713 -54.7979184719829 -13.0
vertex -1.03489442931483 -54.6512993215049 -13.0
endloop
endfacet
facet normal 0.0 0.0 1.0
outer loop
vertex -1.20208152801713 -42.2020815280171 -13.0
vertex -1.03489442931483 -54.6512993215049 -13.0
vertex -1.03489442931483 -42.3487006784951 -13.0
endloop
endfacet
facet normal 0.0 0.0 1.0
outer loop
vertex -1.03489442931483 -42.3487006784951 -13.0
vertex -1.03489442931483 -54.6512993215049 -13.0
vertex -0.850000000000003 -54.5277568135665 -13.0
endloop
endfacet
facet normal 0.0 0.0 1.0
outer loop
vertex -1.03489442931483 -42.3487006784951 -13.0
vertex -0.850000000000003 -54.5277568135665 -13.0
vertex -0.850000000000001 -42.4722431864336 -13.0
endloop
endfacet
facet normal 0.0 0.0 1.0
outer loop
vertex -0.850000000000001 -42.4722431864336 -13.0
vertex -0.850000000000003 -54.5277568135665 -13.0
vertex -0.650561835020655 -54.4294047947308 -13.0
endloop
endfacet
facet normal 0.0 0.0 1.0
outer loop
vertex -0.850000000000001 -42.4722431864336 -13.0
vertex -0.650561835020655 -54.4294047947308 -13.0
vertex -0.650561835020655 -42.5705952052692 -13.0
endloop
endfacet
facet normal 0.0 0.0 1.0
outer loop
vertex -0.650561835020655 -42.5705952052692 -13.0
vertex -0.650561835020655 -54.4294047947308 -13.0
vertex -0.439992376674287 -54.3579260953086 -13.0
endloop
endfacet
facet normal 0.0 0.0 1.0
outer loop
vertex -0.650561835020655 -42.5705952052692 -13.0
vertex -0.439992376674287 -54.3579260953086 -13.0
vertex -0.439992376674288 -42.6420739046914 -13.0
endloop
endfacet
facet normal 0.0 0.0 1.0
outer loop
vertex -0.439992376674288 -42.6420739046914 -13.0
vertex -0.439992376674287 -54.3579260953086 -13.0
vertex -0.221894526774091 -42.6854562643355 -13.0
endloop
endfacet
facet normal 0.0 0.0 1.0
outer loop
vertex -0.221894526774091 -42.6854562643355 -13.0
vertex -0.439992376674287 -54.3579260953086 -13.0
vertex -0.221894526774089 -54.3145437356645 -13.0
endloop
endfacet
facet normal 0.0 0.0 1.0
outer loop
vertex -0.221894526774091 -42.6854562643355 -13.0
vertex -0.221894526774089 -54.3145437356645 -13.0
vertex -1.40998324127395e-015 -42.7 -13.0
endloop
endfacet
facet normal 0.0 0.0 1.0
outer loop
vertex -1.40998324127395e-015 -42.7 -13.0
vertex -0.221894526774089 -54.3145437356645 -13.0
vertex -1.40998324127395e-015 -54.3 -13.0
endloop
endfacet
facet normal 0.0 0.0 1.0
outer loop
vertex -1.40998324127395e-015 -42.7 -13.0
vertex -1.40998324127395e-015 -54.3 -13.0
vertex 0.221894526774088 -54.3145437356645 -13.0
endloop
endfacet
facet normal 0.0 0.0 1.0
outer loop
vertex -1.40998324127395e-015 -42.7 -13.0
vertex 0.221894526774088 -54.3145437356645 -13.0
vertex 0.221894526774085 -42.6854562643355 -13.0
endloop
endfacet
facet normal 0.0 0.0 1.0
outer loop
vertex 0.221894526774085 -42.6854562643355 -13.0
vertex 0.221894526774088 -54.3145437356645 -13.0
vertex 0.439992376674282 -42.6420739046914 -13.0
endloop
endfacet
facet normal 0.0 0.0 1.0
outer loop
vertex 0.439992376674282 -42.6420739046914 -13.0
vertex 0.221894526774088 -54.3145437356645 -13.0
vertex 0.439992376674285 -54.3579260953086 -13.0
endloop
endfacet
facet normal 0.0 0.0 1.0
outer loop
vertex 0.439992376674282 -42.6420739046914 -13.0
vertex 0.439992376674285 -54.3579260953086 -13.0
vertex 0.650561835020652 -42.5705952052692 -13.0
endloop
endfacet
facet normal 0.0 0.0 1.0
outer loop
vertex 0.650561835020652 -42.5705952052692 -13.0
vertex 0.439992376674285 -54.3579260953086 -13.0
vertex 0.650561835020652 -54.4294047947308 -13.0
endloop
endfacet
facet normal 0.0 0.0 1.0
outer loop
vertex 0.650561835020652 -42.5705952052692 -13.0
vertex 0.650561835020652 -54.4294047947308 -13.0
vertex 0.850000000000001 -54.5277568135665 -13.0
endloop
endfacet
facet normal 0.0 0.0 1.0
outer loop
vertex 0.650561835020652 -42.5705952052692 -13.0
vertex 0.850000000000001 -54.5277568135665 -13.0
vertex 0.849999999999998 -42.4722431864336 -13.0
endloop
endfacet
facet normal 0.0 0.0 1.0
outer loop
vertex 0.849999999999998 -42.4722431864336 -13.0
vertex 0.850000000000001 -54.5277568135665 -13.0
vertex 1.03489442931482 -42.3487006784951 -13.0
endloop
endfacet
facet normal 0.0 0.0 1.0
outer loop
vertex 1.03489442931482 -42.3487006784951 -13.0
vertex 0.850000000000001 -54.5277568135665 -13.0
vertex 1.03489442931482 -54.6512993215049 -13.0
endloop
endfacet
facet normal 0.0 0.0 1.0
outer loop
vertex 1.03489442931482 -42.3487006784951 -13.0
vertex 1.03489442931482 -54.6512993215049 -13.0
vertex 1.20208152801713 -54.7979184719829 -13.0
endloop
endfacet
facet normal 0.0 0.0 1.0
outer loop
vertex 1.03489442931482 -42.3487006784951 -13.0
vertex 1.20208152801713 -54.7979184719829 -13.0
vertex 1.20208152801713 -42.2020815280171 -13.0
endloop
endfacet
facet normal 0.0 0.0 1.0
outer loop
vertex 1.20208152801713 -42.2020815280171 -13.0
vertex 1.20208152801713 -54.7979184719829 -13.0
vertex 1.3487006784951 -42.0348944293148 -13.0
endloop
endfacet
facet normal 0.0 0.0 1.0
outer loop
vertex 1.3487006784951 -42.0348944293148 -13.0
vertex 1.20208152801713 -54.7979184719829 -13.0
vertex 1.3487006784951 -54.9651055706852 -13.0
endloop
endfacet
facet normal 0.0 0.0 1.0
outer loop
vertex 1.3487006784951 -42.0348944293148 -13.0
vertex 1.3487006784951 -54.9651055706852 -13.0
vertex 1.47224318643354 -41.85 -13.0
endloop
endfacet
facet normal 0.0 0.0 1.0
outer loop
vertex 1.47224318643354 -41.85 -13.0
vertex 1.3487006784951 -54.9651055706852 -13.0
vertex 1.47224318643355 -55.15 -13.0
endloop
endfacet
facet normal 0.0 0.0 1.0
outer loop
vertex 1.47224318643354 -41.85 -13.0
vertex 1.47224318643355 -55.15 -13.0
vertex 1.57059520526918 -41.6505618350207 -13.0
endloop
endfacet
facet normal 0.0 0.0 1.0
outer loop
vertex 1.57059520526918 -41.6505618350207 -13.0
vertex 1.47224318643355 -55.15 -13.0
vertex 1.57059520526919 -55.3494381649794 -13.0
endloop
endfacet
facet normal 0.0 0.0 1.0
outer loop
vertex 1.57059520526918 -41.6505618350207 -13.0
vertex 1.57059520526919 -55.3494381649794 -13.0
vertex 1.64207390469142 -41.4399923766743 -13.0
endloop
endfacet
facet normal 0.0 0.0 1.0
outer loop
vertex 1.64207390469142 -41.4399923766743 -13.0
vertex 1.57059520526919 -55.3494381649794 -13.0
vertex 1.64207390469142 -55.5600076233257 -13.0
endloop
endfacet
facet normal 0.0 0.0 1.0
outer loop
vertex 1.64207390469142 -41.4399923766743 -13.0
vertex 1.64207390469142 -55.5600076233257 -13.0
vertex 1.68545626433548 -41.2218945267741 -13.0
endloop
endfacet
facet normal 0.0 0.0 1.0
outer loop
vertex 1.68545626433548 -41.2218945267741 -13.0
vertex 1.64207390469142 -55.5600076233257 -13.0
vertex 1.68545626433548 -55.7781054732259 -13.0
endloop
endfacet
facet normal 0.0 0.0 1.0
outer loop
vertex 1.68545626433548 -41.2218945267741 -13.0
vertex 1.68545626433548 -55.7781054732259 -13.0
vertex 1.7 -41.0 -13.0
endloop
endfacet
facet normal 0.0 0.0 1.0
outer loop
vertex 1.7 -41.0 -13.0
vertex 1.68545626433548 -55.7781054732259 -13.0
vertex 1.7 -56.0 -13.0
endloop
endfacet
facet normal 0.0 0.0 1.0
outer loop
vertex -6.5 -61.0 -13.0
vertex -1.64207390469142 -56.4399923766743 -13.0
vertex -6.5 -36.5 -13.0
endloop
endfacet
facet normal 0.0 0.0 1.0
outer loop
vertex -1.64207390469142 -56.4399923766743 -13.0
vertex -6.5 -61.0 -13.0
vertex -1.57059520526919 -56.6505618350207 -13.0
endloop
endfacet
facet normal 0.0 0.0 1.0
outer loop
vertex -1.57059520526919 -56.6505618350207 -13.0
vertex -6.5 -61.0 -13.0
vertex -1.47224318643355 -56.85 -13.0
endloop
endfacet
facet normal 0.0 0.0 1.0
outer loop
vertex -1.47224318643355 -56.85 -13.0
vertex -6.5 -61.0 -13.0
vertex -1.3487006784951 -57.0348944293148 -13.0
endloop
endfacet
facet normal 0.0 0.0 1.0
outer loop
vertex -1.3487006784951 -57.0348944293148 -13.0
vertex -6.5 -61.0 -13.0
vertex -1.20208152801713 -57.2020815280171 -13.0
endloop
endfacet
facet normal 0.0 0.0 1.0
outer loop
vertex -1.20208152801713 -57.2020815280171 -13.0
vertex -6.5 -61.0 -13.0
vertex -1.03489442931483 -57.3487006784951 -13.0
endloop
endfacet
facet normal 0.0 0.0 1.0
outer loop
vertex -1.03489442931483 -57.3487006784951 -13.0
vertex -6.5 -61.0 -13.0
vertex -0.850000000000003 -57.4722431864336 -13.0
endloop
endfacet
facet normal 0.0 0.0 1.0
outer loop
vertex -0.850000000000003 -57.4722431864336 -13.0
vertex -6.5 -61.0 -13.0
vertex -0.650561835020655 -57.5705952052692 -13.0
endloop
endfacet
facet normal 0.0 0.0 1.0
outer loop
vertex -0.650561835020655 -57.5705952052692 -13.0
vertex -6.5 -61.0 -13.0
vertex 6.5 -61.0 -13.0
endloop
endfacet
facet normal 0.0 0.0 1.0
outer loop
vertex -6.5 -36.5 -13.0
vertex -1.64207390469142 -56.4399923766743 -13.0
vertex -1.68545626433548 -56.2218945267741 -13.0
endloop
endfacet
facet normal 0.0 0.0 1.0
outer loop
vertex -6.5 -36.5 -13.0
vertex -1.68545626433548 -56.2218945267741 -13.0
vertex -1.7 -56.0 -13.0
endloop
endfacet
facet normal 0.0 0.0 1.0
outer loop
vertex -0.650561835020655 -57.5705952052692 -13.0
vertex 6.5 -61.0 -13.0
vertex -0.439992376674288 -57.6420739046914 -13.0
endloop
endfacet
facet normal 0.0 0.0 1.0
outer loop
vertex -0.439992376674288 -57.6420739046914 -13.0
vertex 6.5 -61.0 -13.0
vertex -0.221894526774091 -57.6854562643355 -13.0
endloop
endfacet
facet normal 0.0 0.0 1.0
outer loop
vertex -0.221894526774091 -57.6854562643355 -13.0
vertex 6.5 -61.0 -13.0
vertex -1.40998324127395e-015 -57.7 -13.0
endloop
endfacet
facet normal 0.0 0.0 1.0
outer loop
vertex -1.40998324127395e-015 -57.7 -13.0
vertex 6.5 -61.0 -13.0
vertex 0.221894526774085 -57.6854562643355 -13.0
endloop
endfacet
facet normal 0.0 0.0 1.0
outer loop
vertex 0.221894526774085 -57.6854562643355 -13.0
vertex 6.5 -61.0 -13.0
vertex 0.439992376674282 -57.6420739046914 -13.0
endloop
endfacet
facet normal 0.0 0.0 1.0
outer loop
vertex 0.439992376674282 -57.6420739046914 -13.0
vertex 6.5 -61.0 -13.0
vertex 0.650561835020652 -57.5705952052692 -13.0
endloop
endfacet
facet normal 0.0 0.0 1.0
outer loop
vertex 0.650561835020652 -57.5705952052692 -13.0
vertex 6.5 -61.0 -13.0
vertex 0.849999999999998 -57.4722431864336 -13.0
endloop
endfacet
facet normal 0.0 0.0 1.0
outer loop
vertex 0.849999999999998 -57.4722431864336 -13.0
vertex 6.5 -61.0 -13.0
vertex 1.03489442931482 -57.3487006784951 -13.0
endloop
endfacet
facet normal 0.0 0.0 1.0
outer loop
vertex 1.03489442931482 -57.3487006784951 -13.0
vertex 6.5 -61.0 -13.0
vertex 1.20208152801713 -57.2020815280171 -13.0
endloop
endfacet
facet normal 0.0 0.0 1.0
outer loop
vertex 1.20208152801713 -57.2020815280171 -13.0
vertex 6.5 -61.0 -13.0
vertex 1.3487006784951 -57.0348944293148 -13.0
endloop
endfacet
facet normal 0.0 0.0 1.0
outer loop
vertex 1.3487006784951 -57.0348944293148 -13.0
vertex 6.5 -61.0 -13.0
vertex 1.47224318643355 -56.85 -13.0
endloop
endfacet
facet normal 0.0 0.0 1.0
outer loop
vertex 1.47224318643355 -56.85 -13.0
vertex 6.5 -61.0 -13.0
vertex 1.57059520526919 -56.6505618350207 -13.0
endloop
endfacet
facet normal 0.0 0.0 1.0
outer loop
vertex 1.57059520526919 -56.6505618350207 -13.0
vertex 6.5 -61.0 -13.0
vertex 1.64207390469142 -56.4399923766743 -13.0
endloop
endfacet
facet normal 0.0 0.0 1.0
outer loop
vertex 1.64207390469142 -56.4399923766743 -13.0
vertex 6.5 -61.0 -13.0
vertex 1.68545626433548 -56.2218945267741 -13.0
endloop
endfacet
facet normal 0.0 0.0 1.0
outer loop
vertex 1.68545626433548 -56.2218945267741 -13.0
vertex 6.5 -61.0 -13.0
vertex 1.7 -56.0 -13.0
endloop
endfacet
facet normal 0.0 0.0 1.0
outer loop
vertex -6.5 -36.5 -13.0
vertex -0.650561835020652 -39.4294047947308 -13.0
vertex 6.5 -36.5 -13.0
endloop
endfacet
facet normal 0.0 0.0 1.0
outer loop
vertex -0.650561835020652 -39.4294047947308 -13.0
vertex -6.5 -36.5 -13.0
vertex -0.850000000000001 -39.5277568135665 -13.0
endloop
endfacet
facet normal 0.0 0.0 1.0
outer loop
vertex -0.850000000000001 -39.5277568135665 -13.0
vertex -6.5 -36.5 -13.0
vertex -1.03489442931483 -39.6512993215049 -13.0
endloop
endfacet
facet normal 0.0 0.0 1.0
outer loop
vertex -1.03489442931483 -39.6512993215049 -13.0
vertex -6.5 -36.5 -13.0
vertex -1.20208152801713 -39.7979184719829 -13.0
endloop
endfacet
facet normal 0.0 0.0 1.0
outer loop
vertex -1.20208152801713 -39.7979184719829 -13.0
vertex -6.5 -36.5 -13.0
vertex -1.3487006784951 -39.9651055706852 -13.0
endloop
endfacet
facet normal 0.0 0.0 1.0
outer loop
vertex -1.3487006784951 -39.9651055706852 -13.0
vertex -6.5 -36.5 -13.0
vertex -1.47224318643355 -40.15 -13.0
endloop
endfacet
facet normal 0.0 0.0 1.0
outer loop
vertex -1.47224318643355 -40.15 -13.0
vertex -6.5 -36.5 -13.0
vertex -1.57059520526919 -40.3494381649794 -13.0
endloop
endfacet
facet normal 0.0 0.0 1.0
outer loop
vertex -1.57059520526919 -40.3494381649794 -13.0
vertex -6.5 -36.5 -13.0
vertex -1.64207390469142 -40.5600076233257 -13.0
endloop
endfacet
facet normal 0.0 0.0 1.0
outer loop
vertex -1.64207390469142 -40.5600076233257 -13.0
vertex -6.5 -36.5 -13.0
vertex -1.68545626433548 -40.7781054732259 -13.0
endloop
endfacet
facet normal 0.0 0.0 1.0
outer loop
vertex -1.68545626433548 -40.7781054732259 -13.0
vertex -6.5 -36.5 -13.0
vertex -1.7 -41.0 -13.0
endloop
endfacet
facet normal 0.0 0.0 1.0
outer loop
vertex -1.7 -41.0 -13.0
vertex -6.5 -36.5 -13.0
vertex -1.7 -56.0 -13.0
endloop
endfacet
facet normal 0.0 0.0 1.0
outer loop
vertex 6.5 -36.5 -13.0
vertex -0.650561835020652 -39.4294047947308 -13.0
vertex -0.439992376674285 -39.3579260953086 -13.0
endloop
endfacet
facet normal 0.0 0.0 1.0
outer loop
vertex 6.5 -36.5 -13.0
vertex -0.439992376674285 -39.3579260953086 -13.0
vertex -0.221894526774088 -39.3145437356645 -13.0
endloop
endfacet
facet normal 0.0 0.0 1.0
outer loop
vertex 6.5 -36.5 -13.0
vertex -0.221894526774088 -39.3145437356645 -13.0
vertex -1.40998324127395e-015 -39.3 -13.0
endloop
endfacet
facet normal 0.0 0.0 1.0
outer loop
vertex 6.5 -36.5 -13.0
vertex -1.40998324127395e-015 -39.3 -13.0
vertex 0.221894526774088 -39.3145437356645 -13.0
endloop
endfacet
facet normal 0.0 0.0 1.0
outer loop
vertex 6.5 -36.5 -13.0
vertex 0.221894526774088 -39.3145437356645 -13.0
vertex 0.439992376674285 -39.3579260953086 -13.0
endloop
endfacet
facet normal 0.0 0.0 1.0
outer loop
vertex 6.5 -36.5 -13.0
vertex 0.439992376674285 -39.3579260953086 -13.0
vertex 0.650561835020652 -39.4294047947308 -13.0
endloop
endfacet
facet normal 0.0 0.0 1.0
outer loop
vertex 6.5 -36.5 -13.0
vertex 0.650561835020652 -39.4294047947308 -13.0
vertex 0.849999999999998 -39.5277568135665 -13.0
endloop
endfacet
facet normal 0.0 0.0 1.0
outer loop
vertex 6.5 -36.5 -13.0
vertex 0.849999999999998 -39.5277568135665 -13.0
vertex 1.03489442931482 -39.6512993215049 -13.0
endloop
endfacet
facet normal 0.0 0.0 1.0
outer loop
vertex 6.5 -36.5 -13.0
vertex 1.03489442931482 -39.6512993215049 -13.0
vertex 1.20208152801713 -39.7979184719829 -13.0
endloop
endfacet
facet normal 0.0 0.0 1.0
outer loop
vertex 6.5 -36.5 -13.0
vertex 1.20208152801713 -39.7979184719829 -13.0
vertex 1.3487006784951 -39.9651055706852 -13.0
endloop
endfacet
facet normal 0.0 0.0 1.0
outer loop
vertex 6.5 -36.5 -13.0
vertex 1.3487006784951 -39.9651055706852 -13.0
vertex 1.47224318643354 -40.15 -13.0
endloop
endfacet
facet normal 0.0 0.0 1.0
outer loop
vertex 6.5 -36.5 -13.0
vertex 1.47224318643354 -40.15 -13.0
vertex 1.57059520526919 -40.3494381649794 -13.0
endloop
endfacet
facet normal 0.0 0.0 1.0
outer loop
vertex 6.5 -36.5 -13.0
vertex 1.57059520526919 -40.3494381649794 -13.0
vertex 1.64207390469142 -40.5600076233257 -13.0
endloop
endfacet
facet normal 0.0 0.0 1.0
outer loop
vertex 6.5 -36.5 -13.0
vertex 1.64207390469142 -40.5600076233257 -13.0
vertex 1.68545626433548 -40.7781054732259 -13.0
endloop
endfacet
facet normal 0.0 0.0 1.0
outer loop
vertex 6.5 -36.5 -13.0
vertex 1.68545626433548 -40.7781054732259 -13.0
vertex 1.7 -41.0 -13.0
endloop
endfacet
facet normal 0.0 0.0 1.0
outer loop
vertex 6.5 -36.5 -13.0
vertex 1.7 -41.0 -13.0
vertex 1.7 -56.0 -13.0
endloop
endfacet
facet normal 0.0 0.0 1.0
outer loop
vertex 6.5 -36.5 -13.0
vertex 1.7 -56.0 -13.0
vertex 6.5 -61.0 -13.0
endloop
endfacet
facet normal 0.0 -1.0 0.0
outer loop
vertex 12.5 -61.0 -18.0
vertex 11.0 -61.0 -15.0
vertex -12.5 -61.0 -18.0
endloop
endfacet
facet normal 0.0 -1.0 0.0
outer loop
vertex 11.0 -61.0 -15.0
vertex 12.5 -61.0 -18.0
vertex 12.5 -61.0 -11.0
endloop
endfacet
facet normal 0.0 -1.0 0.0
outer loop
vertex 11.0 -61.0 -15.0
vertex 12.5 -61.0 -11.0
vertex 11.0 -61.0 -11.0
endloop
endfacet
facet normal 0.0 -1.0 0.0
outer loop
vertex 6.5 -61.0 -13.0
vertex -6.5 -61.0 -15.0
vertex 6.5 -61.0 -15.0
endloop
endfacet
facet normal 0.0 -1.0 0.0
outer loop
vertex -6.5 -61.0 -15.0
vertex 6.5 -61.0 -13.0
vertex -6.5 -61.0 -13.0
endloop
endfacet
facet normal 0.0 -1.0 0.0
outer loop
vertex -12.5 -61.0 -18.0
vertex -11.0 -61.0 -15.0
vertex -12.5 -61.0 -11.0
endloop
endfacet
facet normal 0.0 -1.0 0.0
outer loop
vertex -11.0 -61.0 -15.0
vertex -12.5 -61.0 -18.0
vertex 11.0 -61.0 -15.0
endloop
endfacet
facet normal 0.0 -1.0 0.0
outer loop
vertex -11.0 -61.0 -15.0
vertex 11.0 -61.0 -15.0
vertex 6.5 -61.0 -15.0
endloop
endfacet
facet normal 0.0 -1.0 0.0
outer loop
vertex -11.0 -61.0 -15.0
vertex 6.5 -61.0 -15.0
vertex -6.5 -61.0 -15.0
endloop
endfacet
facet normal 0.0 -1.0 0.0
outer loop
vertex -12.5 -61.0 -11.0
vertex -11.0 -61.0 -15.0
vertex -11.0 -61.0 -11.0
endloop
endfacet
facet normal 2.16918855742963e-016 -1.0 0.0
outer loop
vertex -1.40998324127395e-015 -54.3 -13.0
vertex -0.221894526774089 -54.3145437356645 -18.0
vertex -1.40998324127395e-015 -54.3 -18.0
endloop
endfacet
facet normal 0.130526192220053 -0.99144486137381 0.0
outer loop
vertex -0.221894526774089 -54.3145437356645 -18.0
vertex -1.40998324127395e-015 -54.3 -13.0
vertex -0.221894526774089 -54.3145437356645 -13.0
endloop
endfacet
facet normal -0.130526192220053 -0.99144486137381 0.0
outer loop
vertex 0.221894526774088 -54.3145437356645 -13.0
vertex -1.40998324127395e-015 -54.3 -18.0
vertex 0.221894526774088 -54.3145437356645 -18.0
endloop
endfacet
facet normal 2.16918855742963e-016 -1.0 0.0
outer loop
vertex -1.40998324127395e-015 -54.3 -18.0
vertex 0.221894526774088 -54.3145437356645 -13.0
vertex -1.40998324127395e-015 -54.3 -13.0
endloop
endfacet
facet normal -0.258819045102525 -0.965925826289067 -3.31891783289047e-019
outer loop
vertex 0.439992376674285 -54.3579260953086 -13.0
vertex 0.221894526774088 -54.3145437356645 -18.0
vertex 0.439992376674285 -54.3579260953086 -18.0
endloop
endfacet
facet normal -0.130526192220053 -0.99144486137381 0.0
outer loop
vertex 0.221894526774088 -54.3145437356645 -18.0
vertex 0.439992376674285 -54.3579260953086 -13.0
vertex 0.221894526774088 -54.3145437356645 -13.0
endloop
endfacet
facet normal -0.382683432365089 -0.923879532511287 -3.31891783288761e-019
outer loop
vertex 0.650561835020652 -54.4294047947308 -13.0
vertex 0.439992376674285 -54.3579260953086 -18.0
vertex 0.650561835020652 -54.4294047947308 -18.0
endloop
endfacet
facet normal -0.258819045102525 -0.965925826289067 -3.31891783289047e-019
outer loop
vertex 0.439992376674285 -54.3579260953086 -18.0
vertex 0.650561835020652 -54.4294047947308 -13.0
vertex 0.439992376674285 -54.3579260953086 -13.0
endloop
endfacet
facet normal -0.500000000000001 -0.866025403784438 2.85896977268476e-031
outer loop
vertex 0.850000000000001 -54.5277568135665 -13.0
vertex 0.650561835020652 -54.4294047947308 -18.0
vertex 0.850000000000001 -54.5277568135665 -18.0
endloop
endfacet
facet normal -0.382683432365089 -0.923879532511287 -3.31891783288761e-019
outer loop
vertex 0.650561835020652 -54.4294047947308 -18.0
vertex 0.850000000000001 -54.5277568135665 -13.0
vertex 0.650561835020652 -54.4294047947308 -13.0
endloop
endfacet
facet normal -0.608761429008719 -0.793353340291236 0.0
outer loop
vertex 1.03489442931482 -54.6512993215049 -13.0
vertex 0.850000000000001 -54.5277568135665 -18.0
vertex 1.03489442931482 -54.6512993215049 -18.0
endloop
endfacet
facet normal -0.500000000000001 -0.866025403784438 2.85896977268476e-031
outer loop
vertex 0.850000000000001 -54.5277568135665 -18.0
vertex 1.03489442931482 -54.6512993215049 -13.0
vertex 0.850000000000001 -54.5277568135665 -13.0
endloop
endfacet
facet normal -0.707106781186544 -0.707106781186551 0.0
outer loop
vertex 1.20208152801713 -54.7979184719829 -13.0
vertex 1.03489442931482 -54.6512993215049 -18.0
vertex 1.20208152801713 -54.7979184719829 -18.0
endloop
endfacet
facet normal -0.608761429008719 -0.793353340291236 0.0
outer loop
vertex 1.03489442931482 -54.6512993215049 -18.0
vertex 1.20208152801713 -54.7979184719829 -13.0
vertex 1.03489442931482 -54.6512993215049 -13.0
endloop
endfacet
facet normal -0.707106781186544 -0.707106781186551 0.0
outer loop
vertex 1.20208152801713 -54.7979184719829 -13.0
vertex 1.3487006784951 -54.9651055706852 -18.0
vertex 1.3487006784951 -54.9651055706852 -13.0
endloop
endfacet
facet normal -0.793353340291239 -0.608761429008716 1.77099651851618e-031
outer loop
vertex 1.3487006784951 -54.9651055706852 -18.0
vertex 1.20208152801713 -54.7979184719829 -13.0
vertex 1.20208152801713 -54.7979184719829 -18.0
endloop
endfacet
facet normal -0.793353340291239 -0.608761429008716 1.77099651851618e-031
outer loop
vertex 1.3487006784951 -54.9651055706852 -13.0
vertex 1.47224318643355 -55.15 -18.0
vertex 1.47224318643355 -55.15 -13.0
endloop
endfacet
facet normal -0.86602540378444 -0.499999999999998 1.77099651851618e-031
outer loop
vertex 1.47224318643355 -55.15 -18.0
vertex 1.3487006784951 -54.9651055706852 -13.0
vertex 1.3487006784951 -54.9651055706852 -18.0
endloop
endfacet
facet normal -0.86602540378444 -0.499999999999998 1.77099651851618e-031
outer loop
vertex 1.47224318643355 -55.15 -13.0
vertex 1.57059520526919 -55.3494381649794 -18.0
vertex 1.57059520526919 -55.3494381649794 -13.0
endloop
endfacet
facet normal -0.923879532511286 -0.382683432365093 -2.04931128462935e-031
outer loop
vertex 1.57059520526919 -55.3494381649794 -18.0
vertex 1.47224318643355 -55.15 -13.0
vertex 1.47224318643355 -55.15 -18.0
endloop
endfacet
facet normal -0.923879532511286 -0.382683432365093 -2.04931128462935e-031
outer loop
vertex 1.57059520526919 -55.3494381649794 -13.0
vertex 1.64207390469142 -55.5600076233257 -18.0
vertex 1.64207390469142 -55.5600076233257 -13.0
endloop
endfacet
facet normal -0.965925826289068 -0.258819045102524 -1.42742000868949e-031
outer loop
vertex 1.64207390469142 -55.5600076233257 -18.0
vertex 1.57059520526919 -55.3494381649794 -13.0
vertex 1.57059520526919 -55.3494381649794 -18.0
endloop
endfacet
facet normal -0.965925826289068 -0.258819045102524 -1.42742000868949e-031
outer loop
vertex 1.64207390469142 -55.5600076233257 -13.0
vertex 1.68545626433548 -55.7781054732259 -18.0
vertex 1.68545626433548 -55.7781054732259 -13.0
endloop
endfacet
facet normal -0.99144486137381 -0.130526192220053 4.58465952592941e-020
outer loop
vertex 1.68545626433548 -55.7781054732259 -18.0
vertex 1.64207390469142 -55.5600076233257 -13.0
vertex 1.64207390469142 -55.5600076233257 -18.0
endloop
endfacet
facet normal -0.99144486137381 -0.130526192220053 4.58465952592941e-020
outer loop
vertex 1.68545626433548 -55.7781054732259 -13.0
vertex 1.7 -56.0 -18.0
vertex 1.7 -56.0 -13.0
endloop
endfacet
facet normal -1.0 0.0 9.16931905184639e-020
outer loop
vertex 1.7 -56.0 -18.0
vertex 1.68545626433548 -55.7781054732259 -13.0
vertex 1.68545626433548 -55.7781054732259 -18.0
endloop
endfacet
facet normal -1.0 0.0 9.16931905184639e-020
outer loop
vertex 1.7 -56.0 -13.0
vertex 1.68545626433548 -56.2218945267741 -18.0
vertex 1.68545626433548 -56.2218945267741 -13.0
endloop
endfacet
facet normal -0.99144486137381 0.130526192220053 4.58465952592941e-020
outer loop
vertex 1.68545626433548 -56.2218945267741 -18.0
vertex 1.7 -56.0 -13.0
vertex 1.7 -56.0 -18.0
endloop
endfacet
facet normal -0.99144486137381 0.130526192220053 4.58465952592941e-020
outer loop
vertex 1.68545626433548 -56.2218945267741 -13.0
vertex 1.64207390469142 -56.4399923766743 -18.0
vertex 1.64207390469142 -56.4399923766743 -13.0
endloop
endfacet
facet normal -0.965925826289068 0.258819045102524 6.21891275939863e-032
outer loop
vertex 1.64207390469142 -56.4399923766743 -18.0
vertex 1.68545626433548 -56.2218945267741 -13.0
vertex 1.68545626433548 -56.2218945267741 -18.0
endloop
endfacet
facet normal -0.965925826289068 0.258819045102524 6.21891275939863e-032
outer loop
vertex 1.64207390469142 -56.4399923766743 -13.0
vertex 1.57059520526919 -56.6505618350207 -18.0
vertex 1.57059520526919 -56.6505618350207 -13.0
endloop
endfacet
facet normal -0.923879532511288 0.382683432365088 -1.40988786656121e-031
outer loop
vertex 1.57059520526919 -56.6505618350207 -18.0
vertex 1.64207390469142 -56.4399923766743 -13.0
vertex 1.64207390469142 -56.4399923766743 -18.0
endloop
endfacet
facet normal -0.923879532511288 0.382683432365088 -1.40988786656121e-031
outer loop
vertex 1.57059520526919 -56.6505618350207 -13.0
vertex 1.47224318643355 -56.85 -18.0
vertex 1.47224318643355 -56.85 -13.0
endloop
endfacet
facet normal -0.866025403784436 0.500000000000004 -1.40988786656121e-031
outer loop
vertex 1.47224318643355 -56.85 -18.0
vertex 1.57059520526919 -56.6505618350207 -13.0
vertex 1.57059520526919 -56.6505618350207 -18.0
endloop
endfacet
facet normal -0.866025403784436 0.500000000000004 -1.40988786656121e-031
outer loop
vertex 1.47224318643355 -56.85 -13.0
vertex 1.3487006784951 -57.0348944293148 -18.0
vertex 1.3487006784951 -57.0348944293148 -13.0
endloop
endfacet
facet normal -0.793353340291231 0.608761429008726 0.0
outer loop
vertex 1.3487006784951 -57.0348944293148 -18.0
vertex 1.47224318643355 -56.85 -13.0
vertex 1.47224318643355 -56.85 -18.0
endloop
endfacet
facet normal -0.793353340291231 0.608761429008726 0.0
outer loop
vertex 1.3487006784951 -57.0348944293148 -13.0
vertex 1.20208152801713 -57.2020815280171 -18.0
vertex 1.20208152801713 -57.2020815280171 -13.0
endloop
endfacet
facet normal -0.707106781186554 0.707106781186541 2.39664690869095e-031
outer loop
vertex 1.20208152801713 -57.2020815280171 -18.0
vertex 1.3487006784951 -57.0348944293148 -13.0
vertex 1.3487006784951 -57.0348944293148 -18.0
endloop
endfacet
facet normal -0.608761429008719 0.793353340291237 -2.53836686580936e-032
outer loop
vertex 1.03489442931482 -57.3487006784951 -13.0
vertex 1.20208152801713 -57.2020815280171 -18.0
vertex 1.03489442931482 -57.3487006784951 -18.0
endloop
endfacet
facet normal -0.707106781186554 0.707106781186541 2.39664690869095e-031
outer loop
vertex 1.20208152801713 -57.2020815280171 -18.0
vertex 1.03489442931482 -57.3487006784951 -13.0
vertex 1.20208152801713 -57.2020815280171 -13.0
endloop
endfacet
facet normal -0.499999999999991 0.866025403784444 -5.50945336795663e-031
outer loop
vertex 0.849999999999998 -57.4722431864336 -13.0
vertex 1.03489442931482 -57.3487006784951 -18.0
vertex 0.849999999999998 -57.4722431864336 -18.0
endloop
endfacet
facet normal -0.608761429008719 0.793353340291237 -2.53836686580936e-032
outer loop
vertex 1.03489442931482 -57.3487006784951 -18.0
vertex 0.849999999999998 -57.4722431864336 -13.0
vertex 1.03489442931482 -57.3487006784951 -13.0
endloop
endfacet
facet normal -0.38268343236509 0.923879532511287 -3.31891783289333e-019
outer loop
vertex 0.650561835020652 -57.5705952052692 -13.0
vertex 0.849999999999998 -57.4722431864336 -18.0
vertex 0.650561835020652 -57.5705952052692 -18.0
endloop
endfacet
facet normal -0.499999999999991 0.866025403784444 -5.50945336795663e-031
outer loop
vertex 0.849999999999998 -57.4722431864336 -18.0
vertex 0.650561835020652 -57.5705952052692 -13.0
vertex 0.849999999999998 -57.4722431864336 -13.0
endloop
endfacet
facet normal -0.258819045102524 0.965925826289068 -3.31891783289047e-019
outer loop
vertex 0.439992376674282 -57.6420739046914 -13.0
vertex 0.650561835020652 -57.5705952052692 -18.0
vertex 0.439992376674282 -57.6420739046914 -18.0
endloop
endfacet
facet normal -0.38268343236509 0.923879532511287 -3.31891783289333e-019
outer loop
vertex 0.650561835020652 -57.5705952052692 -18.0
vertex 0.439992376674282 -57.6420739046914 -13.0
vertex 0.650561835020652 -57.5705952052692 -13.0
endloop
endfacet
facet normal -0.130526192220053 0.99144486137381 0.0
outer loop
vertex 0.221894526774085 -57.6854562643355 -13.0
vertex 0.439992376674282 -57.6420739046914 -18.0
vertex 0.221894526774085 -57.6854562643355 -18.0
endloop
endfacet
facet normal -0.258819045102524 0.965925826289068 -3.31891783289047e-019
outer loop
vertex 0.439992376674282 -57.6420739046914 -18.0
vertex 0.221894526774085 -57.6854562643355 -13.0
vertex 0.439992376674282 -57.6420739046914 -13.0
endloop
endfacet
facet normal -4.16130049792622e-016 1.0 0.0
outer loop
vertex -1.40998324127395e-015 -57.7 -13.0
vertex 0.221894526774085 -57.6854562643355 -18.0
vertex -1.40998324127395e-015 -57.7 -18.0
endloop
endfacet
facet normal -0.130526192220053 0.99144486137381 0.0
outer loop
vertex 0.221894526774085 -57.6854562643355 -18.0
vertex -1.40998324127395e-015 -57.7 -13.0
vertex 0.221894526774085 -57.6854562643355 -13.0
endloop
endfacet
facet normal 0.130526192220053 0.99144486137381 0.0
outer loop
vertex -0.221894526774091 -57.6854562643355 -13.0
vertex -1.40998324127395e-015 -57.7 -18.0
vertex -0.221894526774091 -57.6854562643355 -18.0
endloop
endfacet
facet normal -4.16130049792622e-016 1.0 0.0
outer loop
vertex -1.40998324127395e-015 -57.7 -18.0
vertex -0.221894526774091 -57.6854562643355 -13.0
vertex -1.40998324127395e-015 -57.7 -13.0
endloop
endfacet
facet normal 0.258819045102525 0.965925826289067 -3.31891783289047e-019
outer loop
vertex -0.439992376674288 -57.6420739046914 -13.0
vertex -0.221894526774091 -57.6854562643355 -18.0
vertex -0.439992376674288 -57.6420739046914 -18.0
endloop
endfacet
facet normal 0.130526192220053 0.99144486137381 0.0
outer loop
vertex -0.221894526774091 -57.6854562643355 -18.0
vertex -0.439992376674288 -57.6420739046914 -13.0
vertex -0.221894526774091 -57.6854562643355 -13.0
endloop
endfacet
facet normal 0.382683432365091 0.923879532511286 -3.31891783288761e-019
outer loop
vertex -0.650561835020655 -57.5705952052692 -13.0
vertex -0.439992376674288 -57.6420739046914 -18.0
vertex -0.650561835020655 -57.5705952052692 -18.0
endloop
endfacet
facet normal 0.258819045102525 0.965925826289067 -3.31891783289047e-019
outer loop
vertex -0.439992376674288 -57.6420739046914 -18.0
vertex -0.650561835020655 -57.5705952052692 -13.0
vertex -0.439992376674288 -57.6420739046914 -13.0
endloop
endfacet
facet normal 0.499999999999999 0.866025403784439 2.85896977268476e-031
outer loop
vertex -0.850000000000003 -57.4722431864336 -13.0
vertex -0.650561835020655 -57.5705952052692 -18.0
vertex -0.850000000000003 -57.4722431864336 -18.0
endloop
endfacet
facet normal 0.382683432365091 0.923879532511286 -3.31891783288761e-019
outer loop
vertex -0.650561835020655 -57.5705952052692 -18.0
vertex -0.850000000000003 -57.4722431864336 -13.0
vertex -0.650561835020655 -57.5705952052692 -13.0
endloop
endfacet
facet normal 0.60876142900872 0.793353340291236 0.0
outer loop
vertex -1.03489442931483 -57.3487006784951 -13.0
vertex -0.850000000000003 -57.4722431864336 -18.0
vertex -1.03489442931483 -57.3487006784951 -18.0
endloop
endfacet
facet normal 0.499999999999999 0.866025403784439 2.85896977268476e-031
outer loop
vertex -0.850000000000003 -57.4722431864336 -18.0
vertex -1.03489442931483 -57.3487006784951 -13.0
vertex -0.850000000000003 -57.4722431864336 -13.0
endloop
endfacet
facet normal 0.707106781186547 0.707106781186548 0.0
outer loop
vertex -1.20208152801713 -57.2020815280171 -13.0
vertex -1.03489442931483 -57.3487006784951 -18.0
vertex -1.20208152801713 -57.2020815280171 -18.0
endloop
endfacet
facet normal 0.60876142900872 0.793353340291236 0.0
outer loop
vertex -1.03489442931483 -57.3487006784951 -18.0
vertex -1.20208152801713 -57.2020815280171 -13.0
vertex -1.03489442931483 -57.3487006784951 -13.0
endloop
endfacet
facet normal 0.793353340291237 0.608761429008718 1.77099651851619e-031
outer loop
vertex -1.3487006784951 -57.0348944293148 -18.0
vertex -1.20208152801713 -57.2020815280171 -13.0
vertex -1.20208152801713 -57.2020815280171 -18.0
endloop
endfacet
facet normal 0.707106781186547 0.707106781186548 0.0
outer loop
vertex -1.20208152801713 -57.2020815280171 -13.0
vertex -1.3487006784951 -57.0348944293148 -18.0
vertex -1.3487006784951 -57.0348944293148 -13.0
endloop
endfacet
facet normal 0.866025403784437 0.500000000000002 1.86033932391259e-031
outer loop
vertex -1.47224318643355 -56.85 -18.0
vertex -1.3487006784951 -57.0348944293148 -13.0
vertex -1.3487006784951 -57.0348944293148 -18.0
endloop
endfacet
facet normal 0.793353340291237 0.608761429008718 1.77099651851619e-031
outer loop
vertex -1.3487006784951 -57.0348944293148 -13.0
vertex -1.47224318643355 -56.85 -18.0
vertex -1.47224318643355 -56.85 -13.0
endloop
endfacet
facet normal 0.923879532511286 0.382683432365093 -3.31891783288933e-019
outer loop
vertex -1.57059520526919 -56.6505618350207 -18.0
vertex -1.47224318643355 -56.85 -13.0
vertex -1.47224318643355 -56.85 -18.0
endloop
endfacet
facet normal 0.866025403784437 0.500000000000002 1.86033932391259e-031
outer loop
vertex -1.47224318643355 -56.85 -13.0
vertex -1.57059520526919 -56.6505618350207 -18.0
vertex -1.57059520526919 -56.6505618350207 -13.0
endloop
endfacet
facet normal 0.965925826289068 0.258819045102521 -3.31891783288879e-019
outer loop
vertex -1.64207390469142 -56.4399923766743 -18.0
vertex -1.57059520526919 -56.6505618350207 -13.0
vertex -1.57059520526919 -56.6505618350207 -18.0
endloop
endfacet
facet normal 0.923879532511286 0.382683432365093 -3.31891783288933e-019
outer loop
vertex -1.57059520526919 -56.6505618350207 -13.0
vertex -1.64207390469142 -56.4399923766743 -18.0
vertex -1.64207390469142 -56.4399923766743 -13.0
endloop
endfacet
facet normal 0.991444861373811 0.13052619222005 4.58465952592897e-020
outer loop
vertex -1.68545626433548 -56.2218945267741 -18.0
vertex -1.64207390469142 -56.4399923766743 -13.0
vertex -1.64207390469142 -56.4399923766743 -18.0
endloop
endfacet
facet normal 0.965925826289068 0.258819045102521 -3.31891783288879e-019
outer loop
vertex -1.64207390469142 -56.4399923766743 -13.0
vertex -1.68545626433548 -56.2218945267741 -18.0
vertex -1.68545626433548 -56.2218945267741 -13.0
endloop
endfacet
facet normal 1.0 -3.16524452767792e-015 9.16931905184595e-020
outer loop
vertex -1.7 -56.0 -18.0
vertex -1.68545626433548 -56.2218945267741 -13.0
vertex -1.68545626433548 -56.2218945267741 -18.0
endloop
endfacet
facet normal 0.991444861373811 0.13052619222005 4.58465952592897e-020
outer loop
vertex -1.68545626433548 -56.2218945267741 -13.0
vertex -1.7 -56.0 -18.0
vertex -1.7 -56.0 -13.0
endloop
endfacet
facet normal 0.99144486137381 -0.130526192220053 4.58465952592941e-020
outer loop
vertex -1.68545626433548 -55.7781054732259 -18.0
vertex -1.7 -56.0 -13.0
vertex -1.7 -56.0 -18.0
endloop
endfacet
facet normal 1.0 -3.16524452767792e-015 9.16931905184595e-020
outer loop
vertex -1.7 -56.0 -13.0
vertex -1.68545626433548 -55.7781054732259 -18.0
vertex -1.68545626433548 -55.7781054732259 -13.0
endloop
endfacet
facet normal 0.965925826289069 -0.258819045102518 7.16220594209576e-032
outer loop
vertex -1.64207390469142 -55.5600076233257 -18.0
vertex -1.68545626433548 -55.7781054732259 -13.0
vertex -1.68545626433548 -55.7781054732259 -18.0
endloop
endfacet
facet normal 0.99144486137381 -0.130526192220053 4.58465952592941e-020
outer loop
vertex -1.68545626433548 -55.7781054732259 -13.0
vertex -1.64207390469142 -55.5600076233257 -18.0
vertex -1.64207390469142 -55.5600076233257 -13.0
endloop
endfacet
facet normal 0.923879532511289 -0.382683432365085 -1.22621574289511e-031
outer loop
vertex -1.57059520526919 -55.3494381649794 -18.0
vertex -1.64207390469142 -55.5600076233257 -13.0
vertex -1.64207390469142 -55.5600076233257 -18.0
endloop
endfacet
facet normal 0.965925826289069 -0.258819045102518 7.16220594209576e-032
outer loop
vertex -1.64207390469142 -55.5600076233257 -13.0
vertex -1.57059520526919 -55.3494381649794 -18.0
vertex -1.57059520526919 -55.3494381649794 -13.0
endloop
endfacet
facet normal 0.866025403784437 -0.500000000000004 -1.32054506116483e-031
outer loop
vertex -1.47224318643355 -55.15 -18.0
vertex -1.57059520526919 -55.3494381649794 -13.0
vertex -1.57059520526919 -55.3494381649794 -18.0
endloop
endfacet
facet normal 0.923879532511289 -0.382683432365085 -1.22621574289511e-031
outer loop
vertex -1.57059520526919 -55.3494381649794 -13.0
vertex -1.47224318643355 -55.15 -18.0
vertex -1.47224318643355 -55.15 -13.0
endloop
endfacet
facet normal 0.793353340291233 -0.608761429008724 0.0
outer loop
vertex -1.3487006784951 -54.9651055706852 -18.0
vertex -1.47224318643355 -55.15 -13.0
vertex -1.47224318643355 -55.15 -18.0
endloop
endfacet
facet normal 0.866025403784437 -0.500000000000004 -1.32054506116483e-031
outer loop
vertex -1.47224318643355 -55.15 -13.0
vertex -1.3487006784951 -54.9651055706852 -18.0
vertex -1.3487006784951 -54.9651055706852 -13.0
endloop
endfacet
facet normal 0.707106781186546 -0.707106781186549 0.0
outer loop
vertex -1.20208152801713 -54.7979184719829 -18.0
vertex -1.3487006784951 -54.9651055706852 -13.0
vertex -1.3487006784951 -54.9651055706852 -18.0
endloop
endfacet
facet normal 0.793353340291233 -0.608761429008724 0.0
outer loop
vertex -1.3487006784951 -54.9651055706852 -13.0
vertex -1.20208152801713 -54.7979184719829 -18.0
vertex -1.20208152801713 -54.7979184719829 -13.0
endloop
endfacet
facet normal 0.60876142900872 -0.793353340291236 0.0
outer loop
vertex -1.03489442931483 -54.6512993215049 -13.0
vertex -1.20208152801713 -54.7979184719829 -18.0
vertex -1.03489442931483 -54.6512993215049 -18.0
endloop
endfacet
facet normal 0.707106781186546 -0.707106781186549 0.0
outer loop
vertex -1.20208152801713 -54.7979184719829 -18.0
vertex -1.03489442931483 -54.6512993215049 -13.0
vertex -1.20208152801713 -54.7979184719829 -13.0
endloop
endfacet
facet normal 0.5 -0.866025403784438 -2.85896977268476e-031
outer loop
vertex -0.850000000000003 -54.5277568135665 -13.0
vertex -1.03489442931483 -54.6512993215049 -18.0
vertex -0.850000000000003 -54.5277568135665 -18.0
endloop
endfacet
facet normal 0.60876142900872 -0.793353340291236 0.0
outer loop
vertex -1.03489442931483 -54.6512993215049 -18.0
vertex -0.850000000000003 -54.5277568135665 -13.0
vertex -1.03489442931483 -54.6512993215049 -13.0
endloop
endfacet
facet normal 0.38268343236509 -0.923879532511287 -3.31891783289333e-019
outer loop
vertex -0.650561835020655 -54.4294047947308 -13.0
vertex -0.850000000000003 -54.5277568135665 -18.0
vertex -0.650561835020655 -54.4294047947308 -18.0
endloop
endfacet
facet normal 0.5 -0.866025403784438 -2.85896977268476e-031
outer loop
vertex -0.850000000000003 -54.5277568135665 -18.0
vertex -0.650561835020655 -54.4294047947308 -13.0
vertex -0.850000000000003 -54.5277568135665 -13.0
endloop
endfacet
facet normal 0.258819045102525 -0.965925826289067 -3.31891783289047e-019
outer loop
vertex -0.439992376674287 -54.3579260953086 -13.0
vertex -0.650561835020655 -54.4294047947308 -18.0
vertex -0.439992376674287 -54.3579260953086 -18.0
endloop
endfacet
facet normal 0.38268343236509 -0.923879532511287 -3.31891783289333e-019
outer loop
vertex -0.650561835020655 -54.4294047947308 -18.0
vertex -0.439992376674287 -54.3579260953086 -13.0
vertex -0.650561835020655 -54.4294047947308 -13.0
endloop
endfacet
facet normal 0.130526192220053 -0.99144486137381 0.0
outer loop
vertex -0.221894526774089 -54.3145437356645 -13.0
vertex -0.439992376674287 -54.3579260953086 -18.0
vertex -0.221894526774089 -54.3145437356645 -18.0
endloop
endfacet
facet normal 0.258819045102525 -0.965925826289067 -3.31891783289047e-019
outer loop
vertex -0.439992376674287 -54.3579260953086 -18.0
vertex -0.221894526774089 -54.3145437356645 -13.0
vertex -0.439992376674287 -54.3579260953086 -13.0
endloop
endfacet
facet normal -4.16130049792622e-016 1.0 0.0
outer loop
vertex -1.40998324127395e-015 -42.7 -13.0
vertex 0.221894526774085 -42.6854562643355 -18.0
vertex -1.40998324127395e-015 -42.7 -18.0
endloop
endfacet
facet normal -0.130526192220053 0.99144486137381 0.0
outer loop
vertex 0.221894526774085 -42.6854562643355 -18.0
vertex -1.40998324127395e-015 -42.7 -13.0
vertex 0.221894526774085 -42.6854562643355 -13.0
endloop
endfacet
facet normal 0.130526192220053 0.99144486137381 0.0
outer loop
vertex -0.221894526774091 -42.6854562643355 -13.0
vertex -1.40998324127395e-015 -42.7 -18.0
vertex -0.221894526774091 -42.6854562643355 -18.0
endloop
endfacet
facet normal -4.16130049792622e-016 1.0 0.0
outer loop
vertex -1.40998324127395e-015 -42.7 -18.0
vertex -0.221894526774091 -42.6854562643355 -13.0
vertex -1.40998324127395e-015 -42.7 -13.0
endloop
endfacet
facet normal 0.258819045102525 0.965925826289067 3.01853818463082e-031
outer loop
vertex -0.439992376674288 -42.6420739046914 -13.0
vertex -0.221894526774091 -42.6854562643355 -18.0
vertex -0.439992376674288 -42.6420739046914 -18.0
endloop
endfacet
facet normal 0.130526192220053 0.99144486137381 0.0
outer loop
vertex -0.221894526774091 -42.6854562643355 -18.0
vertex -0.439992376674288 -42.6420739046914 -13.0
vertex -0.221894526774091 -42.6854562643355 -13.0
endloop
endfacet
facet normal 0.382683432365092 0.923879532511286 1.59568411946072e-032
outer loop
vertex -0.650561835020655 -42.5705952052692 -13.0
vertex -0.439992376674288 -42.6420739046914 -18.0
vertex -0.650561835020655 -42.5705952052692 -18.0
endloop
endfacet
facet normal 0.258819045102525 0.965925826289067 3.01853818463082e-031
outer loop
vertex -0.439992376674288 -42.6420739046914 -18.0
vertex -0.650561835020655 -42.5705952052692 -13.0
vertex -0.439992376674288 -42.6420739046914 -13.0
endloop
endfacet
facet normal 0.499999999999991 0.866025403784444 -2.0848617741287e-032
outer loop
vertex -0.850000000000001 -42.4722431864336 -13.0
vertex -0.650561835020655 -42.5705952052692 -18.0
vertex -0.850000000000001 -42.4722431864336 -18.0
endloop
endfacet
facet normal 0.382683432365092 0.923879532511286 1.59568411946072e-032
outer loop
vertex -0.650561835020655 -42.5705952052692 -18.0
vertex -0.850000000000001 -42.4722431864336 -13.0
vertex -0.650561835020655 -42.5705952052692 -13.0
endloop
endfacet
facet normal 0.608761429008719 0.793353340291236 2.53836686580935e-032
outer loop
vertex -1.03489442931483 -42.3487006784951 -13.0
vertex -0.850000000000001 -42.4722431864336 -18.0
vertex -1.03489442931483 -42.3487006784951 -18.0
endloop
endfacet
facet normal 0.499999999999991 0.866025403784444 -2.0848617741287e-032
outer loop
vertex -0.850000000000001 -42.4722431864336 -18.0
vertex -1.03489442931483 -42.3487006784951 -13.0
vertex -0.850000000000001 -42.4722431864336 -13.0
endloop
endfacet
facet normal 0.707106781186548 0.707106781186547 -4.49844983771729e-031
outer loop
vertex -1.20208152801713 -42.2020815280171 -13.0
vertex -1.03489442931483 -42.3487006784951 -18.0
vertex -1.20208152801713 -42.2020815280171 -18.0
endloop
endfacet
facet normal 0.608761429008719 0.793353340291236 2.53836686580935e-032
outer loop
vertex -1.03489442931483 -42.3487006784951 -18.0
vertex -1.20208152801713 -42.2020815280171 -13.0
vertex -1.03489442931483 -42.3487006784951 -13.0
endloop
endfacet
facet normal 0.793353340291238 0.608761429008717 -2.10180292902636e-031
outer loop
vertex -1.3487006784951 -42.0348944293148 -18.0
vertex -1.20208152801713 -42.2020815280171 -13.0
vertex -1.20208152801713 -42.2020815280171 -18.0
endloop
endfacet
facet normal 0.707106781186548 0.707106781186547 -4.49844983771729e-031
outer loop
vertex -1.20208152801713 -42.2020815280171 -13.0
vertex -1.3487006784951 -42.0348944293148 -18.0
vertex -1.3487006784951 -42.0348944293148 -13.0
endloop
endfacet
facet normal 0.866025403784442 0.499999999999994 0.0
outer loop
vertex -1.47224318643355 -41.85 -18.0
vertex -1.3487006784951 -42.0348944293148 -13.0
vertex -1.3487006784951 -42.0348944293148 -18.0
endloop
endfacet
facet normal 0.793353340291238 0.608761429008717 -2.10180292902636e-031
outer loop
vertex -1.3487006784951 -42.0348944293148 -13.0
vertex -1.47224318643355 -41.85 -18.0
vertex -1.47224318643355 -41.85 -13.0
endloop
endfacet
facet normal 0.923879532511286 0.382683432365093 0.0
outer loop
vertex -1.57059520526919 -41.6505618350207 -18.0
vertex -1.47224318643355 -41.85 -13.0
vertex -1.47224318643355 -41.85 -18.0
endloop
endfacet
facet normal 0.866025403784442 0.499999999999994 0.0
outer loop
vertex -1.47224318643355 -41.85 -13.0
vertex -1.57059520526919 -41.6505618350207 -18.0
vertex -1.57059520526919 -41.6505618350207 -13.0
endloop
endfacet
facet normal 0.965925826289068 0.258819045102523 0.0
outer loop
vertex -1.64207390469142 -41.4399923766743 -18.0
vertex -1.57059520526919 -41.6505618350207 -13.0
vertex -1.57059520526919 -41.6505618350207 -18.0
endloop
endfacet
facet normal 0.923879532511286 0.382683432365093 0.0
outer loop
vertex -1.57059520526919 -41.6505618350207 -13.0
vertex -1.64207390469142 -41.4399923766743 -18.0
vertex -1.64207390469142 -41.4399923766743 -13.0
endloop
endfacet
facet normal 0.99144486137381 0.130526192220052 0.0
outer loop
vertex -1.68545626433548 -41.2218945267741 -18.0
vertex -1.64207390469142 -41.4399923766743 -13.0
vertex -1.64207390469142 -41.4399923766743 -18.0
endloop
endfacet
facet normal 0.965925826289068 0.258819045102523 0.0
outer loop
vertex -1.64207390469142 -41.4399923766743 -13.0
vertex -1.68545626433548 -41.2218945267741 -18.0
vertex -1.68545626433548 -41.2218945267741 -13.0
endloop
endfacet
facet normal 1.0 -4.81648398057843e-015 0.0
outer loop
vertex -1.7 -41.0 -18.0
vertex -1.68545626433548 -41.2218945267741 -13.0
vertex -1.68545626433548 -41.2218945267741 -18.0
endloop
endfacet
facet normal 0.99144486137381 0.130526192220052 0.0
outer loop
vertex -1.68545626433548 -41.2218945267741 -13.0
vertex -1.7 -41.0 -18.0
vertex -1.7 -41.0 -13.0
endloop
endfacet
facet normal 0.991444861373811 -0.130526192220051 0.0
outer loop
vertex -1.68545626433548 -40.7781054732259 -18.0
vertex -1.7 -41.0 -13.0
vertex -1.7 -41.0 -18.0
endloop
endfacet
facet normal 1.0 -4.81648398057843e-015 0.0
outer loop
vertex -1.7 -41.0 -13.0
vertex -1.68545626433548 -40.7781054732259 -18.0
vertex -1.68545626433548 -40.7781054732259 -13.0
endloop
endfacet
facet normal 0.965925826289069 -0.258819045102519 1.02465564231466e-031
outer loop
vertex -1.64207390469142 -40.5600076233257 -18.0
vertex -1.68545626433548 -40.7781054732259 -13.0
vertex -1.68545626433548 -40.7781054732259 -18.0
endloop
endfacet
facet normal 0.991444861373811 -0.130526192220051 0.0
outer loop
vertex -1.68545626433548 -40.7781054732259 -13.0
vertex -1.64207390469142 -40.5600076233257 -18.0
vertex -1.64207390469142 -40.5600076233257 -13.0
endloop
endfacet
facet normal 0.923879532511287 -0.382683432365089 -3.85232224246566e-032
outer loop
vertex -1.57059520526919 -40.3494381649794 -18.0
vertex -1.64207390469142 -40.5600076233257 -13.0
vertex -1.64207390469142 -40.5600076233257 -18.0
endloop
endfacet
facet normal 0.965925826289069 -0.258819045102519 1.02465564231466e-031
outer loop
vertex -1.64207390469142 -40.5600076233257 -13.0
vertex -1.57059520526919 -40.3494381649794 -18.0
vertex -1.57059520526919 -40.3494381649794 -13.0
endloop
endfacet
facet normal 0.866025403784438 -0.500000000000001 -3.89446252971929e-019
outer loop
vertex -1.47224318643355 -40.15 -18.0
vertex -1.57059520526919 -40.3494381649794 -13.0
vertex -1.57059520526919 -40.3494381649794 -18.0
endloop
endfacet
facet normal 0.923879532511287 -0.382683432365089 -3.85232224246566e-032
outer loop
vertex -1.57059520526919 -40.3494381649794 -13.0
vertex -1.47224318643355 -40.15 -18.0
vertex -1.47224318643355 -40.15 -13.0
endloop
endfacet
facet normal 0.793353340291235 -0.608761429008721 -3.89446252971788e-019
outer loop
vertex -1.3487006784951 -39.9651055706852 -18.0
vertex -1.47224318643355 -40.15 -13.0
vertex -1.47224318643355 -40.15 -18.0
endloop
endfacet
facet normal 0.866025403784438 -0.500000000000001 -3.89446252971929e-019
outer loop
vertex -1.47224318643355 -40.15 -13.0
vertex -1.3487006784951 -39.9651055706852 -18.0
vertex -1.3487006784951 -39.9651055706852 -13.0
endloop
endfacet
facet normal 0.707106781186547 -0.707106781186548 0.0
outer loop
vertex -1.20208152801713 -39.7979184719829 -18.0
vertex -1.3487006784951 -39.9651055706852 -13.0
vertex -1.3487006784951 -39.9651055706852 -18.0
endloop
endfacet
facet normal 0.793353340291235 -0.608761429008721 -3.89446252971788e-019
outer loop
vertex -1.3487006784951 -39.9651055706852 -13.0
vertex -1.20208152801713 -39.7979184719829 -18.0
vertex -1.20208152801713 -39.7979184719829 -13.0
endloop
endfacet
facet normal 0.608761429008721 -0.793353340291235 0.0
outer loop
vertex -1.03489442931483 -39.6512993215049 -13.0
vertex -1.20208152801713 -39.7979184719829 -18.0
vertex -1.03489442931483 -39.6512993215049 -18.0
endloop
endfacet
facet normal 0.707106781186547 -0.707106781186548 0.0
outer loop
vertex -1.20208152801713 -39.7979184719829 -18.0
vertex -1.03489442931483 -39.6512993215049 -13.0
vertex -1.20208152801713 -39.7979184719829 -13.0
endloop
endfacet
facet normal 0.499999999999999 -0.866025403784439 0.0
outer loop
vertex -0.850000000000001 -39.5277568135665 -13.0
vertex -1.03489442931483 -39.6512993215049 -18.0
vertex -0.850000000000001 -39.5277568135665 -18.0
endloop
endfacet
facet normal 0.608761429008721 -0.793353340291235 0.0
outer loop
vertex -1.03489442931483 -39.6512993215049 -18.0
vertex -0.850000000000001 -39.5277568135665 -13.0
vertex -1.03489442931483 -39.6512993215049 -13.0
endloop
endfacet
facet normal 0.382683432365084 -0.923879532511289 -1.50926909231542e-031
outer loop
vertex -0.650561835020652 -39.4294047947308 -13.0
vertex -0.850000000000001 -39.5277568135665 -18.0
vertex -0.650561835020652 -39.4294047947308 -18.0
endloop
endfacet
facet normal 0.499999999999999 -0.866025403784439 0.0
outer loop
vertex -0.850000000000001 -39.5277568135665 -18.0
vertex -0.650561835020652 -39.4294047947308 -13.0
vertex -0.850000000000001 -39.5277568135665 -13.0
endloop
endfacet
facet normal 0.25881904510252 -0.965925826289069 -1.50926909231542e-031
outer loop
vertex -0.439992376674285 -39.3579260953086 -13.0
vertex -0.650561835020652 -39.4294047947308 -18.0
vertex -0.439992376674285 -39.3579260953086 -18.0
endloop
endfacet
facet normal 0.382683432365084 -0.923879532511289 -1.50926909231542e-031
outer loop
vertex -0.650561835020652 -39.4294047947308 -18.0
vertex -0.439992376674285 -39.3579260953086 -13.0
vertex -0.650561835020652 -39.4294047947308 -13.0
endloop
endfacet
facet normal 0.130526192220053 -0.99144486137381 0.0
outer loop
vertex -0.221894526774088 -39.3145437356645 -13.0
vertex -0.439992376674285 -39.3579260953086 -18.0
vertex -0.221894526774088 -39.3145437356645 -18.0
endloop
endfacet
facet normal 0.25881904510252 -0.965925826289069 -1.50926909231542e-031
outer loop
vertex -0.439992376674285 -39.3579260953086 -18.0
vertex -0.221894526774088 -39.3145437356645 -13.0
vertex -0.439992376674285 -39.3579260953086 -13.0
endloop
endfacet
facet normal 4.16130049792622e-016 -1.0 0.0
outer loop
vertex -1.40998324127395e-015 -39.3 -13.0
vertex -0.221894526774088 -39.3145437356645 -18.0
vertex -1.40998324127395e-015 -39.3 -18.0
endloop
endfacet
facet normal 0.130526192220053 -0.99144486137381 0.0
outer loop
vertex -0.221894526774088 -39.3145437356645 -18.0
vertex -1.40998324127395e-015 -39.3 -13.0
vertex -0.221894526774088 -39.3145437356645 -13.0
endloop
endfacet
facet normal -0.130526192220053 -0.99144486137381 0.0
outer loop
vertex 0.221894526774088 -39.3145437356645 -13.0
vertex -1.40998324127395e-015 -39.3 -18.0
vertex 0.221894526774088 -39.3145437356645 -18.0
endloop
endfacet
facet normal 4.16130049792622e-016 -1.0 0.0
outer loop
vertex -1.40998324127395e-015 -39.3 -18.0
vertex 0.221894526774088 -39.3145437356645 -13.0
vertex -1.40998324127395e-015 -39.3 -13.0
endloop
endfacet
facet normal -0.25881904510252 -0.965925826289069 -1.50926909231542e-031
outer loop
vertex 0.439992376674285 -39.3579260953086 -13.0
vertex 0.221894526774088 -39.3145437356645 -18.0
vertex 0.439992376674285 -39.3579260953086 -18.0
endloop
endfacet
facet normal -0.130526192220053 -0.99144486137381 0.0
outer loop
vertex 0.221894526774088 -39.3145437356645 -18.0
vertex 0.439992376674285 -39.3579260953086 -13.0
vertex 0.221894526774088 -39.3145437356645 -13.0
endloop
endfacet
facet normal -0.382683432365092 -0.923879532511286 -2.93875397865778e-031
outer loop
vertex 0.650561835020652 -39.4294047947308 -13.0
vertex 0.439992376674285 -39.3579260953086 -18.0
vertex 0.650561835020652 -39.4294047947308 -18.0
endloop
endfacet
facet normal -0.25881904510252 -0.965925826289069 -1.50926909231542e-031
outer loop
vertex 0.439992376674285 -39.3579260953086 -18.0
vertex 0.650561835020652 -39.4294047947308 -13.0
vertex 0.439992376674285 -39.3579260953086 -13.0
endloop
endfacet
facet normal -0.500000000000001 -0.866025403784438 -2.91423753223105e-019
outer loop
vertex 0.849999999999998 -39.5277568135665 -13.0
vertex 0.650561835020652 -39.4294047947308 -18.0
vertex 0.849999999999998 -39.5277568135665 -18.0
endloop
endfacet
facet normal -0.382683432365092 -0.923879532511286 -2.93875397865778e-031
outer loop
vertex 0.650561835020652 -39.4294047947308 -18.0
vertex 0.849999999999998 -39.5277568135665 -13.0
vertex 0.650561835020652 -39.4294047947308 -13.0
endloop
endfacet
facet normal -0.60876142900872 -0.793353340291236 -2.91423753222842e-019
outer loop
vertex 1.03489442931482 -39.6512993215049 -13.0
vertex 0.849999999999998 -39.5277568135665 -18.0
vertex 1.03489442931482 -39.6512993215049 -18.0
endloop
endfacet
facet normal -0.500000000000001 -0.866025403784438 -2.91423753223105e-019
outer loop
vertex 0.849999999999998 -39.5277568135665 -18.0
vertex 1.03489442931482 -39.6512993215049 -13.0
vertex 0.849999999999998 -39.5277568135665 -13.0
endloop
endfacet
facet normal -0.707106781186548 -0.707106781186548 2.24922491885865e-031
outer loop
vertex 1.20208152801713 -39.7979184719829 -13.0
vertex 1.03489442931482 -39.6512993215049 -18.0
vertex 1.20208152801713 -39.7979184719829 -18.0
endloop
endfacet
facet normal -0.60876142900872 -0.793353340291236 -2.91423753222842e-019
outer loop
vertex 1.03489442931482 -39.6512993215049 -18.0
vertex 1.20208152801713 -39.7979184719829 -13.0
vertex 1.03489442931482 -39.6512993215049 -13.0
endloop
endfacet
facet normal -0.707106781186548 -0.707106781186548 2.24922491885865e-031
outer loop
vertex 1.20208152801713 -39.7979184719829 -13.0
vertex 1.3487006784951 -39.9651055706852 -18.0
vertex 1.3487006784951 -39.9651055706852 -13.0
endloop
endfacet
facet normal -0.793353340291236 -0.60876142900872 1.05090146451317e-031
outer loop
vertex 1.3487006784951 -39.9651055706852 -18.0
vertex 1.20208152801713 -39.7979184719829 -13.0
vertex 1.20208152801713 -39.7979184719829 -18.0
endloop
endfacet
facet normal -0.793353340291236 -0.60876142900872 1.05090146451317e-031
outer loop
vertex 1.3487006784951 -39.9651055706852 -13.0
vertex 1.47224318643354 -40.15 -18.0
vertex 1.47224318643354 -40.15 -13.0
endloop
endfacet
facet normal -0.866025403784439 -0.5 7.04943933280627e-032
outer loop
vertex 1.47224318643354 -40.15 -18.0
vertex 1.3487006784951 -39.9651055706852 -13.0
vertex 1.3487006784951 -39.9651055706852 -18.0
endloop
endfacet
facet normal -0.866025403784439 -0.5 7.04943933280627e-032
outer loop
vertex 1.47224318643354 -40.15 -13.0
vertex 1.57059520526919 -40.3494381649794 -18.0
vertex 1.57059520526919 -40.3494381649794 -13.0
endloop
endfacet
facet normal -0.923879532511285 -0.382683432365093 1.72959957559529e-031
outer loop
vertex 1.57059520526919 -40.3494381649794 -18.0
vertex 1.47224318643354 -40.15 -13.0
vertex 1.47224318643354 -40.15 -18.0
endloop
endfacet
facet normal -0.923879532511285 -0.382683432365093 1.72959957559529e-031
outer loop
vertex 1.57059520526919 -40.3494381649794 -13.0
vertex 1.64207390469142 -40.5600076233257 -18.0
vertex 1.64207390469142 -40.5600076233257 -13.0
endloop
endfacet
facet normal -0.965925826289069 -0.258819045102519 1.02465564231466e-031
outer loop
vertex 1.64207390469142 -40.5600076233257 -18.0
vertex 1.57059520526919 -40.3494381649794 -13.0
vertex 1.57059520526919 -40.3494381649794 -18.0
endloop
endfacet
facet normal -0.965925826289069 -0.258819045102519 1.02465564231466e-031
outer loop
vertex 1.64207390469142 -40.5600076233257 -13.0
vertex 1.68545626433548 -40.7781054732259 -18.0
vertex 1.68545626433548 -40.7781054732259 -13.0
endloop
endfacet
facet normal -0.991444861373811 -0.130526192220045 0.0
outer loop
vertex 1.68545626433548 -40.7781054732259 -18.0
vertex 1.64207390469142 -40.5600076233257 -13.0
vertex 1.64207390469142 -40.5600076233257 -18.0
endloop
endfacet
facet normal -0.991444861373811 -0.130526192220045 0.0
outer loop
vertex 1.68545626433548 -40.7781054732259 -13.0
vertex 1.7 -41.0 -18.0
vertex 1.7 -41.0 -13.0
endloop
endfacet
facet normal -1.0 -1.66894711459381e-015 0.0
outer loop
vertex 1.7 -41.0 -18.0
vertex 1.68545626433548 -40.7781054732259 -13.0
vertex 1.68545626433548 -40.7781054732259 -18.0
endloop
endfacet
facet normal -1.0 -1.66894711459381e-015 0.0
outer loop
vertex 1.7 -41.0 -13.0
vertex 1.68545626433548 -41.2218945267741 -18.0
vertex 1.68545626433548 -41.2218945267741 -13.0
endloop
endfacet
facet normal -0.991444861373811 0.130526192220048 0.0
outer loop
vertex 1.68545626433548 -41.2218945267741 -18.0
vertex 1.7 -41.0 -13.0
vertex 1.7 -41.0 -18.0
endloop
endfacet
facet normal -0.991444861373811 0.130526192220048 0.0
outer loop
vertex 1.68545626433548 -41.2218945267741 -13.0
vertex 1.64207390469142 -41.4399923766743 -18.0
vertex 1.64207390469142 -41.4399923766743 -13.0
endloop
endfacet
facet normal -0.965925826289067 0.258819045102526 0.0
outer loop
vertex 1.64207390469142 -41.4399923766743 -18.0
vertex 1.68545626433548 -41.2218945267741 -13.0
vertex 1.68545626433548 -41.2218945267741 -18.0
endloop
endfacet
facet normal -0.965925826289067 0.258819045102526 0.0
outer loop
vertex 1.64207390469142 -41.4399923766743 -13.0
vertex 1.57059520526918 -41.6505618350207 -18.0
vertex 1.57059520526918 -41.6505618350207 -13.0
endloop
endfacet
facet normal -0.923879532511288 0.382683432365087 1.23120225576841e-031
outer loop
vertex 1.57059520526918 -41.6505618350207 -18.0
vertex 1.64207390469142 -41.4399923766743 -13.0
vertex 1.64207390469142 -41.4399923766743 -18.0
endloop
endfacet
facet normal -0.923879532511288 0.382683432365087 1.23120225576841e-031
outer loop
vertex 1.57059520526918 -41.6505618350207 -13.0
vertex 1.47224318643354 -41.85 -18.0
vertex 1.47224318643354 -41.85 -13.0
endloop
endfacet
facet normal -0.866025403784443 0.499999999999993 -5.39794262747764e-032
outer loop
vertex 1.47224318643354 -41.85 -18.0
vertex 1.57059520526918 -41.6505618350207 -13.0
vertex 1.57059520526918 -41.6505618350207 -18.0
endloop
endfacet
facet normal -0.866025403784443 0.499999999999993 -5.39794262747764e-032
outer loop
vertex 1.47224318643354 -41.85 -13.0
vertex 1.3487006784951 -42.0348944293148 -18.0
vertex 1.3487006784951 -42.0348944293148 -13.0
endloop
endfacet
facet normal -0.793353340291234 0.608761429008723 -3.87279944754253e-031
outer loop
vertex 1.3487006784951 -42.0348944293148 -18.0
vertex 1.47224318643354 -41.85 -13.0
vertex 1.47224318643354 -41.85 -18.0
endloop
endfacet
facet normal -0.793353340291234 0.608761429008723 -3.87279944754253e-031
outer loop
vertex 1.3487006784951 -42.0348944293148 -13.0
vertex 1.20208152801713 -42.2020815280171 -18.0
vertex 1.20208152801713 -42.2020815280171 -13.0
endloop
endfacet
facet normal -0.707106781186548 0.707106781186547 -4.49844983771729e-031
outer loop
vertex 1.20208152801713 -42.2020815280171 -18.0
vertex 1.3487006784951 -42.0348944293148 -13.0
vertex 1.3487006784951 -42.0348944293148 -18.0
endloop
endfacet
facet normal -0.608761429008719 0.793353340291236 2.53836686580935e-032
outer loop
vertex 1.03489442931482 -42.3487006784951 -13.0
vertex 1.20208152801713 -42.2020815280171 -18.0
vertex 1.03489442931482 -42.3487006784951 -18.0
endloop
endfacet
facet normal -0.707106781186548 0.707106781186547 -4.49844983771729e-031
outer loop
vertex 1.20208152801713 -42.2020815280171 -18.0
vertex 1.03489442931482 -42.3487006784951 -13.0
vertex 1.20208152801713 -42.2020815280171 -13.0
endloop
endfacet
facet normal -0.499999999999991 0.866025403784444 -2.0848617741287e-032
outer loop
vertex 0.849999999999998 -42.4722431864336 -13.0
vertex 1.03489442931482 -42.3487006784951 -18.0
vertex 0.849999999999998 -42.4722431864336 -18.0
endloop
endfacet
facet normal -0.608761429008719 0.793353340291236 2.53836686580935e-032
outer loop
vertex 1.03489442931482 -42.3487006784951 -18.0
vertex 0.849999999999998 -42.4722431864336 -13.0
vertex 1.03489442931482 -42.3487006784951 -13.0
endloop
endfacet
facet normal -0.38268343236509 0.923879532511287 1.59568411946076e-032
outer loop
vertex 0.650561835020652 -42.5705952052692 -13.0
vertex 0.849999999999998 -42.4722431864336 -18.0
vertex 0.650561835020652 -42.5705952052692 -18.0
endloop
endfacet
facet normal -0.499999999999991 0.866025403784444 -2.0848617741287e-032
outer loop
vertex 0.849999999999998 -42.4722431864336 -18.0
vertex 0.650561835020652 -42.5705952052692 -13.0
vertex 0.849999999999998 -42.4722431864336 -13.0
endloop
endfacet
facet normal -0.258819045102524 0.965925826289068 3.01853818463082e-031
outer loop
vertex 0.439992376674282 -42.6420739046914 -13.0
vertex 0.650561835020652 -42.5705952052692 -18.0
vertex 0.439992376674282 -42.6420739046914 -18.0
endloop
endfacet
facet normal -0.38268343236509 0.923879532511287 1.59568411946076e-032
outer loop
vertex 0.650561835020652 -42.5705952052692 -18.0
vertex 0.439992376674282 -42.6420739046914 -13.0
vertex 0.650561835020652 -42.5705952052692 -13.0
endloop
endfacet
facet normal -0.130526192220053 0.99144486137381 0.0
outer loop
vertex 0.221894526774085 -42.6854562643355 -13.0
vertex 0.439992376674282 -42.6420739046914 -18.0
vertex 0.221894526774085 -42.6854562643355 -18.0
endloop
endfacet
facet normal -0.258819045102524 0.965925826289068 3.01853818463082e-031
outer loop
vertex 0.439992376674282 -42.6420739046914 -18.0
vertex 0.221894526774085 -42.6854562643355 -13.0
vertex 0.439992376674282 -42.6420739046914 -13.0
endloop
endfacet
facet normal 0.0 0.0 1.0
outer loop
vertex 11.0 -61.0 -11.0
vertex 9.8 -36.5 -11.0
vertex 9.8 -58.0 -11.0
endloop
endfacet
facet normal 0.0 0.0 1.0
outer loop
vertex 9.8 -36.5 -11.0
vertex 11.0 -61.0 -11.0
vertex 12.5 -36.5 -11.0
endloop
endfacet
facet normal 0.0 0.0 1.0
outer loop
vertex 12.5 -36.5 -11.0
vertex 11.0 -61.0 -11.0
vertex 12.5 -61.0 -11.0
endloop
endfacet
facet normal -0.928476690885259 -0.371390676354105 0.0
outer loop
vertex 9.8 -58.0 -11.0
vertex 11.0 -61.0 -15.0
vertex 11.0 -61.0 -11.0
endloop
endfacet
facet normal -0.928476690885259 -0.371390676354105 0.0
outer loop
vertex 11.0 -61.0 -15.0
vertex 9.8 -58.0 -11.0
vertex 9.8 -58.0 -15.0
endloop
endfacet
facet normal 0.928476690885259 -0.371390676354104 2.30732578745725e-031
outer loop
vertex -9.8 -58.0 -15.0
vertex -11.0 -61.0 -11.0
vertex -11.0 -61.0 -15.0
endloop
endfacet
facet normal 0.928476690885259 -0.371390676354104 2.30732578745725e-031
outer loop
vertex -11.0 -61.0 -11.0
vertex -9.8 -58.0 -15.0
vertex -9.8 -58.0 -11.0
endloop
endfacet
endsolid motor_mount_v04
